<svg width="16" height="16" viewBox="0 0 16 16" fill="none" xmlns="http://www.w3.org/2000/svg">
<path d="M14.75 2H2.25C1.5599 2 1 2.57589 1 3.28571V12.7143C1 13.4241 1.5599 14 2.25 14H14.75C15.4401 14 16 13.4241 16 12.7143V3.28571C16 2.57589 15.4401 2 14.75 2ZM14.75 12.7143H2.25V3.28571H14.75V12.7143ZM6.41667 8C7.33594 8 8.08333 7.23125 8.08333 6.28571C8.08333 5.34018 7.33594 4.57143 6.41667 4.57143C5.4974 4.57143 4.75 5.34018 4.75 6.28571C4.75 7.23125 5.4974 8 6.41667 8ZM4.08333 11.4286H8.75C9.07292 11.4286 9.33333 11.1982 9.33333 10.9143V10.4C9.33333 9.54821 8.54948 8.85714 7.58333 8.85714C7.30208 8.85714 7.09635 9.07143 6.41667 9.07143C5.71615 9.07143 5.54688 8.85714 5.25 8.85714C4.28385 8.85714 3.5 9.54821 3.5 10.4V10.9143C3.5 11.1982 3.76042 11.4286 4.08333 11.4286ZM10.375 9.71429H13.2917C13.4062 9.71429 13.5 9.61786 13.5 9.5V9.07143C13.5 8.95357 13.4062 8.85714 13.2917 8.85714H10.375C10.2604 8.85714 10.1667 8.95357 10.1667 9.07143V9.5C10.1667 9.61786 10.2604 9.71429 10.375 9.71429ZM10.375 8H13.2917C13.4062 8 13.5 7.90357 13.5 7.78571V7.35714C13.5 7.23929 13.4062 7.14286 13.2917 7.14286H10.375C10.2604 7.14286 10.1667 7.23929 10.1667 7.35714V7.78571C10.1667 7.90357 10.2604 8 10.375 8ZM10.375 6.28571H13.2917C13.4062 6.28571 13.5 6.18929 13.5 6.07143V5.64286C13.5 5.525 13.4062 5.42857 13.2917 5.42857H10.375C10.2604 5.42857 10.1667 5.525 10.1667 5.64286V6.07143C10.1667 6.18929 10.2604 6.28571 10.375 6.28571Z" fill="#2F3443" fill-opacity="0.9"/>
</svg>
