<svg width="137" height="147" viewBox="0 0 137 147" fill="none" xmlns="http://www.w3.org/2000/svg">
<g clip-path="url(#clip0_536_895)">
<path d="M133.366 72.949H126.584V57.4662H133.366V72.949ZM126.897 72.6368H133.053V57.7785H126.897V72.6368Z" fill="#CAD9EA"/>
<path d="M130.13 0H129.817V57.6223H130.13V0Z" fill="#CAD9EA"/>
<path d="M123.386 80.1299H116.603V64.6472H123.386V80.1299ZM116.916 79.8177H123.073V64.9594H116.916V79.8177Z" fill="#CAD9EA"/>
<path d="M120.152 0H119.839V64.8033H120.152V0Z" fill="#CAD9EA"/>
<path d="M113.405 63.3796H106.622V47.8937H113.405V63.3796ZM106.935 63.0674H113.092V48.206H106.935V63.0674Z" fill="#CAD9EA"/>
<path d="M110.171 0H109.859V48.0498H110.171V0Z" fill="#CAD9EA"/>
<path d="M136.994 92.0721C136.9 93.5489 124.678 120.63 123.467 130.868H91.7465C91.7465 130.868 91.5117 126.431 91.6213 121.061C91.7121 116.312 92.0751 110.83 93.1017 107.062C95.2925 99.0407 101.702 87.0985 103.874 84.9567C105.953 82.9055 131.729 85.9246 134.687 86.6739C134.775 86.6893 134.86 86.7166 134.941 86.7551C135.873 87.314 137.085 90.5891 136.994 92.0721Z" fill="#EA0000"/>
<path d="M120.619 102.285C119.758 107.511 117.861 112.541 116.675 117.702C116.049 120.408 115.522 123.131 115.095 125.872C114.838 127.505 114.716 129.216 114.425 130.868H91.7465C91.7465 130.868 91.5117 126.431 91.6213 121.061C91.6557 121.078 91.6857 121.103 91.7089 121.133C92.6479 113.762 95.0484 106.574 99.0483 100.28C101.295 96.7428 104.131 93.4989 107.69 91.226C110.638 89.3527 115.217 87.4794 118.331 90.077C119.874 91.3665 120.49 93.4365 120.781 95.3535C121.094 97.658 121.039 99.9973 120.619 102.285Z" fill="#AC5C32"/>
<path d="M136.994 92.0721C136.9 93.5489 124.678 120.63 123.467 130.868H120.716C120.766 129.788 120.9 128.773 120.951 128.058C121.799 116.283 125.585 104.907 131.964 94.9632C133.078 93.2148 134.271 91.4008 134.712 89.3714C134.916 88.4827 134.907 87.5587 134.687 86.6739C134.775 86.6893 134.86 86.7166 134.941 86.7551C135.873 87.3139 137.085 90.5891 136.994 92.0721Z" fill="#AC5C32"/>
<path d="M104.56 61.0411C103.161 61.0411 107.621 56.7169 111.304 58.4341C116.503 60.8569 121.689 80.8792 115.852 89.8522C111.289 96.8708 100.259 98.3351 98.7165 102.787C97.1735 107.239 97.9028 109.107 97.9028 109.107C97.9028 109.107 88.7951 101.894 90.1941 94.3575C91.5931 86.8206 101.511 81.0478 105.649 79.7459C109.787 78.4439 105.402 61.0411 104.56 61.0411Z" fill="#23274C"/>
<path d="M68.5046 119.634C68.5046 119.634 64.6206 120.618 64.22 120.618C63.8194 120.618 60.8054 120.187 60.048 120.446C59.2906 120.705 58.289 121.071 58.289 121.071C58.289 121.071 56.818 121.202 56.1483 121.592C55.4785 121.982 53.0185 123.918 52.9621 124.13C52.9058 124.343 53.8447 124.13 53.8447 124.13C53.8447 124.13 52.5928 125.148 52.7399 125.348C52.887 125.548 55.1436 124.861 56.3955 123.996C56.7867 123.728 58.7929 123.425 59.0903 123.437C59.3876 123.45 61.7506 124.305 61.7474 124.511C61.7474 125.136 60.2451 125.395 59.4314 125.304C59.0214 125.257 57.3845 125.56 57.444 125.929C57.5035 126.297 60.8179 126.372 61.4814 126.472C62.1449 126.572 65.6628 124.895 65.9007 124.873C66.1385 124.852 69.8223 124.683 69.8223 124.683C69.8223 124.683 69.9537 120.168 68.5046 119.634Z" fill="#FFD0B6"/>
<path d="M99.8557 93.2898C96.51 94.4106 83.8782 114.583 83.5652 114.895C83.2522 115.207 66.2105 119.407 66.0853 119.778C65.9601 120.15 65.2403 123.793 67.8912 125.114C68.3889 125.364 86.576 123.34 88.3225 122.897C90.5133 122.338 101.849 106.749 102.535 104.642C103.22 102.534 102.031 92.5623 99.8557 93.2898Z" fill="#2D496B"/>
<path d="M68.5861 118.448C68.4828 118.401 65.8068 119.107 65.7036 119.26C65.6003 119.413 65.7036 121.979 65.9665 122.931C66.2294 123.884 67.4781 125.357 67.6284 125.429C67.7786 125.501 70.5015 125.307 70.5078 125.098C70.5078 124.786 69.428 122.632 69.2559 121.848C69.0994 121.242 68.7363 118.523 68.5861 118.448Z" fill="#395F84"/>
<path d="M68.558 123.843H68.5423C68.4439 123.843 68.3477 123.872 68.2658 123.927C68.184 123.981 68.1202 124.059 68.0826 124.149C68.0449 124.24 68.035 124.34 68.0542 124.436C68.0734 124.533 68.1208 124.621 68.1904 124.69C68.26 124.76 68.3487 124.807 68.4452 124.826C68.5418 124.845 68.6418 124.836 68.7327 124.798C68.8237 124.76 68.9014 124.697 68.9561 124.615C69.0108 124.534 69.0399 124.438 69.0399 124.339V124.321C69.0383 124.194 68.9869 124.073 68.8968 123.984C68.8067 123.894 68.685 123.844 68.558 123.843Z" fill="#2D496B"/>
<path d="M115.57 130.094C114.944 131.233 110.331 131.967 106.028 131.617C103.884 131.442 101.815 130.993 100.356 130.193C99.9697 129.99 99.611 129.737 99.2892 129.441C95.7432 126.135 94.6728 114.224 94.2503 114.036C93.8278 113.849 90.9859 109.572 91.9186 106.64C92.4976 104.823 94.6947 101.073 96.7698 98.104C98.0467 96.2807 99.2736 94.754 100.047 94.1545C101.411 93.1024 102.15 92.7183 103.364 92.4654C103.965 92.3437 104.682 92.25 105.646 92.122C107.345 91.9003 109.827 92.3874 111.849 93.2366C112.474 93.4928 113.073 93.8064 113.639 94.1733C114.403 94.6728 114.966 95.2317 115.204 95.8061C116.328 98.6005 113.43 114.089 113.99 118.37C114.55 122.65 116.597 128.233 115.57 130.094Z" fill="#EDF3F7"/>
<path d="M107.956 113.986C106.265 114.895 104.641 115.704 102.666 115.651C100.817 115.604 98.9449 114.939 97.1922 114.402C97.1844 114.398 97.1755 114.398 97.1676 114.402C97.1596 114.405 97.1533 114.411 97.15 114.419C97.1467 114.427 97.1466 114.436 97.1498 114.443C97.1531 114.451 97.1593 114.458 97.1672 114.461C98.9606 115.326 100.795 116.113 102.832 116.122C104.782 116.122 106.456 115.185 108.053 114.168C108.077 114.155 108.095 114.133 108.103 114.107C108.11 114.081 108.108 114.053 108.095 114.029C108.082 114.005 108.06 113.987 108.034 113.979C108.008 113.971 107.98 113.974 107.956 113.986Z" fill="#CAD9EA"/>
<path d="M98.3848 113.996C97.254 113.613 96.0179 113.688 94.942 114.205C94.9013 114.224 94.942 114.283 94.9702 114.274C96.0684 114.031 97.206 114.026 98.3065 114.258C98.3402 114.265 98.3752 114.259 98.4047 114.241C98.4341 114.223 98.4559 114.195 98.4657 114.163C98.4755 114.13 98.4726 114.094 98.4577 114.064C98.4427 114.033 98.4167 114.009 98.3848 113.996Z" fill="#CAD9EA"/>
<path d="M103.709 94.5167C103.711 94.5124 103.713 94.5076 103.713 94.5027C103.714 94.4978 103.713 94.4928 103.712 94.488C103.711 94.4832 103.709 94.4788 103.706 94.4748C103.703 94.4709 103.699 94.4676 103.694 94.4652C103.69 94.4627 103.685 94.4611 103.68 94.4605C103.676 94.4599 103.671 94.4602 103.666 94.4615C103.661 94.4628 103.656 94.4651 103.652 94.4681C103.649 94.4711 103.645 94.4749 103.643 94.4792C102.128 97.2642 100.641 100.083 99.6398 103.103C98.6743 106.127 98.2578 109.299 98.4098 112.469C98.6286 118.966 100.006 125.372 102.479 131.386C102.513 131.474 102.657 131.436 102.623 131.346C100.267 125.435 98.9222 119.173 98.6445 112.819C98.4608 109.604 98.8529 106.383 99.8026 103.306C100.779 100.261 102.272 97.386 103.709 94.5167Z" fill="#CAD9EA"/>
<path d="M102.45 100.302C102.435 100.378 102.399 100.449 102.348 100.508C102.296 100.566 102.23 100.611 102.156 100.636C102.088 100.649 102.018 100.635 101.96 100.598C101.902 100.561 101.86 100.503 101.843 100.436C101.824 100.374 101.821 100.308 101.835 100.245C101.849 100.181 101.878 100.122 101.921 100.073C101.964 100.025 102.019 99.9876 102.08 99.9659C102.142 99.9441 102.208 99.9384 102.272 99.9492C102.297 99.9492 102.319 99.918 102.291 99.9055C102.198 99.8631 102.094 99.8499 101.993 99.8677C101.892 99.8856 101.799 99.9337 101.727 100.006C101.654 100.077 101.605 100.17 101.586 100.27C101.567 100.37 101.579 100.474 101.621 100.567C101.666 100.672 101.744 100.758 101.843 100.815C101.941 100.871 102.056 100.894 102.169 100.88C102.444 100.827 102.516 100.567 102.557 100.321C102.554 100.31 102.548 100.3 102.54 100.292C102.531 100.285 102.521 100.279 102.51 100.277C102.498 100.275 102.487 100.277 102.476 100.281C102.466 100.285 102.457 100.293 102.45 100.302Z" fill="#CAD9EA"/>
<path d="M100.807 105.922C100.791 105.998 100.756 106.068 100.704 106.126C100.653 106.184 100.587 106.228 100.513 106.253C100.446 106.266 100.376 106.253 100.317 106.217C100.259 106.18 100.217 106.123 100.2 106.056C100.181 105.994 100.179 105.928 100.192 105.864C100.206 105.801 100.236 105.742 100.279 105.693C100.321 105.644 100.376 105.606 100.437 105.584C100.499 105.562 100.564 105.556 100.629 105.566C100.654 105.566 100.673 105.535 100.648 105.525C100.555 105.482 100.451 105.467 100.35 105.484C100.248 105.502 100.155 105.549 100.082 105.621C100.009 105.693 99.9597 105.786 99.941 105.886C99.9224 105.987 99.9353 106.091 99.9778 106.184C100.022 106.289 100.099 106.376 100.197 106.432C100.296 106.489 100.41 106.511 100.522 106.496C100.801 106.446 100.873 106.184 100.914 105.941C100.932 105.881 100.826 105.841 100.807 105.922Z" fill="#CAD9EA"/>
<path d="M100.213 111.813C100.197 111.89 100.162 111.96 100.11 112.018C100.058 112.077 99.9923 112.12 99.9184 112.144C99.8505 112.157 99.7805 112.143 99.7224 112.106C99.6643 112.069 99.6225 112.011 99.6054 111.945C99.5871 111.882 99.5849 111.816 99.5991 111.753C99.6132 111.689 99.6433 111.631 99.6865 111.582C99.7296 111.533 99.7844 111.496 99.8458 111.475C99.9072 111.453 99.9731 111.447 100.037 111.457C100.059 111.457 100.081 111.426 100.053 111.414C99.9599 111.371 99.856 111.358 99.7552 111.376C99.6544 111.394 99.5615 111.442 99.4887 111.514C99.416 111.586 99.367 111.678 99.3481 111.778C99.3292 111.879 99.3415 111.982 99.3832 112.076C99.4275 112.18 99.5051 112.268 99.6041 112.324C99.7031 112.381 99.8179 112.403 99.9309 112.388C100.209 112.335 100.278 112.076 100.319 111.829C100.316 111.818 100.309 111.809 100.301 111.801C100.292 111.794 100.282 111.789 100.271 111.788C100.26 111.786 100.248 111.787 100.238 111.792C100.228 111.797 100.219 111.804 100.213 111.813Z" fill="#CAD9EA"/>
<path d="M100.569 117.43C100.554 117.507 100.518 117.577 100.467 117.636C100.415 117.695 100.349 117.739 100.275 117.764C100.207 117.777 100.137 117.763 100.079 117.726C100.021 117.689 99.9793 117.631 99.9622 117.564C99.9431 117.502 99.9403 117.436 99.954 117.373C99.9677 117.309 99.9974 117.25 100.04 117.202C100.083 117.153 100.138 117.116 100.199 117.094C100.261 117.072 100.327 117.067 100.391 117.077C100.416 117.077 100.438 117.046 100.41 117.034C100.316 116.991 100.211 116.979 100.11 116.998C100.009 117.017 99.9161 117.066 99.8438 117.139C99.7716 117.212 99.7235 117.306 99.706 117.407C99.6886 117.508 99.7026 117.612 99.7462 117.705C99.7914 117.809 99.8692 117.896 99.9679 117.952C100.067 118.008 100.181 118.031 100.294 118.017C100.569 117.964 100.641 117.705 100.682 117.458C100.682 117.445 100.678 117.432 100.67 117.421C100.662 117.41 100.65 117.402 100.637 117.399C100.624 117.396 100.61 117.397 100.598 117.403C100.585 117.408 100.575 117.418 100.569 117.43Z" fill="#CAD9EA"/>
<path d="M101.427 122.563C101.412 122.639 101.376 122.71 101.325 122.768C101.273 122.826 101.207 122.87 101.133 122.894C101.065 122.907 100.994 122.894 100.936 122.857C100.878 122.819 100.836 122.761 100.82 122.694C100.801 122.632 100.798 122.566 100.812 122.503C100.825 122.439 100.855 122.38 100.898 122.331C100.941 122.282 100.996 122.245 101.057 122.224C101.118 122.202 101.184 122.196 101.249 122.207C101.274 122.207 101.295 122.176 101.267 122.163C101.174 122.121 101.07 122.108 100.97 122.126C100.869 122.143 100.776 122.191 100.703 122.263C100.63 122.335 100.581 122.427 100.562 122.528C100.544 122.628 100.556 122.732 100.598 122.825C100.642 122.93 100.719 123.017 100.818 123.074C100.917 123.13 101.032 123.153 101.145 123.137C101.421 123.087 101.493 122.825 101.533 122.582C101.53 122.571 101.524 122.561 101.516 122.553C101.508 122.545 101.497 122.54 101.486 122.538C101.475 122.536 101.463 122.538 101.453 122.542C101.442 122.546 101.433 122.554 101.427 122.563Z" fill="#CAD9EA"/>
<path opacity="0.6" d="M113.639 94.1701C113.48 94.5042 113.326 94.8258 113.145 95.1255C112.208 96.7556 110.976 98.1976 109.511 99.3779C106.854 101.563 103.208 102.981 99.862 101.507C99.1354 101.189 98.4843 100.722 97.9515 100.135C97.4186 99.5487 97.0159 98.8565 96.7698 98.104C98.0467 96.2807 99.2736 94.754 100.047 94.1545C101.411 93.1024 102.15 92.7183 103.364 92.4654C103.965 92.3437 104.682 92.25 105.646 92.122C107.345 91.9003 109.827 92.3874 111.849 93.2366C112.474 93.4918 113.073 93.8043 113.639 94.1701Z" fill="#CAD9EA"/>
<path d="M90.6041 127.911C90.6041 127.911 86.889 128.336 86.6199 128.258C86.3507 128.18 82.9079 126.925 82.0629 126.797C81.2179 126.669 77.5685 127.293 77.0552 127.546C76.542 127.799 75.2838 128.667 75.2838 128.667C75.2838 128.667 73.0053 130.3 73.3339 130.468C74.1132 130.871 76.4919 129.001 76.7485 128.948C77.0052 128.895 79.365 128.636 79.365 128.636C79.365 128.636 76.5294 128.923 75.8722 129.291C75.3965 129.553 73.3277 131.33 73.4998 131.536C73.9286 132.051 76.1413 130.287 76.5482 130.206C77.1366 130.084 79.6999 129.834 79.6999 129.834C79.6999 129.834 77.1961 130.069 76.4512 130.387C75.7063 130.706 74.3417 131.895 74.5076 132.067C74.7674 132.342 76.5952 131.424 76.8455 131.308C77.0959 131.193 79.4808 131.024 79.4808 131.024C79.4808 131.024 77.8502 131.28 76.977 131.798C76.4293 132.11 75.6312 132.607 75.8409 132.857C76.0506 133.106 78.135 132.317 78.6139 132.298C79.3511 132.242 80.0907 132.223 80.8298 132.242C81.1427 132.298 83.4087 133.2 84.0253 133.2C84.6418 133.2 86.6073 132.476 86.7795 132.435C86.9516 132.395 91.4147 132.707 91.4147 132.707C91.4147 132.707 92.1658 129.007 90.6041 127.911Z" fill="#FFD0B6"/>
<path d="M115.57 130.094C114.944 131.233 110.331 131.967 106.028 131.617C105.871 131.09 105.136 128.832 104.444 125.651C104.444 125.651 104.444 125.632 104.444 125.598C103.552 121.455 102.738 115.763 103.377 110.271C104.106 103.977 109.702 94.9382 111.301 92.8682C112.929 93.5489 115.783 94.7415 116.171 95.7187C117.295 98.5099 113.436 114.086 113.996 118.367C114.556 122.647 116.597 128.233 115.57 130.094Z" fill="#2D496B"/>
<path d="M119.558 117.895C119.655 125.279 118.932 129.881 118.199 130.643C117.329 131.53 105.389 133.141 92.5728 133.313H91.2207C91.0074 133.299 90.8072 133.205 90.6605 133.05C90.3997 132.787 90.1878 132.479 90.0345 132.142C89.1801 130.409 88.7419 127.315 89.3898 126.89C89.7934 126.708 90.2123 126.562 90.6417 126.453C93.6995 125.532 101.414 123.643 104.704 122.863L105.192 122.747L106.178 122.513C107.223 122.266 109.424 121.979 109.424 121.979C109.424 121.979 108.272 115.651 107.968 110.964C107.927 110.287 107.899 109.644 107.899 109.057C107.931 108.297 108.056 107.544 108.272 106.815C108.422 106.237 108.616 105.616 108.838 104.963C109.462 103.175 110.215 101.435 111.092 99.7557C112.738 96.6335 114.653 94.2451 115.893 95.2036C117.608 96.5555 119.442 110.524 119.558 117.895Z" fill="#2D496B"/>
<path d="M90.4664 125.985C90.3537 125.929 87.3366 126.703 87.227 126.875C87.1175 127.046 87.1989 129.928 87.4993 130.996C87.7998 132.064 89.1769 133.728 89.3459 133.806C89.5149 133.884 92.5727 133.684 92.5821 133.453C92.5821 133.091 91.3834 130.677 91.1831 129.797C91.0235 129.123 90.6354 126.069 90.4664 125.985Z" fill="#395F84"/>
<path d="M90.4006 132.039H90.3724C90.2616 132.038 90.1531 132.07 90.0607 132.131C89.9682 132.192 89.8959 132.279 89.8529 132.381C89.81 132.483 89.7982 132.595 89.8192 132.704C89.8403 132.812 89.8931 132.912 89.971 132.991C90.0489 133.069 90.1484 133.123 90.2569 133.145C90.3655 133.167 90.4782 133.157 90.5808 133.115C90.6834 133.073 90.7713 133.002 90.8334 132.911C90.8955 132.819 90.9289 132.711 90.9295 132.601V132.579C90.928 132.438 90.8722 132.304 90.7736 132.203C90.6751 132.102 90.5415 132.044 90.4006 132.039Z" fill="#2D496B"/>
<path d="M111.486 122.201C110.804 122.179 110.14 122.141 109.477 122.141C109.435 122.159 109.387 122.159 109.345 122.141C108.893 122.144 108.442 122.171 107.993 122.223C106.76 122.395 105.541 122.654 104.344 122.997C102.122 123.593 99.8839 124.293 97.6085 124.67C97.5898 124.67 97.5866 124.642 97.6085 124.639C99.6552 123.872 101.745 123.226 103.868 122.703L104.397 122.566L104.92 122.429C106.304 122.018 107.733 121.774 109.176 121.701C108.451 118.705 108.049 115.641 107.978 112.56C107.978 112.56 107.999 112.541 107.999 112.56C108.388 115.636 108.909 118.685 109.564 121.707C110.229 121.717 110.888 121.832 111.517 122.048C111.58 122.076 111.583 122.207 111.486 122.201Z" fill="#CAD9EA"/>
<path d="M111.289 92.8682C111.289 92.8682 111.248 96.8115 111.189 100.084C111.148 102.31 111.098 104.227 111.051 104.38C111.004 104.533 109.855 104.904 108.738 105.216C107.621 105.529 106.519 105.756 106.519 105.756C106.519 105.756 107.361 106.415 108.1 107.046C108.507 107.352 108.872 107.712 109.186 108.114C109.242 108.27 108.519 109.553 107.636 111.18C106.413 113.437 104.87 116.347 104.654 117.792C104.474 119.38 104.392 120.978 104.406 122.575L103.878 122.713C103.252 119.01 102.864 114.595 103.364 110.284C104.094 103.967 109.693 94.9382 111.289 92.8682Z" fill="#1F3449"/>
<path d="M95.7432 107.061C95.233 110.546 96.3691 117.258 97.7619 122.638C98.657 126.147 99.6554 129.082 100.353 130.187C99.9674 129.983 99.6088 129.732 99.2861 129.438C95.7401 126.132 94.6697 114.217 94.2472 114.033C93.8246 113.849 90.9891 109.587 91.9217 106.643C92.8544 103.699 98.0092 95.7312 100.059 94.1545C101.424 93.1024 102.162 92.7183 103.377 92.4655C101.818 94.2076 96.5569 101.517 95.7432 107.061Z" fill="#2D496B"/>
<path d="M97.762 122.638C95.0703 117.883 93.1487 106.859 93.2081 106.456C93.2676 106.053 95.762 103.958 95.762 103.958C95.762 103.958 93.8842 103.271 94.05 102.965C95.9029 99.3779 103.126 92.6622 103.358 92.453C101.818 94.192 96.557 101.507 95.7433 107.046C95.2331 110.546 96.3974 117.258 97.762 122.638Z" fill="#1F3449"/>
<path d="M94.316 113.958C93.2926 112.247 92.1033 110.524 92.0282 108.482C91.953 106.44 93.0578 104.654 93.8747 102.878C93.8822 102.865 93.8841 102.849 93.88 102.834C93.8759 102.82 93.8661 102.807 93.8528 102.8C93.8395 102.792 93.8238 102.79 93.8092 102.795C93.7945 102.799 93.782 102.808 93.7746 102.822C93.4209 103.377 93.0516 103.958 92.723 104.561C92.8294 104.167 92.9201 103.765 93.0547 103.384C93.0766 103.315 92.964 103.265 92.9327 103.334C92.6572 103.942 92.3286 104.645 92.3067 105.322C92.3067 105.322 92.3067 105.338 92.3067 105.344C91.8302 106.289 91.5765 107.331 91.5649 108.388C91.5994 110.621 92.9452 112.251 94.1001 114.052C94.1001 114.052 94.5163 115.925 94.6446 116.091C94.6759 116.131 94.7135 116.128 94.7041 116.091C94.6603 115.832 94.3661 113.958 94.316 113.958Z" fill="#CAD9EA"/>
<path d="M107.151 88.7252C104.234 88.3786 100.976 91.5913 100.175 92.7278C98.9231 94.5199 98.7166 99.3186 98.7166 99.3186C98.7166 99.3186 102.025 96.1965 102.835 96.312C103.53 96.4025 104.654 101.058 104.654 101.058C104.654 101.058 110.625 96.0778 111.279 93.0087C111.517 91.8879 110.168 89.0873 107.151 88.7252Z" fill="#EDF3F7"/>
<path d="M101.233 83.0178L101.358 91.5725V92.787C101.358 92.787 101.878 96.1964 102.82 96.3119C104.92 96.568 108.478 92.9338 108.744 92.2844C109.01 91.635 110.046 80.1798 110.046 80.1798L109.06 80.492L101.233 83.0178Z" fill="#FFD0B6"/>
<path d="M101.233 83.0179L101.358 91.5725C103.298 91.0449 105.114 89.7149 106.475 87.851C108.009 85.7778 108.848 83.1677 109.076 80.4983L101.233 83.0179Z" fill="#CFA89C"/>
<path d="M93.6963 62.4429C93.6963 62.4429 90.1002 64.3974 88.6886 69.8861C87.2771 75.3749 93.3583 79.7521 93.3583 79.7521L97.5365 63.5575L93.6963 62.4429Z" fill="#23274C"/>
<path d="M109.098 64.3755C111.705 68.3938 111.73 79.4836 109.017 83.6767C107.161 86.549 102.372 88.1101 98.4755 87.2047C96.696 86.846 95.1222 85.8202 94.0781 84.3386C90.7418 79.4243 91.349 66.661 93.6963 64.2351C97.8464 59.9452 105.909 59.4644 109.098 64.3755Z" fill="#FFD0B6"/>
<path d="M100.172 75.6683C100.172 75.6402 100.228 75.6964 100.231 75.7245C100.275 76.4082 100.444 77.1857 101.086 77.3511C101.105 77.3511 101.108 77.3917 101.086 77.3917C100.316 77.3574 100.106 76.324 100.172 75.6683Z" fill="#23274C"/>
<path d="M100.713 74.894C101.806 74.7036 102.109 76.8984 101.095 77.0795C100.081 77.2606 99.7963 75.0564 100.713 74.894Z" fill="#23274C"/>
<path d="M101.032 74.9096C101.227 74.9752 101.436 75.1282 101.643 75.097C101.849 75.0657 102.009 74.8191 102.115 74.5912C102.115 74.5662 102.147 74.5912 102.153 74.5912C102.247 74.9565 102.2 75.3686 101.818 75.5278C101.436 75.6871 101.136 75.4029 100.954 75.0564C100.92 74.9971 100.954 74.8815 101.032 74.9096Z" fill="#23274C"/>
<path d="M94.8137 76.2303C94.8137 76.2053 94.7636 76.2678 94.7698 76.2959C94.8857 76.9734 94.9013 77.7695 94.316 78.0786C94.3004 78.0786 94.316 78.1223 94.316 78.1161C95.0672 77.9069 95.0328 76.8516 94.8137 76.2303Z" fill="#23274C"/>
<path d="M94.1063 75.6028C92.9984 75.6715 93.2175 77.8757 94.2409 77.8133C95.2644 77.7508 95.0359 75.556 94.1063 75.6028Z" fill="#23274C"/>
<path d="M93.6744 75.7776C93.5179 75.9119 93.3802 76.1304 93.1768 76.1804C92.9733 76.2303 92.7323 76.0586 92.5508 75.8838C92.5289 75.865 92.5164 75.8838 92.5195 75.9119C92.5665 76.2834 92.7668 76.6487 93.1737 76.6456C93.5805 76.6425 93.7621 76.2772 93.7996 75.89C93.8121 75.8182 93.7339 75.7214 93.6744 75.7776Z" fill="#23274C"/>
<path d="M100.751 82.075C100.632 82.2717 100.532 82.5277 100.294 82.612C100.046 82.6734 99.788 82.6819 99.5365 82.6369C99.5316 82.6365 99.5267 82.6374 99.5223 82.6398C99.518 82.6421 99.5144 82.6456 99.512 82.65C99.5097 82.6543 99.5087 82.6592 99.5091 82.6641C99.5096 82.669 99.5115 82.6737 99.5146 82.6775C99.6451 82.781 99.8008 82.848 99.9658 82.8716C100.131 82.8952 100.299 82.8746 100.454 82.8118C100.58 82.741 100.682 82.6343 100.747 82.5053C100.812 82.3763 100.838 82.2308 100.82 82.0875C100.823 82.0469 100.779 82.0469 100.751 82.075Z" fill="#CFA89C"/>
<path d="M94.0343 73.1706C93.5586 73.2143 92.8731 73.5453 92.895 74.0448C92.8991 74.1089 92.9276 74.1689 92.9748 74.2125C93.022 74.2561 93.0842 74.2799 93.1486 74.279C93.4931 74.2304 93.8298 74.1369 94.1501 74.0011C94.6728 73.8294 94.5914 73.1238 94.0343 73.1706Z" fill="#23274C"/>
<path d="M100.497 72.746C100.973 72.7023 101.709 72.9052 101.777 73.4017C101.784 73.4658 101.766 73.5301 101.727 73.5816C101.688 73.6331 101.631 73.6681 101.568 73.6795C101.221 73.6926 100.873 73.659 100.535 73.5796C99.9872 73.5016 99.9434 72.7897 100.497 72.746Z" fill="#23274C"/>
<path d="M97.2955 79.5117C97.2955 79.5117 97.3706 80.5701 97.4739 81.0727C97.4739 81.1165 97.6054 81.1133 97.7713 81.0883C97.7713 81.0883 97.7869 81.0883 97.7932 81.0883C98.2262 81.075 98.6472 80.9434 99.0103 80.7077C99.3735 80.4721 99.6648 80.1415 99.8526 79.7521C99.8745 79.699 99.8025 79.6615 99.7649 79.699C99.2352 80.2532 98.5404 80.6222 97.7838 80.7512C97.7212 80.6232 97.7149 78.9341 97.6367 78.9434C97.2658 79.0566 96.9121 79.2194 96.5851 79.4274C96.3629 77.2419 96.4943 75.0127 96.2408 72.824C96.2375 72.8087 96.229 72.795 96.2167 72.7851C96.2045 72.7753 96.1892 72.7699 96.1735 72.7699C96.1578 72.7699 96.1425 72.7753 96.1303 72.7851C96.118 72.795 96.1095 72.8087 96.1062 72.824C95.7932 75.1375 96.0029 77.6727 96.1751 79.9519C96.1938 80.2141 97.1171 79.6365 97.2955 79.5117Z" fill="#CFA89C"/>
<path d="M99.7462 81.922C99.5261 82.0051 99.2855 82.0182 99.0576 81.9594C98.2815 81.769 97.7838 80.7324 97.7838 80.7324C98.5546 80.5702 99.2639 80.1948 99.8307 79.649C99.9507 79.8879 100.05 80.1365 100.128 80.3921C100.303 80.9603 100.375 81.6909 99.7462 81.922Z" fill="#23274C"/>
<path d="M99.7462 81.922C99.526 82.0051 99.2855 82.0182 99.0576 81.9594C99.0889 81.4474 99.2767 80.6263 100.128 80.3984C100.303 80.9604 100.375 81.6909 99.7462 81.922Z" fill="#CFA89C"/>
<path d="M93.6963 62.4429C93.6963 62.4429 94.0093 66.8795 97.9027 69.4209C100.183 70.9309 102.938 71.5582 105.649 71.1849C105.649 71.1849 106.212 75.7589 110.215 76.5269C111.937 76.8391 112.697 65.7243 109.092 62.2493C105.486 58.7744 98.078 58.0937 93.6963 62.4429Z" fill="#23274C"/>
<path d="M108.985 76.2116C108.985 76.2116 110.826 72.3963 112.522 72.9958C114.218 73.5952 113.226 78.8529 111.508 79.8302C111.297 79.9712 111.059 80.0679 110.809 80.1145C110.559 80.161 110.302 80.1564 110.053 80.101C109.805 80.0455 109.571 79.9403 109.365 79.7918C109.159 79.6433 108.985 79.4545 108.854 79.237L108.985 76.2116Z" fill="#FFD0B6"/>
<path d="M112.2 74.4976C112.228 74.4976 112.24 74.5288 112.215 74.5444C111.02 75.2687 110.538 76.5644 110.265 77.8726C110.578 77.3356 111.048 76.9922 111.755 77.3418C111.793 77.3606 111.771 77.4168 111.733 77.4168C111.496 77.381 111.254 77.4198 111.04 77.5278C110.827 77.6358 110.652 77.8076 110.541 78.0193C110.355 78.374 110.208 78.7477 110.103 79.1339C110.062 79.2557 109.846 79.2307 109.868 79.0902C109.868 79.0902 109.868 79.0684 109.868 79.059C109.574 77.4293 110.481 74.9471 112.2 74.4976Z" fill="#CFA89C"/>
<path d="M110.678 79.1714C109.38 79.1714 109.38 81.1852 110.678 81.1852C111.977 81.1852 111.98 79.1714 110.678 79.1714Z" fill="#EDF3F7"/>
<path d="M37.307 132.473H73.4341L69.5563 110.499H33.4292L37.307 132.473Z" fill="#CAD9EA"/>
<path d="M37.3445 134.905H86.2787V132.476H37.3445V134.905Z" fill="#CAD9EA"/>
<path d="M55.3314 121.948C55.3314 122.323 55.22 122.689 55.0112 123.001C54.8025 123.312 54.5058 123.555 54.1587 123.699C53.8115 123.842 53.4295 123.88 53.061 123.807C52.6925 123.733 52.354 123.553 52.0883 123.288C51.8226 123.023 51.6417 122.685 51.5684 122.318C51.4951 121.95 51.5327 121.569 51.6765 121.223C51.8203 120.876 52.0638 120.58 52.3762 120.372C52.6886 120.164 53.0559 120.053 53.4316 120.053C53.9355 120.053 54.4187 120.252 54.775 120.608C55.1313 120.963 55.3314 121.445 55.3314 121.948Z" fill="white"/>
<path d="M86.72 80.4577L82.0848 78.1317H63.7787C63.5355 78.1317 63.3023 78.0353 63.1303 77.8638C62.9583 77.6922 62.8617 77.4595 62.8617 77.2169V62.5834C62.8617 62.3408 62.9583 62.1081 63.1303 61.9366C63.3023 61.765 63.5355 61.6686 63.7787 61.6686H85.0331C85.2763 61.6686 85.5095 61.765 85.6815 61.9366C85.8535 62.1081 85.9501 62.3408 85.9501 62.5834V75.225L87.7967 79.315C87.8656 79.468 87.8875 79.638 87.8597 79.8034C87.8319 79.9689 87.7556 80.1224 87.6405 80.2446C87.5253 80.3668 87.3764 80.4523 87.2126 80.4902C87.0488 80.5282 86.8774 80.5169 86.72 80.4577Z" fill="#EA0000"/>
<path d="M65.8037 71.2255H82.8485" stroke="white" stroke-miterlimit="10"/>
<path d="M65.8037 69.0338H72.3418" stroke="white" stroke-miterlimit="10"/>
<path d="M73.7877 69.0338H82.8484" stroke="white" stroke-miterlimit="10"/>
<path d="M65.8037 73.1831H74.8644" stroke="white" stroke-miterlimit="10"/>
<path d="M65.8037 66.842H77.0928" stroke="white" stroke-miterlimit="10"/>
<path d="M65.8037 75.3156H79.509" stroke="white" stroke-miterlimit="10"/>
<path d="M65.8037 64.6503H82.8485" stroke="white" stroke-miterlimit="10"/>
<path d="M20.4688 132.232H22.1338L28.5373 104.601H26.8723L20.4688 132.232Z" fill="#CAD9EA"/>
<path d="M26.8723 104.601L28.0867 105.738L51.776 88.235L50.5585 87.0985L26.8723 104.601Z" fill="#CAD9EA"/>
<path d="M50.9027 87.2702L50.0295 88.6845L56.7492 94.7196L57.6224 93.3053L50.9027 87.2702Z" fill="#CAD9EA"/>
<path d="M32.5435 134.205H17.5831V132.395C17.5831 131.826 17.8096 131.28 18.2129 130.878C18.6161 130.476 19.163 130.25 19.7333 130.25H30.3745C30.6585 130.247 30.9401 130.301 31.2031 130.408C31.4662 130.514 31.7054 130.672 31.9071 130.871C32.1087 131.071 32.2688 131.308 32.378 131.569C32.4872 131.831 32.5435 132.111 32.5435 132.395V134.205Z" fill="#335991"/>
<path d="M26.5031 105.216C26.5024 105.468 26.5768 105.715 26.7167 105.925C26.8567 106.135 27.0559 106.299 27.2892 106.395C27.5224 106.492 27.7793 106.518 28.0272 106.469C28.2751 106.42 28.5029 106.299 28.6818 106.121C28.8607 105.943 28.9827 105.716 29.0322 105.469C29.0817 105.222 29.0566 104.966 28.9601 104.733C28.8635 104.5 28.6998 104.301 28.4898 104.161C28.2797 104.02 28.0327 103.946 27.78 103.946C27.4419 103.946 27.1176 104.079 26.8782 104.318C26.6388 104.556 26.5039 104.879 26.5031 105.216Z" fill="#335991"/>
<path d="M49.3973 88.1694C49.3967 88.4215 49.4711 88.6681 49.611 88.8779C49.751 89.0878 49.9502 89.2516 50.1835 89.3485C50.4167 89.4454 50.6736 89.4711 50.9215 89.4223C51.1694 89.3735 51.3972 89.2524 51.5761 89.0744C51.755 88.8963 51.877 88.6694 51.9265 88.4222C51.976 88.175 51.9509 87.9187 51.8543 87.6858C51.7578 87.4528 51.5941 87.2537 51.3841 87.1136C51.174 86.9735 50.927 86.8987 50.6743 86.8987C50.3362 86.8987 50.0118 87.0325 49.7725 87.2707C49.5331 87.5089 49.3982 87.8321 49.3973 88.1694Z" fill="#335991"/>
<path d="M55.8334 88.1765L50.9362 93.0227L55.4459 97.5577L60.3431 92.7116L55.8334 88.1765Z" fill="#335991"/>
<path d="M70.539 96.8895L59.5472 107.767L54.9308 97.0581L59.8414 92.197L70.539 96.8895Z" fill="#335991"/>
<path d="M107.683 135.61C107.683 135.61 106.059 147 103.949 147H96.3973C94.291 147 92.6666 135.61 92.6666 135.61H107.683Z" fill="#EA0000"/>
<path d="M105.94 145.632C105.671 145.632 105.402 145.612 105.136 145.573L105.286 143.831C108.065 144.246 109.076 142.017 109.32 141.333C109.708 140.241 109.605 139.263 109.32 138.898C108.397 137.758 106.967 138.945 106.907 138.998L106.181 137.527C106.275 137.443 108.547 135.535 110.234 137.621C111.017 138.589 111.139 140.378 110.547 142.073C109.896 143.856 108.375 145.632 105.94 145.632Z" fill="#EA0000"/>
<path d="M12.7132 144.452C12.5345 144.532 12.3329 144.544 12.1458 144.487C11.9587 144.43 11.7988 144.306 11.696 144.14L0.428828 125.901C0.368857 125.811 0.327594 125.71 0.3075 125.604C0.287405 125.498 0.28889 125.39 0.311867 125.284C0.334844 125.179 0.378841 125.079 0.441235 124.992C0.503629 124.904 0.583141 124.829 0.675029 124.772C0.766916 124.716 0.869297 124.678 0.976064 124.662C1.08283 124.646 1.1918 124.651 1.29646 124.678C1.40113 124.704 1.49935 124.751 1.58527 124.817C1.67118 124.882 1.74304 124.964 1.79654 125.058L13.0638 143.297C13.1752 143.479 13.2101 143.697 13.1609 143.904C13.1116 144.111 12.9822 144.29 12.8009 144.402L12.7132 144.452Z" fill="#EA0000"/>
<path d="M10.106 144.162C9.92409 144.092 9.77378 143.958 9.68288 143.786C9.59197 143.614 9.56663 143.415 9.61152 143.225L14.7318 122.419C14.7829 122.212 14.9143 122.034 15.0971 121.924C15.28 121.813 15.4993 121.78 15.7068 121.831C15.9143 121.882 16.093 122.013 16.2037 122.195C16.3143 122.378 16.3478 122.596 16.2967 122.803L11.1764 143.619C11.1253 143.825 10.9942 144.004 10.8118 144.114C10.6294 144.225 10.4105 144.259 10.203 144.209L10.106 144.162Z" fill="#335991"/>
<path d="M11.9339 144.518C11.7401 144.492 11.5623 144.397 11.4338 144.25C11.3053 144.102 11.235 143.914 11.236 143.719L11.3455 122.298C11.3455 122.192 11.3663 122.088 11.4067 121.991C11.4472 121.893 11.5064 121.805 11.5811 121.73C11.6558 121.656 11.7445 121.597 11.8421 121.556C11.9396 121.516 12.0442 121.495 12.1499 121.495C12.2555 121.495 12.3601 121.516 12.4577 121.556C12.5553 121.597 12.6439 121.656 12.7186 121.73C12.7933 121.805 12.8526 121.893 12.893 121.991C12.9334 122.088 12.9542 122.192 12.9542 122.298L12.8322 143.725C12.8305 143.938 12.7443 144.142 12.5923 144.292C12.4404 144.441 12.2352 144.525 12.0215 144.524L11.9339 144.518Z" fill="#CAD9EA"/>
<path d="M14.4065 144.93H4.77298L3.77771 132.042H15.4017L14.4065 144.93Z" fill="#2D496B"/>
<path d="M53.4317 121.948L48.5711 85.2658H41.4572" stroke="white" stroke-miterlimit="10"/>
<path d="M23.5892 58.0313L32.5279 38.4929H53.5037" stroke="white" stroke-miterlimit="10"/>
<path d="M42.8905 56.0144H2.31287V97.5077H42.8905V56.0144Z" fill="white"/>
<path d="M45.0501 51.4218H0.156494V99.712H45.0501V51.4218Z" stroke="white" stroke-miterlimit="10"/>
<path d="M42.8843 52.9578H40.9344V54.9029H42.8843V52.9578Z" fill="#EA0000"/>
<path d="M39.163 52.9578H37.2131V54.9029H39.163V52.9578Z" stroke="white" stroke-miterlimit="10"/>
<path d="M35.4417 52.9578H33.4918V54.9029H35.4417V52.9578Z" stroke="white" stroke-miterlimit="10"/>
<path d="M41.2599 53.2825L42.5556 54.5751" stroke="white" stroke-miterlimit="10"/>
<path d="M42.5556 53.2825L41.2599 54.5751" stroke="white" stroke-miterlimit="10"/>
<mask id="mask0_536_895" style="mask-type:luminance" maskUnits="userSpaceOnUse" x="2" y="56" width="41" height="42">
<path d="M42.8905 56.0144H2.31287V97.5077H42.8905V56.0144Z" fill="white"/>
</mask>
<g mask="url(#mask0_536_895)">
<path d="M31.1132 99.9742C25.6392 100.499 18.763 87.4857 18.5659 85.4844C18.2529 82.4153 22.4405 84.6508 23.4984 85.4282C24.3215 86.0307 28.0366 90.6734 29.6328 92.6872C30.0866 93.2585 31.6421 99.9087 31.1132 99.9742Z" fill="#E8BDA7"/>
<path d="M39.2975 76.9421C38.9845 76.9265 38.6716 78.3409 38.3054 79.3493C38.6716 78.3284 38.9501 75.762 38.7592 75.7245C38.3116 75.6308 37.3351 78.5532 37.1943 79.0558C37.3195 78.5407 38.1332 75.3093 37.8422 75.2468C37.4071 75.1594 36.0801 79.034 35.9455 79.0121C35.9455 79.0121 37.1067 75.481 36.7248 75.3592C36.0613 75.15 34.6779 79.8333 34.5903 79.9394C34.5027 80.0456 35.088 77.0108 34.2773 77.6165C33.8687 78.5499 33.6028 79.5392 33.4886 80.5513C33.3916 81.5723 33.8016 83.1833 33.8235 83.2614C33.8235 83.405 30.4027 88.6346 29.5639 89.8179C28.916 90.7545 28.0366 92.0658 27.6672 92.7496L30.9848 99.9836C34.005 97.5108 37.717 83.7703 37.839 83.7078C37.9611 83.6454 38.9438 81.5598 39.1567 80.8636C39.3695 80.1673 39.6762 76.9609 39.2975 76.9421Z" fill="#E8BDA7"/>
<path d="M37.8328 80.311C36.6059 80.5608 35.3728 81.46 35.1443 82.74C35.1438 82.7528 35.1476 82.7655 35.1552 82.7758C35.1629 82.7861 35.1738 82.7935 35.1862 82.7968C35.1986 82.8001 35.2118 82.799 35.2236 82.7938C35.2353 82.7886 35.2449 82.7795 35.2508 82.7681C35.6451 81.4599 36.8156 81.0478 37.8985 80.4671C37.9862 80.4203 37.9236 80.2923 37.8328 80.311Z" fill="#B78D83"/>
<path d="M17.8054 82.7369C17.0793 84.8131 25.4045 101.635 30.3245 101.158C33.7673 100.823 37.6607 88.669 37.9675 87.1079C38.1083 86.4054 34.0897 84.0857 33.0067 84.1075C31.9238 84.1294 28.8441 90.7327 28.5437 90.5704C28.2432 90.408 24.7535 84.9505 23.3764 83.9764C21.9993 83.0023 18.5346 80.6419 17.8054 82.7369Z" fill="#EA0000"/>
<path d="M17.7866 81.0322C19.1316 81.3591 20.3692 82.027 21.3796 82.971C21.5799 83.1396 22.353 87.5981 24.0744 91.6912C25.8865 95.9997 27.5171 99.8775 27.3857 100.365C24.7003 109.419 11.02 117.749 9.39881 115.663C6.35353 111.735 7.20796 106.799 7.28934 104.211C7.37071 101.623 5.63368 85.9933 5.89345 84.5633C6.15322 83.1334 11.1546 80.6201 11.1546 80.6201L17.7866 81.0322Z" fill="#EA0000"/>
<path d="M18.6755 81.7035C18.6755 81.6379 18.5534 81.6379 18.5409 81.7035C18.3844 82.6682 18.1716 83.5424 17.3265 84.1481C16.6588 84.6078 15.849 84.8159 15.0418 84.7351C14.1425 84.6253 13.2802 84.312 12.5208 83.819C11.7614 83.3261 11.125 82.6666 10.6601 81.8908C10.6601 81.8721 10.6194 81.8908 10.6257 81.8908C11.358 83.6579 13.4206 85.0129 15.3454 85.041C17.1669 85.0785 18.6379 83.7329 18.6755 81.7035Z" fill="#AC5C32"/>
<path d="M23.345 89.6274C23.2172 88.8203 23.0172 88.0262 22.7472 87.2546C22.7316 87.2047 22.6627 87.2328 22.6721 87.2796C22.7754 87.7666 22.8662 88.2599 22.9663 88.7501C22.6534 88.0476 22.3404 87.3452 22.0274 86.6489C22.0055 86.6021 21.9304 86.6239 21.9492 86.6739C23.1604 89.9459 25.0382 94.7197 26.4905 97.5202C26.5249 97.5889 26.6344 97.5202 26.6094 97.464C25.827 95.3753 24.2339 91.6724 23.345 89.6274Z" fill="#AC5C32"/>
<path d="M18.0338 74.9971L17.9086 80.6888V81.4974C17.8165 81.9886 17.5807 82.4417 17.2309 82.7995C16.8812 83.1573 16.4331 83.4038 15.9431 83.508C14.2311 83.8609 11.5614 81.6348 11.333 81.2164C11.1045 80.798 10.7571 73.4266 10.7571 73.4266L11.5708 73.6046L18.0338 74.9971Z" fill="#E8BDA7"/>
<path d="M18.0338 74.9971L17.9086 80.6888C16.2927 80.3943 14.8134 79.5925 13.6866 78.4002C12.4606 77.083 11.7105 75.3953 11.5552 73.6046L18.0338 74.9971Z" fill="#B78D83"/>
<path d="M7.51155 66.1895C7.11094 69.0962 9.99034 75.2437 12.5881 76.8829C14.3689 77.9944 17.433 77.6166 19.3609 76.1055C20.2545 75.4427 20.8603 74.4643 21.0541 73.3705C21.6237 69.7769 18.0777 62.571 16.1404 61.8185C12.7226 60.5416 7.9998 62.6396 7.51155 66.1895Z" fill="#E8BDA7"/>
<path d="M15.411 70.1453C15.411 70.1453 15.386 70.1765 15.3922 70.1921C15.5456 70.5855 15.6551 71.0601 15.3422 71.3192C15.3422 71.3192 15.3422 71.3442 15.3422 71.3379C15.7709 71.1225 15.6176 70.4918 15.411 70.1453Z" fill="#23274C"/>
<path d="M14.9072 69.858C14.25 70.036 14.6568 71.3317 15.264 71.1662C15.8712 71.0007 15.4581 69.7081 14.9072 69.858Z" fill="#23274C"/>
<path d="M18.5315 69.0681C18.5315 69.0525 18.5691 69.0681 18.5722 69.0931C18.6849 69.499 18.8852 69.9455 19.2889 69.9642C19.2889 69.9642 19.3077 69.986 19.2889 69.9892C18.8288 70.0641 18.5722 69.4709 18.5315 69.0681Z" fill="#23274C"/>
<path d="M18.7599 68.5374C19.3859 68.2876 19.846 69.5677 19.2607 69.7862C18.6754 70.0048 18.231 68.7465 18.7599 68.5374Z" fill="#23274C"/>
<path d="M18.0119 71.5346C18.0119 71.5346 18.2435 72.1403 18.3248 72.4369C18.3248 72.465 18.2622 72.4931 18.1652 72.5243C17.9212 72.6292 17.6531 72.6654 17.3899 72.6291C17.1268 72.5928 16.8786 72.4853 16.6723 72.3183C16.6688 72.316 16.6658 72.3131 16.6634 72.3097C16.6611 72.3063 16.6594 72.3024 16.6585 72.2984C16.6568 72.2902 16.6584 72.2816 16.6629 72.2746C16.6675 72.2675 16.6747 72.2626 16.6829 72.2608C16.6911 72.2591 16.6997 72.2607 16.7067 72.2652C17.1455 72.4347 17.6272 72.4588 18.0807 72.3339C18.0807 72.2465 17.6457 71.3067 17.6926 71.2942C17.9273 71.2627 18.1652 71.2627 18.4 71.2942C17.9524 70.0173 17.3014 68.8215 16.8726 67.5476C16.8685 67.5382 16.8681 67.5276 16.8715 67.5179C16.8749 67.5081 16.8819 67.5001 16.891 67.4953C16.9002 67.4906 16.9108 67.4894 16.9208 67.4922C16.9307 67.495 16.9392 67.5014 16.9446 67.5102C17.7177 68.7153 18.2654 70.1765 18.7661 71.4847C18.8037 71.6377 18.1527 71.5565 18.0119 71.5346Z" fill="#B78D83"/>
<path d="M14.4941 68.0628C14.0653 68.1658 13.4894 68.5654 13.577 69.015C13.5899 69.0732 13.6247 69.1241 13.6742 69.1573C13.7238 69.1904 13.7843 69.2032 13.8431 69.193C14.1473 69.1038 14.4387 68.9758 14.71 68.8121C15.167 68.5842 14.9917 67.9535 14.4941 68.0628Z" fill="#23274C"/>
<path d="M17.8398 66.8795C18.2435 66.7047 18.9446 66.6766 19.1449 67.0918C19.1593 67.119 19.168 67.1487 19.1706 67.1793C19.1732 67.2099 19.1696 67.2407 19.1599 67.2699C19.1503 67.299 19.1348 67.326 19.1145 67.349C19.0941 67.3721 19.0694 67.3908 19.0416 67.404C18.7392 67.5146 18.4235 67.5849 18.1027 67.6132C17.6144 67.6882 17.3703 67.0825 17.8398 66.8795Z" fill="#23274C"/>
<path d="M16.6379 72.2621C16.6379 72.2621 16.7506 73.1675 17.2921 73.3361C17.8335 73.5047 18.0557 72.337 18.0557 72.337C17.5859 72.4503 17.0931 72.4243 16.6379 72.2621Z" fill="white"/>
<path d="M9.81816 72.6274C11.2704 72.2527 10.4973 70.1297 10.4973 70.1297C10.4973 70.1297 11.5583 69.3085 11.3455 66.3675C11.2923 65.6182 13.0919 66.1427 15.7272 65.1186C17.6958 64.3412 18.0401 63.723 18.0307 63.6512C17.9806 63.2079 16.8289 61.219 14.7382 60.8413C12.6475 60.4635 7.98097 61.8528 7.04517 65.4215C6.10936 68.9901 8.82601 72.8865 9.81816 72.6274Z" fill="#23274C"/>
<path d="M10.5255 72.6024C10.5255 72.6024 8.62885 70.8228 7.79007 71.5409C6.95129 72.259 8.68206 75.0439 9.88077 75.225C10.0325 75.2591 10.1895 75.2621 10.3424 75.234C10.4953 75.2059 10.6409 75.1472 10.7705 75.0614C10.9001 74.9756 11.0109 74.8646 11.0962 74.735C11.1816 74.6053 11.2398 74.4598 11.2673 74.3071L10.5255 72.6024Z" fill="#E8BDA7"/>
<path d="M8.30642 72.3276C8.30227 72.3276 8.29829 72.3293 8.29535 72.3322C8.29242 72.3351 8.29077 72.3391 8.29077 72.3432C8.29077 72.3474 8.29242 72.3514 8.29535 72.3543C8.29829 72.3572 8.30227 72.3588 8.30642 72.3588C9.15146 72.5118 9.71482 73.1456 10.1593 73.8325C10.0987 73.7622 10.0232 73.7062 9.9383 73.6685C9.85336 73.6309 9.76109 73.6127 9.66819 73.6151C9.57529 73.6174 9.48409 73.6404 9.4012 73.6824C9.31832 73.7243 9.24584 73.7841 9.18902 73.8575C9.17024 73.8762 9.18902 73.9043 9.21719 73.8949C9.34516 73.8229 9.49229 73.7921 9.6385 73.8066C9.7847 73.8212 9.92284 73.8803 10.0341 73.9761C10.219 74.1389 10.3858 74.321 10.5317 74.5194C10.5818 74.5818 10.7007 74.5194 10.6569 74.4413V74.4257C10.4566 73.4297 9.38933 72.2059 8.30642 72.3276Z" fill="#B78D83"/>
<path d="M30.9473 105.194C31.0725 105.547 27.1133 106.98 26.3872 106.999C25.6611 107.018 23.3669 106.74 23.2574 106.64C23.1478 106.54 7.10145 107.417 5.13595 104.807C4.8869 104.44 4.70173 104.034 4.58823 103.605C3.31754 99.4154 4.50999 88.4098 5.42389 86.6052C6.81351 83.8515 9.1452 87.9665 9.62092 89.1872C9.99337 90.1239 10.6444 96.0404 10.9135 98.5943C10.9918 99.3186 11.0356 99.7713 11.0356 99.7713C11.3486 99.7026 13.4643 100.274 14.8571 100.692C16.2498 101.111 22.3028 102.734 22.4374 102.678C22.572 102.622 27.348 101.229 28.1993 101.429C28.3057 101.451 27.226 102.21 27.3668 102.263C27.5076 102.316 31.2915 102.812 31.254 103.253C31.2164 103.693 27.1352 103.381 27.1352 103.381C27.154 103.515 31.398 103.381 31.4512 103.815C31.5294 104.489 27.0413 104.439 27.0288 104.542C27.0288 104.542 31.0975 104.127 31.1977 104.504C31.3354 104.932 27.5828 105.532 27.5828 105.532C27.5828 105.532 30.8565 104.935 30.9473 105.194Z" fill="#E8BDA7"/>
<path d="M10.9229 98.5943C8.44101 99.7775 6.17192 101.364 4.59764 103.59C3.32695 99.3998 4.88871 88.1444 5.79948 86.3398C7.19223 83.5861 9.1546 87.9509 9.63033 89.1716C10.0153 90.1364 10.6413 96.0403 10.9229 98.5943Z" fill="#B78D83"/>
<path d="M6.25958 83.8733C4.53507 85.2408 2.07819 101.67 4.48499 104.873C6.8918 108.076 19.9743 107.948 20.6566 107.714C21.3389 107.48 22.0806 102.341 21.1511 101.782C20.2215 101.223 11.5333 99.4497 11.3674 99.15C11.2015 98.8503 10.9543 89.4433 10.3283 87.8947C9.70234 86.3461 7.99974 82.4965 6.25958 83.8733Z" fill="#EA0000"/>
<path d="M11.4362 99.2437C11.4435 96.8853 11.2824 94.5294 10.9542 92.1939C11.0512 91.5695 11.0919 90.9013 11.1545 90.2644C11.1545 90.2238 11.1013 90.2082 11.0919 90.2488C11.0074 90.6703 10.9198 91.1011 10.8572 91.5351C10.7591 90.8919 10.6548 90.2488 10.5442 89.6056C10.5442 89.5619 10.466 89.5744 10.4691 89.6056C10.8228 92.8058 11.045 96.0279 11.2015 99.2437C11.2087 99.2691 11.2241 99.2915 11.2453 99.3074C11.2665 99.3234 11.2923 99.332 11.3188 99.332C11.3453 99.332 11.3712 99.3234 11.3923 99.3074C11.4135 99.2915 11.4289 99.2691 11.4362 99.2437Z" fill="#AC5C32"/>
</g>
<path d="M27.7236 73.23L31.376 71.3973H45.7981C45.8931 71.3977 45.9873 71.3793 46.0752 71.3432C46.1631 71.3071 46.243 71.254 46.3102 71.187C46.3774 71.1199 46.4307 71.0402 46.4669 70.9525C46.503 70.8649 46.5215 70.7709 46.521 70.6761V62.0995C46.5215 62.0047 46.503 61.9107 46.4669 61.823C46.4307 61.7353 46.3774 61.6557 46.3102 61.5886C46.243 61.5216 46.1631 61.4685 46.0752 61.4324C45.9873 61.3963 45.8931 61.3779 45.7981 61.3783H29.0506C28.9558 61.3783 28.8619 61.397 28.7744 61.4333C28.6869 61.4695 28.6074 61.5227 28.5405 61.5897C28.4736 61.6567 28.4206 61.7363 28.3846 61.8238C28.3487 61.9112 28.3303 62.005 28.3307 62.0995V69.1087L26.8754 72.3277C26.8216 72.4483 26.8047 72.5821 26.8268 72.7122C26.8489 72.8424 26.9089 72.9632 26.9994 73.0595C27.09 73.1558 27.2069 73.2233 27.3357 73.2537C27.4645 73.284 27.5994 73.2757 27.7236 73.23Z" fill="#335991"/>
<path d="M30.772 63.8073H44.205" stroke="white" stroke-miterlimit="10"/>
<path d="M30.772 65.5338H35.9267" stroke="white" stroke-miterlimit="10"/>
<path d="M37.066 65.5338H44.2051" stroke="white" stroke-miterlimit="10"/>
<path d="M30.772 67.2635H39.6699" stroke="white" stroke-miterlimit="10"/>
<path d="M30.772 68.9901H44.205" stroke="white" stroke-miterlimit="10"/>
<path d="M91.3083 12.8601H50.7307V54.3534H91.3083V12.8601Z" fill="white"/>
<path d="M93.4648 8.27057H48.5712V56.5608H93.4648V8.27057Z" stroke="white" stroke-miterlimit="10"/>
<path d="M91.299 9.80353H89.3491V11.7486H91.299V9.80353Z" fill="#EA0000"/>
<path d="M87.5775 9.80353H85.6277V11.7486H87.5775V9.80353Z" stroke="white" stroke-miterlimit="10"/>
<path d="M83.8563 9.80353H81.9065V11.7486H83.8563V9.80353Z" stroke="white" stroke-miterlimit="10"/>
<path d="M89.6777 10.1313L90.9703 11.4208" stroke="white" stroke-miterlimit="10"/>
<path d="M90.9703 10.1313L89.6777 11.4208" stroke="white" stroke-miterlimit="10"/>
<mask id="mask1_536_895" style="mask-type:luminance" maskUnits="userSpaceOnUse" x="50" y="12" width="42" height="43">
<path d="M91.3083 12.8601H50.7307V54.3534H91.3083V12.8601Z" fill="white"/>
</mask>
<g mask="url(#mask1_536_895)">
<path d="M72.611 16.2539C68.1073 17.4278 68.0948 21.5241 68.2669 23.8438C68.439 26.1636 67.0713 27.9495 67.2528 29.2795C67.4344 30.6095 68.7551 31.49 68.8928 31.977C69.259 33.2634 67.7536 33.8035 67.8913 35.7548C70.971 36.6414 74.2039 36.868 77.3777 36.4198C82.7609 35.6893 86.7264 32.0488 86.7264 32.0488C86.6187 31.5735 86.4117 31.1261 86.1188 30.7361C85.826 30.346 85.4539 30.022 85.0269 29.7853C83.5246 28.883 84.5136 26.9285 84.138 25.5142C83.6247 23.5847 81.8846 22.4514 81.2305 20.7873C80.0255 17.7088 79.1053 14.5617 72.611 16.2539Z" fill="#EA0000"/>
<path d="M72.8176 36.6884C72.8176 36.6884 72.7111 39.1642 72.3199 41.9055C71.9099 44.7591 71.4905 56.72 70.0852 58.2374C67.4844 61.0473 60.3015 55.6991 58.6584 54.9841C58.07 54.7281 60.0512 52.2054 60.987 52.5364C61.9228 52.8673 66.2794 54.4315 66.3076 54.5189C66.5611 55.1434 67.112 44.347 68.777 40.7815C69.6302 39.0069 71.052 37.5667 72.8176 36.6884Z" fill="#FFD0B6"/>
<path d="M72.8144 36.6884C72.8144 36.6884 70.1822 37.2784 68.5766 40.6535C67.0117 43.963 66.4734 53.9101 66.1542 53.932C65.8349 53.9538 63.7474 52.552 62.8679 52.9048C61.9884 53.2576 60.0323 56.7169 60.7772 56.9292C61.5221 57.1415 67.3122 60.2387 69.7409 58.737C72.5233 57.0166 72.8144 36.6884 72.8144 36.6884Z" fill="#23274C"/>
<path d="M82.0536 49.8762C81.9472 51.1033 83.3368 53.7789 82.858 54.3534C82.3791 54.9279 78.1195 58.4934 75.0085 57.7316C71.8975 56.9698 71.1745 49.9699 71.0055 49.767C70.8365 49.564 69.6409 49.1144 68.8897 47.4722C68.1386 45.8299 69.4218 43.0762 69.6096 42.5954C69.7379 42.2645 70.0571 40.3849 70.3983 39.1329C70.4698 38.7383 70.621 38.3623 70.8427 38.0277C71.0524 37.8373 71.9068 37.3034 72.8176 36.6883C73.3528 36.3261 73.9099 35.9327 74.3637 35.5643C74.8739 35.1522 75.2526 34.7682 75.3246 34.4997C75.3257 34.4799 75.3257 34.4601 75.3246 34.4404C76.054 33.9322 76.8343 33.5011 77.6531 33.154C78.4262 32.8418 79.146 32.7731 79.3495 33.3414C79.5936 34.0033 80.2665 34.4372 81.0521 34.7526C82.3541 35.2771 83.9628 35.4707 84.4135 35.8547C84.5794 36.0504 84.6878 36.2881 84.7264 36.5416C85.0895 38.1557 84.9486 41.9241 84.6012 43.3603C84.1912 45.1056 82.16 48.6461 82.0536 49.8762Z" fill="#FFD0B6"/>
<path d="M82.7734 50.3789C82.667 51.6059 83.3368 53.779 82.858 54.3534C82.3791 54.9279 78.1195 58.4934 75.0085 57.7316C71.8975 56.9698 71.1745 49.9699 71.0055 49.767C70.8365 49.5641 69.6409 49.1145 68.8897 47.4722C68.1386 45.83 69.4218 43.0762 69.6096 42.5954C69.7379 42.2645 70.0571 40.385 70.3983 39.133C70.4698 38.7383 70.621 38.3623 70.8427 38.0277C71.0524 37.8373 71.9068 37.3034 72.8176 36.6883C72.6267 38.2806 72.5829 41.7743 73.8223 42.4955C75.2401 43.3167 80.7892 35.7517 81.0708 34.7589C82.3728 35.2834 83.9815 35.4769 84.4322 35.861C84.5982 36.0567 84.7066 36.2944 84.7452 36.5478C85.1083 38.162 84.9674 41.9304 84.62 43.3666C84.1912 45.1056 82.8799 49.1488 82.7734 50.3789Z" fill="#23274C"/>
<path d="M73.7971 49.5922C73.0228 49.2604 72.1538 49.2215 71.3528 49.4829C71.3528 49.4829 71.3528 49.5141 71.3528 49.511C72.1614 49.3938 72.9858 49.4535 73.769 49.6858C73.8284 49.7014 73.8629 49.6171 73.7971 49.5922Z" fill="#EDF3F7"/>
<path d="M78.9645 48.515C77.9786 49.0208 77.1148 49.4798 75.9755 49.536C74.8363 49.5922 73.9599 49.1894 72.924 48.9115C72.9167 48.9105 72.9093 48.9118 72.9028 48.9153C72.8963 48.9187 72.8911 48.9242 72.888 48.9308C72.8848 48.9374 72.8839 48.9449 72.8853 48.9521C72.8867 48.9593 72.8904 48.9659 72.8958 48.9708C73.9631 49.5453 74.9458 49.9075 76.1852 49.8201C77.1868 49.7389 78.3573 49.383 79.0615 48.6274C79.07 48.6133 79.0738 48.5969 79.0725 48.5805C79.0711 48.5641 79.0645 48.5486 79.0538 48.5362C79.043 48.5237 79.0286 48.5149 79.0126 48.5111C78.9965 48.5073 78.9797 48.5087 78.9645 48.515Z" fill="#EDF3F7"/>
<path d="M72.9803 55.6741C72.5238 54.7356 72.1174 53.7737 71.7628 52.7923C71.4707 51.8385 71.2716 50.8588 71.1682 49.8669C70.2292 49.155 69.2903 48.3776 68.9773 47.1912C68.6299 45.9267 68.9773 44.6779 69.2433 43.4446C69.2416 43.4398 69.2384 43.4357 69.2342 43.4328C69.23 43.4299 69.225 43.4283 69.2199 43.4283C69.2148 43.4283 69.2098 43.4299 69.2056 43.4328C69.2014 43.4357 69.1982 43.4398 69.1964 43.4446C68.7582 44.7122 68.3514 46.189 68.7801 47.5034C69.1401 48.6149 70.0477 49.4298 71.0711 49.9418C71.0661 49.946 71.0621 49.9513 71.0594 49.9572C71.0567 49.9632 71.0554 49.9696 71.0555 49.9762C71.1168 52.0318 71.7484 54.0301 72.8802 55.749C72.8901 55.7623 72.9049 55.771 72.9214 55.7734C72.9378 55.7757 72.9545 55.7714 72.9678 55.7615C72.9811 55.7516 72.9899 55.7368 72.9922 55.7204C72.9945 55.704 72.9903 55.6873 72.9803 55.6741Z" fill="#EDF3F7"/>
<path d="M88.986 45.8081C88.601 42.9513 88.0033 40.5005 87.9125 40.0415C87.6465 38.6646 85.7029 36.629 84.4697 35.8235C84.0378 35.5456 82.8391 38.0496 82.6075 39.6606C82.2601 42.099 83.2491 46.4513 83.9877 49.3736C84.3758 50.9347 84.6982 52.0961 84.7013 52.3334C84.7013 52.9578 78.4418 57.1696 76.9583 58.0001L77.8972 60.476C80.0223 59.914 86.7795 57.9533 88.7106 55.2276C89.7497 53.7727 89.4805 49.4735 88.986 45.8081Z" fill="#FFD0B6"/>
<path d="M84.0848 35.8047C82.908 36.4292 81.8345 39.9072 82.7984 46.0704C83.7624 52.2335 84.0848 52.2335 84.0848 52.2335C84.0848 52.2335 77.8816 56.6451 77.5122 57.0104C77.1429 57.3757 78.7423 60.0295 80.4292 60.4759C82.1162 60.9224 88.3288 57.4631 89.4179 55.2339C90.5071 53.0046 88.5009 40.8283 88.0002 39.1767C87.4399 37.3065 84.861 35.3989 84.0848 35.8047Z" fill="#23274C"/>
<path d="M83.1896 48.4338C82.8172 46.6511 82.2757 43.6757 82.3696 41.843C82.3696 41.793 82.2914 41.7806 82.2851 41.843C82.1939 42.5531 82.1541 43.2689 82.1662 43.9848C82.0575 43.7089 81.9707 43.425 81.9064 43.1356C81.9044 43.1215 81.8968 43.1088 81.8853 43.1003C81.8739 43.0918 81.8595 43.0882 81.8454 43.0903C81.8313 43.0924 81.8186 43.0999 81.8101 43.1114C81.8016 43.1228 81.7979 43.1371 81.8 43.1512C81.8524 43.6298 81.9758 44.0981 82.1662 44.5405C82.1719 44.5546 82.1817 44.5665 82.1944 44.5749C82.3636 45.9318 82.6902 47.2645 83.1677 48.5462C83.2116 48.6337 83.2115 48.5462 83.1896 48.4338Z" fill="#EDF3F7"/>
<path d="M74.5421 29.6604L74.9991 34.8868L75.0648 35.6299C75.0648 35.6299 75.5311 37.6905 76.1133 37.7186C77.409 37.7811 79.4246 35.402 79.556 34.993C79.6875 34.584 79.8158 27.5342 79.8158 27.5342L79.2243 27.7715L74.5421 29.6604Z" fill="#FFD0B6"/>
<path d="M74.5421 29.6604L74.9991 34.8868C76.2392 34.4083 77.2827 33.5288 77.963 32.3891C78.7968 30.9947 79.2299 29.3982 79.2149 27.7746L74.5421 29.6604Z" fill="#CFA89C"/>
<path d="M78.5201 17.9148C80.2947 20.2564 80.8017 27.0346 79.3307 29.7197C78.3229 31.5586 75.4654 32.7232 73.043 32.3423C71.9377 32.2026 70.9289 31.6435 70.2261 30.7812C67.9664 27.9244 67.7693 20.0941 69.0994 18.508C71.4436 15.7075 76.3668 15.0518 78.5201 17.9148Z" fill="#FFD0B6"/>
<path d="M73.5656 25.2144C73.5656 25.1988 73.6032 25.2144 73.6032 25.2457C73.6626 25.6609 73.8004 26.1292 74.201 26.2042V26.226C73.7315 26.2416 73.55 25.6172 73.5656 25.2144Z" fill="#23274C"/>
<path d="M73.8629 24.718C74.5233 24.5525 74.8018 25.8826 74.1947 26.0356C73.5875 26.1885 73.3089 24.8554 73.8629 24.718Z" fill="#23274C"/>
<path d="M74.0569 24.7118C74.179 24.743 74.3167 24.8273 74.4419 24.7992C74.5671 24.7711 74.6516 24.615 74.7048 24.4682C74.7048 24.4526 74.7235 24.4682 74.7298 24.4682C74.7818 24.5675 74.794 24.6829 74.7637 24.7908C74.7335 24.8987 74.6632 24.991 74.5671 25.049C74.3605 25.1457 74.1445 25.0021 74.0162 24.7992C73.9943 24.7711 74.01 24.6993 74.0569 24.7118Z" fill="#23274C"/>
<path d="M70.3168 25.7952C70.3168 25.7796 70.2886 25.8202 70.2918 25.8389C70.3919 26.2479 70.4389 26.7318 70.0946 26.9473C70.0946 26.9473 70.0946 26.9754 70.0946 26.9691C70.5453 26.8099 70.4764 26.1667 70.3168 25.7952Z" fill="#23274C"/>
<path d="M69.8568 25.4424C69.1808 25.5329 69.4124 26.8723 70.0352 26.788C70.658 26.7037 70.4201 25.3674 69.8568 25.4424Z" fill="#23274C"/>
<path d="M69.597 25.5673C69.5093 25.6578 69.4342 25.7983 69.3122 25.8358C69.1901 25.8732 69.0336 25.7827 68.9147 25.6828C68.9147 25.6828 68.8959 25.6828 68.899 25.7015C68.9429 25.9294 69.0806 26.1417 69.3309 26.123C69.5813 26.1043 69.6752 25.8701 69.6815 25.6297C69.6846 25.6016 69.6345 25.5329 69.597 25.5673Z" fill="#23274C"/>
<path d="M74.204 29.1047C74.1414 29.2327 74.0914 29.3919 73.9505 29.4543C73.8011 29.5022 73.6435 29.5192 73.4873 29.5043C73.4717 29.5043 73.4654 29.5043 73.4873 29.5293C73.5712 29.5875 73.6693 29.622 73.7712 29.6292C73.8732 29.6363 73.9751 29.6158 74.0663 29.5699C74.1408 29.5214 74.1988 29.4517 74.2329 29.3698C74.267 29.2879 74.2755 29.1977 74.2572 29.1109C74.2479 29.0859 74.2134 29.0859 74.204 29.1047Z" fill="#CFA89C"/>
<path d="M69.7035 23.9593C69.4124 24.0061 69.0087 24.2403 69.0431 24.5432C69.0493 24.5826 69.0701 24.6183 69.1014 24.6431C69.1327 24.668 69.1722 24.6802 69.2121 24.6774C69.4195 24.6306 69.6204 24.5583 69.8099 24.462C70.1229 24.334 70.0415 23.9062 69.7035 23.9593Z" fill="#EA0000"/>
<path d="M73.6345 23.4161C73.9255 23.3661 74.3825 23.4598 74.4451 23.7595C74.4535 23.798 74.4464 23.8383 74.4253 23.8716C74.4042 23.9049 74.3709 23.9286 74.3324 23.9375C74.1246 23.9643 73.9142 23.9643 73.7065 23.9375C73.3559 23.8969 73.2965 23.4661 73.6345 23.4161Z" fill="#EA0000"/>
<path d="M71.9851 27.6934C71.9851 27.6934 72.079 28.3366 72.1635 28.63C72.1635 28.6581 72.2448 28.6519 72.345 28.63C72.6092 28.6032 72.8609 28.5045 73.0728 28.3449C73.2847 28.1853 73.4486 27.9707 73.5468 27.7246C73.5506 27.7172 73.5512 27.7085 73.5485 27.7006C73.5459 27.6927 73.5402 27.6862 73.5327 27.6825C73.5253 27.6787 73.5166 27.6781 73.5087 27.6808C73.5008 27.6834 73.4942 27.6891 73.4905 27.6965C73.1913 28.0525 72.7853 28.3032 72.3325 28.4115C72.2887 28.3366 72.2073 27.3063 72.1603 27.3156C71.9371 27.4 71.7264 27.5145 71.5344 27.6559C71.2996 26.3228 71.2809 24.9615 71.0305 23.6346C71.0279 23.6254 71.0224 23.6172 71.0148 23.6114C71.0072 23.6056 70.9978 23.6025 70.9882 23.6025C70.9786 23.6025 70.9693 23.6056 70.9617 23.6114C70.954 23.6172 70.9485 23.6254 70.946 23.6346C70.8646 25.0646 71.0993 26.6038 71.3059 28.0056C71.3372 28.168 71.8755 27.7871 71.9851 27.6934Z" fill="#CFA89C"/>
<path d="M73.5843 29.0578C73.4531 29.1174 73.3069 29.1359 73.1649 29.1109C72.6829 29.036 72.3324 28.4115 72.3324 28.4115C72.7954 28.2789 73.2118 28.0193 73.5342 27.6622C73.6199 27.8019 73.6922 27.9493 73.7502 28.1025C73.8816 28.4459 73.9599 28.8892 73.5843 29.0578Z" fill="#23274C"/>
<path d="M73.5843 29.0578C73.4531 29.1173 73.3069 29.1358 73.1649 29.1109C73.1398 28.9018 73.1832 28.6903 73.2887 28.5079C73.3942 28.3255 73.5561 28.1822 73.7502 28.0993C73.8816 28.4459 73.9599 28.8892 73.5843 29.0578Z" fill="#CFA89C"/>
<path d="M68.101 23.6752C69.2559 23.9375 70.6768 19.6882 70.6768 19.6882C70.6768 19.6882 71.5657 22.8104 76.082 22.851C76.082 22.851 77.8941 25.0365 79.8721 24.9459C81.8502 24.8554 81.1898 17.3123 77.6312 16.0634C74.0726 14.8146 70.4327 16.9127 70.4327 16.9127C69.9336 17.0567 69.4691 17.3003 69.0672 17.6287C68.6653 17.9572 68.3345 18.3636 68.0948 18.8234C67.3937 20.3252 67.6222 23.5659 68.101 23.6752Z" fill="#EA0000"/>
<path d="M78.9801 25.1551C78.9801 25.1551 79.9347 22.7417 80.9988 23.0352C82.0629 23.3287 81.6905 26.5851 80.6858 27.2563C80.5627 27.3515 80.4216 27.4209 80.2709 27.4603C80.1203 27.4997 79.9631 27.5083 79.8091 27.4855C79.655 27.4628 79.5071 27.4092 79.3743 27.3279C79.2415 27.2467 79.1266 27.1395 79.0364 27.0128L78.9801 25.1551Z" fill="#FFD0B6"/>
<path d="M80.8674 23.9656V23.9937C80.1695 24.4901 79.9285 25.305 79.8252 26.1136C79.85 26.0246 79.8942 25.9421 79.9548 25.8722C80.0154 25.8023 80.0907 25.7467 80.1755 25.7093C80.2602 25.672 80.3522 25.6539 80.4448 25.6563C80.5374 25.6587 80.6283 25.6816 80.7109 25.7233C80.7157 25.7251 80.7199 25.7283 80.7228 25.7325C80.7257 25.7367 80.7273 25.7417 80.7273 25.7468C80.7273 25.7519 80.7257 25.7568 80.7228 25.761C80.7199 25.7652 80.7157 25.7684 80.7109 25.7702C80.5644 25.76 80.4183 25.7949 80.2923 25.8703C80.1664 25.9457 80.0667 26.0579 80.0067 26.1917C79.9094 26.4173 79.837 26.6529 79.7908 26.8941C79.7689 26.9722 79.6374 26.9628 79.6437 26.8941C79.6422 26.888 79.6422 26.8816 79.6437 26.8754C79.3933 25.8763 79.8315 24.3153 80.8674 23.9656Z" fill="#CFA89C"/>
<path d="M80.1475 26.891C79.3525 26.9503 79.4401 28.1805 80.2351 28.1211C81.0301 28.0618 80.9424 26.8504 80.1475 26.891Z" fill="#EDF3F7"/>
</g>
<path d="M57.3126 51.9463C56.6022 51.99 55.4848 52.8829 55.0498 53.2794C54.6148 53.676 53.2189 56.4235 53.5569 56.6077C53.8949 56.7919 55.8542 53.9538 55.8542 53.9538C55.8542 53.9538 53.5694 57.1353 53.9137 57.5974C54.258 58.0595 56.9621 54.4534 56.9621 54.4534C56.9621 54.4534 54.1672 57.1228 54.5522 57.6255C54.9371 58.1281 57.6819 55.0185 57.6819 55.0185C57.6819 55.0185 55.0717 57.3289 55.3158 57.6661C55.56 58.0033 59.3845 55.0185 59.5942 54.9841C59.8039 54.9498 58.5051 56.2174 58.5677 56.692C58.6522 57.3382 59.5066 56.1612 60.1764 55.952C60.8462 55.7428 61.2843 54.7437 61.5566 54.3597L62.1826 53.3481C61.8548 53.0613 61.492 52.8169 61.1028 52.6207C60.1764 52.0681 58.4707 51.8745 57.3126 51.9463Z" fill="#FFD0B6"/>
<path d="M64.0104 29.4856L60.3579 27.656H42.1801C42.0851 27.6564 41.9909 27.638 41.903 27.6019C41.8151 27.5658 41.7352 27.5127 41.668 27.4457C41.6008 27.3786 41.5475 27.2989 41.5113 27.2112C41.4752 27.1236 41.4567 27.0296 41.4572 26.9348V14.9207C41.4572 14.826 41.4759 14.7322 41.5122 14.6447C41.5485 14.5572 41.6018 14.4777 41.6689 14.4108C41.736 14.3438 41.8157 14.2907 41.9035 14.2544C41.9912 14.2182 42.0852 14.1995 42.1801 14.1995H62.6833C62.8746 14.2003 63.0576 14.2767 63.1925 14.4119C63.3275 14.547 63.4032 14.73 63.4032 14.9207V25.3643L64.8585 28.5864C64.913 28.7069 64.9303 28.8408 64.9085 28.9711C64.8866 29.1015 64.8265 29.2224 64.7357 29.3187C64.6449 29.415 64.5275 29.4822 64.3984 29.5119C64.2693 29.5416 64.1343 29.5324 64.0104 29.4856Z" fill="#CAD9EA"/>
<path d="M44.0955 16.6317H60.7647" stroke="white" stroke-miterlimit="10"/>
<path d="M44.0955 18.3582H50.4896" stroke="white" stroke-miterlimit="10"/>
<path d="M51.9043 18.3582H60.7647" stroke="white" stroke-miterlimit="10"/>
<path d="M44.0955 20.0848H55.1373" stroke="white" stroke-miterlimit="10"/>
<path d="M44.0955 21.8113H60.7647" stroke="white" stroke-miterlimit="10"/>
<path d="M44.0955 23.541H54.84" stroke="white" stroke-miterlimit="10"/>
<path d="M56.3392 23.541H60.7647" stroke="white" stroke-miterlimit="10"/>
<path d="M44.0955 25.2675H52.4301" stroke="white" stroke-miterlimit="10"/>
<path d="M33.3917 38.4929C33.3917 38.6634 33.341 38.83 33.2461 38.9717C33.1512 39.1134 33.0163 39.2238 32.8585 39.2891C32.7006 39.3543 32.5269 39.3713 32.3594 39.3381C32.1918 39.3048 32.0379 39.2228 31.9171 39.1023C31.7963 38.9817 31.714 38.8282 31.6807 38.6611C31.6473 38.4939 31.6644 38.3206 31.7298 38.1632C31.7952 38.0057 31.9059 37.8711 32.048 37.7764C32.19 37.6818 32.357 37.6312 32.5279 37.6312C32.6413 37.6312 32.7537 37.6535 32.8585 37.6968C32.9633 37.7401 33.0585 37.8036 33.1387 37.8836C33.2189 37.9636 33.2825 38.0586 33.3259 38.1632C33.3694 38.2677 33.3917 38.3798 33.3917 38.4929Z" fill="white"/>
<path d="M49.4506 85.2658C49.4512 85.437 49.4009 85.6045 49.306 85.7471C49.2111 85.8897 49.0759 86.0011 48.9176 86.067C48.7592 86.1329 48.5848 86.1505 48.4164 86.1175C48.248 86.0845 48.0933 86.0024 47.9717 85.8815C47.8501 85.7607 47.7673 85.6066 47.7336 85.4388C47.6999 85.2709 47.7168 85.0969 47.7824 84.9387C47.8479 84.7804 47.959 84.6452 48.1016 84.55C48.2443 84.4549 48.412 84.4041 48.5836 84.4041C48.6973 84.4036 48.81 84.4256 48.9152 84.4688C49.0203 84.5119 49.1159 84.5753 49.1965 84.6553C49.277 84.7354 49.3409 84.8305 49.3845 84.9353C49.4281 85.04 49.4506 85.1523 49.4506 85.2658Z" fill="white"/>
<path d="M25.9709 28.3428V26.916" stroke="white" stroke-miterlimit="10"/>
<path d="M24.6064 28.8955L23.5955 27.887" stroke="white" stroke-miterlimit="10"/>
<path d="M24.0336 30.2474H22.6033" stroke="white" stroke-miterlimit="10"/>
<path d="M24.5844 31.6086L23.5735 32.617" stroke="white" stroke-miterlimit="10"/>
<path d="M25.9427 32.1799V33.6068" stroke="white" stroke-miterlimit="10"/>
<path d="M27.3074 31.6273L28.3183 32.6389" stroke="white" stroke-miterlimit="10"/>
<path d="M27.8801 30.2755H29.3104" stroke="white" stroke-miterlimit="10"/>
<path d="M27.3262 28.9142L28.3371 27.9058" stroke="white" stroke-miterlimit="10"/>
<path d="M55.657 73.8419V72.415" stroke="white" stroke-miterlimit="10"/>
<path d="M54.2924 74.3945L53.2815 73.386" stroke="white" stroke-miterlimit="10"/>
<path d="M53.7164 75.7464H52.2861" stroke="white" stroke-miterlimit="10"/>
<path d="M54.2704 77.1077L53.2595 78.1161" stroke="white" stroke-miterlimit="10"/>
<path d="M55.6256 77.679V79.1058" stroke="white" stroke-miterlimit="10"/>
<path d="M56.9902 77.1263L58.0012 78.1379" stroke="white" stroke-miterlimit="10"/>
<path d="M57.5662 75.7745H58.9965" stroke="white" stroke-miterlimit="10"/>
<path d="M57.0121 74.4132L58.023 73.4048" stroke="white" stroke-miterlimit="10"/>
<path d="M101.067 33.0354V31.6086" stroke="white" stroke-miterlimit="10"/>
<path d="M99.7023 33.5881L98.6914 32.5765" stroke="white" stroke-miterlimit="10"/>
<path d="M99.1265 34.9399H97.6962" stroke="white" stroke-miterlimit="10"/>
<path d="M99.6805 36.3012L98.6696 37.3097" stroke="white" stroke-miterlimit="10"/>
<path d="M101.036 36.8726V38.2994" stroke="white" stroke-miterlimit="10"/>
<path d="M102.4 36.3199L103.411 37.3284" stroke="white" stroke-miterlimit="10"/>
<path d="M102.976 34.968H104.406" stroke="white" stroke-miterlimit="10"/>
<path d="M102.422 33.6068L103.433 32.5983" stroke="white" stroke-miterlimit="10"/>
</g>
<defs>
<clipPath id="clip0_536_895">
<rect width="137" height="147" fill="white"/>
</clipPath>
</defs>
</svg>
