<svg xmlns="http://www.w3.org/2000/svg" width="10.008" height="7.783" viewBox="0 0 10.008 7.783">
  <path id="Icon_awesome-home" data-name="Icon awesome-home" d="M4.87,4.273l-3.2,2.638V9.758a.278.278,0,0,0,.278.278l1.947-.005a.278.278,0,0,0,.277-.278V8.09a.278.278,0,0,1,.278-.278H5.559a.278.278,0,0,1,.278.278V9.752a.278.278,0,0,0,.278.279l1.946.005a.278.278,0,0,0,.278-.278V6.909l-3.2-2.636A.212.212,0,0,0,4.87,4.273ZM9.93,6.066l-1.452-1.2V2.462a.208.208,0,0,0-.208-.208H7.3a.208.208,0,0,0-.208.208V3.724L5.532,2.444a.834.834,0,0,0-1.06,0L.075,6.066a.208.208,0,0,0-.028.294L.49,6.9a.208.208,0,0,0,.294.028L4.87,3.56a.212.212,0,0,1,.266,0L9.223,6.926A.208.208,0,0,0,9.517,6.9L9.96,6.36a.208.208,0,0,0-.03-.294Z" transform="translate(0.001 -2.254)" fill="#2f3443"/>
</svg>
