<svg width="20" height="20" viewBox="0 0 20 20" fill="none" xmlns="http://www.w3.org/2000/svg">
<path d="M20 10C20 11.9778 19.4135 13.9112 18.3147 15.5557C17.2159 17.2002 15.6541 18.4819 13.8268 19.2388C11.9996 19.9957 9.98891 20.1937 8.0491 19.8078C6.10929 19.422 4.32746 18.4696 2.92894 17.0711C1.53041 15.6725 0.578004 13.8907 0.192152 11.9509C-0.1937 10.0111 0.00433284 8.00042 0.761209 6.17316C1.51809 4.3459 2.79981 2.78412 4.4443 1.6853C6.08879 0.586489 8.02219 0 10 0C11.3132 0 12.6136 0.258658 13.8268 0.761204C15.0401 1.26375 16.1425 2.00035 17.0711 2.92893C17.9997 3.85752 18.7362 4.95991 19.2388 6.17316C19.7413 7.38642 20 8.68678 20 10Z" fill="#FCC647"/>
<path d="M8.22045 7.54407L6.07745 9.95707L8.22045 12.1941" stroke="#2F3443" stroke-width="2" stroke-linecap="round" stroke-linejoin="round"/>
<path d="M14.4363 10H7.91827" stroke="#2F3443" stroke-width="2" stroke-linecap="round" stroke-linejoin="round"/>
</svg>
