<svg width="87" height="71" viewBox="0 0 87 71" fill="none" xmlns="http://www.w3.org/2000/svg">
<g clip-path="url(#clip0_30_313)">
<g style="mix-blend-mode:multiply" opacity="0.3">
<path d="M81.0485 63.3835L82.3622 56.1762L74.5139 50.3L73.335 51.8746L19.9661 11.9163L21.1451 10.3417L13.2967 4.46545L6.75087 7.75535L5.43718 14.9628L9.09972 17.705L7.92082 19.2796L69.6609 65.5056L70.8398 63.9311L74.5026 66.6735L81.0485 63.3835Z" fill="white"/>
<path d="M81.0592 63.3692L82.3729 56.1619L74.5246 50.2857L73.3457 51.8603L19.9769 11.902L21.1558 10.3274L13.3075 4.45117L6.76158 7.74107L5.44792 14.9485L9.11046 17.6907L7.93152 19.2653L69.6716 65.4913L70.8505 63.9167L74.5133 66.6592L81.0592 63.3692Z" fill="#FDFDFD"/>
<path d="M81.0725 63.3516L82.3862 56.1442L74.5379 50.268L73.3568 51.8455L19.988 11.8872L21.1691 10.3097L13.3208 4.43347L6.77486 7.7234L5.46121 14.9308L9.12155 17.6759L7.94265 19.2505L69.6827 65.4766L70.8616 63.902L74.5266 66.6415L81.0725 63.3516Z" fill="#FCFCFC"/>
<path d="M81.0832 63.3372L82.3969 56.1298L74.5487 50.2536L73.3697 51.8282L20.0009 11.8699L21.1798 10.2953L13.3315 4.41907L6.78557 7.70901L5.47191 14.9164L9.13445 17.6586L7.95551 19.2332L69.6956 65.4593L70.8745 63.8847L74.5373 66.6271L81.0832 63.3372Z" fill="#FAFAFA"/>
<path d="M81.0943 63.3224L82.408 56.115L74.5597 50.2389L73.3808 51.8135L20.0119 11.8551L21.1909 10.2805L13.3426 4.4043L6.79665 7.69423L5.48299 14.9016L9.14553 17.6438L7.96659 19.2184L69.7067 65.4445L70.8856 63.8699L74.5484 66.6123L81.0943 63.3224Z" fill="#F9F9F9"/>
<path d="M81.1072 63.3052L82.4209 56.0978L74.5727 50.2217L73.3937 51.7962L20.0249 11.8379L21.2038 10.2633L13.3555 4.38708L6.80959 7.67701L5.49594 14.8844L9.15848 17.6266L7.97954 19.2012L69.7196 65.4273L70.8985 63.8527L74.5614 66.5951L81.1072 63.3052Z" fill="#F7F7F7"/>
<path d="M81.1183 63.2903L82.432 56.0829L74.5837 50.2068L73.4048 51.7814L20.036 11.823L21.2149 10.2484L13.3666 4.37219L6.82067 7.66212L5.50702 14.8695L9.16956 17.6117L7.99062 19.1863L69.7307 65.4124L70.9096 63.8378L74.5724 66.5802L81.1183 63.2903Z" fill="#F5F5F5"/>
<path d="M81.129 63.276L82.4427 56.0686L74.5945 50.1925L73.4156 51.7671L20.0467 11.8087L21.2256 10.2341L13.3773 4.35791L6.83141 7.64785L5.51995 14.8523L9.18029 17.5975L8.00135 19.1721L69.7414 65.3981L70.9204 63.8235L74.5854 66.563L81.129 63.276Z" fill="#F4F4F4"/>
<path d="M81.1423 63.2582L82.456 56.0508L74.6078 50.1747L73.4288 51.7492L20.06 11.7909L21.2389 10.2163L13.3906 4.34009L6.8447 7.63L5.53104 14.8374L9.19358 17.5796L8.01464 19.1542L69.7547 65.3803L70.9336 63.8057L74.5965 66.5481L81.1423 63.2582Z" fill="#F2F2F2"/>
<path d="M81.1531 63.2439L82.4668 56.0365L74.6185 50.1604L73.4396 51.735L20.0707 11.7766L21.2497 10.202L13.4013 4.32581L6.85544 7.61573L5.54178 14.8231L9.20432 17.5653L8.02538 19.1399L69.7654 65.366L70.9444 63.7914L74.6072 66.5338L81.1531 63.2439Z" fill="#F0F0F0"/>
<path d="M81.1641 63.2291L82.4778 56.0217L74.6296 50.1456L73.4507 51.7202L20.0818 11.7618L21.2607 10.1872L13.4124 4.31103L6.86651 7.60096L5.55286 14.8083L9.2154 17.5506L8.03646 19.1252L69.7765 65.3512L70.9555 63.7766L74.6183 66.5191L81.1641 63.2291Z" fill="#EFEFEF"/>
<path d="M81.1771 63.2118L82.4908 56.0044L74.6425 50.1283L73.4636 51.7029L20.0947 11.7445L21.2737 10.1699L13.4254 4.2937L6.87946 7.58361L5.5658 14.791L9.22834 17.5332L8.0494 19.1078L69.7895 65.3339L70.9684 63.7593L74.6312 66.5017L81.1771 63.2118Z" fill="#EDEDED"/>
<path d="M81.1882 63.197L82.5019 55.9896L74.6536 50.1135L73.4747 51.6881L20.1058 11.7297L21.2848 10.1551L13.4364 4.27893L6.89054 7.56884L5.57688 14.7762L9.23942 17.5184L8.06048 19.0931L69.8005 65.3191L70.9795 63.7445L74.6423 66.4869L81.1882 63.197Z" fill="#ECECEC"/>
<path d="M81.1989 63.1827L82.5126 55.9754L74.6643 50.0992L73.4854 51.6738L20.1165 11.7155L21.2955 10.1409L13.4471 4.26465L6.90124 7.55457L5.58978 14.759L9.25013 17.5042L8.07119 19.0788L69.8112 65.3048L70.9902 63.7302L74.6552 66.4697L81.1989 63.1827Z" fill="#EAEAEA"/>
<path d="M81.2122 63.1649L82.5259 55.9575L74.6776 50.0814L73.4987 51.656L20.1298 11.6976L21.3088 10.123L13.4604 4.24683L6.91457 7.53672L5.60091 14.7441L9.26345 17.4863L8.08451 19.0609L69.8246 65.287L71.0035 63.7124L74.6663 66.4548L81.2122 63.1649Z" fill="#E8E8E8"/>
<path d="M81.2229 63.1506L82.5366 55.9433L74.6883 50.0671L73.5094 51.6417L20.1406 11.6833L21.3195 10.1087L13.4712 4.23254L6.92527 7.52245L5.61162 14.7298L9.27415 17.4721L8.09522 19.0467L69.8353 65.2727L71.0142 63.6981L74.677 66.4406L81.2229 63.1506Z" fill="#E7E7E7"/>
<path d="M81.234 63.1357L82.5499 55.9254L74.6995 50.0522L73.5205 51.6268L20.1517 11.6684L21.3306 10.0938L13.4845 4.21472L6.9364 7.50754L5.6249 14.712L9.28528 17.4571L8.10634 19.0318L69.8464 65.2578L71.0253 63.6832L74.6903 66.4228L81.234 63.1357Z" fill="#E5E5E5"/>
<path d="M81.2469 63.1185L82.5606 55.9112L74.7123 50.035L73.5334 51.6096L20.1646 11.6512L21.3435 10.0766L13.4952 4.20044L6.9493 7.49034L5.6356 14.6978L9.29814 17.44L8.11924 19.0145L69.8593 65.2406L71.0382 63.6661L74.701 66.4085L81.2469 63.1185Z" fill="#E3E3E3"/>
<path d="M81.258 63.1037L82.5717 55.8964L74.7235 50.0202L73.5445 51.5948L20.1757 11.6365L21.3546 10.0619L13.5063 4.18567L6.9604 7.47557L5.64671 14.683L9.30925 17.4252L8.13035 18.9998L69.8704 65.2258L71.0493 63.6513L74.7121 66.3937L81.258 63.1037Z" fill="#E2E2E2"/>
<path d="M81.2709 63.0864L82.5846 55.879L74.7342 50.0058L73.5553 51.5804L20.1864 11.6221L21.3654 10.0475L13.5192 4.16833L6.97331 7.45827L5.65966 14.6657L9.32004 17.4108L8.1411 18.9854L69.8812 65.2114L71.0601 63.6368L74.7251 66.3764L81.2709 63.0864Z" fill="#E0E0E0"/>
<path d="M81.282 63.0717L82.5957 55.8643L74.7475 49.9881L73.5685 51.5627L20.1997 11.6044L21.3786 10.0298L13.5303 4.15356L6.98439 7.4435L5.67074 14.6509L9.33328 17.3931L8.15434 18.9677L69.8944 65.1938L71.0733 63.6192L74.7362 66.3616L81.282 63.0717Z" fill="#DFDFDF"/>
<path d="M81.2931 63.0569L82.6068 55.8495L74.7586 49.9734L73.5796 51.548L20.2108 11.5896L21.3897 10.015L13.5414 4.13879L6.99547 7.42873L5.68182 14.6361L9.34436 17.3783L8.16542 18.9529L69.9055 65.179L71.0844 63.6044L74.7472 66.3468L81.2931 63.0569Z" fill="#DDDDDD"/>
<path d="M81.306 63.0396L82.6197 55.8322L74.7715 49.956L73.5904 51.5335L20.2215 11.5752L21.4026 9.99766L13.5543 4.12146L7.00842 7.41138L5.69476 14.6188L9.35511 17.3639L8.17617 18.9385L69.9162 65.1646L71.0952 63.59L74.7602 66.3295L81.306 63.0396Z" fill="#DBDBDB"/>
<path d="M81.3167 63.0253L82.6305 55.8179L74.7822 49.9417L73.6033 51.5163L20.2344 11.558L21.4134 9.98338L13.565 4.10718L7.01912 7.39711L5.70547 14.6045L9.36801 17.3467L8.18907 18.9213L69.9291 65.1474L71.1081 63.5728L74.7709 66.3152L81.3167 63.0253Z" fill="#DADADA"/>
<path d="M81.3278 63.0105L82.6415 55.8031L74.7933 49.927L73.6143 51.5016L20.2455 11.5432L21.4244 9.96861L13.5761 4.09241L7.0302 7.38234L5.71655 14.5897L9.37908 17.3319L8.20015 18.9066L69.9402 65.1326L71.1191 63.558L74.782 66.3004L81.3278 63.0105Z" fill="#D8D8D8"/>
<path d="M81.3408 62.9932L82.6545 55.7858L74.804 49.9126L73.6273 51.4842L20.2584 11.5259L21.4352 9.95419L13.589 4.07507L7.04315 7.365L5.72949 14.5724L9.39203 17.3146L8.2109 18.8921L69.951 65.1182L71.1321 63.5407L74.7949 66.2831L81.3408 62.9932Z" fill="#D6D6D6"/>
<path d="M81.3519 62.9784L82.6655 55.771L74.8173 49.8949L73.6384 51.4695L20.2695 11.5111L21.4485 9.93651L13.6001 4.0603L7.05423 7.35022L5.74058 14.5576L9.40311 17.2998L8.22418 18.8744L69.9642 65.1005L71.1432 63.5259L74.806 66.2683L81.3519 62.9784Z" fill="#D5D5D5"/>
<path d="M81.363 62.9636L82.6767 55.7562L74.8284 49.8801L73.6495 51.4547L20.2806 11.4963L21.4596 9.92174L13.6112 4.04553L7.06534 7.33545L5.75168 14.5428L9.41422 17.2851L8.23528 18.8597L69.9753 65.0857L71.1543 63.5111L74.8171 66.2535L81.363 62.9636Z" fill="#D3D3D3"/>
<path d="M81.3759 62.9463L82.6896 55.7389L74.8413 49.8628L73.6624 51.4374L20.2936 11.479L21.4725 9.9044L13.6242 4.0282L7.07829 7.3181L5.76463 14.5255L9.42498 17.2706L8.24823 18.8423L69.9883 65.0684L71.165 63.4967L74.8301 66.2362L81.3759 62.9463Z" fill="#D2D2D2"/>
<path d="M81.387 62.9315L82.7007 55.7241L74.8524 49.848L73.6735 51.4226L20.3046 11.4642L21.4836 9.88963L13.6353 4.01343L7.08936 7.30333L5.77571 14.5107L9.43825 17.2529L8.25931 18.8275L69.9994 65.0536L71.1783 63.479L74.8411 66.2214L81.387 62.9315Z" fill="#D0D0D0"/>
<path d="M81.3977 62.9171L82.7114 55.7097L74.8631 49.8336L73.6842 51.4082L20.3154 11.4498L21.4943 9.87523L13.646 3.99902L7.10007 7.28894L5.78641 14.4963L9.44895 17.2385L8.27001 18.8132L70.0101 65.0392L71.189 63.4646L74.8518 66.207L81.3977 62.9171Z" fill="#CECECE"/>
<path d="M81.411 62.8994L82.7247 55.692L74.8764 49.8159L73.6975 51.3905L20.3287 11.4321L21.5076 9.85753L13.6593 3.98132L7.11339 7.27122L5.7997 14.4787L9.46224 17.2209L8.28114 18.7984L70.0212 65.0244L71.2023 63.4469L74.8651 66.1894L81.411 62.8994Z" fill="#CDCDCD"/>
<path d="M81.4217 62.8851L82.7354 55.6778L74.8872 49.8016L73.7082 51.3762L20.3394 11.4178L21.5183 9.84324L13.67 3.96704L7.1241 7.25694L5.81044 14.4643L9.47298 17.2065L8.29404 18.7812L70.0341 65.0072L71.213 63.4326L74.8759 66.175L81.4217 62.8851Z" fill="#CBCBCB"/>
<path d="M81.4328 62.8702L82.7465 55.6629L74.8982 49.7867L73.7193 51.3613L20.3505 11.4029L21.5294 9.82835L13.6811 3.95215L7.13517 7.24205L5.82368 14.4466L9.48406 17.1917L8.30512 18.7663L70.0452 64.9923L71.2241 63.4177L74.8891 66.1573L81.4328 62.8702Z" fill="#C9C9C9"/>
<path d="M81.4457 62.853L82.7594 55.6456L74.9112 49.7695L73.7322 51.3441L20.3634 11.3857L21.5423 9.81114L13.694 3.93494L7.14812 7.22483L5.83443 14.4323L9.49697 17.1745L8.31807 18.749L70.0581 64.9751L71.237 63.4005L74.8999 66.143L81.4457 62.853Z" fill="#C8C8C8"/>
<path d="M81.4569 62.8381L82.7705 55.6308L74.9223 49.7546L73.7433 51.3292L20.3745 11.3708L21.5534 9.79625L13.7051 3.92004L7.15923 7.20994L5.84554 14.4174L9.50808 17.1596L8.32917 18.7341L70.0692 64.9602L71.2481 63.3857L74.911 66.1281L81.4569 62.8381Z" fill="#C6C6C6"/>
<path d="M81.4676 62.8238L82.7812 55.6165L74.933 49.7403L73.7541 51.3149L20.3852 11.3566L21.5641 9.78197L13.7158 3.90576L7.16993 7.19566L5.85628 14.4031L9.51882 17.1453L8.33988 18.7199L70.0799 64.9459L71.2589 63.3713L74.9217 66.1138L81.4676 62.8238Z" fill="#C5C5C5"/>
<path d="M81.4808 62.8062L82.7945 55.5988L74.9463 49.7226L73.7674 51.2972L20.3985 11.3389L21.5774 9.76427L13.7291 3.88806L7.18322 7.17799L5.86957 14.3854L9.53211 17.1276L8.35317 18.7022L70.0932 64.9283L71.2722 63.3537L74.935 66.0961L81.4808 62.8062Z" fill="#C3C3C3"/>
<path d="M81.4915 62.7918L82.8053 55.5844L74.957 49.7082L73.7781 51.2828L20.4092 11.3245L21.5882 9.74986L13.7398 3.87366L7.19392 7.16359L5.88027 14.371L9.54281 17.1132L8.36387 18.6878L70.1039 64.9139L71.2829 63.3393L74.9457 66.0817L81.4915 62.7918Z" fill="#C1C1C1"/>
<path d="M81.5027 62.777L82.8186 55.5667L74.9681 49.6934L73.7892 51.268L20.4204 11.3097L21.5993 9.73508L13.7531 3.85596L7.20505 7.14881L5.89359 14.3533L9.55393 17.0984L8.375 18.673L70.1151 64.8991L71.294 63.3245L74.959 66.064L81.5027 62.777Z" fill="#C0C0C0"/>
<path d="M81.5156 62.7598L82.8293 55.5524L74.981 49.6762L73.8021 51.2508L20.4332 11.2925L21.6122 9.71788L13.7639 3.84167L7.21795 7.1316L5.90429 14.339L9.56683 17.0812L8.3879 18.6558L70.128 64.8819L71.3069 63.3073L74.9697 66.0497L81.5156 62.7598Z" fill="#BEBEBE"/>
<path d="M81.5267 62.7449L82.8404 55.5375L74.9921 49.6613L73.8132 51.2359L20.4443 11.2776L21.6233 9.70299L13.7749 3.82678L7.22903 7.11671L5.91537 14.3241L9.57791 17.0663L8.39897 18.6409L70.139 64.867L71.318 63.2924L74.9808 66.0348L81.5267 62.7449Z" fill="#BCBCBC"/>
<path d="M81.5374 62.7306L82.8533 55.5203L75.0029 49.6471L73.8239 51.2217L20.4551 11.2633L21.634 9.68869L13.7879 3.80957L7.23978 7.10242L5.92832 14.3069L9.58866 17.052L8.40972 18.6266L70.1498 64.8527L71.3287 63.2781L74.9937 66.0176L81.5374 62.7306Z" fill="#BBBBBB"/>
<path d="M81.5507 62.7128L82.8644 55.5054L75.0161 49.6292L73.8372 51.2038L20.4683 11.2455L21.6473 9.67088L13.7989 3.79468L7.25306 7.08459L5.9394 14.292L9.60194 17.0342L8.423 18.6088L70.1631 64.8349L71.342 63.2603L75.0048 66.0027L81.5507 62.7128Z" fill="#B9B9B9"/>
<path d="M81.5614 62.6985L82.8751 55.4911L75.0269 49.615L73.8479 51.1896L20.4791 11.2312L21.658 9.6566L13.8097 3.7804L7.26379 7.07032L5.95014 14.2777L9.61267 17.0199L8.43374 18.5945L70.1738 64.8206L71.3527 63.246L75.0156 65.9884L81.5614 62.6985Z" fill="#B8B8B8"/>
<path d="M81.5747 62.6808L82.8884 55.4734L75.038 49.6002L73.8612 51.1719L20.4924 11.2135L21.6691 9.64182L13.823 3.76269L7.27711 7.0526L5.96346 14.26L9.6238 17.0051L8.44486 18.5797L70.1849 64.8058L71.3639 63.2312L75.0289 65.9707L81.5747 62.6808Z" fill="#B6B6B6"/>
<path d="M81.5854 62.6664L82.8991 55.459L75.0509 49.5829L73.8719 51.1575L20.5031 11.1991L21.682 9.62449L13.8337 3.74829L7.28782 7.0382L5.97416 14.2456L9.6367 16.9878L8.45776 18.5624L70.1978 64.7885L71.3768 63.2139L75.0396 65.9563L81.5854 62.6664Z" fill="#B4B4B4"/>
<path d="M81.5965 62.6516L82.9102 55.4442L75.062 49.5681L73.883 51.1427L20.5142 11.1843L21.6931 9.60972L13.8448 3.73352L7.29889 7.02343L5.98524 14.2308L9.64778 16.973L8.46884 18.5476L70.2089 64.7737L71.3878 63.1991L75.0507 65.9415L81.5965 62.6516Z" fill="#B3B3B3"/>
<path d="M81.6095 62.6344L82.9231 55.427L75.0749 49.5509L73.896 51.1255L20.5271 11.1671L21.706 9.59251L13.8577 3.71631L7.31184 7.00621L5.99818 14.2136L9.65853 16.9587L8.47959 18.5334L70.2197 64.7594L71.3986 63.1848L75.0636 65.9243L81.6095 62.6344Z" fill="#B1B1B1"/>
<path d="M81.6205 62.6195L82.9342 55.4121L75.086 49.536L73.907 51.1106L20.5382 11.1522L21.7171 9.57762L13.8688 3.70142L7.32292 6.99131L6.00927 14.1987L9.67181 16.9409L8.49287 18.5155L70.2329 64.7416L71.4119 63.167L75.0747 65.9094L81.6205 62.6195Z" fill="#AFAFAF"/>
<path d="M81.6312 62.6052L82.9449 55.3978L75.0967 49.5217L73.9178 51.0963L20.5489 11.1379L21.7278 9.56334L13.8795 3.68713L7.33363 6.97704L6.01997 14.1844L9.68251 16.9266L8.50357 18.5013L70.2436 64.7273L71.4226 63.1527L75.0854 65.8951L81.6312 62.6052Z" fill="#AEAEAE"/>
<path d="M81.6445 62.5874L82.9582 55.38L75.11 49.5039L73.9311 51.0785L20.5622 11.1201L21.7411 9.54552L13.8928 3.66931L7.34691 6.95925L6.03325 14.1666L9.69579 16.9089L8.5147 18.4863L70.2548 64.7124L71.4359 63.1349L75.0987 65.8773L81.6445 62.5874Z" fill="#ACACAC"/>
<path d="M81.6553 62.5731L82.969 55.3657L75.1207 49.4896L73.9418 51.0642L20.5729 11.1058L21.7519 9.53123L13.9035 3.65503L7.35765 6.94493L6.044 14.1523L9.70654 16.8945L8.5276 18.4691L70.2677 64.6952L71.4466 63.1206L75.1094 65.863L81.6553 62.5731Z" fill="#ABABAB"/>
<path d="M81.6664 62.5583L82.9801 55.351L75.1318 49.4748L73.9529 51.0494L20.584 11.0911L21.763 9.51646L13.9146 3.64026L7.36876 6.93016L6.05507 14.1376L9.71761 16.8798L8.5387 18.4544L70.2788 64.6804L71.4577 63.1059L75.1205 65.8483L81.6664 62.5583Z" fill="#A9A9A9"/>
<path d="M81.6793 62.541L82.993 55.3336L75.1448 49.4575L73.9636 51.035L20.5948 11.0766L21.7759 9.49913L13.9276 3.62292L7.38167 6.91286L6.06801 14.1202L9.7284 16.8653L8.55161 18.4371L70.2917 64.6631L71.4685 63.0914L75.1334 65.831L81.6793 62.541Z" fill="#A7A7A7"/>
<path d="M81.6904 62.5263L83.0041 55.3189L75.1558 49.4427L73.9769 51.0173L20.6081 11.059L21.787 9.48436L13.9387 3.60815L7.39275 6.89809L6.07909 14.1055L9.74163 16.8477L8.56269 18.4223L70.3028 64.6484L71.4817 63.0738L75.1445 65.8162L81.6904 62.5263Z" fill="#A6A6A6"/>
<path d="M81.7011 62.5119L83.0148 55.3046L75.1665 49.4284L73.9876 51.003L20.6188 11.0447L21.7977 9.47008L13.9494 3.59387L7.40349 6.88377L6.0898 14.0912L9.75233 16.8334L8.57343 18.408L70.3135 64.634L71.4924 63.0595L75.1552 65.8019L81.7011 62.5119Z" fill="#A4A4A4"/>
<path d="M81.7144 62.4941L83.0281 55.2868L75.1798 49.4106L74.0009 50.9852L20.6321 11.0268L21.811 9.45225L13.9627 3.57605L7.41678 6.86597L6.10312 14.0734L9.76566 16.8156L8.58672 18.3902L70.3268 64.6162L71.5057 63.0416L75.1685 65.7841L81.7144 62.4941Z" fill="#A2A2A2"/>
<path d="M81.7251 62.4799L83.0388 55.2725L75.1906 49.3963L74.0116 50.9709L20.6428 11.0126L21.8217 9.43797L13.9734 3.56177L7.42748 6.8517L6.11382 14.0591L9.77636 16.8013L8.59743 18.3759L70.3375 64.602L71.5164 63.0274L75.1792 65.7698L81.7251 62.4799Z" fill="#A1A1A1"/>
<path d="M81.7362 62.4651L83.0499 55.2577L75.2016 49.3816L74.0227 50.9562L20.6539 10.9978L21.8328 9.4232L13.9845 3.547L7.43856 6.83693L6.1271 14.0414L9.78744 16.7865L8.6085 18.3611L70.3486 64.5872L71.5275 63.0126L75.1925 65.7521L81.7362 62.4651Z" fill="#9F9F9F"/>
<path d="M81.7491 62.4478L83.0628 55.2404L75.2146 49.3642L74.0356 50.9388L20.6668 10.9805L21.8457 9.40587L13.9974 3.52966L7.4515 6.81959L6.13785 14.027L9.80039 16.7692L8.62145 18.3438L70.3615 64.5699L71.5404 62.9953L75.2033 65.7377L81.7491 62.4478Z" fill="#9E9E9E"/>
<path d="M81.7602 62.433L83.0739 55.2256L75.2257 49.3495L74.0467 50.9241L20.6779 10.9657L21.8568 9.3911L14.0085 3.51489L7.46259 6.80481L6.14893 14.0122L9.81147 16.7544L8.63253 18.329L70.3726 64.5551L71.5515 62.9805L75.2144 65.7229L81.7602 62.433Z" fill="#9C9C9C"/>
<path d="M81.771 62.4186L83.0868 55.2083L75.2364 49.335L74.0575 50.9096L20.6886 10.9513L21.8676 9.37667L14.0214 3.49756L7.47334 6.7904L6.16188 13.9949L9.82222 16.74L8.64328 18.3146L70.3833 64.5407L71.5623 62.9661L75.2273 65.7056L81.771 62.4186Z" fill="#9A9A9A"/>
<path d="M81.7843 62.4009L83.098 55.1935L75.2497 49.3174L74.0708 50.8919L20.7019 10.9336L21.8809 9.35899L14.0325 3.48279L7.48664 6.77269L6.17299 13.9801L9.83553 16.7223L8.65659 18.2969L70.3966 64.523L71.5756 62.9484L75.2384 65.6908L81.7843 62.4009Z" fill="#999999"/>
<path d="M81.795 62.3866L83.1087 55.1792L75.2604 49.3031L74.0815 50.8777L20.7126 10.9193L21.8916 9.34471L14.0432 3.46851L7.49735 6.75842L6.18369 13.9658L9.84623 16.708L8.66729 18.2826L70.4074 64.5087L71.5863 62.9341L75.2491 65.6765L81.795 62.3866Z" fill="#979797"/>
<path d="M81.806 62.3717L83.1197 55.1643L75.2715 49.2882L74.0926 50.8628L20.7237 10.9044L21.9026 9.32982L14.0543 3.45361L7.50842 6.74353L6.19696 13.948L9.85731 16.6931L8.67837 18.2677L70.4184 64.4938L71.5974 62.9192L75.2624 65.6587L81.806 62.3717Z" fill="#959595"/>
<path d="M81.819 62.3545L83.1327 55.1471L75.2844 49.271L74.1055 50.8456L20.7366 10.8872L21.9156 9.31261L14.0673 3.4364L7.52137 6.72631L6.20772 13.9337L9.87025 16.6759L8.69132 18.2505L70.4314 64.4766L71.6103 62.902L75.2731 65.6444L81.819 62.3545Z" fill="#949494"/>
<path d="M81.8301 62.3397L83.1438 55.1323L75.2955 49.2562L74.1166 50.8308L20.7477 10.8724L21.9267 9.29783L14.0783 3.42163L7.53245 6.71154L6.21879 13.9189L9.88133 16.6611L8.70239 18.2357L70.4425 64.4618L71.6214 62.8872L75.2842 65.6296L81.8301 62.3397Z" fill="#929292"/>
<path d="M81.843 62.3224L83.1567 55.115L75.3063 49.2418L74.1273 50.8164L20.7585 10.858L21.9374 9.28342L14.0913 3.4043L7.5454 6.69419L6.2317 13.9016L9.89208 16.6467L8.71314 18.2213L70.4532 64.4474L71.6321 62.8728L75.2971 65.6123L81.843 62.3224Z" fill="#919191"/>
<path d="M81.8541 62.3076L83.1678 55.1002L75.3195 49.2241L74.1406 50.7987L20.7717 10.8403L21.9507 9.26573L14.1024 3.38953L7.55648 6.67942L6.24278 13.8869L9.90532 16.6291L8.72642 18.2036L70.4665 64.4297L71.6454 62.8551L75.3082 65.5976L81.8541 62.3076Z" fill="#8F8F8F"/>
<path d="M81.8648 62.2933L83.1785 55.086L75.3303 49.2098L74.1513 50.7844L20.7825 10.826L21.9614 9.25145L14.1131 3.37524L7.56721 6.66515L6.25356 13.8725L9.91609 16.6148L8.73716 18.1894L70.4772 64.4154L71.6562 62.8408L75.319 65.5832L81.8648 62.2933Z" fill="#8D8D8D"/>
<path d="M81.8781 62.2755L83.1918 55.0681L75.3414 49.1949L74.1646 50.7666L20.7958 10.8082L21.9725 9.23654L14.1264 3.35742L7.58046 6.64735L6.26681 13.8547L9.92715 16.5999L8.74825 18.1744L70.4883 64.4005L71.6672 62.826L75.3322 65.5655L81.8781 62.2755Z" fill="#8C8C8C"/>
<path d="M81.8889 62.2612L83.2025 55.0539L75.3543 49.1777L74.1754 50.7523L20.8065 10.7939L21.9854 9.21934L14.1371 3.34314L7.59124 6.63303L6.27754 13.8405L9.94008 16.5827L8.76118 18.1572L70.5012 64.3833L71.6801 62.8087L75.343 65.5512L81.8889 62.2612Z" fill="#8A8A8A"/>
<path d="M81.8999 62.2463L83.2136 55.039L75.3654 49.1628L74.1864 50.7374L20.8176 10.779L21.9965 9.20445L14.1482 3.32825L7.60232 6.61814L6.28862 13.8256L9.95116 16.5678L8.77222 18.1424L70.5123 64.3685L71.6912 62.7939L75.354 65.5363L81.8999 62.2463Z" fill="#888888"/>
<path d="M81.9128 62.2291L83.2266 55.0217L75.3761 49.1485L74.1994 50.7202L20.8305 10.7618L22.0073 9.19015L14.1611 3.31103L7.61523 6.60097L6.30157 13.8084L9.96191 16.5535L8.78517 18.1252L70.5252 64.3512L71.702 62.7796L75.367 65.5191L81.9128 62.2291Z" fill="#878787"/>
<path d="M81.9239 62.2144L83.2376 55.007L75.3894 49.1308L74.2104 50.7054L20.8416 10.7471L22.0205 9.17247L14.1722 3.29626L7.6263 6.58619L6.31265 13.7936L9.97519 16.5358L8.79625 18.1104L70.5363 64.3365L71.7152 62.7619L75.3781 65.5043L81.9239 62.2144Z" fill="#858585"/>
<path d="M81.9346 62.2L83.2483 54.9926L75.4001 49.1164L74.2212 50.691L20.8523 10.7327L22.0312 9.15806L14.1829 3.28186L7.63701 6.5718L6.32335 13.7792L9.98589 16.5214L8.80695 18.096L70.547 64.3221L71.726 62.7475L75.3888 65.4899L81.9346 62.2Z" fill="#848484"/>
<path d="M81.948 62.1822L83.2616 54.9749L75.4134 49.0987L74.2345 50.6733L20.8656 10.715L22.0446 9.14036L14.1962 3.26416L7.65033 6.55408L6.33667 13.7615L9.99921 16.5037L8.81808 18.0812L70.5581 64.3073L71.7393 62.7297L75.4021 65.4722L81.948 62.1822Z" fill="#828282"/>
<path d="M81.9587 62.168L83.2724 54.9606L75.4241 49.0844L74.2452 50.659L20.8763 10.7007L22.0553 9.12608L14.2069 3.24988L7.66103 6.5398L6.34738 13.7472L10.0099 16.4894L8.83098 18.064L70.571 64.2901L71.75 62.7155L75.4128 65.4579L81.9587 62.168Z" fill="#808080"/>
<path d="M81.9698 62.1531L83.2835 54.9457L75.4352 49.0696L74.2563 50.6441L20.8874 10.6858L22.0664 9.11119L14.218 3.23498L7.67214 6.52491L6.35849 13.7323L10.021 16.4745L8.84209 18.0491L70.5821 64.2752L71.7611 62.7006L75.4239 65.443L81.9698 62.1531Z" fill="#7F7F7F"/>
<path d="M81.9827 62.1359L83.2964 54.9285L75.4481 49.0523L74.2692 50.6269L20.9003 10.6686L22.0793 9.09398L14.231 3.21777L7.68506 6.50769L6.37141 13.7151L10.0339 16.4573L8.85501 18.0319L70.5951 64.258L71.774 62.6834L75.4368 65.4258L81.9827 62.1359Z" fill="#7D7D7D"/>
<path d="M81.9938 62.121L83.3075 54.9136L75.4592 49.0374L74.2803 50.612L20.9115 10.6537L22.0904 9.07908L14.2421 3.20288L7.69617 6.49279L6.38252 13.7002L10.0451 16.4424L8.86612 18.017L70.6062 64.2431L71.7851 62.6685L75.4479 65.4109L81.9938 62.121Z" fill="#7B7B7B"/>
<path d="M82.0045 62.1067L83.3182 54.8993L75.4699 49.0232L74.291 50.5978L20.9222 10.6394L22.1011 9.0648L14.2528 3.1886L7.70687 6.47852L6.39322 13.6859L10.0558 16.4281L8.87682 18.0027L70.6169 64.2288L71.7958 62.6542L75.4586 65.3966L82.0045 62.1067Z" fill="#7A7A7A"/>
<path d="M82.0178 62.089L83.3315 54.8816L75.4833 49.0055L74.3043 50.5801L20.9355 10.6217L22.1144 9.0471L14.2661 3.1709L7.7202 6.4608L6.40654 13.6682L10.0691 16.4104L8.89014 17.985L70.6302 64.2111L71.8091 62.6365L75.472 65.3789L82.0178 62.089Z" fill="#787878"/>
<path d="M82.0285 62.0746L83.3422 54.8672L75.494 48.9911L74.315 50.5657L20.9462 10.6073L22.1251 9.0327L14.2768 3.15649L7.7309 6.44641L6.41725 13.6538L10.0798 16.396L8.90085 17.9706L70.6409 64.1967L71.8198 62.6221L75.4827 65.3645L82.0285 62.0746Z" fill="#777777"/>
<path d="M82.0397 62.0598L83.3555 54.8495L75.5051 48.9763L74.3262 50.5509L20.9573 10.5925L22.1362 9.01791L14.2901 3.13879L7.74203 6.43161L6.43053 13.6361L10.0909 16.3812L8.91197 17.9558L70.652 64.1819L71.831 62.6073L75.496 65.3468L82.0397 62.0598Z" fill="#757575"/>
<path d="M82.0526 62.0426L83.3662 54.8352L75.518 48.9591L74.339 50.5337L20.9702 10.5753L22.1491 9.00072L14.3008 3.12451L7.75493 6.41441L6.44127 13.6218L10.1038 16.364L8.92487 17.9386L70.6649 64.1647L71.8439 62.5901L75.5067 65.3325L82.0526 62.0426Z" fill="#737373"/>
<path d="M82.0636 62.0277L83.3773 54.8203L75.5291 48.9442L74.3501 50.5188L20.9813 10.5604L22.1602 8.98582L14.3119 3.10962L7.76601 6.39952L6.45235 13.6069L10.1149 16.3491L8.93595 17.9237L70.676 64.1498L71.8549 62.5752L75.5178 65.3176L82.0636 62.0277Z" fill="#727272"/>
<path d="M82.0744 62.0134L83.3902 54.8031L75.5398 48.9299L74.3609 50.5045L20.992 10.5461L22.171 8.97153L14.3248 3.09241L7.77676 6.38523L6.46526 13.5897L10.1256 16.3348L8.9467 17.9094L70.6868 64.1355L71.8657 62.5609L75.5307 65.3004L82.0744 62.0134Z" fill="#707070"/>
<path d="M82.0876 61.9956L83.4014 54.7882L75.5531 48.9121L74.3742 50.4867L21.0053 10.5283L22.1843 8.95372L14.3359 3.07751L7.79002 6.36745L6.47637 13.5748L10.1389 16.3171L8.95997 17.8917L70.7 64.1177L71.879 62.5431L75.5418 65.2856L82.0876 61.9956Z" fill="#6E6E6E"/>
<path d="M82.0984 61.9813L83.4121 54.7739L75.5638 48.8978L74.3849 50.4724L21.016 10.514L22.195 8.93944L14.3466 3.06323L7.80077 6.35313L6.48707 13.5606L10.1496 16.3028L8.97071 17.8773L70.7108 64.1034L71.8897 62.5288L75.5525 65.2713L82.0984 61.9813Z" fill="#6D6D6D"/>
<path d="M82.1095 61.9665L83.4231 54.7592L75.5749 48.883L74.396 50.4576L21.0271 10.4993L22.206 8.92467L14.3577 3.04846L7.81185 6.33836L6.50035 13.5429L10.1607 16.288L8.98179 17.8626L70.7218 64.0886L71.9008 62.5141L75.5658 65.2536L82.1095 61.9665Z" fill="#6B6B6B"/>
<path d="M82.1224 61.9492L83.4361 54.7418L75.5878 48.8657L74.4089 50.4403L21.0401 10.4819L22.219 8.90733L14.3707 3.03113L7.82476 6.32106L6.5111 13.5285L10.1736 16.2707L8.9947 17.8453L70.7348 64.0713L71.9137 62.4967L75.5765 65.2392L82.1224 61.9492Z" fill="#6A6A6A"/>
<path d="M82.1335 61.9345L83.4472 54.7271L75.5989 48.8509L74.42 50.4255L21.0511 10.4672L22.2301 8.89256L14.3817 3.01636L7.83583 6.30629L6.52218 13.5137L10.1847 16.2559L9.00578 17.8305L70.7458 64.0566L71.9248 62.482L75.5876 65.2244L82.1335 61.9345Z" fill="#686868"/>
<path d="M82.1464 61.9172L83.4601 54.7099L75.6097 48.8366L74.4307 50.4112L21.0619 10.4529L22.2408 8.87827L14.3947 2.99915L7.84878 6.28907L6.53512 13.4965L10.1955 16.2416L9.01653 17.8162L70.7566 64.0423L71.9355 62.4677L75.6005 65.2072L82.1464 61.9172Z" fill="#666666"/>
<path d="M82.1575 61.9023L83.4712 54.695L75.6229 48.8188L74.444 50.3934L21.0752 10.4351L22.2541 8.86046L14.4058 2.98425L7.85986 6.27417L6.5462 13.4816L10.2087 16.2238L9.0298 17.7984L70.7699 64.0244L71.9488 62.4498L75.6116 65.1923L82.1575 61.9023Z" fill="#656565"/>
<path d="M82.1682 61.8881L83.4819 54.6807L75.6336 48.8045L74.4547 50.3791L21.0859 10.4208L22.2648 8.84617L14.4165 2.96997L7.87056 6.2599L6.55691 13.4673L10.2194 16.2095L9.04051 17.7841L70.7806 64.0102L71.9595 62.4356L75.6223 65.178L82.1682 61.8881Z" fill="#636363"/>
<path d="M82.1815 61.8702L83.4952 54.6629L75.6448 48.7896L74.4658 50.3642L21.097 10.4059L22.2759 8.83127L14.4298 2.95215L7.88389 6.24206L6.57023 13.4494L10.2306 16.1946L9.05164 17.7692L70.7917 63.9953L71.9706 62.4207L75.6357 65.1602L82.1815 61.8702Z" fill="#616161"/>
<path d="M82.1922 61.856L83.5059 54.6486L75.6577 48.7724L74.4788 50.347L21.1099 10.3887L22.2888 8.81407L14.4405 2.93787L7.89462 6.22779L6.58097 13.4352L10.2435 16.1774L9.06457 17.752L70.8046 63.9781L71.9836 62.4035L75.6464 65.1459L82.1922 61.856Z" fill="#606060"/>
<path d="M82.2033 61.8412L83.517 54.6338L75.6688 48.7577L74.4898 50.3323L21.121 10.3739L22.2999 8.7993L14.4516 2.9231L7.9057 6.21302L6.59204 13.4204L10.2546 16.1626L9.07564 17.7372L70.8157 63.9633L71.9946 62.3887L75.6575 65.1311L82.2033 61.8412Z" fill="#5E5E5E"/>
<path d="M82.2163 61.8238L83.53 54.6165L75.6795 48.7432L74.5006 50.3178L21.1317 10.3595L22.3107 8.78488L14.4645 2.90576L7.91865 6.19567L6.60499 13.4031L10.2675 16.1453L9.0864 17.7228L70.8265 63.9489L72.0076 62.3713L75.6704 65.1138L82.2163 61.8238Z" fill="#5D5D5D"/>
<path d="M82.2273 61.8091L83.541 54.6017L75.6928 48.7256L74.5139 50.3002L21.145 10.3418L22.3239 8.76719L14.4756 2.89099L7.92973 6.1809L6.61607 13.3883L10.2786 16.1305L9.09967 17.7051L70.8397 63.9312L72.0187 62.3566L75.6815 65.099L82.2273 61.8091Z" fill="#5B5B5B"/>
</g>
<path d="M83.5415 54.6021L82.2278 61.8095L75.682 65.0994L67.8337 59.2232L75.6933 48.726L83.5415 54.6021Z" fill="#D10909"/>
<path style="mix-blend-mode:multiply" opacity="0.4" d="M83.5415 54.6021L82.2278 61.8095L75.682 65.0994L67.8337 59.2232L75.6933 48.726L83.5415 54.6021Z" fill="url(#paint0_linear_30_313)"/>
<path style="mix-blend-mode:screen" opacity="0.15" d="M83.5415 54.6021L82.2278 61.8095L75.682 65.0994L67.8337 59.2232L75.6933 48.726L83.5415 54.6021Z" fill="url(#paint1_linear_30_313)"/>
<path d="M74.5143 50.3005L78.7003 53.4346L75.6933 48.726L74.5143 50.3005Z" fill="#D10909"/>
<path opacity="0.4" d="M74.5143 50.3005L78.7003 53.4346L75.6933 48.726L74.5143 50.3005Z" fill="black"/>
<path d="M14.4756 2.89099L7.92973 6.1809L6.61607 13.3883L14.4644 19.2645L22.3239 8.76719L14.4756 2.89099Z" fill="#D10909"/>
<path style="mix-blend-mode:multiply" opacity="0.4" d="M14.4756 2.89099L7.92973 6.1809L6.61607 13.3883L14.4644 19.2645L22.3239 8.76719L14.4756 2.89099Z" fill="url(#paint2_linear_30_313)"/>
<path style="mix-blend-mode:screen" opacity="0.15" d="M14.4756 2.89099L7.92973 6.1809L6.61607 13.3883L14.4644 19.2645L22.3239 8.76719L14.4756 2.89099Z" fill="url(#paint3_linear_30_313)"/>
<path d="M21.1447 10.3415L16.9589 7.20753L22.3236 8.76692L21.1447 10.3415Z" fill="#D10909"/>
<path opacity="0.4" d="M21.1447 10.3415L16.9589 7.20753L22.3236 8.76692L21.1447 10.3415Z" fill="black"/>
<path d="M78.6993 53.4338L16.959 7.20752L9.09939 17.7048L70.8398 63.9311L78.6993 53.4338Z" fill="#D10909"/>
<g style="mix-blend-mode:screen" opacity="0.6">
<path d="M78.6993 53.4338L16.959 7.20752L16.8913 7.29791L78.6316 53.5242L78.6993 53.4338Z" fill="white"/>
</g>
<g style="mix-blend-mode:screen" opacity="0.6">
<path d="M14.4756 2.89099L7.92973 6.1809L7.92021 6.24208L14.4079 2.98138L22.2563 8.85759L22.3239 8.76719L14.4756 2.89099Z" fill="white"/>
</g>
<g style="mix-blend-mode:screen" opacity="0.6">
<path d="M16.9589 7.20753L17.1973 7.38599L22.256 8.85731L22.3236 8.76692L16.9589 7.20753Z" fill="white"/>
</g>
<g style="mix-blend-mode:screen" opacity="0.6">
<path d="M78.7003 53.4346L75.6933 48.726L75.6256 48.8163L78.4648 53.2583L78.7003 53.4346Z" fill="white"/>
</g>
<g style="mix-blend-mode:screen" opacity="0.6">
<path d="M82.1748 61.8381L82.2278 61.8095L83.5415 54.6021L75.6933 48.726L75.6256 48.8163L83.4738 54.6925L82.1748 61.8381Z" fill="white"/>
</g>
<path style="mix-blend-mode:multiply" opacity="0.2" d="M78.6993 53.4338L16.959 7.20752L9.09939 17.7048L70.8398 63.9311L78.6993 53.4338Z" fill="url(#paint4_linear_30_313)"/>
<path style="mix-blend-mode:screen" opacity="0.1" d="M78.6993 53.4338L16.959 7.20752L9.09939 17.7048L70.8398 63.9311L78.6993 53.4338Z" fill="url(#paint5_linear_30_313)"/>
<path style="mix-blend-mode:screen" opacity="0.3" d="M78.1767 53.0425L73.9913 49.9088L66.1317 60.4061L70.3171 63.5399L78.1767 53.0425Z" fill="url(#paint6_linear_30_313)"/>
<path style="mix-blend-mode:screen" opacity="0.3" d="M21.6679 10.7332L17.4821 7.59924L9.62255 18.0966L13.8083 21.2306L21.6679 10.7332Z" fill="url(#paint7_linear_30_313)"/>
<path d="M27.3179 21.1842C27.1187 21.4502 26.7494 21.6698 26.5095 21.7814C26.5951 21.9478 26.6963 22.2015 26.7258 22.3854C26.8083 22.981 26.6698 23.5189 26.3102 23.9991C25.948 24.4829 25.4683 24.7707 24.8762 24.8558C24.2789 24.9478 23.7384 24.8127 23.2581 24.4531L21.1886 22.9036L25.3586 17.334L26.5204 18.2092L26.9073 18.499C27.3392 18.8223 27.5951 19.2512 27.6698 19.7924C27.741 20.3093 27.6231 20.7765 27.3179 21.1842ZM24.0722 23.3587C24.4384 23.6329 24.9407 23.5454 25.2149 23.1791C25.4917 22.8094 25.4084 22.2941 25.0784 22.0147C24.7658 21.7482 24.4626 21.5482 24.1275 21.2973L23.116 22.6482L23.3397 22.8103L24.0722 23.3587ZM26.2054 20.4159C26.3968 20.1602 26.3577 19.7805 26.0951 19.5839L25.6563 19.2553L24.8932 20.2746C24.9959 20.3462 25.1419 20.4392 25.3319 20.5599C25.6187 20.7315 25.9933 20.6992 26.2054 20.4159ZM29.6601 20.5331L33.0185 23.0475L32.1829 24.1635L29.9441 22.4872L29.1033 23.6101L30.7824 24.8673L29.9469 25.9833L28.2678 24.7261L27.427 25.849L29.6659 27.5253L28.8329 28.6379L25.4746 26.1234L29.6601 20.5331ZM31.6914 29.0688L31.6931 29.0593C32.0006 29.2895 32.5342 29.29 32.767 28.979C33.1472 28.4711 32.5149 27.8898 32.2322 27.4679C31.7249 26.7268 31.5437 25.723 32.1128 24.9629C32.8164 24.0232 34.1431 23.8356 35.0828 24.5393C35.9397 25.1808 36.172 26.3468 35.6712 27.2606L34.3828 26.6625C34.6104 26.3584 34.5487 25.9079 34.2412 25.6777C33.9303 25.4449 33.4806 25.5125 33.2504 25.82C32.8752 26.321 33.4101 26.9318 33.7117 27.3355C34.2605 28.0645 34.4814 29.0656 33.9019 29.8396C33.1983 30.7794 31.7862 30.9083 30.8464 30.2047C29.986 29.5605 29.6786 28.3436 30.1751 27.4213L31.4627 28.0133C31.2299 28.3242 31.377 28.8334 31.6914 29.0688ZM37.1128 26.1346L40.9755 29.0267L40.1451 30.1357L38.7769 29.1114L35.4372 33.5718L34.3143 32.7311L37.654 28.2706L36.2824 27.2437L37.1128 26.1346ZM41.7318 36.5863L41.7336 36.5768C42.0411 36.807 42.5745 36.8074 42.8074 36.4965C43.1876 35.9886 42.5553 35.4073 42.2726 34.9854C41.7653 34.2443 41.5841 33.2405 42.1532 32.4804C42.8568 31.5406 44.1834 31.3531 45.1232 32.0567C45.9801 32.6982 46.2124 33.8643 45.7116 34.778L44.4232 34.18C44.6508 33.8759 44.5891 33.4254 44.2816 33.1952C43.9707 32.9623 43.521 33.03 43.2908 33.3375C42.9157 33.8385 43.4505 34.4493 43.7521 34.8529C44.3008 35.582 44.5218 36.5831 43.9424 37.3571C43.2387 38.2969 41.8266 38.4258 40.8868 37.7221C40.0265 37.078 39.7191 35.8611 40.2155 34.9388L41.5031 35.5307C41.2703 35.8417 41.4174 36.3509 41.7318 36.5863ZM47.3708 33.7934L50.7291 36.3079L49.8936 37.4238L47.6547 35.7475L46.8139 36.8704L48.4931 38.1277L47.6576 39.2437L45.9784 37.9864L45.1376 39.1093L47.3765 40.7856L46.5435 41.8982L43.1852 39.3837L47.3708 33.7934ZM51.2025 36.6838L52.3219 37.522L48.9848 41.979L51.2237 43.6553L50.3907 44.7678L47.0324 42.2534L51.2025 36.6838ZM55.0445 39.5605L56.1639 40.3986L52.8269 44.8556L55.0655 46.5317L54.2325 47.6443L50.8745 45.13L55.0445 39.5605ZM58.8971 42.4234L62.2552 44.9376L61.4196 46.0536L59.1806 44.3772L58.3398 45.5001L60.0194 46.7576L59.1838 47.8736L57.5043 46.6161L56.6635 47.739L58.9026 49.4154L58.0696 50.528L54.7115 48.0137L58.8971 42.4234ZM58.5585 50.8832L62.7285 45.3136L64.546 46.6744C65.1642 47.1372 65.4896 47.7476 65.5799 48.3328C65.662 48.928 65.6288 49.3831 65.1684 49.9981L65.0597 50.1432C64.7778 50.5198 64.3966 50.7844 63.9133 50.9402C63.5128 51.0716 63.2717 51.0691 62.8612 50.9558L62.6458 53.9435L61.2777 52.9191L61.5224 49.2579L59.678 51.7214L58.5585 50.8832ZM62.669 49.4047C63.0764 49.7097 63.674 49.5963 63.9896 49.1748C64.1422 48.971 64.2004 48.7342 64.1717 48.4701C64.1266 48.2206 63.9158 47.9334 63.6464 47.7317L63.0176 47.2609L61.8665 48.7984L62.2981 49.1216L62.2955 49.125L62.669 49.4047Z" fill="white"/>
<mask id="mask0_30_313" style="mask-type:luminance" maskUnits="userSpaceOnUse" x="65" y="50" width="10" height="10">
<path d="M74.1924 54.701L69.1382 50.9167L65.322 55.9469L70.3763 59.7312L74.1924 54.701Z" fill="white"/>
</mask>
<g mask="url(#mask0_30_313)">
<path d="M72.5316 56.5632L70.7232 55.2092L71.4859 53.0443L69.6016 54.3695L67.7932 53.0155L68.4373 55.1861L66.5665 56.5091L68.8448 56.5265L69.4889 58.6971L70.2516 56.5322L72.5316 56.5632Z" fill="#FFCE31"/>
</g>
<mask id="mask1_30_313" style="mask-type:luminance" maskUnits="userSpaceOnUse" x="13" y="11" width="10" height="10">
<path d="M22.1338 15.7236L17.0795 11.9393L13.2633 16.9695L18.3176 20.7537L22.1338 15.7236Z" fill="white"/>
</mask>
<g mask="url(#mask1_30_313)">
<path d="M20.4727 17.5857L18.6643 16.2316L19.4273 14.067L17.5428 15.392L15.7343 14.0379L16.3785 16.2086L14.5078 17.5317L16.7857 17.5488L17.4298 19.7195L18.1929 17.5548L20.4727 17.5857Z" fill="#FFCE31"/>
</g>
</g>
<defs>
<linearGradient id="paint0_linear_30_313" x1="82.2309" y1="61.8117" x2="71.7665" y2="53.9769" gradientUnits="userSpaceOnUse">
<stop offset="0.13" stop-color="white"/>
<stop offset="0.24" stop-color="#FBFBFB"/>
<stop offset="0.35" stop-color="#EEEEEE"/>
<stop offset="0.48" stop-color="#D8D8D8"/>
<stop offset="0.6" stop-color="#BABABA"/>
<stop offset="0.73" stop-color="#949494"/>
<stop offset="0.85" stop-color="#656565"/>
<stop offset="0.98" stop-color="#2E2E2E"/>
<stop offset="1" stop-color="#242424"/>
</linearGradient>
<linearGradient id="paint1_linear_30_313" x1="71.7665" y1="53.9769" x2="82.2309" y2="61.8117" gradientUnits="userSpaceOnUse">
<stop stop-color="#393939"/>
<stop offset="0.01" stop-color="#888888"/>
<stop offset="0.02" stop-color="#A8A8A8"/>
<stop offset="0.03" stop-color="#C4C4C4"/>
<stop offset="0.04" stop-color="#DADADA"/>
<stop offset="0.05" stop-color="#EBEBEB"/>
<stop offset="0.06" stop-color="#F6F6F6"/>
<stop offset="0.08" stop-color="#FDFDFD"/>
<stop offset="0.13" stop-color="white"/>
<stop offset="0.22" stop-color="#F1F1F1"/>
<stop offset="0.38" stop-color="#CECECE"/>
<stop offset="0.61" stop-color="#949494"/>
<stop offset="0.89" stop-color="#454545"/>
<stop offset="1" stop-color="#242424"/>
</linearGradient>
<linearGradient id="paint2_linear_30_313" x1="7.92973" y1="6.1809" x2="18.3942" y2="14.0158" gradientUnits="userSpaceOnUse">
<stop offset="0.13" stop-color="white"/>
<stop offset="0.24" stop-color="#FBFBFB"/>
<stop offset="0.35" stop-color="#EEEEEE"/>
<stop offset="0.48" stop-color="#D8D8D8"/>
<stop offset="0.6" stop-color="#BABABA"/>
<stop offset="0.73" stop-color="#949494"/>
<stop offset="0.85" stop-color="#656565"/>
<stop offset="0.98" stop-color="#2E2E2E"/>
<stop offset="1" stop-color="#242424"/>
</linearGradient>
<linearGradient id="paint3_linear_30_313" x1="18.3942" y1="14.0158" x2="7.92973" y2="6.1809" gradientUnits="userSpaceOnUse">
<stop stop-color="#393939"/>
<stop offset="0.01" stop-color="#888888"/>
<stop offset="0.02" stop-color="#A8A8A8"/>
<stop offset="0.03" stop-color="#C4C4C4"/>
<stop offset="0.04" stop-color="#DADADA"/>
<stop offset="0.05" stop-color="#EBEBEB"/>
<stop offset="0.06" stop-color="#F6F6F6"/>
<stop offset="0.08" stop-color="#FDFDFD"/>
<stop offset="0.13" stop-color="white"/>
<stop offset="0.22" stop-color="#F1F1F1"/>
<stop offset="0.38" stop-color="#CECECE"/>
<stop offset="0.61" stop-color="#949494"/>
<stop offset="0.89" stop-color="#454545"/>
<stop offset="1" stop-color="#242424"/>
</linearGradient>
<linearGradient id="paint4_linear_30_313" x1="74.7695" y1="58.6825" x2="13.0292" y2="12.4562" gradientUnits="userSpaceOnUse">
<stop stop-color="#090909"/>
<stop offset="0.02" stop-color="#373737"/>
<stop offset="0.05" stop-color="#626262"/>
<stop offset="0.07" stop-color="#888888"/>
<stop offset="0.1" stop-color="#A8A8A8"/>
<stop offset="0.13" stop-color="#C4C4C4"/>
<stop offset="0.16" stop-color="#DADADA"/>
<stop offset="0.2" stop-color="#EBEBEB"/>
<stop offset="0.25" stop-color="#F6F6F6"/>
<stop offset="0.31" stop-color="#FDFDFD"/>
<stop offset="0.5" stop-color="white"/>
<stop offset="0.69" stop-color="#FDFDFD"/>
<stop offset="0.75" stop-color="#F6F6F6"/>
<stop offset="0.8" stop-color="#EBEBEB"/>
<stop offset="0.84" stop-color="#DADADA"/>
<stop offset="0.87" stop-color="#C4C4C4"/>
<stop offset="0.9" stop-color="#A8A8A8"/>
<stop offset="0.93" stop-color="#888888"/>
<stop offset="0.95" stop-color="#626262"/>
<stop offset="0.98" stop-color="#373737"/>
<stop offset="1"/>
</linearGradient>
<linearGradient id="paint5_linear_30_313" x1="74.7695" y1="58.6825" x2="13.0292" y2="12.4562" gradientUnits="userSpaceOnUse">
<stop stop-color="#242424"/>
<stop offset="0.5" stop-color="white"/>
<stop offset="1" stop-color="#242424"/>
</linearGradient>
<linearGradient id="paint6_linear_30_313" x1="70.064" y1="55.1594" x2="74.2499" y2="58.2935" gradientUnits="userSpaceOnUse">
<stop/>
<stop offset="0.5" stop-color="white"/>
<stop offset="1"/>
</linearGradient>
<linearGradient id="paint7_linear_30_313" x1="17.741" y1="15.9841" x2="13.5523" y2="12.8479" gradientUnits="userSpaceOnUse">
<stop/>
<stop offset="0.5" stop-color="white"/>
<stop offset="1"/>
</linearGradient>
<clipPath id="clip0_30_313">
<rect width="94.7092" height="17.0477" fill="white" transform="translate(10.8486 0.175415) rotate(36.823)"/>
</clipPath>
</defs>
</svg>
