<svg xmlns="http://www.w3.org/2000/svg" width="8.885" height="9.996" viewBox="0 0 8.885 9.996">
  <path id="Icon_awesome-building" data-name="Icon awesome-building" d="M8.647,9.371h-.4V.469A.472.472,0,0,0,7.775,0H1.111A.472.472,0,0,0,.635.469v8.9h-.4A.236.236,0,0,0,0,9.605V10H8.885v-.39A.236.236,0,0,0,8.647,9.371ZM2.539,1.484a.236.236,0,0,1,.238-.234H3.57a.236.236,0,0,1,.238.234v.781A.236.236,0,0,1,3.57,2.5H2.777a.236.236,0,0,1-.238-.234Zm0,1.874a.236.236,0,0,1,.238-.234H3.57a.236.236,0,0,1,.238.234v.781a.236.236,0,0,1-.238.234H2.777a.236.236,0,0,1-.238-.234ZM3.57,6.247H2.777a.236.236,0,0,1-.238-.234V5.232A.236.236,0,0,1,2.777,5H3.57a.236.236,0,0,1,.238.234v.781A.236.236,0,0,1,3.57,6.247ZM5.077,9.371H3.808V7.731A.236.236,0,0,1,4.046,7.5h.793a.236.236,0,0,1,.238.234ZM6.347,6.013a.236.236,0,0,1-.238.234H5.315a.236.236,0,0,1-.238-.234V5.232A.236.236,0,0,1,5.315,5h.793a.236.236,0,0,1,.238.234Zm0-1.874a.236.236,0,0,1-.238.234H5.315a.236.236,0,0,1-.238-.234V3.358a.236.236,0,0,1,.238-.234h.793a.236.236,0,0,1,.238.234Zm0-1.874a.236.236,0,0,1-.238.234H5.315a.236.236,0,0,1-.238-.234V1.484a.236.236,0,0,1,.238-.234h.793a.236.236,0,0,1,.238.234Z" fill="#2f3443"/>
</svg>
