<svg width="150" height="150" viewBox="0 0 150 150" fill="none" xmlns="http://www.w3.org/2000/svg">
<path fill-rule="evenodd" clip-rule="evenodd" d="M21.0938 109.954C21.0938 104.775 25.2539 100.077 30.3967 99.4586L77.0508 93.8499L123.705 99.4586C128.843 100.076 133.008 104.764 133.008 109.954V147.756H21.0938V109.954Z" fill="#595959"/>
<path fill-rule="evenodd" clip-rule="evenodd" d="M77.3438 147.42L58.5938 119.238H96.0938L77.3438 147.42Z" fill="#D8D8D8"/>
<path fill-rule="evenodd" clip-rule="evenodd" d="M58.5139 86.9111C49.2138 78.0871 43.0664 63.8049 43.0664 51.8746C43.0664 33.1056 58.2817 17.8903 77.0508 17.8903C95.8198 17.8903 111.035 33.1056 111.035 51.8746C111.035 63.8049 104.888 78.0871 95.5877 86.9111V107.592C95.5877 107.592 83.0215 112.068 77.0508 112.068C71.0801 112.068 58.5139 107.592 58.5139 107.592V86.9111Z" fill="#FFDD95"/>
<path fill-rule="evenodd" clip-rule="evenodd" d="M77.3438 103.127L58.5938 119.297H96.0938L77.3438 103.127Z" fill="#D8D8D8"/>
<path fill-rule="evenodd" clip-rule="evenodd" d="M70.3149 103.125H84.3563L86.7001 110.156L81.9845 114.844H72.7548L67.9712 110.156L70.3149 103.125Z" fill="#4796E7"/>
<path fill-rule="evenodd" clip-rule="evenodd" d="M58.5938 96.0938L77.3391 103.371L58.5938 119.348V96.0938Z" fill="white"/>
<path fill-rule="evenodd" clip-rule="evenodd" d="M96.2837 96.0938L77.3438 103.268L96.2837 119.348V96.0938Z" fill="white"/>
<path d="M44.2383 65.625C48.1215 65.625 51.2695 62.477 51.2695 58.5938C51.2695 54.7105 48.1215 51.5625 44.2383 51.5625C40.355 51.5625 37.207 54.7105 37.207 58.5938C37.207 62.477 40.355 65.625 44.2383 65.625Z" fill="#FFDD95"/>
<path d="M109.863 65.625C113.747 65.625 116.895 62.477 116.895 58.5938C116.895 54.7105 113.747 51.5625 109.863 51.5625C105.98 51.5625 102.832 54.7105 102.832 58.5938C102.832 62.477 105.98 65.625 109.863 65.625Z" fill="#FFDD95"/>
<path fill-rule="evenodd" clip-rule="evenodd" d="M44.2383 24.6094C44.2383 17.4901 49.9989 11.7188 57.1312 11.7188H119.238V24.6094C119.238 31.7287 113.478 37.5 106.345 37.5H44.2383V24.6094Z" fill="#FFAF40"/>
<path fill-rule="evenodd" clip-rule="evenodd" d="M72.6562 114.844H82.0312L84.375 147.656H70.3125L72.6562 114.844Z" fill="#4796E7"/>
</svg>
