<svg xmlns="http://www.w3.org/2000/svg" width="10" height="11.429" viewBox="0 0 10 11.429">
  <path id="Icon_awesome-calendar-alt" data-name="Icon awesome-calendar-alt" d="M0,10.357a1.072,1.072,0,0,0,1.071,1.071H8.929A1.072,1.072,0,0,0,10,10.357V4.286H0ZM7.143,5.982a.269.269,0,0,1,.268-.268H8.3a.269.269,0,0,1,.268.268v.893a.269.269,0,0,1-.268.268H7.411a.269.269,0,0,1-.268-.268Zm0,2.857a.269.269,0,0,1,.268-.268H8.3a.269.269,0,0,1,.268.268v.893A.269.269,0,0,1,8.3,10H7.411a.269.269,0,0,1-.268-.268ZM4.286,5.982a.269.269,0,0,1,.268-.268h.893a.269.269,0,0,1,.268.268v.893a.269.269,0,0,1-.268.268H4.554a.269.269,0,0,1-.268-.268Zm0,2.857a.269.269,0,0,1,.268-.268h.893a.269.269,0,0,1,.268.268v.893A.269.269,0,0,1,5.446,10H4.554a.269.269,0,0,1-.268-.268ZM1.429,5.982A.269.269,0,0,1,1.7,5.714h.893a.269.269,0,0,1,.268.268v.893a.269.269,0,0,1-.268.268H1.7a.269.269,0,0,1-.268-.268Zm0,2.857A.269.269,0,0,1,1.7,8.571h.893a.269.269,0,0,1,.268.268v.893A.269.269,0,0,1,2.589,10H1.7a.269.269,0,0,1-.268-.268Zm7.5-7.411H7.857V.357A.358.358,0,0,0,7.5,0H6.786a.358.358,0,0,0-.357.357V1.429H3.571V.357A.358.358,0,0,0,3.214,0H2.5a.358.358,0,0,0-.357.357V1.429H1.071A1.072,1.072,0,0,0,0,2.5V3.571H10V2.5A1.072,1.072,0,0,0,8.929,1.429Z" fill="#2f3443"/>
</svg>
