<svg width="26" height="26" viewBox="0 0 26 26" fill="none" xmlns="http://www.w3.org/2000/svg">
<rect x="0.75" y="0.75" width="24.5" height="24.5" rx="2.25" fill="white" stroke="#FCC647" stroke-width="0.5"/>
<path d="M9.32667 4.42857C10.004 4.42857 10.5512 4.90737 10.5512 5.5V6.57143H15.4491V5.5C15.4491 4.90737 15.9963 4.42857 16.6736 4.42857C17.3509 4.42857 17.8981 4.90737 17.8981 5.5V6.57143H19.7348C20.7489 6.57143 21.5716 7.2913 21.5716 8.17857V9.78572H4.42871V8.17857C4.42871 7.2913 5.25142 6.57143 6.26545 6.57143H8.10218V5.5C8.10218 4.90737 8.64937 4.42857 9.32667 4.42857ZM4.42871 10.8571H21.5716V19.9643C21.5716 20.8516 20.7489 21.5714 19.7348 21.5714H6.26545C5.25142 21.5714 4.42871 20.8516 4.42871 19.9643V10.8571ZM6.87769 13.5357V14.6071C6.87769 14.9018 7.1532 15.1429 7.48994 15.1429H8.71443C9.05116 15.1429 9.32667 14.9018 9.32667 14.6071V13.5357C9.32667 13.2411 9.05116 13 8.71443 13H7.48994C7.1532 13 6.87769 13.2411 6.87769 13.5357ZM11.7757 13.5357V14.6071C11.7757 14.9018 12.0512 15.1429 12.3879 15.1429H13.6124C13.9491 15.1429 14.2246 14.9018 14.2246 14.6071V13.5357C14.2246 13.2411 13.9491 13 13.6124 13H12.3879C12.0512 13 11.7757 13.2411 11.7757 13.5357ZM17.2859 13C16.9491 13 16.6736 13.2411 16.6736 13.5357V14.6071C16.6736 14.9018 16.9491 15.1429 17.2859 15.1429H18.5103C18.8471 15.1429 19.1226 14.9018 19.1226 14.6071V13.5357C19.1226 13.2411 18.8471 13 18.5103 13H17.2859ZM6.87769 17.8214V18.8929C6.87769 19.1875 7.1532 19.4286 7.48994 19.4286H8.71443C9.05116 19.4286 9.32667 19.1875 9.32667 18.8929V17.8214C9.32667 17.5268 9.05116 17.2857 8.71443 17.2857H7.48994C7.1532 17.2857 6.87769 17.5268 6.87769 17.8214ZM12.3879 17.2857C12.0512 17.2857 11.7757 17.5268 11.7757 17.8214V18.8929C11.7757 19.1875 12.0512 19.4286 12.3879 19.4286H13.6124C13.9491 19.4286 14.2246 19.1875 14.2246 18.8929V17.8214C14.2246 17.5268 13.9491 17.2857 13.6124 17.2857H12.3879ZM16.6736 17.8214V18.8929C16.6736 19.1875 16.9491 19.4286 17.2859 19.4286H18.5103C18.8471 19.4286 19.1226 19.1875 19.1226 18.8929V17.8214C19.1226 17.5268 18.8471 17.2857 18.5103 17.2857H17.2859C16.9491 17.2857 16.6736 17.5268 16.6736 17.8214Z" fill="#2F3443"/>
</svg>
