<svg width="16" height="16" viewBox="0 0 16 16" fill="none" xmlns="http://www.w3.org/2000/svg">
<g clip-path="url(#clip0_38_668)">
<path d="M4 10.0293H8.82C9.04667 10.0293 9.23333 9.95704 9.38 9.81257C9.52667 9.66811 9.6 9.48953 9.6 9.27684C9.6 9.06365 9.5232 8.88482 9.3696 8.74035C9.216 8.59588 9.02613 8.5239 8.8 8.5244H3.98C3.75333 8.5244 3.56667 8.59663 3.42 8.7411C3.27333 8.88557 3.2 9.06415 3.2 9.27684C3.2 9.49003 3.2768 9.66886 3.4304 9.81333C3.584 9.9578 3.77387 10.0298 4 10.0293ZM4 7.77196H12.02C12.2467 7.77196 12.4333 7.69972 12.58 7.55526C12.7267 7.41079 12.8 7.23221 12.8 7.01952C12.8 6.80633 12.7232 6.6275 12.5696 6.48303C12.416 6.33856 12.2261 6.26658 12 6.26708H3.98C3.75333 6.26708 3.56667 6.33931 3.42 6.48378C3.27333 6.62825 3.2 6.80683 3.2 7.01952C3.2 7.23271 3.2768 7.41154 3.4304 7.55601C3.584 7.70048 3.77387 7.77246 4 7.77196ZM4 5.51464H12.02C12.2467 5.51464 12.4333 5.44241 12.58 5.29794C12.7267 5.15347 12.8 4.97489 12.8 4.7622C12.8 4.54901 12.7232 4.37018 12.5696 4.22571C12.416 4.08124 12.2261 4.00926 12 4.00976H3.98C3.75333 4.00976 3.56667 4.08199 3.42 4.22646C3.27333 4.37093 3.2 4.54951 3.2 4.7622C3.2 4.97539 3.2768 5.15422 3.4304 5.29869C3.584 5.44316 3.77387 5.51514 4 5.51464ZM1.30293e-06 14.2241V2.50488C1.30293e-06 2.09104 0.156801 1.73664 0.470401 1.44168C0.784001 1.14673 1.16053 0.9995 1.6 1H14.4C14.84 1 15.2168 1.14748 15.5304 1.44244C15.844 1.73739 16.0005 2.09154 16 2.50488V11.5342C16 11.948 15.8432 12.3024 15.5296 12.5974C15.216 12.8923 14.8395 13.0395 14.4 13.039H3.2L1.36 14.7696C1.10667 15.0079 0.816534 15.0613 0.489601 14.9299C0.162668 14.7985 -0.00053203 14.5632 1.30293e-06 14.2241ZM1.6 12.4183L2.54 11.5342H14.4V2.50488H1.6V12.4183Z" fill="#2F3443" fill-opacity="0.9"/>
</g>
<defs>
<clipPath id="clip0_38_668">
<rect width="16" height="16" fill="white"/>
</clipPath>
</defs>
</svg>
