<svg width="10" height="10" viewBox="0 0 10 10" fill="none" xmlns="http://www.w3.org/2000/svg">
<path d="M0.974422 10C0.706456 10 0.47698 9.90467 0.285993 9.71401C0.0950068 9.52334 -0.00032398 9.29387 8.27183e-07 9.02558V2.20463C8.27183e-07 1.93666 0.0954941 1.70719 0.286481 1.5162C0.477467 1.32521 0.706781 1.22988 0.974422 1.23021H5.32278L4.34836 2.20463H0.974422V9.02558H7.79537V5.63946L8.76979 4.66504V9.02558C8.76979 9.29354 8.6743 9.52302 8.48331 9.71401C8.29233 9.90499 8.06301 10.0003 7.79537 10H0.974422ZM6.419 1.51035L7.11328 2.19245L3.89769 5.40804V6.10231H4.57978L7.80755 2.87454L8.50183 3.55664L4.99391 7.07673H2.92326V5.00609L6.419 1.51035ZM8.50183 3.55664L6.419 1.51035L7.63703 0.292326C7.83191 0.0974422 8.06545 0 8.33764 0C8.60983 0 8.83914 0.0974422 9.02558 0.292326L9.70767 0.986601C9.89444 1.17337 9.98782 1.40073 9.98782 1.6687C9.98782 1.93666 9.89444 2.16403 9.70767 2.35079L8.50183 3.55664Z" fill="#FFB300"/>
</svg>
