<svg width="182" height="138" viewBox="0 0 182 138" fill="none" xmlns="http://www.w3.org/2000/svg">
<g opacity="0.45">
<path d="M1.36682 46.9074C1.36682 36.2583 10.6196 27.625 22.0331 27.625H26.3438C24.3274 25.9962 23.0501 23.5924 23.0501 20.9081C23.0501 16.003 27.3128 12.0258 32.5695 12.0258H46.917C45.4661 10.8605 44.5432 9.13758 44.5432 7.21384C44.5432 3.70423 47.5933 0.858887 51.3553 0.858887H87.3819C91.1449 0.858887 94.1929 3.70423 94.1929 7.21384C94.1929 10.7234 91.1438 13.5698 87.3819 13.5698H73.8978C71.3891 15.1682 69.7365 17.8588 69.7365 20.9112C69.7365 23.5955 71.0138 25.9994 73.0302 27.6281H95.2152C106.629 27.6281 115.881 36.2615 115.881 46.9106C115.881 57.5607 106.629 66.1941 95.2152 66.1941H124.606C129.863 66.1941 134.126 70.1692 134.126 75.0763C134.126 79.9835 129.863 83.9586 124.606 83.9586H136.581C149.665 83.9586 160.526 92.8095 162.682 104.443H166.869C175.022 104.443 181.641 110.615 181.641 118.226V119.623C181.641 127.235 175.028 133.406 166.869 133.406H27.8636C13.2297 133.406 1.36682 122.336 1.36682 108.683C1.36682 95.0293 13.2297 83.9597 27.8636 83.9597H74.25C68.9923 83.9597 64.7307 79.9846 64.7307 75.0774C64.7307 70.1702 68.9923 66.1878 74.25 66.1878H22.0331C10.6196 66.1878 1.36682 57.5576 1.36682 46.9074Z" fill="#FCC647"/>
<path d="M106.685 13.5655C110.103 13.5655 112.873 10.7203 112.873 7.21055C112.873 3.7008 110.103 0.855591 106.685 0.855591C103.267 0.855591 100.497 3.7008 100.497 7.21055C100.497 10.7203 103.267 13.5655 106.685 13.5655Z" fill="#FCC647"/>
</g>
<path opacity="0.15" d="M91.5044 137.935C141.027 137.935 181.173 136.031 181.173 133.683C181.173 131.334 141.027 129.431 91.5044 129.431C41.9819 129.431 1.83606 131.334 1.83606 133.683C1.83606 136.031 41.9819 137.935 91.5044 137.935Z" fill="#6F3500"/>
<path d="M10.1743 126.791C10.4544 126.582 11.0252 126.832 12.8764 126.059C15.5774 124.933 16.632 119.116 16.632 119.116C12.522 118.6 12.7823 124.528 11.1966 125.541C10.4785 125.998 10.1409 126.442 9.98511 126.79L10.1743 126.791Z" fill="#66E8C4"/>
<path d="M15.3578 120.85C14.5122 122.574 13.515 125.117 11.831 125.927C11.4366 126.111 11.0753 126.358 10.7617 126.66C11.1673 126.609 11.807 126.503 12.8763 126.058C15.5773 124.932 16.632 119.115 16.632 119.115C16.632 119.115 16.2024 119.126 15.3578 120.85Z" fill="#3FD2C5"/>
<path d="M8.44023 126.791H8.88552C9.17506 126.175 9.26809 125.013 8.30016 122.892C6.50855 118.957 5.60438 113.854 6.85349 112.353C6.85349 112.353 2.5783 115.403 3.55041 118.574C4.46294 121.551 9.0559 123.534 8.44023 126.791Z" fill="#FCC647"/>
<path d="M8.62207 126.791H8.88549C9.17607 126.175 9.26806 125.013 8.30013 122.892C6.50852 118.957 5.60435 113.854 6.85346 112.353C6.85346 112.353 4.03121 115.492 5.10262 118.5C6.1594 121.469 9.41649 123.015 8.62207 126.791Z" fill="#FCC647"/>
<path d="M4.22353 125.128C5.84999 125.791 6.54614 126.233 6.9998 126.791H7.56843C7.14195 125.499 6.8869 124.118 5.88553 123.074C4.74722 121.887 0.362268 119.935 0.211748 119.708C0.0612274 119.481 2.02217 124.233 4.22353 125.128Z" fill="#49D3D5"/>
<path d="M7.06465 126.426C7.09914 126.531 7.14827 126.655 7.20785 126.791H7.56847C7.142 125.499 6.88695 124.118 5.88557 123.074C4.74726 121.887 0.362312 119.935 0.211792 119.708C0.211792 119.708 2.33998 122.379 4.70649 123.6C6.39985 124.474 6.84827 125.766 7.06465 126.426Z" fill="#FCC647"/>
<path d="M9.67461 124.926C9.63402 125.566 9.49292 126.196 9.2565 126.791H9.57008C10.6373 125.412 12.2805 122.734 11.9742 119.607C11.5248 115.038 11.0335 109.308 11.0335 109.308C11.0335 109.308 5.02312 113.869 7.98021 118.932C9.4551 121.45 9.7781 123.462 9.67461 124.926Z" fill="#66E8C7"/>
<path d="M9.97984 116.496C10.5892 120.283 10.5966 124.522 9.62549 126.316C9.80319 126.192 9.99238 126.059 10.1858 125.925C11.1641 124.434 12.2241 122.171 11.9711 119.607C11.5216 115.038 11.0303 109.308 11.0303 109.308C11.0303 109.308 9.18647 111.568 9.97984 116.496Z" fill="#3FD2C5"/>
<path d="M13.213 126.514H6.36744C6.22506 126.514 6.08441 126.545 5.95534 126.606C5.82626 126.666 5.71187 126.753 5.62018 126.862C5.52848 126.971 5.46169 127.099 5.42447 127.237C5.38726 127.374 5.38053 127.518 5.40474 127.659L6.27859 132.698C6.34452 133.044 6.52925 133.357 6.80096 133.582C7.07266 133.808 7.41432 133.931 7.76707 133.931H11.8081C12.1609 133.931 12.5025 133.808 12.7742 133.582C13.0459 133.357 13.2307 133.044 13.2966 132.698L14.1705 127.659C14.1948 127.519 14.1883 127.375 14.1515 127.238C14.1146 127.1 14.0483 126.973 13.9571 126.864C13.866 126.755 13.7522 126.667 13.6236 126.607C13.4951 126.546 13.355 126.515 13.213 126.514Z" fill="#CADBF9"/>
<path d="M14.184 127.526C14.1886 127.395 14.1668 127.264 14.1198 127.141C14.0728 127.019 14.0016 126.907 13.9105 126.812C13.8194 126.718 13.7102 126.643 13.5894 126.592C13.4687 126.54 13.3388 126.514 13.2077 126.514H6.36737C6.23625 126.514 6.10648 126.541 5.98579 126.592C5.8651 126.643 5.75596 126.718 5.66487 126.813C5.57377 126.907 5.50259 127.019 5.45555 127.141C5.40852 127.264 5.38659 127.395 5.39108 127.526H14.184Z" fill="#A1B7EB"/>
<path d="M13.2129 126.514H11.3063C11.4487 126.514 11.5893 126.545 11.7184 126.606C11.8475 126.666 11.9619 126.753 12.0536 126.862C12.1453 126.971 12.2121 127.099 12.2493 127.237C12.2865 127.374 12.2932 127.518 12.269 127.659L11.3941 132.698C11.3282 133.044 11.1435 133.357 10.8718 133.582C10.6 133.808 10.2584 133.931 9.90564 133.931H11.808C12.1608 133.931 12.5025 133.808 12.7742 133.582C13.0459 133.357 13.2306 133.044 13.2965 132.698L14.1704 127.659C14.1947 127.519 14.1882 127.375 14.1514 127.238C14.1145 127.1 14.0482 126.973 13.9571 126.864C13.8659 126.755 13.7521 126.667 13.6236 126.607C13.495 126.546 13.3549 126.515 13.2129 126.514Z" fill="#A1B7EB"/>
<path d="M173.915 126.791C174.197 126.582 174.766 126.832 176.618 126.059C179.319 124.933 180.374 119.116 180.374 119.116C176.264 118.6 176.524 124.528 174.939 125.541C174.222 125.998 173.883 126.442 173.728 126.79L173.915 126.791Z" fill="#66E8C4"/>
<path d="M179.099 120.85C178.254 122.574 177.257 125.117 175.573 125.927C175.179 126.111 174.817 126.358 174.504 126.66C174.909 126.609 175.549 126.503 176.619 126.058C179.32 124.932 180.374 119.115 180.374 119.115C180.374 119.115 179.945 119.126 179.099 120.85Z" fill="#3FD2C5"/>
<path d="M172.182 126.791H172.628C172.917 126.175 173.01 125.013 172.042 122.892C170.251 118.957 169.346 113.854 170.595 112.353C170.595 112.353 166.32 115.403 167.293 118.574C168.204 121.551 172.797 123.534 172.182 126.791Z" fill="#FCC647"/>
<path d="M172.363 126.791H172.627C172.917 126.175 173.01 125.013 172.042 122.892C170.251 118.957 169.346 113.854 170.594 112.353C170.594 112.353 167.772 115.492 168.844 118.5C169.9 121.469 173.157 123.015 172.363 126.791Z" fill="#FCC647"/>
<path d="M167.96 125.128C169.588 125.791 170.284 126.233 170.738 126.791H171.308C170.882 125.499 170.627 124.118 169.624 123.074C168.487 121.887 164.102 119.935 163.952 119.708C163.801 119.481 165.763 124.233 167.96 125.128Z" fill="#49D3D5"/>
<path d="M170.807 126.426C170.84 126.531 170.89 126.655 170.949 126.791H171.308C170.882 125.499 170.627 124.118 169.624 123.074C168.487 121.887 164.102 119.935 163.952 119.708C163.952 119.708 166.08 122.379 168.446 123.6C170.142 124.474 170.59 125.766 170.807 126.426Z" fill="#FCC647"/>
<path d="M173.417 124.926C173.375 125.566 173.234 126.195 172.999 126.791H173.312C174.381 125.412 176.023 122.734 175.716 119.607C175.267 115.038 174.776 109.308 174.776 109.308C174.776 109.308 168.765 113.869 171.723 118.932C173.196 121.45 173.52 123.462 173.417 124.926Z" fill="#66E8C7"/>
<path d="M173.721 116.496C174.33 120.283 174.339 124.522 173.368 126.316C173.544 126.192 173.735 126.059 173.928 125.925C174.906 124.434 175.965 122.171 175.713 119.607C175.264 115.038 174.773 109.308 174.773 109.308C174.773 109.308 172.932 111.568 173.721 116.496Z" fill="#3FD2C5"/>
<path d="M176.95 126.514H170.109C169.967 126.514 169.826 126.545 169.697 126.605C169.568 126.665 169.453 126.753 169.362 126.862C169.27 126.971 169.203 127.099 169.166 127.236C169.129 127.374 169.122 127.518 169.147 127.659L170.021 132.698C170.087 133.044 170.271 133.357 170.543 133.582C170.815 133.808 171.156 133.931 171.509 133.931H175.55C175.903 133.931 176.245 133.808 176.516 133.582C176.788 133.357 176.973 133.044 177.039 132.698L177.912 127.659C177.937 127.518 177.93 127.374 177.893 127.237C177.856 127.099 177.789 126.971 177.697 126.862C177.605 126.753 177.491 126.666 177.362 126.606C177.233 126.545 177.092 126.514 176.95 126.514Z" fill="#CADBF9"/>
<path d="M177.925 127.526C177.93 127.395 177.908 127.264 177.861 127.141C177.814 127.019 177.743 126.907 177.652 126.812C177.561 126.718 177.452 126.643 177.331 126.592C177.211 126.54 177.081 126.514 176.95 126.514H170.109C169.978 126.514 169.848 126.54 169.728 126.592C169.607 126.643 169.498 126.718 169.407 126.812C169.316 126.907 169.244 127.019 169.197 127.141C169.15 127.264 169.129 127.395 169.133 127.526H177.925Z" fill="#A1B7EB"/>
<path d="M176.95 126.514H175.047C175.19 126.514 175.33 126.545 175.459 126.606C175.589 126.666 175.703 126.753 175.795 126.862C175.886 126.971 175.953 127.099 175.99 127.237C176.028 127.374 176.034 127.518 176.01 127.659L175.136 132.698C175.07 133.044 174.886 133.357 174.614 133.582C174.342 133.808 174 133.931 173.648 133.931H175.55C175.903 133.931 176.245 133.808 176.516 133.582C176.788 133.357 176.973 133.044 177.039 132.698L177.912 127.659C177.937 127.518 177.93 127.374 177.893 127.237C177.856 127.099 177.789 126.971 177.697 126.862C177.605 126.753 177.491 126.666 177.362 126.606C177.233 126.545 177.092 126.514 176.95 126.514Z" fill="#A1B7EB"/>
<path d="M83.6366 58.3242L97.9914 50.0267L98.8778 47.0046L92.6281 36.1651C92.5468 36.0245 92.4131 35.922 92.2564 35.8798C92.0997 35.8377 91.9327 35.8594 91.7919 35.9402L75.7991 45.176C75.6589 45.2576 75.5566 45.3914 75.5145 45.5481C75.4724 45.7049 75.4939 45.8719 75.5744 46.0129L80.9241 55.2916L82.515 58.0282C82.6248 58.216 82.8045 58.3526 83.0147 58.4081C83.2249 58.4636 83.4486 58.4334 83.6366 58.3242Z" fill="#D5DBEB"/>
<path d="M92.6281 36.1651C92.5467 36.0245 92.4131 35.922 92.2564 35.8798C92.0997 35.8377 91.9326 35.8594 91.7919 35.9402L89.7515 37.118L97.22 50.4723L97.9935 50.0257L98.8789 47.0035L92.6281 36.1651Z" fill="#A0A3CB"/>
<path d="M98.8778 47.0045L98.8673 46.9878L97.0663 48.0276C97.0236 48.0525 96.9924 48.0934 96.9797 48.1412C96.967 48.189 96.9737 48.24 96.9984 48.2828L97.9955 50.012L98.8778 47.0045Z" fill="#FDFFFD"/>
<path d="M89.32 39.6814L88.6382 40.0752C88.4647 40.1754 88.4053 40.3973 88.5054 40.571L88.8988 41.2532C88.999 41.4269 89.2208 41.4864 89.3943 41.3862L90.076 40.9924C90.2495 40.8922 90.309 40.6702 90.2088 40.4966L89.8154 39.8144C89.7153 39.6407 89.4935 39.5812 89.32 39.6814Z" fill="#A0A3CB"/>
<path d="M87.129 41.5226L86.4442 41.9164C86.2699 42.0166 86.2099 42.2393 86.31 42.4137L86.7036 43.099C86.8037 43.2734 87.0262 43.3335 87.2005 43.2333L87.8853 42.8395C88.0595 42.7392 88.1196 42.5166 88.0195 42.3422L87.6259 41.6569C87.5257 41.4824 87.3033 41.4223 87.129 41.5226Z" fill="#A0A3CB"/>
<path d="M84.1314 42.6792L83.4497 43.073C83.2762 43.1732 83.2167 43.3951 83.3168 43.5688L83.7102 44.251C83.8104 44.4247 84.0322 44.4842 84.2057 44.384L84.8874 43.9902C85.0609 43.89 85.1204 43.668 85.0202 43.4944L84.6268 42.8122C84.5267 42.6385 84.3049 42.579 84.1314 42.6792Z" fill="#A0A3CB"/>
<path d="M81.9216 44.5302L81.2368 44.9241C81.0625 45.0243 81.0025 45.247 81.1026 45.4214L81.4962 46.1067C81.5963 46.2811 81.8188 46.3412 81.9931 46.241L82.6779 45.8472C82.8521 45.7469 82.9122 45.5243 82.8121 45.3499L82.4185 44.6646C82.3184 44.4901 82.0959 44.43 81.9216 44.5302Z" fill="#A0A3CB"/>
<path d="M93.155 46.0181L90.6682 41.7092C90.6571 41.6857 90.6372 41.6675 90.6127 41.6586C90.5882 41.6498 90.5612 41.6511 90.5376 41.6622L90.3808 41.7521C90.3604 41.7681 90.3467 41.791 90.3422 41.8165C90.3378 41.842 90.343 41.8683 90.3568 41.8902L92.8393 46.1969C92.8514 46.2199 92.8716 46.2375 92.8959 46.2464C92.9202 46.2553 92.947 46.2548 92.971 46.2451L93.1278 46.154C93.1481 46.1386 93.1621 46.1163 93.1671 46.0912C93.1721 46.0662 93.1678 46.0401 93.155 46.0181Z" fill="#A0A3CB"/>
<path d="M94.4312 49.7453L90.0411 42.1277C90.029 42.105 90.009 42.0876 89.9849 42.0787C89.9608 42.0698 89.9343 42.0701 89.9104 42.0796L89.7536 42.1706C89.7332 42.1865 89.7195 42.2095 89.7151 42.235C89.7106 42.2605 89.7158 42.2868 89.7296 42.3087L94.1197 49.9262C94.1251 49.938 94.1328 49.9486 94.1423 49.9574C94.1518 49.9662 94.1629 49.973 94.1751 49.9775C94.1872 49.9819 94.2001 49.984 94.213 49.9834C94.226 49.9829 94.2387 49.9798 94.2504 49.9744L94.4082 49.8834C94.4284 49.8673 94.442 49.8442 94.4462 49.8187C94.4505 49.7932 94.4451 49.7671 94.4312 49.7453Z" fill="#A0A3CB"/>
<path d="M90.3546 47.1605L88.0717 43.201C88.0661 43.1901 88.0583 43.1803 88.0489 43.1723C88.0395 43.1644 88.0286 43.1584 88.0168 43.1547C88.005 43.151 87.9926 43.1497 87.9803 43.1508C87.9681 43.1519 87.9561 43.1555 87.9452 43.1613L87.7884 43.2513C87.7675 43.265 87.7528 43.2864 87.7475 43.3108C87.7422 43.3353 87.7468 43.3609 87.7602 43.382L90.041 47.3414C90.0526 47.3634 90.0723 47.38 90.096 47.3876C90.1196 47.3952 90.1453 47.3933 90.1675 47.3822L90.3243 47.2912C90.3456 47.2779 90.3607 47.2566 90.3664 47.2321C90.3721 47.2076 90.3678 47.1818 90.3546 47.1605Z" fill="#A0A3CB"/>
<path d="M87.3137 43.5659L87.1571 43.6563C87.1141 43.6812 87.0993 43.7362 87.1242 43.7792L90.8035 50.1594C90.8283 50.2025 90.8833 50.2172 90.9263 50.1924L91.0829 50.1019C91.1259 50.0771 91.1406 50.0221 91.1158 49.979L87.4365 43.5988C87.4117 43.5558 87.3567 43.541 87.3137 43.5659Z" fill="#A0A3CB"/>
<path d="M88.6676 50.2286L85.4983 44.7325C85.4606 44.6666 85.3937 44.6341 85.3519 44.6592L85.1951 44.7492C85.1523 44.7743 85.1481 44.8475 85.1857 44.9124L88.355 50.4096C88.3926 50.4744 88.4595 50.5079 88.5003 50.4828L88.6581 50.3918C88.701 50.3677 88.7052 50.2945 88.6676 50.2286Z" fill="#A0A3CB"/>
<path d="M88.3873 51.259L84.8386 45.1049C84.8265 45.0852 84.8071 45.071 84.7847 45.0653C84.7622 45.0597 84.7384 45.063 84.7184 45.0746L84.5606 45.1656C84.5401 45.1771 84.525 45.1961 84.5186 45.2187C84.5121 45.2412 84.5148 45.2654 84.5261 45.2859L88.08 51.439C88.0858 51.4489 88.0936 51.4577 88.1028 51.4646C88.112 51.4716 88.1226 51.4766 88.1338 51.4794C88.1449 51.4822 88.1566 51.4828 88.168 51.4811C88.1794 51.4793 88.1904 51.4753 88.2002 51.4693L88.3581 51.3783C88.3775 51.3662 88.3915 51.3469 88.397 51.3246C88.4024 51.3024 88.399 51.2788 88.3873 51.259Z" fill="#A0A3CB"/>
<path d="M84.4039 51.0707L81.9213 46.764C81.9076 46.7421 81.9024 46.7158 81.9068 46.6903C81.9113 46.6648 81.925 46.6418 81.9454 46.6259L82.1022 46.5359C82.1261 46.5261 82.1527 46.5255 82.177 46.5342C82.2014 46.5429 82.2216 46.5603 82.2339 46.583L84.7164 50.8908C84.7238 50.9013 84.7291 50.9133 84.7319 50.9259C84.7347 50.9385 84.735 50.9515 84.7328 50.9643C84.7305 50.977 84.7258 50.9892 84.7189 51.0001C84.712 51.011 84.7029 51.0204 84.6924 51.0278L84.5356 51.1188C84.5116 51.1286 84.4848 51.129 84.4605 51.1201C84.4361 51.1112 84.416 51.0936 84.4039 51.0707Z" fill="#A0A3CB"/>
<path d="M86.991 54.0405L82.6008 46.4229C82.587 46.401 82.5818 46.3747 82.5863 46.3492C82.5907 46.3237 82.6044 46.3008 82.6248 46.2848L82.7816 46.1938C82.8056 46.1841 82.8324 46.1836 82.8567 46.1925C82.8811 46.2014 82.9012 46.219 82.9133 46.2419L87.3035 53.8606C87.317 53.8824 87.322 53.9084 87.3175 53.9337C87.3131 53.9589 87.2995 53.9817 87.2794 53.9976L87.1216 54.0886C87.1099 54.0941 87.0972 54.0971 87.0843 54.0977C87.0713 54.0982 87.0584 54.0962 87.0463 54.0917C87.0342 54.0872 87.023 54.0804 87.0135 54.0716C87.004 54.0628 86.9964 54.0522 86.991 54.0405Z" fill="#A0A3CB"/>
<path d="M107.866 53.2162L122.971 60.0523L125.941 59.0115L131.099 47.6092C131.166 47.4606 131.171 47.2914 131.114 47.1388C131.056 46.9862 130.941 46.8626 130.792 46.7953L113.971 39.1725C113.822 39.1053 113.653 39.0998 113.501 39.1573C113.348 39.2147 113.225 39.3305 113.157 39.479L108.742 49.2411L107.454 52.1293C107.365 52.3281 107.359 52.5542 107.436 52.7579C107.513 52.9616 107.668 53.1264 107.866 53.2162Z" fill="#D5DBEB"/>
<path d="M131.099 47.6134C131.166 47.4648 131.171 47.2957 131.114 47.143C131.056 46.9904 130.941 46.8669 130.792 46.7996L128.647 45.8278L122.157 59.6842L122.97 60.0524L125.941 59.0115L131.099 47.6134Z" fill="#A0A3CB"/>
<path d="M125.941 59.0115L125.95 58.9937L124.055 58.1359C124.033 58.1257 124.009 58.1201 123.984 58.1192C123.96 58.1184 123.935 58.1225 123.912 58.1311C123.889 58.1397 123.868 58.1528 123.85 58.1696C123.832 58.1864 123.818 58.2066 123.808 58.229L122.985 60.0471L125.941 59.0115Z" fill="#FDFFFD"/>
<path d="M125.107 46.8292L124.783 47.5468C124.7 47.7294 124.781 47.9445 124.964 48.0272L125.681 48.3521C125.863 48.4348 126.078 48.3537 126.161 48.1711L126.485 47.4535C126.568 47.2709 126.487 47.0558 126.304 46.9731L125.587 46.6482C125.405 46.5656 125.19 46.6466 125.107 46.8292Z" fill="#A0A3CB"/>
<path d="M122.377 45.5916L122.053 46.3092C121.97 46.4918 122.051 46.7069 122.234 46.7896L122.951 47.1145C123.133 47.1972 123.348 47.1162 123.431 46.9336L123.755 46.216C123.838 46.0334 123.757 45.8183 123.575 45.7356L122.857 45.4107C122.675 45.328 122.46 45.409 122.377 45.5916Z" fill="#A0A3CB"/>
<path d="M119.65 44.3574L119.325 45.075C119.243 45.2576 119.324 45.4727 119.506 45.5554L120.223 45.8803C120.406 45.963 120.621 45.8819 120.703 45.6993L121.028 44.9817C121.111 44.7991 121.03 44.584 120.847 44.5013L120.13 44.1764C119.948 44.0937 119.733 44.1748 119.65 44.3574Z" fill="#A0A3CB"/>
<path d="M116.92 43.119L116.596 43.8366C116.513 44.0192 116.594 44.2343 116.777 44.317L117.494 44.6419C117.676 44.7245 117.891 44.6435 117.974 44.4609L118.298 43.7433C118.381 43.5607 118.3 43.3456 118.117 43.2629L117.4 42.938C117.218 42.8553 117.003 42.9364 116.92 43.119Z" fill="#A0A3CB"/>
<path d="M123.406 53.7832L125.456 49.2536C125.468 49.2306 125.47 49.204 125.464 49.1791C125.457 49.1542 125.441 49.1327 125.42 49.1187L125.253 49.0434C125.229 49.0363 125.202 49.0385 125.179 49.0497C125.156 49.0609 125.138 49.0803 125.128 49.104L123.078 53.6346C123.067 53.6577 123.065 53.684 123.072 53.7087C123.078 53.7334 123.094 53.7547 123.116 53.7685L123.281 53.8438C123.293 53.8481 123.306 53.85 123.319 53.8492C123.332 53.8485 123.345 53.8452 123.356 53.8396C123.368 53.834 123.378 53.8261 123.387 53.8164C123.396 53.8067 123.402 53.7954 123.406 53.7832Z" fill="#A0A3CB"/>
<path d="M121.123 56.9926L124.744 48.9796C124.757 48.957 124.761 48.9302 124.754 48.9051C124.747 48.88 124.73 48.8587 124.708 48.8457L124.542 48.7704C124.517 48.7633 124.49 48.7656 124.467 48.7768C124.444 48.788 124.426 48.8073 124.416 48.8311L120.791 56.843C120.78 56.8662 120.777 56.8928 120.784 56.9177C120.791 56.9427 120.807 56.9641 120.829 56.978L120.994 57.0533C121.019 57.0616 121.047 57.0599 121.071 57.0486C121.095 57.0374 121.114 57.0173 121.123 56.9926Z" fill="#A0A3CB"/>
<path d="M120.848 52.1702L122.729 48.0057C122.74 47.9833 122.742 47.9575 122.734 47.9339C122.726 47.9102 122.709 47.8905 122.687 47.8791L122.522 47.8049C122.499 47.7956 122.473 47.7959 122.45 47.8057C122.427 47.8155 122.409 47.834 122.4 47.8572L120.518 52.0216C120.507 52.0438 120.505 52.0696 120.512 52.0933C120.52 52.1171 120.537 52.1368 120.559 52.1482L120.724 52.2235C120.748 52.2328 120.774 52.2324 120.797 52.2224C120.82 52.2124 120.838 52.1936 120.848 52.1702Z" fill="#A0A3CB"/>
<path d="M121.698 47.5763L118.661 54.2869C118.641 54.3322 118.661 54.3855 118.706 54.406L118.871 54.4806C118.916 54.5011 118.97 54.4811 118.99 54.4358L122.026 47.7251C122.047 47.6799 122.027 47.6265 121.981 47.6061L121.817 47.5314C121.771 47.5109 121.718 47.531 121.698 47.5763Z" fill="#A0A3CB"/>
<path d="M117.372 52.5886L119.985 46.8079C120.016 46.7389 120.005 46.6667 119.96 46.6458L119.795 46.5715C119.75 46.5506 119.69 46.5903 119.657 46.6583L117.044 52.44C117.012 52.5091 117.024 52.5813 117.069 52.6011L117.234 52.6764C117.279 52.6932 117.341 52.6576 117.372 52.5886Z" fill="#A0A3CB"/>
<path d="M116.373 52.961L119.299 46.4889C119.309 46.4674 119.309 46.4431 119.3 46.4214C119.292 46.3997 119.275 46.3822 119.253 46.3728L119.088 46.2975C119.067 46.2877 119.043 46.2867 119.021 46.2945C118.999 46.3023 118.981 46.3184 118.971 46.3393L116.044 52.8125C116.04 52.823 116.037 52.8344 116.037 52.846C116.037 52.8575 116.039 52.869 116.043 52.8797C116.048 52.8904 116.054 52.9001 116.062 52.9084C116.07 52.9166 116.08 52.9231 116.09 52.9275L116.256 53.0029C116.277 53.0126 116.301 53.0137 116.323 53.0058C116.345 52.998 116.362 52.9819 116.373 52.961Z" fill="#A0A3CB"/>
<path d="M114.204 49.6125L116.254 45.083C116.258 45.0707 116.264 45.0594 116.273 45.0497C116.282 45.0401 116.292 45.0322 116.304 45.0265C116.315 45.0209 116.328 45.0176 116.341 45.0169C116.354 45.0162 116.367 45.018 116.379 45.0223L116.544 45.0976C116.566 45.1114 116.581 45.1327 116.588 45.1574C116.595 45.1821 116.593 45.2084 116.582 45.2315L114.532 49.7642C114.523 49.7887 114.505 49.8088 114.482 49.82C114.458 49.8311 114.431 49.8325 114.407 49.8238L114.241 49.7495C114.219 49.7356 114.203 49.7138 114.196 49.6884C114.189 49.663 114.192 49.6359 114.204 49.6125Z" fill="#A0A3CB"/>
<path d="M113.3 53.4473L116.926 45.4343C116.935 45.4106 116.954 45.3912 116.977 45.3801C117 45.3689 117.026 45.3666 117.051 45.3737L117.216 45.449C117.238 45.4628 117.254 45.4843 117.261 45.5092C117.268 45.5342 117.265 45.5608 117.254 45.5839L113.629 53.5959C113.619 53.6199 113.601 53.6394 113.577 53.6506C113.554 53.6618 113.527 53.6639 113.502 53.6566L113.337 53.5812C113.316 53.5674 113.3 53.5461 113.293 53.5215C113.286 53.4968 113.288 53.4704 113.3 53.4473Z" fill="#A0A3CB"/>
<path d="M130.18 64.5192L137.462 79.4227L140.413 80.5159L151.648 75.025C151.794 74.9535 151.906 74.8268 151.96 74.6726C152.013 74.5184 152.002 74.3494 151.931 74.2028L143.826 57.5962C143.754 57.4498 143.628 57.3378 143.474 57.2848C143.32 57.2319 143.151 57.2423 143.004 57.3138L133.388 62.0159L130.556 63.4197C130.361 63.5157 130.211 63.6854 130.141 63.8915C130.07 64.0977 130.084 64.3234 130.18 64.5192Z" fill="#D5DBEB"/>
<path d="M151.645 75.0249C151.791 74.9534 151.903 74.8267 151.956 74.6725C152.009 74.5183 151.999 74.3493 151.928 74.2027L150.894 72.0844L137.067 78.6203L137.459 79.4226L140.41 80.5158L151.645 75.0249Z" fill="#A0A3CB"/>
<path d="M140.41 80.519L140.428 80.5106L139.515 78.6413C139.504 78.6192 139.489 78.5994 139.471 78.5831C139.453 78.5668 139.431 78.5543 139.408 78.5463C139.385 78.5384 139.36 78.5351 139.336 78.5366C139.311 78.5382 139.287 78.5446 139.265 78.5555L137.473 79.4311L140.41 80.519Z" fill="#FDFFFD"/>
<path d="M147.526 70.6092L146.819 70.9548C146.639 71.0428 146.564 71.2602 146.652 71.4403L146.998 72.1481C147.086 72.3282 147.303 72.403 147.483 72.315L148.19 71.9693C148.37 71.8813 148.445 71.664 148.357 71.4838L148.011 70.776C147.924 70.5959 147.706 70.5212 147.526 70.6092Z" fill="#A0A3CB"/>
<path d="M146.211 67.9158L145.504 68.2615C145.324 68.3495 145.249 68.5668 145.337 68.7469L145.683 69.4547C145.77 69.6349 145.988 69.7096 146.168 69.6216L146.875 69.2759C147.055 69.188 147.13 68.9706 147.042 68.7905L146.696 68.0827C146.608 67.9025 146.391 67.8278 146.211 67.9158Z" fill="#A0A3CB"/>
<path d="M144.898 65.2218L144.191 65.5675C144.011 65.6555 143.936 65.8728 144.024 66.053L144.37 66.7608C144.457 66.9409 144.675 67.0156 144.855 66.9276L145.562 66.582C145.742 66.494 145.817 66.2767 145.729 66.0965L145.383 65.3887C145.295 65.2086 145.078 65.1339 144.898 65.2218Z" fill="#A0A3CB"/>
<path d="M143.583 62.5285L142.875 62.8742C142.695 62.9621 142.621 63.1795 142.709 63.3596L143.054 64.0674C143.142 64.2476 143.359 64.3223 143.539 64.2343L144.246 63.8886C144.426 63.8006 144.501 63.5833 144.413 63.4032L144.068 62.6953C143.98 62.5152 143.763 62.4405 143.583 62.5285Z" fill="#A0A3CB"/>
<path d="M141.788 74.8701L146.253 72.6869C146.265 72.6824 146.276 72.6755 146.285 72.6667C146.295 72.6579 146.302 72.6473 146.307 72.6355C146.313 72.6237 146.315 72.611 146.316 72.5981C146.316 72.5852 146.314 72.5724 146.309 72.5604L146.23 72.3972C146.216 72.3749 146.194 72.3588 146.169 72.3525C146.144 72.3462 146.117 72.3503 146.095 72.3637L141.629 74.5458C141.606 74.5564 141.587 74.5753 141.577 74.5988C141.566 74.6224 141.565 74.649 141.573 74.6735L141.652 74.8367C141.667 74.8581 141.689 74.8733 141.714 74.8795C141.739 74.8857 141.766 74.8823 141.788 74.8701Z" fill="#A0A3CB"/>
<path d="M137.985 75.8869L145.882 72.0269C145.905 72.0163 145.924 71.9974 145.935 71.9739C145.945 71.9503 145.946 71.9238 145.938 71.8993L145.859 71.7319C145.845 71.7096 145.824 71.6935 145.798 71.6872C145.773 71.6809 145.746 71.685 145.724 71.6984L137.827 75.5585C137.803 75.5689 137.784 75.5877 137.774 75.6112C137.763 75.6348 137.762 75.6615 137.769 75.6861L137.85 75.8493C137.864 75.8711 137.885 75.8871 137.91 75.894C137.935 75.901 137.962 75.8985 137.985 75.8869Z" fill="#A0A3CB"/>
<path d="M140.842 71.9976L144.947 69.9912C144.969 69.9813 144.987 69.9628 144.997 69.9397C145.006 69.9165 145.005 69.8907 144.996 69.8678L144.916 69.7046C144.904 69.6827 144.884 69.6664 144.86 69.6594C144.836 69.6523 144.811 69.655 144.789 69.667L140.684 71.6733C140.661 71.6832 140.643 71.7018 140.634 71.7249C140.625 71.748 140.625 71.7739 140.635 71.7968L140.714 71.961C140.726 71.9827 140.747 71.9988 140.77 72.0056C140.794 72.0125 140.82 72.0096 140.842 71.9976Z" fill="#A0A3CB"/>
<path d="M144.424 69.0088L137.809 72.2415C137.765 72.2633 137.746 72.3172 137.768 72.3618L137.847 72.5245C137.869 72.5691 137.923 72.5876 137.968 72.5658L144.582 69.3331C144.626 69.3113 144.645 69.2574 144.623 69.2128L144.544 69.0501C144.522 69.0055 144.468 68.987 144.424 69.0088Z" fill="#A0A3CB"/>
<path d="M137.899 70.1L143.598 67.3154C143.665 67.2819 143.703 67.2191 143.681 67.1741L143.601 67.0109C143.579 66.967 143.507 66.9576 143.439 66.9911L137.741 69.7757C137.673 69.8092 137.637 69.872 137.658 69.9159L137.738 70.0801C137.759 70.1241 137.832 70.1335 137.899 70.1Z" fill="#A0A3CB"/>
<path d="M136.893 69.7496L143.269 66.6312C143.289 66.6205 143.305 66.602 143.312 66.5799C143.319 66.5577 143.317 66.5337 143.306 66.513L143.227 66.3498C143.222 66.3393 143.215 66.3298 143.207 66.3219C143.198 66.314 143.188 66.3079 143.177 66.3039C143.166 66.3 143.155 66.2982 143.143 66.2987C143.132 66.2992 143.12 66.302 143.11 66.3069L136.734 69.4253C136.723 69.4305 136.714 69.4377 136.707 69.4465C136.699 69.4553 136.694 69.4655 136.69 69.4765C136.686 69.4875 136.685 69.4991 136.686 69.5106C136.687 69.5221 136.691 69.5333 136.696 69.5435L136.775 69.7067C136.785 69.7278 136.803 69.7441 136.825 69.7521C136.847 69.7601 136.871 69.7592 136.893 69.7496Z" fill="#A0A3CB"/>
<path d="M137.355 65.786L141.819 63.6038C141.842 63.5916 141.868 63.5883 141.893 63.5945C141.918 63.6006 141.94 63.6159 141.955 63.6373L142.034 63.8005C142.042 63.825 142.041 63.8516 142.03 63.8751C142.02 63.8987 142.001 63.9175 141.978 63.9281L137.512 66.1103C137.49 66.1237 137.463 66.1277 137.438 66.1215C137.413 66.1152 137.391 66.0991 137.378 66.0768L137.297 65.9136C137.289 65.889 137.291 65.8623 137.301 65.8387C137.312 65.8152 137.331 65.7964 137.355 65.786Z" fill="#A0A3CB"/>
<path d="M134.216 68.1637L142.113 64.3037C142.135 64.2914 142.162 64.2881 142.187 64.2943C142.212 64.3005 142.234 64.3157 142.249 64.3371L142.328 64.5003C142.336 64.525 142.334 64.5516 142.324 64.5752C142.313 64.5988 142.294 64.6175 142.271 64.6279L134.373 68.488C134.351 68.4999 134.325 68.5031 134.3 68.4969C134.275 68.4908 134.253 68.4757 134.239 68.4545L134.159 68.2913C134.151 68.2668 134.153 68.2403 134.163 68.2167C134.173 68.1932 134.192 68.1743 134.216 68.1637Z" fill="#A0A3CB"/>
<path d="M138.509 100.269L130.109 93.1389L135.754 86.4764L136.234 85.9094L137.904 87.3269L138.197 88.5497L144.155 93.6054L138.509 100.269Z" fill="#F3B344"/>
<path d="M135.518 87.3563L135.182 87.7528L143.015 94.401L143.351 94.0045L135.518 87.3563Z" fill="#F1F2F2"/>
<path d="M138.678 100.412L129.762 92.8482C129.728 92.8198 129.701 92.7851 129.681 92.7461C129.661 92.7071 129.648 92.6645 129.645 92.6208C129.641 92.5771 129.646 92.5331 129.66 92.4913C129.673 92.4496 129.695 92.4109 129.723 92.3774L134.071 87.2453C134.129 87.178 134.21 87.1361 134.299 87.1288C134.387 87.1216 134.474 87.1495 134.542 87.2066L143.455 94.7709C143.522 94.8283 143.564 94.91 143.571 94.9982C143.579 95.0865 143.551 95.174 143.494 95.2416L139.145 100.374C139.088 100.44 139.007 100.481 138.919 100.489C138.832 100.496 138.745 100.469 138.678 100.412Z" fill="#D88130"/>
<path d="M134.207 88.0904L130.099 92.8979C129.984 93.0318 130 93.2332 130.134 93.3478L138.742 100.716C138.876 100.83 139.077 100.815 139.192 100.681L143.3 95.8731C143.415 95.7392 143.399 95.5378 143.265 95.4233L134.657 88.0553C134.523 87.9408 134.322 87.9565 134.207 88.0904Z" fill="#F3B344"/>
<path d="M136.436 91.6786C137.401 91.664 138.177 91.2131 138.98 90.9704L134.533 87.1972C134.469 87.1427 134.385 87.1159 134.301 87.1228C134.217 87.1296 134.139 87.1695 134.084 87.2338L131.135 90.7141C132.148 90.9934 134.231 91.7121 136.436 91.6786Z" fill="#F9BE69"/>
<path d="M158.453 88.3081L153.245 92.9674C153.206 93.0019 153.225 93.0793 153.272 93.0803L163.505 93.2153C163.552 93.2153 163.572 93.1389 163.535 93.1034L158.453 88.3081Z" fill="#FAD362"/>
<path d="M163.288 98.84L153.351 98.7804C153.317 98.7802 153.283 98.7734 153.252 98.7604C153.221 98.7473 153.193 98.7282 153.169 98.7043C153.145 98.6803 153.126 98.6518 153.114 98.6205C153.101 98.5893 153.094 98.5558 153.094 98.522L153.126 93.2246C153.126 93.1907 153.133 93.1571 153.146 93.1258C153.159 93.0945 153.178 93.0661 153.202 93.0422C153.226 93.0183 153.255 92.9994 153.286 92.9866C153.318 92.9737 153.351 92.9671 153.385 92.9673L163.323 93.0259C163.391 93.0264 163.456 93.054 163.504 93.1027C163.552 93.1513 163.579 93.217 163.579 93.2853L163.547 98.5827C163.547 98.6166 163.54 98.6502 163.527 98.6815C163.514 98.7128 163.495 98.7412 163.471 98.7651C163.447 98.7889 163.418 98.8079 163.387 98.8207C163.356 98.8336 163.322 98.8401 163.288 98.84Z" fill="#DA8642"/>
<path d="M161.508 89.3898H154.939C154.937 89.3898 154.935 89.3916 154.935 89.3939V97.8149C154.935 97.8172 154.937 97.8191 154.939 97.8191H161.508C161.51 97.8191 161.512 97.8172 161.512 97.8149V89.3939C161.512 89.3916 161.51 89.3898 161.508 89.3898Z" fill="url(#paint0_linear_644_105)"/>
<path d="M158.547 90.8563H155.722V91.0969H158.547V90.8563Z" fill="#FCC647"/>
<path d="M157.581 96.2375H160.597C160.615 96.2366 160.631 96.2325 160.647 96.2251C160.662 96.2178 160.676 96.2075 160.688 96.1948C160.699 96.182 160.708 96.1671 160.714 96.151C160.72 96.1348 160.723 96.1176 160.722 96.1004C160.723 96.0832 160.72 96.0661 160.714 96.0499C160.708 96.0337 160.699 96.0188 160.688 96.0061C160.676 95.9933 160.662 95.983 160.647 95.9757C160.631 95.9684 160.615 95.9642 160.597 95.9634H157.579C157.544 95.9668 157.513 95.9837 157.491 96.0104C157.469 96.037 157.458 96.0713 157.462 96.1056C157.461 96.1385 157.473 96.1703 157.496 96.1947C157.518 96.2191 157.548 96.2343 157.581 96.2375Z" fill="#FCC647"/>
<path d="M159.225 95.6872H160.597C160.615 95.6864 160.631 95.6822 160.647 95.6748C160.663 95.6675 160.677 95.6572 160.688 95.6445C160.7 95.6317 160.709 95.6168 160.714 95.6007C160.72 95.5845 160.723 95.5673 160.722 95.5501C160.723 95.5329 160.72 95.5158 160.714 95.4996C160.709 95.4834 160.7 95.4685 160.688 95.4558C160.677 95.443 160.663 95.4327 160.647 95.4254C160.631 95.4181 160.615 95.4139 160.597 95.4131H159.223C159.206 95.4139 159.189 95.4181 159.173 95.4254C159.158 95.4327 159.144 95.443 159.132 95.4558C159.121 95.4685 159.112 95.4834 159.106 95.4996C159.1 95.5158 159.098 95.5329 159.099 95.5501C159.098 95.5675 159.1 95.5848 159.106 95.6011C159.112 95.6175 159.121 95.6324 159.133 95.6452C159.145 95.6579 159.159 95.6682 159.175 95.6754C159.191 95.6826 159.208 95.6866 159.225 95.6872Z" fill="#FCC647"/>
<path d="M160.71 92.8429H156.692C156.684 92.8429 156.677 92.8494 156.677 92.8575V93.0291C156.677 93.0372 156.684 93.0437 156.692 93.0437H160.71C160.718 93.0437 160.725 93.0372 160.725 93.0291V92.8575C160.725 92.8494 160.718 92.8429 160.71 92.8429Z" fill="#FCC647"/>
<path d="M156.301 92.6671H155.825C155.818 92.6671 155.813 92.6723 155.813 92.6786V93.2079C155.813 93.2143 155.818 93.2194 155.825 93.2194H156.301C156.308 93.2194 156.313 93.2143 156.313 93.2079V92.6786C156.313 92.6723 156.308 92.6671 156.301 92.6671Z" fill="#FCC647"/>
<path d="M160.71 93.6451H156.692C156.684 93.6451 156.677 93.6517 156.677 93.6598V93.8313C156.677 93.8394 156.684 93.846 156.692 93.846H160.71C160.718 93.846 160.725 93.8394 160.725 93.8313V93.6598C160.725 93.6517 160.718 93.6451 160.71 93.6451Z" fill="#FCC647"/>
<path d="M156.301 93.4695H155.825C155.818 93.4695 155.813 93.4746 155.813 93.481V94.0093C155.813 94.0156 155.818 94.0208 155.825 94.0208H156.301C156.308 94.0208 156.313 94.0156 156.313 94.0093V93.481C156.313 93.4746 156.308 93.4695 156.301 93.4695Z" fill="#FCC647"/>
<path d="M160.71 94.4475H156.692C156.684 94.4475 156.677 94.4541 156.677 94.4622V94.6337C156.677 94.6418 156.684 94.6483 156.692 94.6483H160.71C160.718 94.6483 160.725 94.6418 160.725 94.6337V94.4622C160.725 94.4541 160.718 94.4475 160.71 94.4475Z" fill="#FCC647"/>
<path d="M156.301 94.2728H155.825C155.818 94.2728 155.813 94.278 155.813 94.2843V94.8137C155.813 94.82 155.818 94.8252 155.825 94.8252H156.301C156.308 94.8252 156.313 94.82 156.313 94.8137V94.2843C156.313 94.278 156.308 94.2728 156.301 94.2728Z" fill="#FCC647"/>
<path d="M160.672 92.0028H155.729C155.725 92.0028 155.722 92.0061 155.722 92.0101V92.0959C155.722 92.1 155.725 92.1032 155.729 92.1032H160.672C160.676 92.1032 160.679 92.1 160.679 92.0959V92.0101C160.679 92.0061 160.676 92.0028 160.672 92.0028Z" fill="#FCC647"/>
<path d="M159.349 90.3522V91.7843H160.664V90.3522H159.349ZM160.604 91.7215H160.534C160.509 91.6138 160.474 91.5087 160.429 91.4077L160.353 91.3752H160.344C160.291 91.3575 160.223 91.3407 160.195 91.3334H160.182L160.134 91.2853L160.125 91.233C160.134 91.2234 160.143 91.2132 160.151 91.2026C160.169 91.1764 160.182 91.1479 160.192 91.1179C160.226 91.1367 160.259 91.0813 160.255 91.0405C160.25 90.9997 160.228 91.0154 160.219 91.0206C160.21 91.0259 160.219 91.0049 160.224 90.9966V90.9903V90.984V90.9788V90.9715V90.9652V90.9568C160.224 90.9568 160.224 90.9516 160.224 90.9495V90.9401C160.224 90.9373 160.224 90.9345 160.224 90.9317C160.224 90.9282 160.224 90.9247 160.224 90.9212C160.224 90.9212 160.224 90.9212 160.224 90.9129C160.224 90.9094 160.224 90.9059 160.224 90.9024V90.8972C160.227 90.8732 160.227 90.849 160.224 90.825C160.225 90.8219 160.225 90.8187 160.224 90.8156C160.224 90.8156 160.224 90.8083 160.224 90.8041V90.7947C160.225 90.7912 160.225 90.7877 160.224 90.7842C160.224 90.7842 160.224 90.7758 160.224 90.7727V90.7643C160.221 90.7578 160.218 90.7515 160.214 90.7455C160.192 90.7142 160.163 90.6882 160.13 90.6698C160.096 90.6513 160.059 90.6407 160.021 90.6389C159.983 90.6371 159.945 90.6441 159.91 90.6593C159.875 90.6745 159.843 90.6975 159.819 90.7267H159.806C159.796 90.7295 159.788 90.7345 159.78 90.7413C159.776 90.745 159.773 90.7493 159.77 90.7539C159.761 90.7682 159.756 90.7843 159.754 90.8009C159.753 90.8041 159.753 90.8072 159.754 90.8104C159.754 90.8166 159.754 90.8229 159.754 90.8292C159.754 90.8292 159.754 90.8376 159.754 90.8417V90.9192C159.753 90.9237 159.753 90.9282 159.754 90.9328C159.754 90.9328 159.754 90.9422 159.754 90.9464C159.756 90.9621 159.76 90.9776 159.765 90.9924C159.765 91.0049 159.765 91.0175 159.774 91.0321C159.774 91.0321 159.736 91.0091 159.734 91.0499C159.733 91.0633 159.735 91.0767 159.74 91.0891C159.745 91.1016 159.753 91.1128 159.762 91.1221C159.766 91.1246 159.77 91.1267 159.774 91.1284H159.786H159.799C159.806 91.1464 159.815 91.1639 159.825 91.1807L159.841 91.2037L159.849 91.2141L159.862 91.2267L159.854 91.2581L159.795 91.3072C159.757 91.3159 159.72 91.3282 159.684 91.3439L159.618 91.3669C159.605 91.3712 159.593 91.3782 159.584 91.3874C159.574 91.3966 159.566 91.4078 159.561 91.4202C159.517 91.5217 159.482 91.6267 159.456 91.734H159.388V90.4275H160.579L160.604 91.7215Z" fill="#FCC647"/>
<path d="M154.551 94.1986V97.8682H162.258V94.1515L158.389 97.2374L154.551 94.1986Z" fill="#DA8642"/>
<path d="M156.653 95.8096L156.937 96.0303L158.357 97.0962L159.841 96.047L160.015 95.8294L161.116 96.6851L158.552 98.111L156.037 96.2772L156.653 95.8096Z" fill="#DA8642"/>
<path d="M156.653 95.8096L153.148 93.1222C153.133 93.1551 153.126 93.1908 153.126 93.2268L153.094 98.5095L156.653 95.8096Z" fill="#FAD362"/>
<path d="M163.547 98.5733L163.578 93.2864C163.578 93.2504 163.571 93.2148 163.557 93.1818L160.015 95.8304L163.547 98.5733Z" fill="#FAD362"/>
<path d="M163.288 98.84C163.352 98.8397 163.413 98.8159 163.46 98.7731L159.841 96.047L158.357 97.0931L156.939 96.0303L153.368 98.7804L163.288 98.84Z" fill="#FAD362"/>
<path d="M157.275 96.2908L148.05 98.7491C147.975 98.7691 147.897 98.7742 147.82 98.764C147.744 98.7538 147.67 98.7285 147.603 98.6896C147.536 98.6508 147.477 98.599 147.43 98.5374C147.384 98.4758 147.349 98.4055 147.33 98.3306L145.825 92.6755C145.806 92.6007 145.801 92.5227 145.811 92.446C145.821 92.3693 145.846 92.2953 145.885 92.2284C145.924 92.1615 145.976 92.1029 146.037 92.0559C146.099 92.0089 146.169 91.9746 146.244 91.9548L155.47 89.4965C155.621 89.4566 155.782 89.4783 155.916 89.5567C156.051 89.6352 156.149 89.764 156.189 89.9149L157.695 95.5711C157.714 95.6459 157.719 95.7238 157.709 95.8005C157.698 95.8771 157.673 95.951 157.634 96.0178C157.595 96.0847 157.543 96.1432 157.482 96.19C157.42 96.2368 157.35 96.2711 157.275 96.2908Z" fill="white"/>
<path d="M153.699 93.3513L153.071 94.8587L150.378 92.7791L147.4 98.5179C147.499 98.7564 147.826 98.8798 148.172 98.7878L157.202 96.3818C157.57 96.2845 157.81 95.9853 157.737 95.7154L157.556 95.0302L153.699 93.3513Z" fill="#FCC647"/>
<path d="M154.744 91.4317C154.777 91.5503 154.775 91.6762 154.736 91.7933C154.698 91.9105 154.626 92.0135 154.529 92.0895C154.432 92.1654 154.314 92.2107 154.192 92.2197C154.069 92.2287 153.946 92.2009 153.839 92.1399C153.732 92.0789 153.645 91.9874 153.591 91.8771C153.536 91.7668 153.515 91.6426 153.531 91.5204C153.546 91.3981 153.598 91.2834 153.679 91.1906C153.76 91.0979 153.867 91.0314 153.986 90.9996C154.144 90.9563 154.312 90.9776 154.454 91.0586C154.597 91.1396 154.701 91.2738 154.744 91.4317Z" fill="#FCC647"/>
<path d="M167.795 121.993L167.635 120.947L169.09 120.723C169.152 120.714 169.207 120.681 169.244 120.631C169.282 120.581 169.298 120.518 169.289 120.456L168.557 115.677C168.552 115.646 168.542 115.617 168.525 115.591C168.509 115.565 168.488 115.542 168.463 115.524C168.438 115.506 168.41 115.493 168.38 115.486C168.35 115.478 168.319 115.477 168.289 115.482L166.834 115.706L166.674 114.66L168.129 114.436C168.469 114.382 168.817 114.465 169.096 114.667C169.375 114.869 169.563 115.174 169.618 115.515L170.35 120.295C170.399 120.637 170.311 120.985 170.105 121.262C169.899 121.539 169.592 121.723 169.25 121.773L167.795 121.993Z" fill="#FFB300"/>
<path d="M169.04 130.922L165.659 105.667C165.623 105.398 165.535 105.138 165.399 104.903C165.263 104.668 165.082 104.462 164.866 104.297C164.651 104.131 164.405 104.01 164.143 103.94C163.881 103.87 163.607 103.853 163.338 103.888L167.268 133.24C167.81 133.168 168.301 132.883 168.633 132.448C168.965 132.013 169.112 131.465 169.04 130.922Z" fill="#FCC647"/>
<path opacity="0.2" d="M167.268 133.241C167.537 133.206 167.797 133.118 168.032 132.982C168.267 132.846 168.473 132.665 168.638 132.449C168.803 132.234 168.924 131.987 168.994 131.725C169.064 131.462 169.081 131.188 169.045 130.919L168.482 126.713C168.159 127.125 167.485 127.829 166.567 127.968L167.268 133.241Z" fill="black"/>
<path d="M138.324 85.7149L138.241 101.995L140.361 104.243L152.631 104.311C152.791 104.312 152.945 104.249 153.058 104.137C153.172 104.024 153.236 103.872 153.238 103.712L153.342 85.5747C153.343 85.4955 153.327 85.4169 153.297 85.3436C153.267 85.2703 153.223 85.2036 153.168 85.1473C153.112 85.0911 153.046 85.0464 152.973 85.0158C152.9 84.9852 152.821 84.9693 152.742 84.969L142.237 84.9104H139.135C139.029 84.9099 138.923 84.9302 138.825 84.9704C138.727 85.0105 138.638 85.0696 138.562 85.1443C138.487 85.2191 138.427 85.3079 138.386 85.4058C138.345 85.5037 138.324 85.6087 138.324 85.7149Z" fill="#D5DBEB"/>
<path d="M152.631 104.311C152.791 104.312 152.945 104.249 153.058 104.137C153.172 104.024 153.236 103.872 153.238 103.712L153.25 101.399L138.246 101.118L138.241 101.995L140.361 104.243L152.631 104.311Z" fill="#A0A3CB"/>
<path d="M140.361 104.243H140.38L140.391 102.201C140.391 102.177 140.387 102.153 140.378 102.131C140.369 102.109 140.355 102.089 140.338 102.071C140.321 102.054 140.301 102.041 140.279 102.031C140.257 102.022 140.233 102.017 140.209 102.017L138.251 102.007L140.361 104.243Z" fill="#FDFFFD"/>
<path d="M149.813 98.9829L149.809 99.7549C149.808 99.9519 149.966 100.112 150.163 100.114L150.934 100.118C151.131 100.119 151.292 99.9602 151.293 99.7632L151.297 98.9912C151.298 98.7942 151.14 98.6336 150.943 98.6325L150.171 98.6281C149.975 98.627 149.814 98.7859 149.813 98.9829Z" fill="#A0A3CB"/>
<path d="M149.829 96.0426L149.825 96.8146C149.823 97.0116 149.982 97.1722 150.179 97.1733L150.95 97.1776C151.147 97.1787 151.308 97.0199 151.309 96.8228L151.313 96.0509C151.314 95.8538 151.155 95.6933 150.959 95.6922L150.187 95.6878C149.99 95.6867 149.83 95.8456 149.829 96.0426Z" fill="#A0A3CB"/>
<path d="M149.845 93.1003L149.84 93.8723C149.839 94.0693 149.998 94.2299 150.195 94.231L150.966 94.2353C151.163 94.2364 151.324 94.0776 151.325 93.8806L151.329 93.1086C151.33 92.9116 151.171 92.751 150.975 92.7499L150.203 92.7456C150.006 92.7445 149.846 92.9033 149.845 93.1003Z" fill="#A0A3CB"/>
<path d="M149.859 90.1558L149.855 90.9278C149.854 91.1248 150.013 91.2854 150.209 91.2865L150.981 91.2908C151.178 91.292 151.338 91.1331 151.339 90.9361L151.344 90.1641C151.345 89.9671 151.186 89.8065 150.989 89.8054L150.218 89.8011C150.021 89.8 149.86 89.9588 149.859 90.1558Z" fill="#A0A3CB"/>
<path d="M144.03 99.8798L148.906 99.907C148.931 99.9088 148.957 99.9006 148.976 99.8842C148.996 99.8678 149.008 99.8445 149.011 99.8192V99.6413C149.008 99.6158 148.996 99.5922 148.976 99.5756C148.957 99.559 148.932 99.5507 148.906 99.5524L144.03 99.5252C144.004 99.5232 143.979 99.5313 143.96 99.5477C143.94 99.5641 143.928 99.5876 143.925 99.6131V99.7909C143.928 99.8165 143.94 99.84 143.959 99.8567C143.979 99.8733 144.004 99.8816 144.03 99.8798Z" fill="#A0A3CB"/>
<path d="M140.243 99.1152L148.867 99.1623C148.893 99.1646 148.918 99.1567 148.938 99.1405C148.957 99.1242 148.969 99.1008 148.972 99.0754V98.8966C148.971 98.8839 148.967 98.8716 148.961 98.8603C148.956 98.849 148.948 98.839 148.938 98.8308C148.928 98.8227 148.917 98.8165 148.905 98.8127C148.893 98.8089 148.88 98.8075 148.867 98.8087L140.243 98.7606C140.217 98.7585 140.192 98.7666 140.172 98.7831C140.153 98.7995 140.141 98.823 140.138 98.8484V99.0263C140.141 99.0518 140.153 99.0754 140.172 99.092C140.192 99.1086 140.217 99.1169 140.243 99.1152Z" fill="#A0A3CB"/>
<path d="M144.448 96.9425L148.931 96.9676C148.943 96.9682 148.955 96.9663 148.966 96.9622C148.978 96.9581 148.988 96.9518 148.997 96.9436C149.006 96.9355 149.013 96.9256 149.019 96.9147C149.024 96.9037 149.027 96.8918 149.027 96.8797V96.7019C149.027 96.6898 149.024 96.6778 149.019 96.6667C149.014 96.6556 149.007 96.6457 148.998 96.6374C148.989 96.6291 148.979 96.6227 148.968 96.6185C148.956 96.6143 148.944 96.6124 148.932 96.613L144.449 96.5879C144.424 96.5867 144.4 96.5953 144.382 96.6118C144.364 96.6282 144.353 96.6512 144.352 96.6757V96.8536C144.353 96.8781 144.363 96.9012 144.381 96.9178C144.399 96.9345 144.423 96.9433 144.448 96.9425Z" fill="#A0A3CB"/>
<path d="M141.598 95.9212L141.597 96.1001C141.596 96.1487 141.636 96.1882 141.684 96.1885L148.909 96.2289C148.957 96.2291 148.997 96.19 148.997 96.1415L148.998 95.9626C148.998 95.9141 148.959 95.8745 148.911 95.8742L141.686 95.8339C141.637 95.8336 141.598 95.8727 141.598 95.9212Z" fill="#A0A3CB"/>
<path d="M142.687 93.9894L148.909 94.0239C148.983 94.0239 149.044 93.9852 149.044 93.936V93.7582C149.044 93.709 148.984 93.6693 148.91 93.6693L142.688 93.6348C142.613 93.6348 142.553 93.6735 142.553 93.7216V93.9005C142.553 93.9486 142.612 93.9883 142.687 93.9894Z" fill="#A0A3CB"/>
<path d="M141.953 93.2415L148.921 93.2802C148.943 93.2796 148.965 93.2701 148.981 93.2536C148.997 93.2372 149.006 93.2152 149.005 93.1923V93.0145C149.006 93.0031 149.004 92.9917 149 92.981C148.996 92.9703 148.99 92.9605 148.982 92.9522C148.975 92.9439 148.965 92.9373 148.955 92.9327C148.944 92.9281 148.933 92.9257 148.922 92.9255L141.954 92.8868C141.931 92.8874 141.909 92.8969 141.893 92.9134C141.878 92.9298 141.869 92.9519 141.869 92.9747V93.1525C141.869 93.1754 141.877 93.1976 141.893 93.2142C141.908 93.2308 141.93 93.2406 141.953 93.2415Z" fill="#A0A3CB"/>
<path d="M144.082 89.9567L148.959 89.9839C148.985 89.9818 149.01 89.9901 149.03 90.0067C149.049 90.0234 149.062 90.0471 149.064 90.0728V90.2506C149.061 90.276 149.049 90.2993 149.029 90.3157C149.01 90.3321 148.985 90.3403 148.959 90.3385L144.083 90.3113C144.07 90.3124 144.057 90.311 144.045 90.3072C144.033 90.3033 144.022 90.297 144.012 90.2888C144.002 90.2805 143.994 90.2704 143.989 90.259C143.983 90.2476 143.979 90.2351 143.979 90.2224V90.0445C143.982 90.02 143.995 89.9976 144.014 89.9815C144.033 89.9654 144.057 89.9566 144.082 89.9567Z" fill="#A0A3CB"/>
<path d="M140.29 90.6796L148.914 90.7277C148.94 90.7257 148.965 90.7339 148.985 90.7506C149.005 90.7672 149.017 90.791 149.019 90.8166V90.9945C149.016 91.0198 149.004 91.0432 148.984 91.0595C148.965 91.0759 148.94 91.0841 148.914 91.0823L140.29 91.0342C140.264 91.0363 140.239 91.028 140.219 91.0114C140.2 90.9947 140.187 90.971 140.185 90.9453V90.7706C140.186 90.7577 140.189 90.7451 140.195 90.7336C140.201 90.722 140.209 90.7117 140.219 90.7032C140.228 90.6947 140.24 90.6883 140.252 90.6842C140.264 90.6802 140.277 90.6786 140.29 90.6796Z" fill="#A0A3CB"/>
<path d="M132.656 99.7103L136.165 132.348C136.191 132.594 136.307 132.821 136.491 132.987C136.675 133.152 136.913 133.243 137.16 133.243H159.604C159.85 133.243 160.087 133.152 160.271 132.988C160.454 132.824 160.571 132.599 160.598 132.354L164.301 99.7083L132.656 99.7103Z" fill="#FFB673"/>
<path opacity="0.2" d="M137.041 132.28L133.592 99.7103H132.66L136.169 132.348C136.195 132.594 136.312 132.821 136.495 132.986C136.679 133.151 136.917 133.243 137.164 133.243L138.04 133.185C137.791 133.185 137.551 133.092 137.367 132.925C137.182 132.758 137.066 132.528 137.041 132.28Z" fill="white"/>
<path opacity="0.2" d="M154.6 99.7103C155.609 100.443 155.782 102.488 155.472 105.426C154.967 110.238 153.331 126.758 150.436 133.245H159.604C159.85 133.245 160.087 133.154 160.271 132.99C160.454 132.826 160.571 132.601 160.598 132.356L164.301 99.7103H154.6Z" fill="black"/>
<g opacity="0.2">
<path d="M148.478 129.685C147.654 129.685 146.984 129.186 146.984 128.57V104.008C146.984 103.393 147.654 102.894 148.478 102.894C149.303 102.894 149.973 103.393 149.973 104.008V128.566C149.973 129.182 149.308 129.685 148.478 129.685Z" fill="black"/>
</g>
<path d="M148.478 129.435C148.335 129.435 148.192 129.406 148.06 129.351C147.927 129.296 147.806 129.216 147.705 129.114C147.603 129.012 147.523 128.891 147.468 128.759C147.413 128.626 147.385 128.483 147.385 128.34V104.234C147.394 103.949 147.513 103.679 147.717 103.481C147.921 103.283 148.194 103.172 148.479 103.172C148.763 103.172 149.037 103.283 149.241 103.481C149.445 103.679 149.564 103.949 149.573 104.234V128.34C149.573 128.63 149.457 128.909 149.252 129.114C149.047 129.319 148.769 129.435 148.478 129.435Z" fill="#8F6F00"/>
<path d="M148.659 129.241C148.23 129.241 147.881 128.759 147.881 128.163V104.41C147.881 103.815 148.23 103.332 148.659 103.332C149.089 103.332 149.438 103.815 149.438 104.41V128.163C149.438 128.759 149.089 129.241 148.659 129.241Z" fill="#FFB300"/>
<g opacity="0.2">
<path d="M142.767 129.51C141.993 129.606 141.304 129.189 141.228 128.579L138.245 104.265C138.17 103.655 138.738 103.083 139.513 102.988C140.289 102.893 140.977 103.31 141.052 103.92L144.036 128.237C144.11 128.848 143.543 129.415 142.767 129.51Z" fill="black"/>
</g>
<path d="M142.423 129.337C142.281 129.354 142.136 129.343 141.997 129.305C141.859 129.267 141.73 129.201 141.616 129.113C141.503 129.024 141.409 128.914 141.338 128.789C141.267 128.664 141.222 128.526 141.204 128.384L138.269 104.457C138.234 104.168 138.314 103.878 138.493 103.649C138.671 103.421 138.933 103.272 139.221 103.237C139.509 103.201 139.799 103.282 140.028 103.461C140.257 103.639 140.405 103.902 140.44 104.19L143.375 128.116C143.393 128.259 143.382 128.403 143.344 128.542C143.306 128.681 143.241 128.81 143.152 128.924C143.064 129.037 142.954 129.132 142.829 129.203C142.704 129.274 142.566 129.319 142.423 129.337Z" fill="#8F6F00"/>
<path d="M140.44 104.19C140.419 104.02 140.359 103.857 140.263 103.715C140.168 103.573 140.041 103.455 139.891 103.371C139.634 103.426 139.406 103.575 139.252 103.789C139.098 104.002 139.028 104.265 139.055 104.528L141.877 127.534C141.918 127.816 142.068 128.07 142.296 128.241C142.524 128.412 142.81 128.486 143.092 128.445C143.19 128.433 143.285 128.408 143.376 128.371C143.386 128.286 143.386 128.201 143.376 128.117L140.44 104.19Z" fill="#FFB300"/>
<g opacity="0.2">
<path d="M154.535 129.635C155.267 129.724 155.914 129.3 155.989 128.687L158.985 104.265C159.059 103.653 158.53 103.084 157.802 102.994C157.075 102.904 156.424 103.329 156.348 103.942L153.353 128.362C153.28 128.976 153.803 129.545 154.535 129.635Z" fill="black"/>
</g>
<path d="M154.335 129.337C154.478 129.354 154.622 129.343 154.761 129.305C154.899 129.267 155.029 129.201 155.142 129.113C155.255 129.024 155.35 128.914 155.42 128.789C155.491 128.664 155.537 128.526 155.554 128.384L158.489 104.457C158.525 104.168 158.444 103.878 158.265 103.649C158.087 103.421 157.825 103.272 157.537 103.237C157.249 103.201 156.959 103.282 156.73 103.461C156.502 103.639 156.353 103.902 156.318 104.19L153.385 128.116C153.349 128.404 153.429 128.694 153.607 128.923C153.786 129.152 154.047 129.301 154.335 129.337Z" fill="#8F6F00"/>
<path d="M157.573 103.243C157.561 103.243 157.549 103.243 157.537 103.237C157.249 103.202 156.959 103.283 156.731 103.461C156.502 103.64 156.354 103.902 156.318 104.19L153.385 128.116C153.363 128.296 153.386 128.48 153.453 128.649C153.519 128.818 153.627 128.968 153.766 129.085C153.778 129.088 153.79 129.09 153.802 129.092C153.945 129.109 154.089 129.099 154.228 129.06C154.366 129.022 154.496 128.956 154.609 128.868C154.722 128.779 154.817 128.669 154.887 128.544C154.958 128.419 155.003 128.281 155.021 128.139L157.956 104.213C157.978 104.032 157.954 103.849 157.887 103.679C157.821 103.51 157.713 103.36 157.573 103.243Z" fill="#FFB300"/>
<path opacity="0.2" d="M164.032 101.206H132.926C132.891 101.207 132.856 101.211 132.821 101.216L132.97 102.591H163.978L164.134 101.215C164.098 101.212 164.066 101.206 164.032 101.206Z" fill="black"/>
<path d="M164.442 100.936H132.515C132.345 100.936 132.208 101.074 132.208 101.244V101.775C132.208 101.945 132.345 102.083 132.515 102.083H164.442C164.612 102.083 164.749 101.945 164.749 101.775V101.244C164.749 101.074 164.612 100.936 164.442 100.936Z" fill="#FFB300"/>
<path opacity="0.2" d="M132.656 99.7103L132.735 100.443H164.218L164.301 99.7103H132.656Z" fill="black"/>
<path d="M165.406 96.0355H131.872L132.331 99.8223H164.947L165.406 96.0355Z" fill="#FCC789"/>
<path opacity="0.2" d="M159.385 96.0973C159.385 97.0701 158.883 98.7376 158.518 99.8223H164.947L165.406 96.0355H159.382C159.383 96.0564 159.385 96.0763 159.385 96.0973Z" fill="black"/>
<path opacity="0.1" d="M138.96 97.182H134.465C134.402 97.182 134.339 97.1694 134.281 97.1451C134.222 97.1208 134.169 97.0852 134.124 97.0403C134.08 96.9955 134.044 96.9422 134.02 96.8835C133.996 96.8249 133.983 96.7621 133.984 96.6987C133.984 96.5708 134.034 96.4481 134.125 96.3577C134.215 96.2672 134.338 96.2164 134.465 96.2164H138.96C139.088 96.2164 139.21 96.2672 139.301 96.3577C139.391 96.4481 139.442 96.5708 139.442 96.6987C139.442 96.7621 139.43 96.8249 139.406 96.8835C139.381 96.9422 139.346 96.9955 139.301 97.0403C139.256 97.0852 139.203 97.1208 139.145 97.1451C139.086 97.1694 139.023 97.182 138.96 97.182Z" fill="white"/>
<path d="M101.032 77.6266H22.3894C21.2528 77.6266 20.1627 78.0785 19.359 78.8828C18.5553 79.6871 18.1038 80.778 18.1038 81.9155V127.76C18.1038 127.828 18.1307 127.893 18.1788 127.941C18.2268 127.989 18.2919 128.016 18.3599 128.016H104.048C104.116 128.016 104.181 127.989 104.229 127.941C104.277 127.893 104.304 127.828 104.304 127.76V80.8956C104.303 80.0279 103.958 79.1962 103.344 78.5831C102.731 77.9701 101.899 77.626 101.032 77.6266Z" fill="#FFB300"/>
<path d="M99.1078 81.5786H23.2988V126.455H99.1078V81.5786Z" fill="#FFCEA2"/>
<path d="M18.616 81.9207C18.616 79.8222 20.3763 78.1213 22.5483 78.1213H101.318C102.229 78.119 103.114 78.4286 103.826 78.999C103.451 78.5658 102.986 78.2189 102.464 77.982C101.942 77.7451 101.375 77.6239 100.802 77.6265H22.0372C19.8651 77.6265 18.1049 79.3285 18.1049 81.4269V128.016H18.616V81.9207Z" fill="#FCC647"/>
<path d="M12.6443 128.053V129.308C12.6454 130.352 13.0604 131.352 13.7981 132.09C14.5359 132.827 15.536 133.242 16.5787 133.242H105.79C106.844 133.242 107.854 132.823 108.599 132.077C109.344 131.332 109.762 130.321 109.762 129.266V128.022C109.762 128.021 109.762 128.019 109.762 128.018C109.762 128.017 109.761 128.016 109.761 128.016C109.76 128.015 109.759 128.014 109.758 128.014C109.757 128.013 109.756 128.013 109.755 128.013H12.6809C12.6758 128.013 12.6708 128.014 12.6661 128.016C12.6615 128.018 12.6573 128.021 12.6538 128.025C12.6504 128.029 12.6478 128.033 12.6461 128.038C12.6445 128.043 12.6439 128.048 12.6443 128.053Z" fill="#FFE3CA"/>
<path d="M74.3618 128.485H48.0416C48.0416 129.016 48.8632 129.447 49.8761 129.447H72.5315C73.5433 129.447 74.3649 129.016 74.3649 128.485H74.3618Z" fill="#FFD062"/>
<path d="M12.775 130.626C13.1837 131.986 14.5374 133.032 16.2109 133.211C16.2663 133.211 16.3206 133.223 16.3771 133.226L16.5088 133.232C16.6133 133.232 16.7063 133.241 16.8067 133.241H105.601C105.706 133.241 105.8 133.241 105.898 133.232C105.942 133.232 105.987 133.232 106.031 133.226C106.075 133.22 106.135 133.215 106.196 133.211C107.868 133.032 109.227 131.991 109.632 130.626H12.775Z" fill="#FCC647"/>
<path d="M74.0409 116.517L48.9521 116.617L48.8716 96.7165L48.8654 95.025L53.8534 95.0051L56.1677 96.6872L73.9604 96.615L74.0409 116.517Z" fill="#F3B344"/>
<path d="M73.1492 98.4895L49.7539 98.5835L49.7587 99.7666L73.1539 99.6726L73.1492 98.4895Z" fill="#F1F2F2"/>
<path d="M71.0964 112.501L71.2009 92.4527L68.5877 89.6848L53.4782 89.6011C53.3807 89.6005 53.2841 89.6192 53.1939 89.656C53.1036 89.6928 53.0215 89.7471 52.9522 89.8157C52.8829 89.8842 52.8278 89.9658 52.79 90.0557C52.7522 90.1456 52.7324 90.2421 52.7319 90.3396L52.6085 112.672C52.608 112.77 52.6266 112.867 52.6634 112.957C52.7002 113.047 52.7544 113.129 52.8229 113.199C52.8915 113.268 52.973 113.323 53.0628 113.361C53.1526 113.399 53.249 113.419 53.3465 113.419L66.2829 113.492H70.1023C70.3653 113.492 70.6177 113.388 70.8041 113.202C70.9904 113.016 71.0956 112.764 71.0964 112.501Z" fill="#D5DBEB"/>
<path d="M53.4782 89.6011C53.3807 89.6005 53.2841 89.6192 53.1939 89.656C53.1036 89.6928 53.0215 89.7471 52.9522 89.8157C52.8829 89.8842 52.8278 89.9658 52.79 90.0557C52.7522 90.1456 52.7324 90.2421 52.7319 90.3396L52.7162 93.1881L71.1926 93.5333L71.1978 92.4527L68.5846 89.6848L53.4782 89.6011Z" fill="#A0A3CB"/>
<path d="M68.5877 89.6847H68.5647L68.55 92.1953C68.55 92.2551 68.5737 92.3126 68.6157 92.3551C68.6578 92.3976 68.715 92.4217 68.7748 92.4223L71.1852 92.4359L68.5877 89.6847Z" fill="#FDFFFD"/>
<path d="M55.1396 95.2159L55.1343 96.1658C55.1329 96.4084 55.3284 96.6062 55.5708 96.6076L56.5199 96.6129C56.7624 96.6142 56.9601 96.4186 56.9614 96.176L56.9667 95.2261C56.9681 94.9835 56.7726 94.7857 56.5301 94.7843L55.581 94.779C55.3386 94.7777 55.1409 94.9733 55.1396 95.2159Z" fill="#A0A3CB"/>
<path d="M55.1185 98.8377L55.1132 99.7876C55.1118 100.03 55.3073 100.228 55.5497 100.229L56.4988 100.235C56.7413 100.236 56.9389 100.04 56.9403 99.7978L56.9456 98.848C56.9469 98.6053 56.7515 98.4075 56.509 98.4062L55.5599 98.4009C55.3175 98.3995 55.1198 98.5951 55.1185 98.8377Z" fill="#A0A3CB"/>
<path d="M55.0995 102.461L55.0942 103.411C55.0929 103.653 55.2883 103.851 55.5308 103.852L56.4799 103.858C56.7224 103.859 56.92 103.663 56.9214 103.421L56.9267 102.471C56.928 102.228 56.7326 102.031 56.4901 102.029L55.541 102.024C55.2985 102.023 55.1009 102.218 55.0995 102.461Z" fill="#A0A3CB"/>
<path d="M55.0784 106.084L55.0731 107.034C55.0718 107.276 55.2672 107.474 55.5097 107.475L56.4588 107.481C56.7012 107.482 56.8989 107.286 56.9002 107.044L56.9056 106.094C56.9069 105.851 56.7114 105.653 56.469 105.652L55.5199 105.647C55.2774 105.645 55.0798 105.841 55.0784 106.084Z" fill="#A0A3CB"/>
<path d="M64.0701 95.0595L58.0649 95.026C58.0341 95.0236 58.0034 95.0331 57.9793 95.0525C57.9552 95.072 57.9395 95.0999 57.9353 95.1306V95.3503C57.9392 95.3809 57.9548 95.4088 57.9787 95.4283C58.0026 95.4478 58.0331 95.4573 58.0639 95.4549L64.069 95.4884C64.0999 95.491 64.1307 95.4817 64.1548 95.4622C64.179 95.4427 64.1947 95.4146 64.1986 95.3838V95.1641C64.1947 95.1335 64.1792 95.1055 64.1552 95.0861C64.1313 95.0666 64.1008 95.0571 64.0701 95.0595Z" fill="#A0A3CB"/>
<path d="M68.733 96.0009L58.1119 95.9423C58.081 95.9397 58.0502 95.9491 58.0261 95.9686C58.0019 95.9881 57.9862 96.0161 57.9823 96.047V96.2666C57.9865 96.2971 58.0021 96.3249 58.0259 96.3443C58.0498 96.3638 58.0802 96.3734 58.1109 96.3712L68.732 96.4298C68.7629 96.4325 68.7936 96.4231 68.8178 96.4036C68.842 96.3841 68.8576 96.356 68.8616 96.3252V96.1055C68.8574 96.075 68.8418 96.0472 68.8179 96.0278C68.7941 96.0084 68.7637 95.9988 68.733 96.0009Z" fill="#A0A3CB"/>
<path d="M63.5547 98.6779L58.0346 98.6475C58.005 98.6458 57.9759 98.6558 57.9536 98.6754C57.9313 98.695 57.9176 98.7225 57.9154 98.7521V98.9718C57.9178 99.0011 57.9314 99.0284 57.9535 99.0479C57.9755 99.0674 58.0042 99.0776 58.0335 99.0764L63.5536 99.1067C63.5832 99.1082 63.6121 99.0981 63.6344 99.0786C63.6566 99.0591 63.6704 99.0316 63.6728 99.0021V98.7825C63.6707 98.7531 63.6571 98.7257 63.635 98.7061C63.613 98.6866 63.5841 98.6764 63.5547 98.6779Z" fill="#A0A3CB"/>
<path d="M57.9643 99.8967L57.9656 99.6771C57.9657 99.6493 57.9769 99.6228 57.9966 99.6033C58.0163 99.5838 58.0429 99.5729 58.0707 99.573L66.9669 99.6228C66.9946 99.6229 67.0211 99.6341 67.0406 99.6538C67.0601 99.6735 67.071 99.7002 67.0708 99.728L67.0696 99.9476C67.0695 99.9754 67.0583 100.002 67.0386 100.021C67.0189 100.041 66.9922 100.052 66.9645 100.052L58.0683 100.002C58.0405 100.002 58.014 99.9906 57.9945 99.9709C57.975 99.9512 57.9642 99.9245 57.9643 99.8967Z" fill="#A0A3CB"/>
<path d="M65.7236 102.312L58.0607 102.27C57.9697 102.27 57.8955 102.317 57.8955 102.375V102.594C57.8955 102.654 57.9687 102.699 58.0596 102.699L65.7226 102.742C65.8135 102.742 65.8877 102.695 65.8877 102.637V102.418C65.8888 102.361 65.8156 102.313 65.7236 102.312Z" fill="#A0A3CB"/>
<path d="M66.6267 103.233L58.047 103.186C58.0193 103.186 57.9927 103.197 57.9731 103.216C57.9535 103.236 57.9425 103.262 57.9425 103.29V103.51C57.9425 103.538 57.9535 103.564 57.9731 103.584C57.9927 103.603 58.0193 103.614 58.047 103.614L66.6267 103.662C66.6544 103.662 66.681 103.65 66.7006 103.631C66.7202 103.611 66.7312 103.585 66.7312 103.557V103.337C66.7312 103.309 66.7202 103.283 66.7006 103.263C66.681 103.244 66.6544 103.233 66.6267 103.233Z" fill="#A0A3CB"/>
<path d="M64.002 107.277L57.998 107.243C57.9672 107.246 57.9365 107.236 57.9125 107.217C57.8885 107.197 57.8731 107.169 57.8694 107.139V106.919C57.8733 106.888 57.889 106.86 57.9132 106.84C57.9373 106.821 57.9681 106.812 57.999 106.814L64.0041 106.848C64.0348 106.846 64.0652 106.855 64.0891 106.875C64.1129 106.894 64.1285 106.922 64.1327 106.952V107.172C64.1285 107.203 64.1126 107.231 64.0883 107.251C64.064 107.27 64.0331 107.279 64.002 107.277Z" fill="#A0A3CB"/>
<path d="M68.6755 106.386L58.0554 106.328C58.0247 106.33 57.9942 106.321 57.9703 106.301C57.9463 106.282 57.9308 106.254 57.9269 106.223V106.004C57.9311 105.973 57.947 105.945 57.9713 105.925C57.9956 105.906 58.0265 105.896 58.0575 105.899L68.6776 105.958C68.6932 105.956 68.709 105.958 68.724 105.963C68.7389 105.968 68.7528 105.976 68.7647 105.986C68.7766 105.996 68.7865 106.008 68.7936 106.022C68.8007 106.036 68.805 106.052 68.8061 106.067V106.287C68.8012 106.317 68.785 106.344 68.7606 106.363C68.7363 106.381 68.7058 106.39 68.6755 106.386Z" fill="#A0A3CB"/>
<path d="M74.549 117.279L47.9288 117.384C47.8267 117.382 47.7259 117.36 47.6323 117.319C47.5387 117.278 47.454 117.219 47.3832 117.146C47.3123 117.072 47.2566 116.985 47.2193 116.89C47.182 116.795 47.1638 116.693 47.1658 116.591L47.101 100.57C47.0956 100.364 47.1725 100.164 47.3146 100.014C47.4567 99.8638 47.6524 99.7766 47.8588 99.7711L74.4779 99.6665C74.6843 99.6704 74.8807 99.756 75.0239 99.9047C75.1672 100.053 75.2456 100.253 75.242 100.459L75.3068 116.48C75.3119 116.687 75.2349 116.887 75.0929 117.036C74.9509 117.186 74.7553 117.274 74.549 117.279Z" fill="#F9A400"/>
<path d="M73.6876 115.532L47.888 115.637C47.6954 115.637 47.5106 115.561 47.3736 115.425C47.2366 115.29 47.1586 115.106 47.1563 114.913L47.101 100.499C47.1009 100.306 47.1769 100.121 47.3123 99.9843C47.4477 99.8472 47.6317 99.769 47.8243 99.7668L73.6228 99.6622C73.8155 99.6622 74.0003 99.7382 74.1373 99.8737C74.2743 100.009 74.3523 100.193 74.3545 100.386L74.4131 114.795C74.4145 114.989 74.3388 115.176 74.2028 115.314C74.0668 115.452 73.8815 115.531 73.6876 115.532Z" fill="#FFC300"/>
<path d="M57.7419 104.715C59.3893 103.26 60.0676 101.329 61.0993 99.7198L47.8243 99.7732C47.6317 99.7754 47.4477 99.8535 47.3123 99.9906C47.1769 100.128 47.1009 100.313 47.101 100.505L47.1428 110.897C49.3086 109.881 53.9789 108.039 57.7419 104.715Z" fill="#FDDB81"/>
<path d="M69.7804 104.301H52.6263C51.922 104.301 51.3511 104.872 51.3511 105.577V110.331C51.3511 111.036 51.922 111.607 52.6263 111.607H69.7804C70.4847 111.607 71.0556 111.036 71.0556 110.331V105.577C71.0556 104.872 70.4847 104.301 69.7804 104.301Z" fill="white"/>
<path d="M53.8807 105.995C53.5346 105.996 53.1891 106.022 52.8469 106.074L52.7957 106.082V109.862L52.849 109.868C53.142 109.899 53.4365 109.913 53.7312 109.912C54.4754 109.912 55.0608 109.72 55.4235 109.357C55.7862 108.994 55.9785 108.483 55.9785 107.862C55.9785 107.276 55.7946 106.809 55.4329 106.477C55.0712 106.146 54.5779 105.995 53.8807 105.995ZM55.3535 107.878C55.3535 108.86 54.811 109.402 53.8253 109.402C53.6825 109.404 53.5398 109.398 53.3977 109.384V106.537C53.5645 106.509 53.7335 106.496 53.9026 106.498C54.3855 106.498 54.7556 106.625 55.0043 106.875C55.2531 107.125 55.3555 107.449 55.3535 107.879V107.878Z" fill="#FC291E"/>
<path d="M57.0875 108.128H58.5384V107.608H57.0875V106.549H58.6209V106.024H56.4844V109.879H58.7046V109.353H57.0875V108.128Z" fill="#FC291E"/>
<path d="M59.8125 106.024H59.2104V109.879H61.4076V109.353H59.8125V106.024Z" fill="#FC291E"/>
<path d="M62.4278 108.128H63.8787V107.608H62.4278V106.549H63.9613V106.024H61.8247V109.879H64.0438V109.353H62.4278V108.128Z" fill="#FC291E"/>
<path d="M64.2122 106.555H65.3473V109.879H65.9557V106.555H67.0961V106.024H64.2122V106.555Z" fill="#FC291E"/>
<path d="M67.995 109.353V108.128H69.4458V107.608H67.995V106.549H69.5284V106.024H67.3918V109.879H69.611V109.353H67.995Z" fill="#FC291E"/>
<path d="M72.2713 81.1706L76.605 63.655L74.9075 60.6799L61.7077 57.4005C61.6225 57.3794 61.534 57.3752 61.4472 57.3884C61.3605 57.4015 61.2771 57.4316 61.202 57.477C61.1269 57.5223 61.0614 57.5821 61.0094 57.6528C60.9573 57.7235 60.9197 57.8037 60.8986 57.889L56.0621 77.3984C56.0409 77.4836 56.0366 77.5722 56.0496 77.659C56.0626 77.7458 56.0925 77.8292 56.1378 77.9044C56.183 77.9796 56.2427 78.0452 56.3133 78.0973C56.3839 78.1494 56.4641 78.1871 56.5492 78.2081L67.8497 81.0147L71.1946 81.8244C71.424 81.8794 71.6657 81.8416 71.8674 81.7192C72.069 81.5967 72.2141 81.3996 72.2713 81.1706Z" fill="#D5DBEB"/>
<path d="M61.7076 57.4005C61.6224 57.3794 61.5339 57.3752 61.4472 57.3884C61.3604 57.4015 61.2771 57.4316 61.202 57.477C61.1268 57.5223 61.0614 57.5821 61.0093 57.6528C60.9572 57.7235 60.9196 57.8037 60.8986 57.889L60.2819 60.3766L76.3708 64.5965L76.605 63.655L74.9074 60.6799L61.7076 57.4005Z" fill="#A0A3CB"/>
<path d="M74.9075 60.6801H74.8866L74.342 62.8768C74.3304 62.9292 74.3393 62.984 74.367 63.0299C74.3946 63.0758 74.4388 63.1094 74.4904 63.1237L76.5966 63.6467L74.9075 60.6801Z" fill="#FDFFFD"/>
<path d="M61.9673 62.6497L61.7615 63.4802C61.709 63.6922 61.8381 63.9066 62.0499 63.9592L62.8798 64.1652C63.0916 64.2178 63.3059 64.0886 63.3584 63.8766L63.5642 63.0461C63.6168 62.8341 63.4876 62.6197 63.2758 62.5671L62.446 62.3611C62.2342 62.3085 62.0199 62.4377 61.9673 62.6497Z" fill="#A0A3CB"/>
<path d="M61.1825 65.8142L60.9767 66.6448C60.9242 66.8567 61.0533 67.0712 61.2651 67.1238L62.095 67.3298C62.3068 67.3823 62.5211 67.2531 62.5736 67.0412L62.7794 66.2106C62.832 65.9987 62.7029 65.7842 62.4911 65.7316L61.6612 65.5256C61.4494 65.4731 61.2351 65.6023 61.1825 65.8142Z" fill="#A0A3CB"/>
<path d="M60.3991 68.9799L60.1933 69.8104C60.1407 70.0224 60.2698 70.2368 60.4816 70.2894L61.3115 70.4954C61.5233 70.548 61.7376 70.4188 61.7901 70.2068L61.996 69.3763C62.0485 69.1643 61.9194 68.9499 61.7076 68.8973L60.8777 68.6913C60.6659 68.6387 60.4516 68.7679 60.3991 68.9799Z" fill="#A0A3CB"/>
<path d="M59.6133 72.1421L59.4075 72.9727C59.355 73.1846 59.4841 73.3991 59.6959 73.4516L60.5258 73.6576C60.7376 73.7102 60.9518 73.581 61.0044 73.369L61.2102 72.5385C61.2628 72.3265 61.1336 72.1121 60.9218 72.0595L60.092 71.8535C59.8802 71.8009 59.6659 71.9302 59.6133 72.1421Z" fill="#A0A3CB"/>
<path d="M69.818 64.4229L64.5717 63.1206C64.5585 63.1156 64.5444 63.1135 64.5303 63.1141C64.5162 63.1148 64.5024 63.1183 64.4897 63.1245C64.477 63.1306 64.4657 63.1393 64.4565 63.15C64.4472 63.1606 64.4402 63.173 64.4359 63.1865L64.3878 63.3789C64.3852 63.3929 64.3856 63.4073 64.3888 63.4211C64.392 63.435 64.398 63.448 64.4064 63.4595C64.4148 63.471 64.4255 63.4806 64.4377 63.4878C64.45 63.495 64.4636 63.4996 64.4777 63.5013L69.7229 64.8037C69.7362 64.8088 69.7505 64.811 69.7647 64.8104C69.779 64.8097 69.793 64.8062 69.8058 64.7999C69.8187 64.7936 69.8301 64.7848 69.8394 64.7739C69.8486 64.7631 69.8556 64.7504 69.8598 64.7368L69.9069 64.5453C69.9094 64.5314 69.9091 64.5171 69.9059 64.5033C69.9028 64.4896 69.8969 64.4766 69.8886 64.4651C69.8803 64.4537 69.8697 64.444 69.8576 64.4368C69.8455 64.4295 69.832 64.4248 69.818 64.4229Z" fill="#A0A3CB"/>
<path d="M73.697 66.2358L64.4191 63.9344C64.4057 63.9293 64.3915 63.9271 64.3772 63.9277C64.363 63.9284 64.349 63.932 64.3362 63.9382C64.3233 63.9445 64.3119 63.9533 64.3026 63.9642C64.2933 63.9751 64.2864 63.9877 64.2822 64.0014L64.2351 64.1928C64.2324 64.2069 64.2327 64.2213 64.2358 64.2353C64.2389 64.2493 64.2449 64.2624 64.2533 64.274C64.2618 64.2856 64.2725 64.2953 64.2848 64.3026C64.2971 64.3098 64.3108 64.3145 64.325 64.3162L73.6029 66.6176C73.6162 66.6225 73.6304 66.6247 73.6445 66.6239C73.6587 66.6232 73.6725 66.6196 73.6852 66.6133C73.6979 66.607 73.7092 66.5982 73.7184 66.5875C73.7277 66.5767 73.7346 66.5642 73.7388 66.5507L73.7869 66.3592C73.7896 66.3452 73.7894 66.3307 73.7862 66.3167C73.7831 66.3027 73.7771 66.2896 73.7687 66.278C73.7603 66.2664 73.7496 66.2567 73.7372 66.2494C73.7249 66.2422 73.7112 66.2375 73.697 66.2358Z" fill="#A0A3CB"/>
<path d="M68.6002 67.4795L63.7783 66.2828C63.7524 66.2755 63.7247 66.2785 63.7009 66.2912C63.6772 66.3039 63.6592 66.3252 63.6508 66.3508L63.6038 66.5433C63.5991 66.5699 63.6048 66.5972 63.6198 66.6196C63.6348 66.642 63.6579 66.6578 63.6842 66.6636L68.5082 67.8614C68.5341 67.8686 68.5618 67.8656 68.5856 67.853C68.6094 67.8403 68.6273 67.8189 68.6357 67.7934L68.6828 67.6009C68.6877 67.5739 68.6818 67.546 68.6663 67.5233C68.6509 67.5006 68.6271 67.4849 68.6002 67.4795Z" fill="#A0A3CB"/>
<path d="M63.4952 67.1529L63.4476 67.3448C63.4347 67.3969 63.4664 67.4497 63.5186 67.4626L71.2909 69.3919C71.343 69.4048 71.3958 69.373 71.4087 69.3209L71.4563 69.129C71.4692 69.0769 71.4374 69.0241 71.3853 69.0112L63.6129 67.0819C63.5608 67.069 63.5081 67.1007 63.4952 67.1529Z" fill="#A0A3CB"/>
<path d="M69.7281 71.1188L63.0383 69.4566C62.9589 69.4367 62.8836 69.4629 62.8711 69.5152L62.823 69.7077C62.8104 69.7589 62.8648 69.8123 62.9442 69.8374L69.634 71.4996C69.7135 71.5195 69.7887 71.4933 69.8013 71.441L69.8493 71.2485C69.8671 71.1973 69.8086 71.1387 69.7281 71.1188Z" fill="#A0A3CB"/>
<path d="M70.3229 72.1158L62.8282 70.2548C62.816 70.252 62.8033 70.2517 62.791 70.2538C62.7786 70.2559 62.7668 70.2605 62.7563 70.2672C62.7457 70.2739 62.7365 70.2826 62.7293 70.2929C62.7221 70.3032 62.717 70.3147 62.7143 70.327L62.6662 70.5184C62.6598 70.543 62.6634 70.569 62.6761 70.591C62.6888 70.6129 62.7097 70.629 62.7341 70.6356L70.2288 72.4966C70.2536 72.5022 70.2796 72.4978 70.3012 72.4842C70.3227 72.4707 70.338 72.4492 70.3438 72.4244L70.3908 72.233C70.3941 72.2208 70.395 72.2081 70.3934 72.1956C70.3917 72.1831 70.3876 72.1711 70.3813 72.1602C70.375 72.1493 70.3666 72.1397 70.3565 72.1321C70.3465 72.1245 70.3351 72.1189 70.3229 72.1158Z" fill="#A0A3CB"/>
<path d="M67.1713 75.0961L61.923 73.7937C61.9089 73.7919 61.8953 73.7873 61.883 73.7801C61.8708 73.7729 61.8601 73.7633 61.8517 73.7518C61.8433 73.7404 61.8373 73.7273 61.8341 73.7135C61.8309 73.6997 61.8306 73.6853 61.8331 73.6713L61.8801 73.4799C61.8843 73.4662 61.8913 73.4536 61.9006 73.4427C61.9099 73.4319 61.9213 73.423 61.9341 73.4167C61.9469 73.4105 61.9609 73.4069 61.9752 73.4062C61.9895 73.4056 62.0037 73.4079 62.0171 73.4129L67.2623 74.7153C67.2764 74.7171 67.29 74.7217 67.3022 74.7289C67.3145 74.7361 67.3251 74.7457 67.3335 74.7571C67.3419 74.7686 67.3479 74.7816 67.3511 74.7955C67.3543 74.8093 67.3547 74.8237 67.3522 74.8377L67.3041 75.0302C67.2997 75.0432 67.2928 75.0553 67.2838 75.0657C67.2747 75.0761 67.2637 75.0846 67.2514 75.0907C67.2391 75.0968 67.2256 75.1005 67.2119 75.1014C67.1982 75.1023 67.1844 75.1005 67.1713 75.0961Z" fill="#A0A3CB"/>
<path d="M71.4476 75.3094L62.1697 73.0081C62.1556 73.0063 62.142 73.0017 62.1297 72.9945C62.1175 72.9873 62.1068 72.9777 62.0984 72.9662C62.09 72.9548 62.084 72.9417 62.0808 72.9279C62.0776 72.914 62.0773 72.8997 62.0798 72.8857L62.1279 72.6942C62.1321 72.6807 62.139 72.6682 62.1482 72.6574C62.1575 72.6466 62.1688 72.6379 62.1815 72.6316C62.1942 72.6253 62.208 72.6217 62.2222 72.621C62.2363 72.6203 62.2505 72.6224 62.2638 72.6273L71.5417 74.9287C71.5559 74.9304 71.5696 74.9351 71.5819 74.9423C71.5942 74.9496 71.6049 74.9593 71.6134 74.9709C71.6218 74.9825 71.6277 74.9956 71.6309 75.0096C71.634 75.0236 71.6342 75.038 71.6316 75.0521L71.5845 75.2435C71.5802 75.2571 71.5731 75.2696 71.5638 75.2804C71.5545 75.2911 71.5431 75.2999 71.5302 75.306C71.5174 75.3122 71.5035 75.3157 71.4893 75.3163C71.4751 75.3169 71.4609 75.3145 71.4476 75.3094Z" fill="#A0A3CB"/>
<defs>
<linearGradient id="paint0_linear_644_105" x1="158.224" y1="89.3898" x2="158.224" y2="97.8191" gradientUnits="userSpaceOnUse">
<stop stop-color="#FDFDFD"/>
<stop offset="0.48" stop-color="#FBFDFD"/>
<stop offset="0.65" stop-color="#F4FBFD"/>
<stop offset="0.77" stop-color="#E9F8FE"/>
<stop offset="0.87" stop-color="#D8F4FE"/>
<stop offset="0.96" stop-color="#C2EFFF"/>
<stop offset="1" stop-color="#B4ECFF"/>
</linearGradient>
</defs>
</svg>
