<svg width="32" height="32" viewBox="0 0 32 32" fill="none" xmlns="http://www.w3.org/2000/svg">
<path d="M1.28359 21.0202C0.840625 17.6733 2.90781 12.3085 3.89219 5.07334C4.08906 3.79365 10.7828 2.41553 13.9328 2.41553C14.7203 2.41553 15.4094 6.10693 15.2125 7.38662C15.0648 8.32178 13.7359 8.07568 13.7359 8.07568C13.293 9.30615 11.9641 8.81396 11.9641 8.81396C11.5703 9.84756 10.3891 9.35537 10.3891 9.35537C9.89688 10.3397 8.81406 9.84756 8.81406 9.84756C7.82969 14.1296 9.65078 13.7358 10.9797 20.1835C10.9797 20.1835 11.3734 20.1343 12.407 18.0179C16.6398 9.50303 31.5039 12.2101 30.618 21.3647C30.4211 23.3827 32.5867 26.7296 24.5641 29.2397C18.2148 31.2085 10.4383 27.4187 10.4383 27.4187C7.78047 28.2554 2.6125 28.2062 2.46484 26.2374C2.31719 23.9241 1.52969 22.7429 1.28359 21.0202Z" fill="#FED0AC"/>
<path d="M30.6672 21.3646C30.8641 19.199 30.2242 17.4271 29.043 16.1475C29.732 17.3287 30.0766 18.7561 29.9289 20.4295C29.732 22.4475 31.8977 25.7943 23.875 28.3045C17.5258 30.2732 9.74922 26.4834 9.74922 26.4834C7.68204 27.1232 4.03985 27.2217 2.51407 26.2865C2.71094 28.2061 7.82969 28.2553 10.4875 27.4186C10.4875 27.4186 18.2641 31.2084 24.6133 29.2396C32.5867 26.7295 30.4703 23.3826 30.6672 21.3646Z" fill="#E0A372"/>
<path d="M8.27267 9.79834C7.0422 14.8187 9.06017 14.6218 10.3891 20.971L11.0781 20.2327C10.0938 13.8343 8.42033 14.6218 8.81408 9.89678C8.51877 9.89678 8.27267 9.79834 8.27267 9.79834Z" fill="#E0A372"/>
<path d="M14.6219 24.1209C18.707 25.6467 24.8594 24.0717 28.3539 22.4475C26.8281 26.1389 18.707 28.1077 14.6219 24.1209Z" fill="#E0A372"/>
<path d="M12.6039 3.79357C12.3086 3.25217 11.718 3.30139 11.3242 3.44904C11.3734 2.85842 12.8008 2.41545 12.6039 3.79357Z" fill="#E0A372"/>
<path d="M15.6062 5.90996C15.4586 4.82715 15.1141 3.74434 14.4742 2.8584C14.8187 3.79355 15.0156 4.77793 15.0156 5.7623C15.0156 6.20527 15.1141 7.78027 14.3266 7.5834C13.8344 7.43574 13.8344 7.04199 13.6867 6.59902C13.4898 5.90996 13.0961 5.17168 13.1453 4.48262C12.9484 5.17168 13.1945 6.0084 13.2437 6.69746C13.293 7.09121 13.5883 8.22324 13.0469 8.3709C12.7516 8.46934 12.407 8.27246 12.1609 8.1248C12.0625 8.07559 12.0133 7.68184 11.9641 7.53418C11.7672 6.84512 11.3734 6.05762 11.4227 5.31934C11.2258 5.95918 11.4226 6.74668 11.4719 7.43574C11.5211 7.82949 11.718 8.76465 11.2258 8.96152C10.6351 9.25684 10.5859 8.56777 10.4875 8.22324C10.2906 7.5834 9.99531 6.84512 9.99531 6.15605C9.79843 6.99277 10.0445 7.97715 10.0445 8.81387C10.0445 9.25684 9.10937 9.60137 8.76484 9.35527C8.22343 8.96152 8.12499 7.97715 8.02656 7.3373C8.17421 7.53418 8.42031 7.82949 8.71562 7.78027C8.46953 7.48496 8.32187 7.04199 8.17421 6.69746C8.02656 6.40215 7.68203 5.7623 7.28828 5.7623C7.33749 5.86074 7.68203 6.69746 7.63281 6.74668C7.48515 6.99277 7.33749 7.28809 7.14062 7.53418C6.99296 7.73105 6.54999 8.42012 6.20546 8.22324C5.81171 7.97715 5.71328 7.38652 5.61484 6.99277C5.66406 7.48496 5.61484 8.22324 6.10703 8.51855C6.54999 8.81387 7.0914 8.3709 7.38671 8.07559C7.48515 9.05996 7.92812 10.3889 9.15859 10.2904C9.40468 10.2904 9.69999 10.192 9.94609 10.0936C10.143 9.99512 10.3891 9.74902 10.5859 9.84746C11.1273 9.99512 11.6687 9.89668 12.0625 9.50293C12.2594 9.30605 12.2101 9.20762 12.4562 9.25684C12.7516 9.30605 13.0469 9.35527 13.293 9.25684C13.5391 9.20762 13.7359 9.05996 13.8836 8.86309C13.982 8.76465 14.0312 8.66621 14.0805 8.51855C14.1789 8.32168 14.2773 8.42012 14.4742 8.42012C15.7539 8.42012 15.7047 6.7959 15.6062 5.90996Z" fill="#E0A372"/>
<path d="M14.3758 3.10458C14.0805 2.56318 13.4898 2.6124 13.0961 2.76005C13.1453 2.21865 14.6219 1.77568 14.3758 3.10458Z" fill="#E0A372"/>
<path d="M11.1766 4.53185C10.8813 3.99045 10.2906 4.03967 9.89688 4.18732C9.9461 3.5967 11.3734 3.15373 11.1766 4.53185Z" fill="#E0A372"/>
<path d="M9.50314 5.31945C9.20782 4.77805 8.6172 4.82726 8.22345 4.97492C8.27267 4.3843 9.74923 3.94133 9.50314 5.31945Z" fill="#E0A372"/>
</svg>
