<svg xmlns="http://www.w3.org/2000/svg" xmlns:xlink="http://www.w3.org/1999/xlink" width="128" height="128" viewBox="0 0 128 128">
  <defs>
    <clipPath id="clip-path">
      <rect id="Rectangle_11515" data-name="Rectangle 11515" width="128" height="128" fill="#fff"/>
    </clipPath>
  </defs>
  <g id="cart_empty_icon" data-name="cart empty icon" clip-path="url(#clip-path)">
    <path id="Path_164629" data-name="Path 164629" d="M35.888,19.938A4.272,4.272,0,0,0,31.9,23.925V43.863H23.925V23.925a3.767,3.767,0,0,0-3.988-3.988,4.272,4.272,0,0,0-3.988,3.988V43.863H7.975V23.925a3.767,3.767,0,0,0-3.988-3.988A4.272,4.272,0,0,0,0,23.925V50.243A13.784,13.784,0,0,0,11.963,63.8v55.826a7.535,7.535,0,0,0,7.975,7.975,7.535,7.535,0,0,0,7.975-7.975V63.8A13.784,13.784,0,0,0,39.875,50.243V23.925A4.272,4.272,0,0,0,35.888,19.938Zm15.95,3.988V71.776h7.975v47.851a7.535,7.535,0,0,0,7.975,7.975,7.535,7.535,0,0,0,7.975-7.975V0A23.5,23.5,0,0,0,51.838,23.925Zm55.825-7.975c-11.165,0-19.938,11.963-19.938,26.318-.8,9.57,3.988,18.343,11.963,23.925v53.433a7.975,7.975,0,0,0,15.951,0V66.193c7.975-5.582,12.76-14.355,11.963-23.925C127.6,27.913,118.829,15.95,107.663,15.95Z" fill="rgba(47,52,67,0.5)"/>
  </g>
</svg>
