<svg width="12" height="12" viewBox="0 0 12 12" fill="none" xmlns="http://www.w3.org/2000/svg">
<rect width="12" height="12" fill="white"/>
<path d="M6 7.5C6.39782 7.5 6.77936 7.34196 7.06066 7.06066C7.34196 6.77936 7.5 6.39782 7.5 6C7.5 5.60218 7.34196 5.22064 7.06066 4.93934C6.77936 4.65804 6.39782 4.5 6 4.5C5.60218 4.5 5.22064 4.65804 4.93934 4.93934C4.65804 5.22064 4.5 5.60218 4.5 6C4.5 6.39782 4.65804 6.77936 4.93934 7.06066C5.22064 7.34196 5.60218 7.5 6 7.5Z" fill="url(#paint0_linear_60_1924)"/>
<path fill-rule="evenodd" clip-rule="evenodd" d="M0.398378 6.35405C0.310241 6.12504 0.310241 5.87146 0.398378 5.64245C0.834716 4.51115 1.60345 3.53851 2.60335 2.85263C3.60326 2.16675 4.78744 1.79978 5.99998 1.80005C8.55418 1.80005 10.7358 3.39605 11.6016 5.64605C11.6898 5.87465 11.6892 6.12845 11.6016 6.35765C11.1652 7.48895 10.3965 8.46158 9.3966 9.14746C8.3967 9.83335 7.21251 10.2003 5.99998 10.2C3.44578 10.2 1.26418 8.60405 0.398378 6.35405ZM8.39998 6.00005C8.39998 6.63657 8.14712 7.24702 7.69704 7.69711C7.24695 8.14719 6.6365 8.40005 5.99998 8.40005C5.36346 8.40005 4.75301 8.14719 4.30292 7.69711C3.85283 7.24702 3.59998 6.63657 3.59998 6.00005C3.59998 5.36353 3.85283 4.75308 4.30292 4.30299C4.75301 3.85291 5.36346 3.60005 5.99998 3.60005C6.6365 3.60005 7.24695 3.85291 7.69704 4.30299C8.14712 4.75308 8.39998 5.36353 8.39998 6.00005Z" fill="url(#paint1_linear_60_1924)"/>
<defs>
<linearGradient id="paint0_linear_60_1924" x1="6" y1="4.5" x2="6" y2="7.5" gradientUnits="userSpaceOnUse">
<stop stop-color="#FFB300"/>
<stop offset="1" stop-color="#FCC647"/>
</linearGradient>
<linearGradient id="paint1_linear_60_1924" x1="5.99989" y1="1.80005" x2="5.99989" y2="10.2" gradientUnits="userSpaceOnUse">
<stop stop-color="#FFB300"/>
<stop offset="1" stop-color="#FCC647"/>
</linearGradient>
</defs>
</svg>
