<svg width="16" height="16" viewBox="0 0 16 16" fill="none" xmlns="http://www.w3.org/2000/svg">
<path d="M13.8588 8.13333H2.14118C2.05647 8.13333 2 8.18667 2 8.26667V13.8667C2 13.9467 2.08471 14 2.15529 14H13.8588C13.9435 14 14 13.9467 14 13.8667V8.26667C14 8.18667 13.9435 8.13333 13.8588 8.13333ZM5.52941 8.4V10H2.28235V8.4H5.52941ZM2.28235 13.7333V10.2667H5.52941V13.7333H2.28235ZM13.7176 8.4V10H10.4706V8.4H13.7176ZM10.1882 8.53333H5.81176V8.4H10.1882V8.53333ZM10.1882 8.8V13.7333H5.81176V8.8H10.1882ZM10.4706 13.7333V10.2667H13.7176V13.7333H10.4706ZM9.62353 10.5333H6.37647C6.29176 10.5333 6.23529 10.5867 6.23529 10.6667V12.8C6.23529 12.88 6.29176 12.9333 6.37647 12.9333H9.62353C9.70824 12.9333 9.76471 12.88 9.76471 12.8V10.6667C9.76471 10.5867 9.70824 10.5333 9.62353 10.5333ZM9.48235 12.6667H6.51765V10.8H9.48235V12.6667ZM9.62353 10H6.37647C6.29176 10 6.23529 10.0533 6.23529 10.1333C6.23529 10.2133 6.29176 10.2667 6.37647 10.2667H9.62353C9.70824 10.2667 9.76471 10.2133 9.76471 10.1333C9.76471 10.0533 9.70824 10 9.62353 10ZM6.46118 9.18667C6.57412 9.18667 6.67294 9.26667 6.67294 9.37333C6.67294 9.48 6.57412 9.56 6.46118 9.56C6.34824 9.56 6.24941 9.48 6.24941 9.37333C6.24941 9.26667 6.34824 9.18667 6.46118 9.18667ZM7.25177 9.18667C7.36471 9.18667 7.46353 9.26667 7.46353 9.37333C7.46353 9.48 7.36471 9.56 7.25177 9.56C7.13882 9.56 7.04 9.48 7.04 9.37333C7.04 9.26667 7.13882 9.18667 7.25177 9.18667ZM8.05647 9.18667C8.16941 9.18667 8.26824 9.26667 8.26824 9.37333C8.26824 9.48 8.16941 9.56 8.05647 9.56C7.94353 9.56 7.84471 9.48 7.84471 9.37333C7.84471 9.26667 7.94353 9.18667 8.05647 9.18667ZM8.84706 9.18667C8.96 9.18667 9.05882 9.26667 9.05882 9.37333C9.05882 9.48 8.96 9.56 8.84706 9.56C8.73412 9.56 8.63529 9.46667 8.63529 9.36C8.63529 9.25333 8.73412 9.18667 8.84706 9.18667ZM9.65177 9.18667C9.76471 9.18667 9.86353 9.26667 9.86353 9.37333C9.86353 9.48 9.76471 9.56 9.65177 9.56C9.53882 9.56 9.44 9.48 9.44 9.37333C9.44 9.26667 9.52471 9.18667 9.65177 9.18667ZM12.0376 9.18667C12.1506 9.18667 12.2494 9.26667 12.2494 9.37333C12.2494 9.48 12.1506 9.56 12.0376 9.56C11.9247 9.56 11.8259 9.48 11.8259 9.37333C11.8259 9.26667 11.9247 9.18667 12.0376 9.18667ZM12.0376 5.72C12.1506 5.72 12.2494 5.8 12.2494 5.90667C12.2494 6.01333 12.1506 6.09333 12.0376 6.09333C11.9247 6.09333 11.8259 6.01333 11.8259 5.90667C11.8259 5.8 11.9247 5.72 12.0376 5.72ZM12.0376 10.6933C12.1506 10.6933 12.2494 10.7733 12.2494 10.88C12.2494 10.9867 12.1506 11.0667 12.0376 11.0667C11.9247 11.0667 11.8259 10.9867 11.8259 10.88C11.8259 10.7733 11.9247 10.6933 12.0376 10.6933ZM3.99059 9.18667C4.10353 9.18667 4.20235 9.26667 4.20235 9.37333C4.20235 9.48 4.10353 9.56 3.99059 9.56C3.87765 9.56 3.77882 9.48 3.77882 9.37333C3.77882 9.26667 3.87765 9.18667 3.99059 9.18667ZM3.99059 5.72C4.10353 5.72 4.20235 5.8 4.20235 5.90667C4.20235 6.01333 4.10353 6.09333 3.99059 6.09333C3.87765 6.09333 3.77882 6.01333 3.77882 5.90667C3.77882 5.8 3.87765 5.72 3.99059 5.72ZM3.99059 10.6933C4.10353 10.6933 4.20235 10.7733 4.20235 10.88C4.20235 10.9867 4.10353 11.0667 3.99059 11.0667C3.87765 11.0667 3.77882 10.9867 3.77882 10.88C3.77882 10.7733 3.87765 10.6933 3.99059 10.6933ZM8.07059 6.53333V6C8.07059 5.92 8.01412 5.86667 7.92941 5.86667C7.84471 5.86667 7.78824 5.92 7.78824 6V6.53333C7.78824 6.61333 7.84471 6.66667 7.92941 6.66667C8.01412 6.66667 8.07059 6.61333 8.07059 6.53333ZM8.91765 6.53333V6C8.91765 5.92 8.86118 5.86667 8.77647 5.86667C8.69176 5.86667 8.63529 5.92 8.63529 6V6.53333C8.63529 6.61333 8.69176 6.66667 8.77647 6.66667C8.86118 6.66667 8.91765 6.61333 8.91765 6.53333ZM7.22353 6.53333V6C7.22353 5.92 7.16706 5.86667 7.08235 5.86667C6.99765 5.86667 6.94118 5.92 6.94118 6V6.53333C6.94118 6.61333 6.99765 6.66667 7.08235 6.66667C7.16706 6.66667 7.22353 6.61333 7.22353 6.53333ZM13.8588 2H2.14118C2.07059 2 2 2.05333 2 2.13333V6.53333C2 6.61333 2.05647 6.66667 2.14118 6.66667H4.82353C4.90824 6.66667 4.96471 6.61333 4.96471 6.53333V2.26667H7.22353V3.68L5.71294 5.24C5.67059 5.28 5.67059 5.33333 5.68471 5.38667C5.71294 5.44 5.75529 5.46667 5.81176 5.46667H10.1882C10.2447 5.46667 10.2871 5.44 10.3153 5.38667C10.3435 5.33333 10.3294 5.28 10.3012 5.24L8.91765 3.68V2.26667H11.0353V6.53333C11.0353 6.61333 11.0918 6.66667 11.1765 6.66667H13.8588C13.9435 6.66667 14 6.61333 14 6.53333V2.13333C14 2.05333 13.9435 2 13.8588 2ZM4.68235 6.4H2.28235V2.26667H4.68235V6.4ZM8.66353 3.81333L9.89177 5.2H6.13647L7.47765 3.82667C7.50588 3.8 7.52 3.77333 7.52 3.73333V2.26667H8.64941V3.73333C8.63529 3.76 8.64941 3.8 8.66353 3.81333ZM13.7176 6.4H11.3176V2.26667H13.7176V6.4Z" fill="black"/>
</svg>
