<svg width="150" height="150" viewBox="0 0 150 150" fill="none" xmlns="http://www.w3.org/2000/svg">
<g clip-path="url(#clip0_257_1792)">
<rect width="150" height="150" fill="#FCC647"/>
<path d="M39.348 34.7118C45.3196 34.7118 50.1776 39.5701 50.1776 45.5417C50.1776 51.5133 45.3193 56.3716 39.348 56.3716C35.0672 56.3716 31.1801 53.8391 29.4451 49.9198L26.7659 51.1057C28.9699 56.0844 33.9085 59.3012 39.348 59.3012C46.9351 59.3012 53.1073 53.1287 53.1073 45.5417C53.1073 37.9547 46.9351 31.7821 39.348 31.7821C31.764 31.7821 25.5938 37.9547 25.5938 45.5417H28.5234C28.5234 39.5701 33.3794 34.7118 39.348 34.7118Z" fill="#2F3443"/>
<path d="M52.9824 108.405L54.8123 110.693C55.7809 109.918 56.6993 109.064 57.5431 108.153L55.3936 106.162C54.6488 106.966 53.8376 107.721 52.9824 108.405Z" fill="#2F3443"/>
<path d="M14.3398 91.1504L17.2695 91.1563C17.2716 90.0577 17.3563 88.9526 17.5215 87.8712L14.6252 87.4294C14.4383 88.6543 14.3425 89.9065 14.3398 91.1504Z" fill="#2F3443"/>
<path d="M64.151 90.0077C64.1091 89.1501 64.0227 88.2882 63.8946 87.4451L60.998 87.8857C61.1114 88.6304 61.1873 89.3927 61.2245 90.1503C61.2409 90.4887 61.25 90.8324 61.2509 91.1716L64.1806 91.1625C64.1797 90.7788 64.1694 90.3906 64.151 90.0077Z" fill="#2F3443"/>
<path d="M48.3713 114.42C49.5262 113.967 50.657 113.421 51.7328 112.798L50.2647 110.263C49.3164 110.812 48.3188 111.294 47.3008 111.693L48.3713 114.42Z" fill="#2F3443"/>
<path d="M37.3875 116.071L37.604 113.149C36.5106 113.068 35.4158 112.903 34.3497 112.66L33.6973 115.516C34.9066 115.792 36.1479 115.978 37.3875 116.071Z" fill="#2F3443"/>
<path d="M61.7312 102.003L59.0909 100.734C58.6163 101.72 58.0629 102.68 57.4453 103.586L59.8667 105.236C60.5663 104.209 61.1936 103.121 61.7312 102.003Z" fill="#2F3443"/>
<path d="M63.9145 94.8829L61.0161 94.4554C60.8561 95.5397 60.6121 96.6208 60.291 97.6673L63.0921 98.5263C63.4563 97.3388 63.7328 96.1131 63.9145 94.8829Z" fill="#2F3443"/>
<path d="M41.1158 116.07C42.3574 115.978 43.5984 115.792 44.804 115.518L44.1554 112.661C43.0913 112.903 41.9953 113.067 40.8984 113.148L41.1158 116.07Z" fill="#2F3443"/>
<path d="M18.2271 97.6541C17.9083 96.6094 17.6657 95.5289 17.5061 94.4429L14.6074 94.8689C14.7882 96.0993 15.0633 97.3242 15.4248 98.509L18.2271 97.6541Z" fill="#2F3443"/>
<path d="M23.2026 76.1944L21.0631 74.1929C20.2149 75.0996 19.428 76.077 18.7246 77.0988L21.1372 78.7605C21.7589 77.8585 22.4535 76.9951 23.2026 76.1944Z" fill="#2F3443"/>
<path d="M26.7715 112.787C27.8467 113.41 28.9772 113.957 30.1313 114.413L31.2059 111.687C30.1878 111.285 29.1905 110.803 28.2416 110.253L26.7715 112.787Z" fill="#2F3443"/>
<path d="M21.0622 103.571C20.4461 102.665 19.8938 101.706 19.4213 100.72L16.7793 101.987C17.3154 103.104 17.9412 104.192 18.6399 105.219L21.0622 103.571Z" fill="#2F3443"/>
<path d="M15.4668 83.7909L18.2632 84.6642C18.5896 83.6198 18.9982 82.5903 19.4784 81.6044L16.8446 80.3215C16.3003 81.4392 15.8368 82.6064 15.4668 83.7909Z" fill="#2F3443"/>
<path d="M55.3301 76.2085C56.0795 77.0095 56.7735 77.8731 57.3935 78.7746L59.8075 77.1146C59.105 76.0931 58.3184 75.1151 57.4699 74.2075L55.3301 76.2085Z" fill="#2F3443"/>
<path d="M23.6931 110.678L25.5238 108.391C24.6681 107.706 23.8571 106.951 23.1133 106.147L20.9629 108.137C21.8055 109.048 22.7239 109.902 23.6931 110.678Z" fill="#2F3443"/>
<path d="M63.0586 83.8078C62.6903 82.6224 62.2286 81.4549 61.686 80.3381L59.0508 81.6181C59.5292 82.6025 59.9361 83.632 60.2607 84.6767L63.0586 83.8078Z" fill="#2F3443"/>
<path d="M113.673 127.334H6.82422V31.0737H17.8275C14.9304 35.279 13.2314 40.3705 13.2314 45.8522C13.2314 52.6139 18.823 62.4653 24.7231 70.9784C24.4135 71.201 24.1062 71.4313 23.8088 71.6666L25.6267 73.964C25.8824 73.7616 26.1481 73.5653 26.4145 73.3731C28.377 76.1018 30.3177 78.636 32.0438 80.8139C28.5754 83.2051 26.4593 87.1693 26.4593 91.4261C26.4593 98.5341 32.2419 104.317 39.3499 104.317C46.4579 104.317 52.2405 98.5341 52.2405 91.4261C52.2405 87.1678 50.1241 83.2031 46.6548 80.8122C48.3634 78.6568 50.2817 76.1531 52.2235 73.4569C52.4556 73.6262 52.6841 73.7994 52.9082 73.9769L54.7275 71.6806C54.4618 71.47 54.1902 71.2655 53.9151 71.0654C59.8384 62.5327 65.4692 52.6368 65.4692 45.8522C65.4692 40.3708 63.77 35.2792 60.8726 31.0737H79.0053V28.144H58.5291C53.7534 22.9772 46.9228 19.7361 39.3481 19.7361C31.7749 19.7361 24.9455 22.9772 20.171 28.144H3.89453V130.264H113.673V127.334ZM49.3105 91.4255C49.3105 96.9181 44.8422 101.386 39.3496 101.386C33.857 101.386 29.3887 96.9181 29.3887 91.4255C29.3887 88.0637 31.0937 84.9342 33.8808 83.1008C34.2379 83.5394 34.578 83.9534 34.9018 84.3451C32.5993 85.8386 31.1646 88.4206 31.1646 91.2164C31.1646 95.7292 34.8361 99.401 39.3493 99.401C43.8634 99.401 47.536 95.7295 47.536 91.2164C47.536 88.4191 46.0999 85.8363 43.7948 84.3433C44.1189 83.9516 44.459 83.5374 44.8164 83.0988C47.6049 84.9319 49.3105 88.0623 49.3105 91.4255ZM41.8894 86.6147C43.5522 87.5337 44.6066 89.2962 44.6066 91.2167C44.6066 94.1144 42.2482 96.4716 39.3496 96.4716C36.4521 96.4716 34.0946 94.1144 34.0946 91.2167C34.0946 89.2977 35.1473 87.5361 36.8075 86.6165C37.6026 87.5499 38.1191 88.1358 38.2507 88.2843L39.3473 89.5233L40.4441 88.2843C40.5763 88.1355 41.0931 87.5487 41.8894 86.6147ZM39.3476 22.6655C52.1353 22.6655 62.5393 33.0667 62.5393 45.8519C62.5393 57.1558 44.086 79.5175 39.3476 85.0725C34.6085 79.5167 16.1611 57.1599 16.1611 45.8519C16.1611 33.067 26.5627 22.6655 39.3476 22.6655Z" fill="#2F3443"/>
<path d="M93.0664 31.0734H143.177V127.334H119.074V130.264H146.107V28.1437H93.0664V31.0734Z" fill="#2F3443"/>
<path d="M88.5753 28.1437H83.543V31.0734H88.5753V28.1437Z" fill="#2F3443"/>
<path d="M70.3887 111.146L83.9713 96.2601H135.927V49.5779H70.3887V111.146ZM73.3184 52.5076H132.998V93.3307H82.6781L73.3184 103.589V52.5076Z" fill="#2F3443"/>
<path d="M124.4 63.4066H88.7695V66.3363H124.4V63.4066Z" fill="#2F3443"/>
<path d="M85.5576 63.4066H81.916V66.3363H85.5576V63.4066Z" fill="#2F3443"/>
<path d="M111.654 80.1401H81.916V83.0698H111.654V80.1401Z" fill="#2F3443"/>
<path d="M124.4 71.7732H118.508V74.7029H124.4V71.7732Z" fill="#2F3443"/>
<path d="M115.472 71.7732H81.916V74.7029H115.472V71.7732Z" fill="#2F3443"/>
</g>
<defs>
<clipPath id="clip0_257_1792">
<rect width="150" height="150" fill="white"/>
</clipPath>
</defs>
</svg>
