<svg width="216" height="192" viewBox="0 0 216 192" fill="none" xmlns="http://www.w3.org/2000/svg">
<path d="M108 192C106.635 192.014 105.29 191.669 104.1 191C99.8 188.6 0 131.9 0 60C0 47.4071 3.96224 35.1333 11.3255 24.9174C18.6887 14.7014 29.0796 7.06124 41.0263 3.079C52.9731 -0.903237 65.8699 -1.02562 77.8901 2.72919C89.9102 6.484 100.444 13.9256 108 24C115.556 13.9256 126.09 6.484 138.11 2.72919C150.13 -1.02562 163.027 -0.903237 174.974 3.079C186.92 7.06124 197.311 14.7014 204.675 24.9174C212.038 35.1333 216 47.4071 216 60C216 90.6 198.3 122 163.4 153.4C147.552 167.647 130.297 180.245 111.9 191C110.71 191.669 109.365 192.014 108 192ZM60 16C48.3305 16 37.1389 20.6357 28.8873 28.8873C20.6357 37.1389 16 48.3305 16 60C16 115.2 90 163.7 108 174.7C126 163.7 200 115.2 200 60C200.009 49.8283 196.494 39.9675 190.052 32.0954C183.611 24.2233 174.641 18.8261 164.668 16.8222C154.696 14.8183 144.337 16.3314 135.355 21.1041C126.372 25.8768 119.321 33.6142 115.4 43C114.797 44.4673 113.772 45.7223 112.454 46.6055C111.137 47.4887 109.586 47.9603 108 47.9603C106.414 47.9603 104.863 47.4887 103.546 46.6055C102.228 45.7223 101.203 44.4673 100.6 43C97.2702 34.9827 91.6331 28.1356 84.4043 23.3283C77.1756 18.521 68.6813 15.9703 60 16Z" fill="#2F3443"/>
</svg>
