<svg width="200" height="176" viewBox="0 0 200 176" fill="none" xmlns="http://www.w3.org/2000/svg">
<path d="M100 176C100 176 0 120 0 52.0001C0 39.9789 4.16494 28.3291 11.7862 19.0327C19.4075 9.73621 30.0143 3.36742 41.802 1.00989C53.5897 -1.34765 65.8301 0.451687 76.4406 6.10177C87.0512 11.7519 95.3765 20.9037 100 32.0001C104.624 20.9037 112.949 11.7519 123.559 6.10177C134.17 0.451687 146.41 -1.34765 158.198 1.00989C169.986 3.36742 180.593 9.73621 188.214 19.0327C195.835 28.3291 200 39.9789 200 52.0001C200 120 100 176 100 176Z" fill="#2F3443"/>
</svg>
