<svg width="152" height="154" viewBox="0 0 152 154" fill="none" xmlns="http://www.w3.org/2000/svg">
<g clip-path="url(#clip0_536_1118)">
<path d="M134.381 132.571C131.26 135.849 128.306 137.961 125.973 139.633C98.5456 159.266 66.0916 153.543 59.1944 152.145C49.0092 150.082 29.3212 146.093 15.088 129.394C-6.44691 104.13 -3.09372 64.3291 13.6105 38.0545C16.6648 33.2486 32.8039 6.57418 65.6081 2.29683C85.4603 -0.292018 108.602 4.92913 125.36 18.9354C160.538 48.3362 158.034 107.731 134.381 132.571Z" fill="url(#paint0_linear_536_1118)"/>
<path d="M103.911 148.853C103.78 148.835 103.654 148.792 103.54 148.725C103.427 148.659 103.328 148.57 103.249 148.464C100.934 145.352 84.1009 120.995 106.502 98.7311C127.769 77.5957 137.409 73.2562 138.691 60.8361C138.841 59.3863 140.806 59.0381 141.452 60.3455C146.285 70.1162 153.814 92.9159 128.899 107.881C101.414 124.389 103.666 142.484 104.996 147.627C105.037 147.783 105.038 147.947 105.001 148.105C104.963 148.262 104.887 148.408 104.779 148.529C104.671 148.65 104.536 148.743 104.383 148.799C104.231 148.855 104.068 148.873 103.907 148.851L103.911 148.853Z" fill="#2F3443"/>
<path d="M107.319 149.316C107.015 149.275 106.732 149.137 106.513 148.923C106.293 148.709 106.149 148.43 106.102 148.127C105.446 143.892 103.835 128.065 115.523 123.868C128.389 119.248 138.777 131.202 148.234 121.846C148.73 121.351 149.569 121.783 149.447 122.472C148.605 127.359 144.856 138.68 128.174 140.957C110.318 143.395 108.309 145.439 108.67 147.974C108.694 148.156 108.676 148.342 108.616 148.517C108.557 148.691 108.458 148.85 108.327 148.979C108.196 149.109 108.037 149.207 107.861 149.266C107.686 149.324 107.5 149.341 107.317 149.316H107.319Z" fill="#2F3443"/>
<path opacity="0.47" d="M138.073 73.4987C137.856 74.4004 137.57 75.2843 137.219 76.1426C136.877 76.9991 136.49 77.8373 136.061 78.6539C135.216 80.2951 134.202 81.8477 133.093 83.3289C130.858 86.2796 128.154 88.8718 125.174 91.0701C123.682 92.1554 122.131 93.1584 120.528 94.0748C118.998 94.964 117.525 95.9482 116.118 97.0217C113.299 99.1757 110.736 101.645 108.481 104.381C103.981 109.841 100.787 116.426 99.7366 123.444C99.2069 126.96 99.1867 130.533 99.6765 134.055C100.154 137.588 101.165 141.048 102.495 144.383C102.527 144.467 102.526 144.56 102.492 144.642C102.457 144.725 102.392 144.791 102.31 144.827C102.227 144.863 102.134 144.866 102.05 144.835C101.966 144.804 101.897 144.742 101.857 144.662C100.301 141.365 99.1373 137.86 98.4939 134.242C97.826 130.609 97.7204 126.895 98.1808 123.23C98.6279 119.56 99.666 115.964 101.158 112.58C102.65 109.195 104.637 106.03 106.951 103.145C109.264 100.26 111.946 97.6707 114.88 95.4124C116.35 94.2819 117.89 93.2448 119.491 92.3071C121.061 91.4084 122.552 90.4921 123.996 89.4553C126.878 87.4016 129.541 85.0306 131.833 82.3246C132.99 80.9775 134.049 79.5497 135.003 78.0522C135.944 76.5529 136.822 74.9722 137.456 73.3354L137.464 73.3139C137.491 73.2363 137.547 73.1721 137.621 73.135C137.694 73.0979 137.779 73.0907 137.858 73.115C137.937 73.1392 138.003 73.193 138.042 73.2651C138.082 73.3371 138.092 73.4217 138.071 73.5009L138.073 73.4987Z" fill="white"/>
<path opacity="0.47" d="M106.578 146.443C106.633 146.29 106.616 146.147 106.611 146.003L106.597 145.566L106.587 144.694C106.587 144.112 106.6 143.531 106.626 142.95C106.678 141.788 106.777 140.627 106.933 139.472C107.251 137.166 107.774 134.867 108.708 132.701C109.63 130.55 111.028 128.495 113.056 127.152C114.069 126.491 115.199 126.027 116.386 125.785C117.566 125.537 118.778 125.5 119.964 125.604C124.612 126.142 129.168 127.031 133.736 127.753C136.011 128.091 138.319 128.393 140.552 128.088C141.106 128.01 141.653 127.885 142.186 127.716C142.715 127.54 143.226 127.312 143.711 127.037C144.682 126.484 145.536 125.727 146.302 124.887C146.353 124.835 146.422 124.804 146.495 124.801C146.568 124.798 146.639 124.824 146.694 124.872C146.749 124.921 146.782 124.988 146.788 125.061C146.794 125.134 146.772 125.206 146.725 125.263C145.954 126.151 145.068 126.972 144.035 127.591C143.518 127.9 142.972 128.157 142.405 128.361C141.837 128.555 141.253 128.703 140.66 128.801C138.28 129.148 135.922 128.852 133.621 128.538C131.312 128.208 129.034 127.783 126.747 127.414C124.46 127.045 122.16 126.686 119.89 126.42C118.769 126.31 117.636 126.338 116.543 126.558C115.449 126.771 114.405 127.188 113.466 127.789C111.579 128.988 110.21 130.895 109.28 132.959C108.34 135.034 107.781 137.281 107.427 139.548C107.252 140.683 107.133 141.829 107.06 142.977C107.023 143.551 107 144.127 106.99 144.702L106.984 145.565L106.989 145.996C106.993 146.139 106.989 146.285 107.057 146.421C107.077 146.46 107.087 146.503 107.086 146.546C107.086 146.59 107.074 146.632 107.053 146.67C107.031 146.708 107.001 146.74 106.964 146.763C106.927 146.786 106.885 146.8 106.842 146.803C106.798 146.806 106.755 146.798 106.715 146.78C106.675 146.762 106.641 146.735 106.614 146.7C106.588 146.666 106.571 146.625 106.564 146.582C106.557 146.54 106.561 146.496 106.575 146.455L106.578 146.443Z" fill="white"/>
<path d="M82.2931 1.74902C75.2912 1.69402 68.2264 2.80172 61.9771 5.38837C47.4297 11.4098 35.0838 27.3427 39.9162 43.615C41.4858 48.9016 40.661 54.7344 45.9406 57.0317C48.797 58.2747 56.5763 59.015 59.5336 58.0349C67.395 55.4312 72.5626 48.3054 68.2871 40.4025C66.9176 37.8725 65.1445 35.5625 63.9636 32.9373C62.7826 30.3122 62.2423 27.2014 63.4475 24.5889C65.8138 19.4612 73.6741 17.831 78.7712 17.9845C84.7873 18.166 90.2388 21.1349 93.4768 26.2273C97.5114 32.5743 98.5336 40.2936 97.9426 47.6614C97.3107 55.5445 93.9791 61.5643 88.9857 67.6121C84.6853 72.8184 79.9521 77.8162 77.0946 83.93C74.4713 89.54 73.6146 95.7616 73.496 101.902C73.4729 103.092 67.5417 114.308 67.5654 117.734C67.5692 118.218 74.2916 119.824 74.7795 119.827L87.1233 119.965C87.3842 119.968 87.6358 119.868 87.8227 119.687C88.0096 119.505 88.1166 119.257 88.1201 118.996C88.3081 102.326 93.4476 86.4331 106.459 75.2373C111.194 71.1634 116.292 67.8458 119.974 62.7039C125.221 55.3751 127.809 48.163 127.062 39.1182C126.38 30.8572 123.653 22.5918 118.256 16.1832C112.454 9.29502 103.963 4.99402 95.1379 3.13777C90.9131 2.25105 86.6103 1.78584 82.2931 1.74902Z" fill="url(#paint1_linear_536_1118)"/>
<path d="M95.2068 138.655C95.2068 146.32 90.9478 153.102 83.2634 153.102C81.6033 153.102 75.9577 153.118 74.4818 152.586C69.1245 150.655 69.1052 146.55 69.1052 140.541C69.1052 132.875 71.7003 125.336 79.3842 125.336C87.0681 125.336 95.2068 130.989 95.2068 138.655Z" fill="url(#paint2_linear_536_1118)"/>
<path d="M75.639 5.50232e-05C68.6371 -0.054945 61.5723 1.05275 55.323 3.6394C40.7756 9.663 28.4297 25.596 33.261 41.8705C34.8306 47.1571 38.4595 53.8121 43.739 56.1094C46.5954 57.3524 49.9211 57.2699 52.8784 56.2904C60.7398 53.6867 65.9074 46.5603 61.6319 38.6579C60.2624 36.1279 58.4893 33.8179 57.3083 31.1928C56.1274 28.5676 55.5871 25.4568 56.7923 22.8443C59.1575 17.7161 67.0189 16.0865 72.1138 16.2399C78.1299 16.4214 83.5814 19.3903 86.8194 24.4828C90.854 30.8292 91.8762 38.549 91.2851 45.9163C90.6533 53.8 87.3216 59.8197 82.3282 65.8675C78.0279 71.0738 73.2947 76.0717 70.4372 82.1855C67.8139 87.7955 66.9572 94.0171 66.8386 100.157C66.8155 101.347 67.2174 113.776 67.2428 117.202C67.2445 117.435 67.338 117.657 67.503 117.822C67.6681 117.987 67.8915 118.08 68.1249 118.082L80.4686 118.22C80.7295 118.223 80.9811 118.123 81.168 117.941C81.355 117.76 81.4619 117.512 81.4654 117.251C81.6534 100.581 86.7929 84.688 99.8043 73.4921C104.539 69.4183 109.638 66.1007 113.319 60.9588C118.566 53.6306 121.155 46.4201 120.41 37.3737C119.728 29.1127 117.001 20.8473 111.604 14.4387C105.8 7.54935 97.3095 3.24505 88.4838 1.39101C84.259 0.503546 79.9562 0.037601 75.639 5.50232e-05Z" fill="url(#paint3_linear_536_1118)"/>
<path d="M76.3653 152.673C84.0494 152.673 90.2786 146.459 90.2786 138.793C90.2786 131.127 84.0494 124.913 76.3653 124.913C68.6811 124.913 62.4519 131.127 62.4519 138.793C62.4519 146.459 68.6811 152.673 76.3653 152.673Z" fill="url(#paint4_linear_536_1118)"/>
<path opacity="0.63" d="M37.8663 40.276C37.8257 40.2759 37.7863 40.262 37.7547 40.2366C37.723 40.2112 37.701 40.1758 37.6921 40.1363C36.7184 35.7446 36.574 28.8668 41.429 21.0431C46.1682 13.4063 52.8173 8.2968 61.1865 5.8559C70.1351 3.2467 80.7587 3.80495 92.7644 7.5158C92.8086 7.53062 92.8452 7.56206 92.8665 7.60344C92.8877 7.64481 92.8919 7.69283 92.8782 7.73726C92.8645 7.78168 92.8339 7.81899 92.7929 7.84122C92.752 7.86345 92.704 7.86885 92.6591 7.85625C69.5942 0.726601 51.5084 5.4764 41.7355 21.2301C36.939 28.9526 37.0801 35.7319 38.0416 40.0593C38.0467 40.0822 38.0471 40.1058 38.043 40.1288C38.0389 40.1519 38.0303 40.1739 38.0176 40.1936C38.005 40.2133 37.9886 40.2304 37.9693 40.2437C37.9501 40.2571 37.9284 40.2666 37.9055 40.2716C37.8927 40.2747 37.8795 40.2762 37.8663 40.276Z" fill="white"/>
<path opacity="0.63" d="M40.7935 47.3424C40.7653 47.3424 40.7375 47.3358 40.7124 47.3231C40.6873 47.3104 40.6656 47.2919 40.649 47.2692C40.6066 47.2142 39.6042 45.8299 38.6714 43.3956C38.6545 43.3514 38.6559 43.3023 38.6753 43.2591C38.6947 43.2159 38.7305 43.1822 38.7748 43.1654C38.8191 43.1485 38.8683 43.1499 38.9115 43.1693C38.9548 43.1886 38.9886 43.2243 39.0055 43.2685C39.9191 45.6544 40.9274 47.0454 40.9352 47.0591C40.949 47.078 40.959 47.0995 40.9645 47.1222C40.97 47.145 40.971 47.1686 40.9674 47.1918C40.9637 47.2149 40.9555 47.2371 40.9433 47.2571C40.9311 47.2771 40.915 47.2945 40.896 47.3083C40.8662 47.3301 40.8304 47.342 40.7935 47.3424Z" fill="white"/>
<path opacity="0.63" d="M81.0207 129.797C80.9927 129.797 80.9651 129.79 80.9402 129.778C79.523 129.058 77.9544 128.685 76.3642 128.69C76.3168 128.69 76.2714 128.671 76.2379 128.638C76.2044 128.605 76.1855 128.559 76.1855 128.512C76.1855 128.465 76.2044 128.419 76.2379 128.386C76.2714 128.353 76.3168 128.334 76.3642 128.334C78.0102 128.329 79.6337 128.715 81.1007 129.46C81.1365 129.478 81.1652 129.507 81.182 129.544C81.1989 129.58 81.203 129.621 81.1936 129.66C81.1842 129.699 81.162 129.734 81.1304 129.759C81.0988 129.783 81.0598 129.797 81.0196 129.797H81.0207Z" fill="white"/>
<path opacity="0.63" d="M70.6027 147.496C70.5673 147.496 70.5328 147.485 70.5034 147.465C69.006 146.458 67.7949 145.081 66.9874 143.469C66.1799 141.858 65.8034 140.065 65.8944 138.265C65.9854 136.466 66.5408 134.72 67.5068 133.197C68.4728 131.675 69.8167 130.427 71.4082 129.575C71.4289 129.562 71.4519 129.554 71.4758 129.551C71.4996 129.548 71.5239 129.55 71.5471 129.556C71.5704 129.562 71.592 129.573 71.6109 129.588C71.6297 129.603 71.6453 129.622 71.6567 129.643C71.6682 129.664 71.6752 129.688 71.6774 129.712C71.6795 129.735 71.6769 129.76 71.6694 129.782C71.662 129.805 71.6501 129.827 71.6343 129.845C71.6184 129.863 71.5991 129.878 71.5774 129.888C70.04 130.711 68.7418 131.917 67.8085 133.387C66.8753 134.858 66.3387 136.544 66.2507 138.283C66.1628 140.021 66.5264 141.753 67.3065 143.31C68.0865 144.867 69.2565 146.197 70.703 147.17C70.7346 147.192 70.7585 147.223 70.7712 147.258C70.7838 147.294 70.7846 147.333 70.7734 147.37C70.7622 147.406 70.7395 147.438 70.7088 147.461C70.6781 147.483 70.6409 147.496 70.6027 147.496Z" fill="white"/>
<g opacity="0.3">
<path d="M30.0816 25.9672C30.0468 26.0101 30.0039 26.0457 29.9553 26.0721C29.9068 26.0984 29.8534 26.115 29.7984 26.1207C29.7435 26.1265 29.6879 26.1214 29.6348 26.1057C29.5818 26.09 29.5324 26.0641 29.4895 26.0293C29.1383 25.7461 28.7727 25.4733 28.3934 25.2192C28.3022 25.1575 28.2389 25.0625 28.2171 24.9548C28.1952 24.847 28.2166 24.735 28.2765 24.6428L28.281 24.6356C28.344 24.5437 28.4409 24.4805 28.5506 24.4599C28.6603 24.4393 28.7737 24.4629 28.8659 24.5256C29.2618 24.7929 29.6499 25.08 30.0193 25.3787C30.1001 25.4438 30.1539 25.5365 30.1703 25.6389C30.1867 25.7413 30.1645 25.8461 30.1081 25.9331C30.1 25.945 30.0912 25.9564 30.0816 25.9672ZM26.4781 24.1076C26.0712 23.9074 25.6511 23.7226 25.231 23.5576C25.1296 23.5151 25.0489 23.4348 25.0061 23.3337C24.9634 23.2326 24.9619 23.1189 25.0021 23.0168C25.0423 22.9146 25.1209 22.8322 25.2211 22.7872C25.3214 22.7421 25.4353 22.7379 25.5386 22.7755C25.9797 22.9482 26.4208 23.1429 26.8508 23.3541C26.9004 23.3785 26.9448 23.4124 26.9813 23.4539C27.0177 23.4953 27.0457 23.5436 27.0634 23.5959C27.0812 23.6481 27.0885 23.7034 27.0848 23.7584C27.0812 23.8135 27.0666 23.8673 27.0421 23.9168C27.0344 23.9314 27.0261 23.9457 27.0173 23.9597C26.9612 24.046 26.8753 24.1087 26.7759 24.136C26.6765 24.1633 26.5705 24.1532 26.4781 24.1076ZM23.1177 22.8976C22.6767 22.7931 22.2273 22.7062 21.7791 22.6397C21.67 22.6216 21.5725 22.5615 21.5074 22.4724C21.4424 22.3832 21.4151 22.2721 21.4314 22.163C21.4478 22.0539 21.5065 21.9556 21.5948 21.8893C21.6832 21.823 21.7941 21.794 21.9037 21.8086C22.3751 21.879 22.8498 21.9703 23.3129 22.0809C23.3667 22.0936 23.4175 22.1168 23.4623 22.1491C23.5072 22.1815 23.5452 22.2223 23.5741 22.2693C23.6031 22.3163 23.6225 22.3686 23.6313 22.423C23.64 22.4775 23.6378 22.5332 23.625 22.5869C23.6141 22.6335 23.5955 22.6779 23.5698 22.7183C23.5222 22.791 23.4531 22.8471 23.3722 22.8791C23.2912 22.911 23.2023 22.9171 23.1177 22.8965V22.8976ZM19.5721 22.4659C19.1189 22.462 18.6602 22.4774 18.2087 22.5121C18.1536 22.5163 18.0982 22.5097 18.0457 22.4926C17.9931 22.4755 17.9445 22.4483 17.9025 22.4124C17.8605 22.3766 17.826 22.3328 17.801 22.2837C17.776 22.2345 17.7609 22.1809 17.7566 22.126C17.7523 22.071 17.759 22.0157 17.7761 21.9633C17.7932 21.9109 17.8206 21.8624 17.8565 21.8205C17.8924 21.7786 17.9363 21.7442 17.9856 21.7193C18.0348 21.6943 18.0885 21.6792 18.1436 21.675C18.6194 21.6381 19.1019 21.62 19.5771 21.6255C19.6888 21.6264 19.7956 21.6716 19.8739 21.7511C19.9522 21.8306 19.9957 21.9378 19.9947 22.0493C19.9938 22.1607 19.9485 22.2672 19.8688 22.3453C19.7892 22.4235 19.6817 22.4668 19.5699 22.4659H19.5721ZM16.0166 22.8338C15.5756 22.9306 15.1312 23.0467 14.6973 23.1809C14.5905 23.2138 14.4751 23.203 14.3763 23.151C14.2775 23.0989 14.2035 23.0099 14.1705 22.9034C14.1375 22.7969 14.1483 22.6817 14.2005 22.5832C14.2526 22.4846 14.3419 22.4108 14.4486 22.3779C14.9051 22.2376 15.3721 22.115 15.8369 22.0132C15.9183 21.9958 16.0032 22.0028 16.0806 22.0335C16.158 22.0642 16.2246 22.1171 16.2718 22.1855C16.3191 22.254 16.3449 22.3349 16.346 22.418C16.347 22.5011 16.3234 22.5827 16.2779 22.6523C16.2483 22.6984 16.2098 22.7382 16.1647 22.7694C16.1195 22.8005 16.0687 22.8224 16.015 22.8338H16.0166ZM12.6298 23.98C12.2202 24.1714 11.8133 24.3832 11.4207 24.6092C11.3728 24.6389 11.3193 24.6586 11.2636 24.6672C11.2078 24.6758 11.1509 24.6732 11.0961 24.6595C11.0414 24.6457 10.99 24.6211 10.945 24.5872C10.9 24.5533 10.8623 24.5107 10.8341 24.4619C10.8059 24.4131 10.7878 24.3592 10.7809 24.3034C10.774 24.2475 10.7784 24.1908 10.7939 24.1367C10.8094 24.0826 10.8356 24.0321 10.871 23.9883C10.9065 23.9444 10.9503 23.9082 11.0001 23.8816C11.413 23.644 11.8414 23.4212 12.2725 23.2216C12.3718 23.1839 12.4817 23.185 12.5802 23.2246C12.6787 23.2643 12.7585 23.3396 12.8037 23.4356C12.8489 23.5315 12.856 23.6409 12.8238 23.7418C12.7916 23.8428 12.7223 23.9279 12.6298 23.98ZM3.14251 36.3743C3.03214 36.3576 2.93293 36.2979 2.86667 36.2083C2.8004 36.1186 2.77251 36.0064 2.78911 35.8963C2.86023 35.4266 2.95451 34.9531 3.06478 34.49C3.09356 34.3846 3.16238 34.2945 3.25663 34.2388C3.35088 34.1832 3.46315 34.1663 3.56963 34.1919C3.67612 34.2174 3.76845 34.2833 3.82704 34.3756C3.88564 34.4679 3.90589 34.5794 3.8835 34.6863C3.77764 35.1263 3.68998 35.5757 3.62217 36.0217C3.61296 36.0805 3.59155 36.1367 3.55932 36.1867C3.51527 36.2547 3.45253 36.3085 3.3786 36.3417C3.30468 36.375 3.22271 36.3863 3.14251 36.3743ZM9.58756 25.8407C9.2303 26.1184 8.88131 26.4149 8.54996 26.7207C8.46807 26.7965 8.35934 26.8368 8.24767 26.8327C8.136 26.8286 8.03056 26.7804 7.95452 26.6987C7.87848 26.617 7.83809 26.5085 7.84223 26.3971C7.84636 26.2857 7.89469 26.1805 7.97657 26.1047C8.32612 25.7813 8.6933 25.4689 9.06931 25.1763C9.14813 25.1147 9.24638 25.0831 9.34643 25.0872C9.44648 25.0913 9.54179 25.1309 9.61527 25.1987C9.68874 25.2666 9.73558 25.3584 9.74737 25.4575C9.75917 25.5567 9.73515 25.6569 9.67963 25.74C9.65376 25.7784 9.62194 25.8123 9.58535 25.8407H9.58756ZM4.00204 32.8158C3.95055 32.7956 3.90356 32.7654 3.86376 32.7271C3.82395 32.6888 3.7921 32.643 3.77004 32.5924C3.74797 32.5417 3.73612 32.4873 3.73515 32.4321C3.73419 32.3769 3.74413 32.3221 3.76441 32.2707C3.93918 31.8307 4.13546 31.3907 4.34772 30.9617C4.39943 30.8655 4.48663 30.7932 4.59087 30.76C4.6951 30.7268 4.80819 30.7354 4.9062 30.7839C5.0042 30.8325 5.07944 30.9171 5.11597 31.02C5.1525 31.1229 5.14747 31.2359 5.10194 31.3352C4.9007 31.7405 4.71601 32.1602 4.54785 32.5793C4.52759 32.6306 4.4974 32.6774 4.459 32.717C4.4206 32.7567 4.37475 32.7884 4.32406 32.8103C4.27338 32.8323 4.21885 32.8441 4.16359 32.845C4.10834 32.846 4.05344 32.836 4.00204 32.8158ZM7.03435 28.3349C6.74931 28.6853 6.4753 29.0499 6.22004 29.4261C6.15651 29.5147 6.06098 29.5753 5.95358 29.595C5.84618 29.6147 5.73531 29.592 5.64435 29.5317C5.55339 29.4714 5.48945 29.3783 5.46602 29.2719C5.44259 29.1655 5.46149 29.0541 5.51874 28.9614L5.52371 28.9537C5.7922 28.5599 6.08055 28.1738 6.38102 27.8047C6.44879 27.7202 6.54664 27.665 6.6542 27.6506C6.76176 27.6363 6.87071 27.6639 6.95836 27.7277C7.04601 27.7915 7.10558 27.8866 7.12467 27.9932C7.14376 28.0998 7.12088 28.2096 7.06081 28.2997C7.0531 28.3107 7.04372 28.325 7.03435 28.3349Z" fill="#2F3443"/>
<path d="M3.38178 39.132C3.42876 39.0604 3.45226 38.976 3.44904 38.8906C3.44243 38.6739 3.44022 38.4539 3.44187 38.2361C3.44437 38.1797 3.43547 38.1234 3.41569 38.0705C3.39591 38.0177 3.36566 37.9693 3.32675 37.9284C3.28784 37.8875 3.24106 37.8548 3.18921 37.8322C3.13735 37.8097 3.08148 37.7978 3.02493 37.7973C2.96838 37.7968 2.9123 37.8077 2.86004 37.8292C2.80778 37.8508 2.76041 37.8826 2.72075 37.9229C2.6811 37.9631 2.64997 38.0109 2.62922 38.0634C2.60847 38.1158 2.59853 38.172 2.59999 38.2284C2.59999 38.4572 2.59999 38.6887 2.60771 38.917C2.61137 39.0057 2.6431 39.091 2.69835 39.1606C2.7536 39.2302 2.82954 39.2805 2.91527 39.3044C3.001 39.3283 3.0921 39.3245 3.17552 39.2935C3.25893 39.2625 3.33037 39.206 3.37957 39.132H3.38178Z" fill="#2F3443"/>
</g>
<g opacity="0.3">
<path d="M8.7628 50.7584C8.81724 50.6747 8.84004 50.5744 8.82711 50.4754C8.81418 50.3765 8.76637 50.2853 8.69223 50.2183C8.53124 50.0731 8.37025 49.9224 8.21478 49.7695C8.13509 49.6914 8.02755 49.6481 7.91584 49.6491C7.80412 49.65 7.69737 49.6953 7.61906 49.7748C7.54076 49.8543 7.49733 49.9615 7.49831 50.073C7.49929 50.1844 7.54461 50.2909 7.6243 50.369C7.7897 50.5296 7.95786 50.6886 8.12711 50.8415C8.20995 50.9162 8.31916 50.9551 8.43072 50.9495C8.54228 50.944 8.64705 50.8944 8.722 50.8118C8.73702 50.7951 8.75067 50.7773 8.7628 50.7584Z" fill="#2F3443"/>
<path d="M33.0438 48.2427C32.9755 48.3247 32.8786 48.3778 32.7725 48.3912C32.6665 48.4045 32.5594 48.3771 32.4728 48.3146C32.3862 48.2521 32.3267 48.1591 32.3063 48.0545C32.2859 47.9498 32.3062 47.8414 32.3629 47.751C32.6221 47.393 32.8702 47.0179 33.1028 46.6334C33.1303 46.5841 33.1674 46.5407 33.212 46.506C33.2566 46.4713 33.3078 46.4459 33.3624 46.4313C33.4171 46.4168 33.4741 46.4133 33.5302 46.4212C33.5862 46.4291 33.64 46.4482 33.6885 46.4774C33.737 46.5065 33.7791 46.5451 33.8123 46.5908C33.8455 46.6365 33.8691 46.6884 33.8817 46.7434C33.8944 46.7984 33.8958 46.8554 33.8858 46.911C33.8759 46.9666 33.8549 47.0196 33.824 47.0668C33.7229 47.234 33.6196 47.399 33.5141 47.5618C33.3614 47.7917 33.2037 48.0211 33.0438 48.2427ZM34.3174 45.2507C34.2153 45.2067 34.1348 45.1241 34.0935 45.0211C34.0521 44.9181 34.0534 44.8029 34.0969 44.7007C34.2733 44.2921 34.4348 43.8708 34.576 43.45C34.592 43.3959 34.6189 43.3456 34.6549 43.3021C34.6908 43.2586 34.7352 43.2227 34.7854 43.1967C34.8356 43.1707 34.8905 43.155 34.9469 43.1506C35.0033 43.1462 35.06 43.1531 35.1136 43.171C35.1672 43.189 35.2167 43.2175 35.259 43.2549C35.3014 43.2923 35.3357 43.3378 35.3601 43.3887C35.3844 43.4396 35.3982 43.4949 35.4006 43.5513C35.4031 43.6077 35.3941 43.6639 35.3743 43.7168C35.226 44.1601 35.0562 44.6028 34.8698 45.0335C34.8605 45.0553 34.8492 45.0763 34.8362 45.0962C34.7818 45.1788 34.6999 45.2395 34.605 45.2678C34.5101 45.2961 34.4083 45.29 34.3174 45.2507ZM31.5762 50.0022C31.2526 50.3404 30.9102 50.6693 30.5584 50.9795C30.4743 51.0496 30.366 51.0842 30.2567 51.076C30.1474 51.0678 30.0456 51.0173 29.973 50.9354C29.9003 50.8535 29.8626 50.7465 29.8677 50.6373C29.8729 50.5281 29.9205 50.4251 30.0005 50.3503C30.3351 50.0555 30.6621 49.7453 30.9675 49.4225C31.0398 49.3467 31.1378 49.3006 31.2423 49.2932C31.3469 49.2857 31.4505 49.3175 31.5328 49.3823C31.6151 49.447 31.6702 49.5401 31.6873 49.6433C31.7044 49.7465 31.6823 49.8523 31.6253 49.94C31.611 49.9623 31.5946 49.9831 31.5762 50.0022ZM35.4614 41.8336C35.4071 41.8235 35.3552 41.8028 35.3089 41.7727C35.2626 41.7426 35.2226 41.7036 35.1914 41.6581C35.1602 41.6126 35.1382 41.5614 35.1269 41.5074C35.1155 41.4534 35.1149 41.3977 35.1251 41.3435C35.2072 40.9035 35.2717 40.4608 35.3164 40.0186C35.3211 39.963 35.3368 39.9089 35.3627 39.8595C35.3886 39.81 35.4241 39.7662 35.4671 39.7306C35.5101 39.6949 35.5598 39.6682 35.6133 39.6519C35.6668 39.6357 35.723 39.6302 35.7786 39.6358C35.8342 39.6414 35.8882 39.658 35.9373 39.6847C35.9864 39.7113 36.0297 39.7475 36.0647 39.791C36.0997 39.8345 36.1257 39.8845 36.1411 39.9381C36.1565 39.9918 36.161 40.0479 36.1544 40.1033C36.107 40.5686 36.0392 41.0383 35.9526 41.4981C35.9426 41.5523 35.9219 41.6041 35.8917 41.6503C35.8615 41.6966 35.8225 41.7364 35.7769 41.7676C35.7312 41.7988 35.6799 41.8207 35.6257 41.832C35.5716 41.8433 35.5158 41.8439 35.4614 41.8336ZM28.7401 52.3732C28.3504 52.6317 27.944 52.877 27.5322 53.1025C27.4837 53.1292 27.4305 53.1461 27.3755 53.1522C27.3206 53.1583 27.2649 53.1536 27.2118 53.1383C27.1586 53.123 27.109 53.0973 27.0658 53.0629C27.0226 53.0285 26.9866 52.9859 26.9599 52.9375C26.9332 52.8892 26.9163 52.8361 26.9101 52.7813C26.904 52.7264 26.9087 52.6709 26.9241 52.6179C26.9394 52.5649 26.9651 52.5154 26.9996 52.4723C27.0342 52.4292 27.0769 52.3933 27.1253 52.3666C27.5167 52.1521 27.9027 51.9189 28.2726 51.6731C28.3532 51.6203 28.4495 51.5967 28.5454 51.6061C28.6414 51.6155 28.7312 51.6575 28.7999 51.7249C28.8686 51.7924 28.9121 51.8813 28.9231 51.9768C28.9341 52.0724 28.9119 52.1688 28.8603 52.25C28.8291 52.2988 28.7882 52.3408 28.7401 52.3732ZM25.4515 54.065C25.0132 54.23 24.5627 54.384 24.1128 54.5144C24.0065 54.5426 23.8933 54.5281 23.7975 54.4741C23.7017 54.4202 23.6308 54.3309 23.6001 54.2255C23.5694 54.12 23.5813 54.0068 23.6333 53.91C23.6852 53.8132 23.773 53.7406 23.878 53.7075C24.3058 53.5838 24.7336 53.4397 25.1499 53.2807C25.2019 53.259 25.2577 53.248 25.3141 53.2482C25.3705 53.2484 25.4263 53.2599 25.4781 53.282C25.5299 53.3041 25.5768 53.3364 25.6159 53.3769C25.655 53.4174 25.6855 53.4654 25.7057 53.5179C25.7259 53.5704 25.7353 53.6264 25.7334 53.6826C25.7315 53.7388 25.7183 53.7941 25.6946 53.8451C25.6709 53.8961 25.6372 53.9419 25.5954 53.9797C25.5536 54.0175 25.5047 54.0465 25.4515 54.065ZM21.8711 55C21.4064 55.0688 20.9339 55.1183 20.4663 55.148C20.3569 55.1518 20.2503 55.1129 20.1692 55.0397C20.088 54.9664 20.0386 54.8645 20.0314 54.7556C20.0242 54.6466 20.0599 54.5391 20.1308 54.4559C20.2017 54.3727 20.3022 54.3203 20.4112 54.3098C20.8556 54.2817 21.3049 54.2344 21.7465 54.169C21.802 54.1592 21.8589 54.1606 21.9138 54.1731C21.9687 54.1856 22.0206 54.209 22.0663 54.2419C22.112 54.2747 22.1506 54.3164 22.1799 54.3644C22.2091 54.4124 22.2285 54.4658 22.2367 54.5214C22.2449 54.577 22.2419 54.6337 22.2278 54.6881C22.2136 54.7425 22.1887 54.7935 22.1545 54.8381C22.1202 54.8828 22.0774 54.9201 22.0284 54.9479C21.9795 54.9757 21.9254 54.9934 21.8695 55H21.8711ZM18.1712 55.1364C17.7025 55.1018 17.2306 55.0468 16.7675 54.9714C16.7114 54.9644 16.6573 54.9462 16.6085 54.9179C16.5596 54.8896 16.5169 54.8518 16.483 54.8067C16.4491 54.7616 16.4246 54.7102 16.411 54.6555C16.3975 54.6007 16.3951 54.5439 16.404 54.4882C16.4129 54.4325 16.433 54.3792 16.4629 54.3315C16.4929 54.2837 16.5323 54.2424 16.5786 54.2101C16.6249 54.1778 16.6772 54.1552 16.7325 54.1435C16.7878 54.1318 16.8449 54.1313 16.9003 54.142C17.3414 54.2119 17.788 54.2641 18.2329 54.2966C18.3443 54.3048 18.4479 54.3567 18.5209 54.4411C18.5939 54.5255 18.6303 54.6353 18.6221 54.7465C18.6139 54.8576 18.5618 54.961 18.4773 55.0338C18.3927 55.1066 18.2826 55.143 18.1712 55.1348V55.1364ZM14.5324 54.4572C14.0841 54.3213 13.6359 54.164 13.2004 53.9902C13.1079 53.9423 13.0366 53.862 13.0001 53.7647C12.9636 53.6674 12.9645 53.56 13.0027 53.4634C13.0408 53.3667 13.1136 53.2876 13.2068 53.2412C13.3 53.1949 13.4071 53.1847 13.5075 53.2125C13.9215 53.3775 14.3477 53.5271 14.7755 53.6564C14.8823 53.689 14.9718 53.7626 15.0242 53.861C15.0766 53.9594 15.0877 54.0745 15.055 54.1811C15.0437 54.2187 15.027 54.2544 15.0054 54.2872C14.9557 54.3637 14.8824 54.422 14.7965 54.4531C14.7107 54.4843 14.617 54.4867 14.5296 54.4599L14.5324 54.4572ZM11.1329 52.9991C10.8324 52.8292 10.5336 52.6482 10.2447 52.4612C10.1399 52.393 10.0363 52.3241 9.93373 52.2544C9.88765 52.2237 9.84817 52.1841 9.81761 52.138C9.78705 52.0919 9.76602 52.0401 9.75575 51.9858C9.74548 51.9314 9.74618 51.8756 9.75781 51.8215C9.76944 51.7675 9.79176 51.7162 9.82347 51.6709C9.88647 51.579 9.98346 51.5158 10.0931 51.4952C10.2028 51.4745 10.3162 51.4982 10.4084 51.5609C10.506 51.6269 10.6047 51.6929 10.7039 51.7572C10.9796 51.9354 11.2624 52.107 11.548 52.2687C11.6451 52.3237 11.7165 52.4148 11.7463 52.5222C11.7762 52.6295 11.7622 52.7443 11.7074 52.8413C11.7029 52.8484 11.6985 52.8561 11.6936 52.8633C11.6355 52.9542 11.5445 53.0192 11.4396 53.045C11.3347 53.0708 11.2239 53.0554 11.1301 53.0019L11.1329 52.9991Z" fill="#2F3443"/>
<path d="M36.1607 38.0479C36.208 37.9755 36.2317 37.8902 36.2285 37.8037C36.2202 37.5766 36.207 37.3456 36.1888 37.1162C36.1774 37.0074 36.124 36.9073 36.0398 36.8372C35.9555 36.767 35.8472 36.7325 35.7379 36.7408C35.6285 36.7491 35.5267 36.7996 35.4541 36.8817C35.3815 36.9637 35.3438 37.0707 35.3491 37.18C35.3662 37.4 35.3789 37.62 35.3866 37.8334C35.3906 37.922 35.4226 38.0071 35.4779 38.0764C35.5333 38.1458 35.6093 38.1959 35.6949 38.2196C35.7806 38.2433 35.8715 38.2393 35.9548 38.2083C36.0381 38.1772 36.1094 38.1207 36.1585 38.0468L36.1607 38.0479Z" fill="#2F3443"/>
</g>
<path d="M30.8794 33.1392C30.8669 33.1003 30.8426 33.0662 30.8098 33.0418C30.777 33.0173 30.7373 33.0037 30.6964 33.0028L28.302 32.9478C27.719 31.9772 26.9812 31.1079 26.1176 30.3743L26.4594 28.0093C26.4653 27.9688 26.4584 27.9275 26.4396 27.8911C26.4209 27.8547 26.3911 27.8251 26.3547 27.8064L23.8004 26.499C23.764 26.4803 23.7226 26.4734 23.6821 26.4792C23.6416 26.485 23.6039 26.5033 23.5743 26.5315L21.8448 28.1815C20.7444 27.9078 19.6066 27.8149 18.4762 27.9065L17.0427 25.993C17.0179 25.9598 16.9833 25.9352 16.9437 25.9228C16.9041 25.9104 16.8616 25.9107 16.8222 25.9237L14.0865 26.7982C14.0475 26.8107 14.0133 26.835 13.9888 26.8677C13.9643 26.9004 13.9507 26.94 13.9497 26.9808L13.8946 29.3695C12.9217 29.9511 12.0503 30.6871 11.3149 31.5486L8.94422 31.2076C8.90362 31.2017 8.86218 31.2086 8.82571 31.2273C8.78923 31.246 8.75954 31.2757 8.74077 31.3121L7.43192 33.8591C7.41308 33.8954 7.40609 33.9366 7.41192 33.9771C7.41775 34.0175 7.43612 34.0551 7.46445 34.0846L9.11844 35.81C8.84405 36.9078 8.75094 38.0428 8.84277 39.1705L6.92469 40.6005C6.89182 40.6249 6.86745 40.659 6.85499 40.698C6.84253 40.7369 6.84261 40.7788 6.85523 40.8177L7.73184 43.5468C7.74434 43.5857 7.76868 43.6198 7.80149 43.6442C7.8343 43.6687 7.87394 43.6823 7.91488 43.6832L10.3093 43.7382C10.8921 44.7082 11.6295 45.5768 12.4926 46.31L12.1508 48.675C12.1448 48.7155 12.1517 48.7569 12.1705 48.7933C12.1893 48.8296 12.219 48.8593 12.2555 48.878L14.8098 50.1892C14.8462 50.208 14.8875 50.2149 14.9281 50.2091C14.9686 50.2033 15.0063 50.185 15.0359 50.1567L16.7654 48.5067C17.8658 48.7805 19.0036 48.8733 20.134 48.7817L21.5675 50.6952C21.5921 50.7285 21.6268 50.7532 21.6664 50.7657C21.706 50.7781 21.7486 50.7777 21.788 50.7645L24.5237 49.89C24.5627 49.8776 24.5969 49.8533 24.6214 49.8206C24.646 49.7878 24.6596 49.7482 24.6604 49.7074L24.7156 47.3187C25.6869 46.7368 26.5568 46.0007 27.2908 45.1396L29.6615 45.4806C29.7021 45.4865 29.7436 45.4796 29.78 45.4609C29.8165 45.4422 29.8462 45.4125 29.865 45.3761L31.1794 42.828C31.1981 42.7917 31.2051 42.7505 31.1992 42.71C31.1934 42.6696 31.1751 42.632 31.1468 42.6025L29.4928 40.8771C29.7672 39.7794 29.8603 38.6443 29.7685 37.5166L31.6866 36.0866C31.7199 36.0619 31.7445 36.0273 31.757 35.9878C31.7695 35.9483 31.7691 35.9059 31.756 35.8666L30.8794 33.1392Z" fill="#2F3443"/>
<path d="M21.4708 40.249C20.9764 40.8073 20.2842 41.1526 19.5398 41.2123C18.7954 41.2719 18.0568 41.0413 17.4793 40.569C16.9019 40.0966 16.5305 39.4192 16.4433 38.6793C16.3561 37.9394 16.56 37.1946 17.0119 36.6016C17.4638 36.0085 18.1287 35.6133 18.8667 35.4992C19.6047 35.3851 20.3582 35.5608 20.969 35.9895C21.5797 36.4183 22 37.0665 22.1415 37.798C22.283 38.5295 22.1347 39.2872 21.7277 39.9119C21.6505 40.0304 21.5646 40.1431 21.4708 40.249ZM17.0949 38.4824C17.1286 39.0041 17.3474 39.4967 17.712 39.8721C18.0767 40.2475 18.5635 40.4811 19.0851 40.531C19.6067 40.5809 20.1291 40.4439 20.5586 40.1445C20.9882 39.8452 21.2969 39.403 21.4294 38.8972C21.5618 38.3915 21.5094 37.8552 21.2816 37.3844C21.0537 36.9137 20.6653 36.5393 20.1859 36.3283C19.7065 36.1172 19.1674 36.0834 18.6653 36.2328C18.1631 36.3823 17.7307 36.7052 17.4456 37.1437C17.1871 37.5406 17.0641 38.0102 17.0949 38.4824Z" fill="white"/>
<path d="M25.1957 42.2285C25.3285 42.025 25.4507 41.8148 25.5618 41.5987C25.5971 41.5305 25.6313 41.4618 25.6644 41.3919C25.8274 41.0498 25.9627 40.6952 26.069 40.3315C26.069 40.3266 26.069 40.3216 26.0735 40.3167L26.0856 40.2749C26.0933 40.2474 26.1005 40.2199 26.1082 40.1924C26.1174 40.1582 26.1156 40.1219 26.1029 40.0888C26.0902 40.0557 26.0674 40.0275 26.0376 40.0081C26.0226 39.9987 26.0062 39.9915 25.9891 39.9867C25.9677 39.981 25.9455 39.9795 25.9235 39.9824C25.9016 39.9852 25.8804 39.9924 25.8613 40.0034C25.8421 40.0145 25.8254 40.0292 25.8119 40.0467C25.7985 40.0642 25.7886 40.0842 25.7829 40.1055C25.423 41.4384 24.6624 42.6293 23.6034 43.5178C22.5444 44.4064 21.238 44.9499 19.86 45.0753C18.5808 45.1939 17.2944 44.9447 16.1528 44.357C15.9453 44.251 15.7432 44.1347 15.5475 44.0083C14.0947 43.0633 13.0612 41.5977 12.6607 39.9143C12.2601 38.231 12.523 36.4584 13.395 34.9628C14.2671 33.4673 15.6817 32.363 17.3465 31.8782C19.0114 31.3934 20.7993 31.565 22.341 32.3576C22.5447 32.4624 22.7431 32.5773 22.9353 32.7019C23.7657 33.2397 24.4673 33.9533 24.9901 34.7919C25.0034 34.8127 25.0208 34.8305 25.0414 34.8442C25.0734 34.8653 25.1118 34.8748 25.15 34.8711C25.1882 34.8674 25.224 34.8508 25.2515 34.824C25.2789 34.7972 25.2963 34.7618 25.3008 34.7238C25.3054 34.6857 25.2967 34.6473 25.2762 34.6148C24.5976 33.5276 23.6361 32.6444 22.4942 32.059C19.0131 30.2715 14.7205 31.6437 12.9314 35.1159C12.1277 36.6743 11.9314 38.4746 12.3806 40.169C12.8297 41.8633 13.8924 43.3315 15.3633 44.2899C15.5679 44.4223 15.7789 44.5444 15.9957 44.6556C17.5584 45.4588 19.3641 45.6552 21.0636 45.2069C22.763 44.7585 24.2354 43.6973 25.1957 42.2285Z" fill="white"/>
<g opacity="0.3">
<path d="M47.2413 19.9441C47.2719 19.8971 47.2865 19.8414 47.2827 19.7855C47.2789 19.7296 47.257 19.6764 47.2204 19.6339C47.077 19.4689 46.926 19.3039 46.7721 19.1433C46.7487 19.1174 46.7204 19.0965 46.6887 19.0818C46.657 19.067 46.6227 19.0588 46.5877 19.0576C46.5528 19.0565 46.518 19.0623 46.4854 19.0748C46.4528 19.0873 46.423 19.1063 46.3979 19.1305C46.3728 19.1548 46.3528 19.1838 46.3392 19.2159C46.3256 19.248 46.3186 19.2825 46.3186 19.3174C46.3186 19.3523 46.3257 19.3868 46.3394 19.4188C46.3531 19.4509 46.3732 19.4799 46.3983 19.5041C46.545 19.6548 46.6889 19.8121 46.8256 19.9716C46.8479 19.9975 46.875 20.0188 46.9055 20.0342C46.936 20.0497 46.9693 20.059 47.0034 20.0616C47.0375 20.0642 47.0718 20.06 47.1043 20.0494C47.1368 20.0388 47.1669 20.0219 47.1928 19.9996C47.2116 19.9836 47.2279 19.9648 47.2413 19.9441Z" fill="#2F3443"/>
<path d="M45.789 18.5768C45.7457 18.6303 45.6829 18.6644 45.6143 18.6717C45.5458 18.679 45.4772 18.659 45.4235 18.6158C45.1405 18.3882 44.8461 18.1751 44.5414 17.9773C44.4774 17.9355 44.4129 17.8948 44.3473 17.8541C44.2888 17.8178 44.2471 17.7598 44.2314 17.6929C44.2157 17.626 44.2272 17.5556 44.2635 17.4971C44.3015 17.4405 44.3596 17.4004 44.4261 17.3849C44.4927 17.3693 44.5626 17.3796 44.6218 17.4135C44.6902 17.4557 44.7578 17.4986 44.8247 17.5422C45.145 17.7496 45.4543 17.9732 45.7515 18.2121C45.8016 18.2523 45.8349 18.3096 45.8451 18.3729C45.8553 18.4362 45.8416 18.501 45.8067 18.5548C45.8 18.5625 45.7945 18.5696 45.789 18.5768ZM43.1829 17.2293C42.7831 17.0446 42.3723 16.8847 41.9529 16.7502C41.8871 16.7292 41.8323 16.683 41.8007 16.6218C41.769 16.5605 41.7631 16.4892 41.7842 16.4235C41.8052 16.3579 41.8515 16.3033 41.913 16.2717C41.9744 16.2402 42.0458 16.2342 42.1116 16.2552C42.5515 16.3957 42.9822 16.5634 43.4012 16.7574C43.4323 16.7716 43.4602 16.7918 43.4834 16.8168C43.5066 16.8419 43.5246 16.8712 43.5364 16.9032C43.5482 16.9352 43.5535 16.9692 43.5521 17.0033C43.5507 17.0374 43.5425 17.0708 43.528 17.1017C43.5232 17.1131 43.5171 17.124 43.5098 17.1341C43.476 17.1866 43.4242 17.2252 43.3642 17.2427C43.3041 17.2601 43.2397 17.2554 43.1829 17.2293ZM40.6727 16.4268C40.2405 16.346 39.8038 16.2918 39.3649 16.2646C39.3303 16.2632 39.2963 16.2549 39.2649 16.2403C39.2336 16.2256 39.2055 16.2049 39.1822 16.1792C39.159 16.1536 39.1412 16.1236 39.1297 16.0909C39.1183 16.0583 39.1135 16.0237 39.1156 15.9893C39.1177 15.9548 39.1268 15.921 39.1421 15.8901C39.1575 15.8591 39.1789 15.8315 39.2051 15.8089C39.2313 15.7863 39.2618 15.7691 39.2947 15.7584C39.3276 15.7477 39.3624 15.7436 39.3969 15.7465C39.8581 15.7749 40.3172 15.8319 40.7714 15.917C40.805 15.9233 40.837 15.9361 40.8656 15.9547C40.8942 15.9734 40.9189 15.9974 40.9382 16.0256C40.9575 16.0537 40.9711 16.0854 40.9781 16.1187C40.9851 16.1521 40.9855 16.1865 40.9792 16.22C40.9727 16.2531 40.96 16.2847 40.9417 16.313C40.9134 16.3566 40.8726 16.3908 40.8247 16.4111C40.7767 16.4313 40.7238 16.4368 40.6727 16.4268ZM38.0417 16.2646C37.6022 16.2921 37.1647 16.3463 36.7318 16.4268C36.6652 16.4369 36.5972 16.4208 36.5423 16.3819C36.4873 16.343 36.4496 16.2844 36.4371 16.2183C36.4246 16.1523 36.4383 16.084 36.4753 16.0278C36.5122 15.9716 36.5696 15.9319 36.6353 15.917C37.0895 15.832 37.5485 15.7752 38.0098 15.747C38.0438 15.745 38.078 15.7496 38.1102 15.7606C38.1425 15.7717 38.1723 15.789 38.1979 15.8116C38.2234 15.8341 38.2443 15.8615 38.2593 15.8921C38.2743 15.9227 38.283 15.9559 38.2851 15.9899C38.2872 16.0239 38.2826 16.0579 38.2715 16.0901C38.2604 16.1223 38.2431 16.152 38.2205 16.1775C38.1979 16.203 38.1704 16.2239 38.1398 16.2388C38.1091 16.2537 38.0758 16.2625 38.0417 16.2646ZM35.4505 16.748C35.0306 16.8812 34.6192 17.0399 34.2188 17.2232C34.1564 17.25 34.086 17.2513 34.0226 17.2269C33.9592 17.2025 33.9079 17.1544 33.8796 17.0928C33.8513 17.0312 33.8483 16.961 33.8712 16.8972C33.8941 16.8334 33.9411 16.7811 34.0021 16.7513C34.4218 16.5594 34.8528 16.3932 35.2928 16.2536C35.3254 16.2433 35.3597 16.2394 35.3937 16.2423C35.4278 16.2452 35.461 16.2548 35.4913 16.2705C35.5217 16.2862 35.5486 16.3076 35.5707 16.3337C35.5927 16.3598 35.6094 16.3899 35.6197 16.4224C35.6301 16.4549 35.6339 16.4892 35.631 16.5231C35.6281 16.5571 35.6185 16.5902 35.6028 16.6205C35.5871 16.6508 35.5656 16.6777 35.5394 16.6997C35.5133 16.7216 35.4831 16.7383 35.4505 16.7486V16.748ZM33.0555 17.8447C32.6804 18.0751 32.3203 18.3288 31.9771 18.6043C31.9232 18.6463 31.8549 18.6655 31.7869 18.6576C31.7189 18.6497 31.6568 18.6155 31.614 18.5623C31.5711 18.509 31.551 18.4411 31.558 18.3733C31.565 18.3054 31.5985 18.2429 31.6513 18.1995C32.0111 17.9112 32.3884 17.6452 32.7809 17.4031C32.8312 17.3722 32.8905 17.3592 32.949 17.3664C33.0076 17.3736 33.062 17.4005 33.1032 17.4426C33.1445 17.4848 33.17 17.5397 33.1758 17.5983C33.1816 17.6569 33.1671 17.7157 33.1349 17.765C33.1146 17.7972 33.0872 17.8245 33.0549 17.8447H33.0555ZM31.0023 19.4914C30.696 19.8071 30.4095 20.1414 30.1445 20.4924C30.1023 20.5458 30.0409 20.5806 29.9733 20.5892C29.9058 20.5979 29.8375 20.5799 29.7832 20.5389C29.7289 20.4979 29.6928 20.4374 29.6827 20.3702C29.6726 20.303 29.6894 20.2345 29.7293 20.1795C30.0075 19.8117 30.308 19.4612 30.6291 19.1301C30.6777 19.0836 30.7426 19.0577 30.81 19.0579C30.8774 19.0581 30.9421 19.0844 30.9904 19.1312C31.0388 19.178 31.0671 19.2417 31.0693 19.3089C31.0715 19.3761 31.0475 19.4415 31.0023 19.4914ZM28.4872 22.9086C28.4237 22.8818 28.3734 22.8309 28.3475 22.7672C28.3215 22.7035 28.322 22.6321 28.3488 22.5687C28.5056 22.2002 28.6817 21.8402 28.8764 21.4901C28.9056 21.4351 28.936 21.3845 28.9663 21.3317C28.9831 21.302 29.0058 21.276 29.0328 21.2551C29.0599 21.2342 29.0909 21.2189 29.1239 21.2101C29.157 21.2013 29.1915 21.1992 29.2254 21.2038C29.2593 21.2084 29.2919 21.2198 29.3213 21.2371C29.3811 21.2717 29.4246 21.3284 29.4425 21.3949C29.4604 21.4614 29.4511 21.5322 29.4167 21.5919C29.3881 21.6408 29.3616 21.6903 29.3318 21.7415C29.1453 22.0751 28.9769 22.4184 28.8274 22.77C28.8212 22.7839 28.814 22.7973 28.8058 22.8101C28.7727 22.8613 28.7225 22.8992 28.6642 22.9172C28.6058 22.9352 28.543 22.9322 28.4866 22.9086H28.4872Z" fill="#2F3443"/>
</g>
<g opacity="0.3">
<path d="M48.0261 33.1678C47.7737 33.5444 47.4986 33.9055 47.2025 34.2491C47.1566 34.2979 47.0936 34.3271 47.0266 34.3306C46.9596 34.3342 46.8939 34.3118 46.843 34.2682C46.7922 34.2246 46.7602 34.1631 46.7537 34.0965C46.7472 34.0299 46.7668 33.9634 46.8083 33.9108C47.0908 33.5832 47.3532 33.2389 47.5939 32.8796C47.6127 32.8512 47.6369 32.8267 47.6652 32.8076C47.6934 32.7885 47.7252 32.7752 47.7586 32.7683C47.792 32.7615 47.8265 32.7613 47.86 32.7677C47.8935 32.7742 47.9254 32.7871 47.9539 32.8059C47.9824 32.8246 48.0069 32.8488 48.0261 32.877C48.0452 32.9052 48.0586 32.9368 48.0654 32.9702C48.0723 33.0035 48.0725 33.0379 48.066 33.0713C48.0596 33.1048 48.0466 33.1366 48.0278 33.165L48.0261 33.1678ZM48.3641 32.1085C48.3337 32.0931 48.3065 32.072 48.2843 32.0462C48.2621 32.0203 48.2452 31.9904 48.2346 31.9581C48.224 31.9257 48.2199 31.8916 48.2225 31.8577C48.2252 31.8237 48.2345 31.7907 48.25 31.7603C48.4457 31.3744 48.6182 30.9771 48.7666 30.5707C48.7905 30.5064 48.839 30.4542 48.9013 30.4254C48.9637 30.3967 49.035 30.3937 49.0996 30.4172C49.1641 30.4406 49.2168 30.4886 49.246 30.5507C49.2753 30.6127 49.2787 30.6838 49.2556 30.7483C49.0999 31.1741 48.9189 31.5903 48.7137 31.9946C48.7095 32.0031 48.7047 32.0112 48.6993 32.0188C48.6645 32.0726 48.611 32.1115 48.549 32.1281C48.4871 32.1447 48.4212 32.1377 48.3641 32.1085ZM46.2525 35.2237C45.9162 35.5283 45.5618 35.8124 45.1912 36.0745C45.1634 36.0947 45.1318 36.1092 45.0983 36.1171C45.0648 36.125 45.03 36.1263 44.9961 36.1207C44.9621 36.1151 44.9296 36.1029 44.9004 36.0847C44.8712 36.0665 44.8459 36.0427 44.826 36.0147C44.806 35.9867 44.7919 35.955 44.7843 35.9215C44.7768 35.888 44.776 35.8533 44.7819 35.8195C44.7879 35.7857 44.8006 35.7533 44.8191 35.7244C44.8377 35.6955 44.8619 35.6706 44.8902 35.651C45.2439 35.401 45.5821 35.1299 45.903 34.8392C45.9498 34.7971 46.0104 34.7733 46.0734 34.7724C46.1365 34.7715 46.1977 34.7934 46.2458 34.8342C46.2939 34.8749 46.3254 34.9317 46.3347 34.9939C46.3439 35.0562 46.3302 35.1196 46.2961 35.1725C46.2839 35.1914 46.2692 35.2086 46.2525 35.2237ZM49.3306 29.6395C49.2634 29.6239 49.2051 29.5824 49.1686 29.5241C49.132 29.4657 49.1201 29.3953 49.1354 29.3282C49.2326 28.9069 49.304 28.48 49.3493 28.05C49.359 27.9836 49.3941 27.9235 49.4473 27.8823C49.5004 27.8411 49.5675 27.8221 49.6344 27.8292C49.7014 27.8363 49.7629 27.869 49.8062 27.9205C49.8495 27.9719 49.8711 28.038 49.8665 28.105C49.8193 28.5562 49.7444 29.004 49.6421 29.4459C49.6351 29.4754 49.6232 29.5035 49.6068 29.529C49.5776 29.5734 49.5355 29.6078 49.4861 29.6275C49.4367 29.6473 49.3824 29.6515 49.3306 29.6395ZM44.0345 36.7895C43.6347 37.0046 43.2223 37.1954 42.7995 37.361C42.7353 37.3861 42.6636 37.3848 42.6003 37.3573C42.5371 37.3297 42.4873 37.2782 42.4621 37.2141C42.4369 37.15 42.4382 37.0785 42.4658 37.0154C42.4934 36.9523 42.5451 36.9027 42.6093 36.8775C43.0127 36.7198 43.4062 36.5378 43.7875 36.3325C43.8384 36.3052 43.8969 36.2957 43.9539 36.3053C44.0108 36.3149 44.063 36.3431 44.1021 36.3855C44.1412 36.4279 44.165 36.4821 44.1699 36.5395C44.1747 36.5969 44.1602 36.6543 44.1288 36.7026C44.1053 36.7393 44.0729 36.7694 44.0345 36.7901V36.7895ZM41.5045 37.7795C41.0644 37.893 40.618 37.9798 40.1675 38.0397C40.1006 38.0457 40.034 38.0257 39.9815 37.9839C39.9291 37.9421 39.8949 37.8817 39.886 37.8153C39.8772 37.7489 39.8945 37.6816 39.9342 37.6276C39.9739 37.5736 40.033 37.537 40.0991 37.5254C40.5288 37.4682 40.9546 37.3854 41.3743 37.2774C41.408 37.2671 41.4433 37.2636 41.4783 37.2673C41.5133 37.271 41.5472 37.2817 41.5779 37.2989C41.6086 37.316 41.6355 37.3391 41.657 37.3669C41.6785 37.3947 41.6941 37.4265 41.7029 37.4605C41.7117 37.4945 41.7135 37.5299 41.7082 37.5646C41.7029 37.5993 41.6906 37.6325 41.6721 37.6624C41.6535 37.6922 41.6291 37.7179 41.6003 37.7381C41.5715 37.7582 41.5389 37.7723 41.5045 37.7795ZM38.8085 38.137C38.3539 38.142 37.8995 38.1194 37.4478 38.0694C37.4139 38.0658 37.381 38.0555 37.351 38.0392C37.3211 38.023 37.2946 38.0009 37.2732 37.9745C37.2518 37.948 37.2358 37.9176 37.2262 37.8849C37.2165 37.8523 37.2134 37.818 37.217 37.7842C37.2207 37.7504 37.2309 37.7176 37.2473 37.6877C37.2636 37.6578 37.2856 37.6314 37.3122 37.6101C37.3387 37.5887 37.3692 37.5727 37.402 37.5631C37.4347 37.5535 37.469 37.5504 37.5029 37.554C37.9345 37.6025 38.3687 37.6246 38.8029 37.62C38.8719 37.6194 38.9383 37.6461 38.9876 37.6943C39.0369 37.7424 39.0651 37.8081 39.0659 37.8769C39.0663 37.911 39.0599 37.9448 39.0472 37.9764C39.0344 38.0081 39.0156 38.0369 38.9917 38.0613C38.9678 38.0856 38.9393 38.105 38.9078 38.1184C38.8764 38.1318 38.8426 38.1389 38.8085 38.1392V38.137Z" fill="#2F3443"/>
<path d="M49.8836 26.8802C49.912 26.8367 49.9266 26.7857 49.9255 26.7339C49.9217 26.5139 49.9106 26.2889 49.8935 26.0739C49.8882 26.0053 49.8558 25.9417 49.8034 25.897C49.751 25.8522 49.683 25.8301 49.6143 25.8354C49.5456 25.8408 49.4818 25.8731 49.437 25.9253C49.3921 25.9776 49.37 26.0455 49.3753 26.114C49.3913 26.3214 49.4018 26.5342 49.4056 26.746C49.4064 26.8016 49.4252 26.8555 49.4591 26.8996C49.493 26.9438 49.5402 26.9759 49.5938 26.9912C49.6475 27.0065 49.7046 27.0042 49.7568 26.9846C49.809 26.965 49.8534 26.9291 49.8836 26.8824V26.8802Z" fill="#2F3443"/>
</g>
<path d="M46.3623 23.4086C46.3536 23.3831 46.3371 23.3608 46.3152 23.345C46.2933 23.3291 46.267 23.3204 46.24 23.3201L44.6378 23.2849C44.248 22.6343 43.7543 22.0517 43.1762 21.5601L43.405 19.9788C43.4088 19.9517 43.4041 19.9241 43.3916 19.8998C43.3791 19.8755 43.3593 19.8556 43.335 19.843L41.6259 18.9657C41.6016 18.9531 41.5739 18.9485 41.5468 18.9524C41.5197 18.9564 41.4945 18.9687 41.4748 18.9877L40.317 20.0921C39.5806 19.9087 38.8192 19.8461 38.0626 19.9068L37.1044 18.6258C37.0879 18.604 37.0651 18.5879 37.039 18.5796C37.0129 18.5714 36.9849 18.5714 36.9589 18.5796L35.1279 19.1648C35.1019 19.1732 35.0791 19.1895 35.0627 19.2113C35.0463 19.2332 35.0371 19.2596 35.0364 19.2869L35.0016 20.8852C34.3503 21.2742 33.7671 21.7667 33.2749 22.3433L31.6898 22.115C31.6627 22.1112 31.635 22.1159 31.6106 22.1284C31.5862 22.1409 31.5663 22.1606 31.5536 22.1849L30.6743 23.8899C30.6616 23.9141 30.6569 23.9416 30.6608 23.9686C30.6646 23.9957 30.6769 24.0208 30.6958 24.0406L31.8034 25.1956C31.6186 25.9302 31.5553 26.69 31.6159 27.4451L30.3324 28.4021C30.3103 28.4183 30.294 28.4411 30.2857 28.4672C30.2773 28.4932 30.2775 28.5213 30.2861 28.5473L30.8744 30.3738C30.8828 30.3998 30.8991 30.4225 30.921 30.4389C30.943 30.4552 30.9694 30.4644 30.9968 30.4651L32.5989 30.4998C32.9889 31.1495 33.4826 31.7313 34.0605 32.2224L33.8317 33.8036C33.8277 33.8307 33.8322 33.8584 33.8448 33.8828C33.8574 33.9071 33.8773 33.927 33.9017 33.9395L35.6109 34.8167C35.6351 34.8293 35.6628 34.834 35.6898 34.8301C35.7169 34.8263 35.7421 34.8141 35.7619 34.7953L36.9197 33.6903C37.6561 33.874 38.4175 33.9366 39.1741 33.8757L40.134 35.1561C40.1503 35.1781 40.1731 35.1944 40.1992 35.2027C40.2254 35.211 40.2535 35.2108 40.2795 35.2023L42.1099 34.6171C42.1361 34.6088 42.1589 34.5926 42.1754 34.5707C42.1918 34.5488 42.2009 34.5223 42.2015 34.495L42.2367 32.8967C42.8881 32.5076 43.4713 32.0151 43.9635 31.4386L45.5486 31.6669C45.5758 31.6709 45.6035 31.6663 45.6279 31.6538C45.6524 31.6413 45.6722 31.6214 45.6848 31.597L46.5641 29.892C46.5768 29.8677 46.5814 29.8401 46.5775 29.8131C46.5735 29.7861 46.5611 29.7609 46.5421 29.7413L45.435 28.5863C45.6189 27.8517 45.6817 27.0921 45.6208 26.3374L46.9043 25.3798C46.9261 25.3633 46.9423 25.3405 46.9506 25.3145C46.9589 25.2885 46.9589 25.2606 46.9506 25.2346L46.3623 23.4086Z" fill="#2F3443"/>
<path d="M40.0933 28.1886C39.7577 28.5669 39.2882 28.8006 38.7835 28.8407C38.2788 28.8809 37.7782 28.7243 37.3868 28.4038C36.9954 28.0834 36.7437 27.6241 36.6847 27.1225C36.6257 26.6208 36.7639 26.1159 37.0703 25.7138C37.3767 25.3116 37.8274 25.0437 38.3277 24.9661C38.828 24.8886 39.339 25.0076 39.7532 25.298C40.1674 25.5884 40.4527 26.0278 40.549 26.5236C40.6453 27.0195 40.5452 27.5333 40.2697 27.9571C40.2162 28.0382 40.1573 28.1155 40.0933 28.1886ZM37.6603 27.9736C37.948 28.226 38.3244 28.3542 38.7068 28.3302C39.0892 28.3061 39.4464 28.1318 39.7002 27.8454C39.9539 27.5583 40.083 27.1823 40.0589 26.8003C40.0348 26.4182 39.8596 26.0614 39.5717 25.8082C39.2839 25.5551 38.907 25.4264 38.5241 25.4504C38.1411 25.4744 37.7834 25.6492 37.5296 25.9364C37.4825 25.9893 37.4395 26.0457 37.4011 26.1052C37.2128 26.396 37.1354 26.7445 37.1829 27.0874C37.2305 27.4303 37.3999 27.7448 37.6603 27.9736Z" fill="white"/>
<path d="M42.6834 29.5664C42.9562 29.1479 43.1635 28.6903 43.2981 28.2095C43.3025 28.1952 43.3064 28.1809 43.3102 28.1666C43.3244 28.1136 43.3213 28.0575 43.3015 28.0063C43.2817 27.9551 43.2461 27.9115 43.1999 27.8817C43.1771 27.8667 43.152 27.8556 43.1255 27.8487C43.0589 27.8309 42.9879 27.8402 42.9282 27.8745C42.8684 27.9088 42.8248 27.9654 42.8068 28.0319C42.7258 28.3319 42.6128 28.6225 42.47 28.8987L42.4463 28.9438C42.1092 29.5848 41.6164 30.1314 41.0128 30.5333C40.6841 30.7512 40.3275 30.9242 39.9526 31.0475H39.9432L39.9151 31.0569C39.3678 31.2336 38.7908 31.3003 38.2175 31.2531C37.6442 31.2059 37.086 31.0457 36.5752 30.7819C36.4413 30.7136 36.3112 30.6384 36.1854 30.5564C35.2441 29.945 34.5744 28.9962 34.3146 27.9062C34.0548 26.8161 34.2248 25.6681 34.7895 24.6996C35.3542 23.731 36.2704 23.016 37.3486 22.7023C38.4269 22.3887 39.5847 22.5003 40.5828 23.0142C40.7152 23.0808 40.844 23.1542 40.9687 23.2342C41.5065 23.5828 41.9609 24.0451 42.2996 24.5883C42.3194 24.6209 42.3464 24.6485 42.3785 24.6692C42.4281 24.7011 42.4871 24.7153 42.5458 24.7094C42.6045 24.7035 42.6595 24.6778 42.7017 24.6366C42.7439 24.5954 42.7708 24.5412 42.778 24.4827C42.7851 24.4243 42.7722 24.3651 42.7412 24.315C42.3541 23.6934 41.8319 23.1664 41.2133 22.7731C40.5947 22.3797 39.8954 22.13 39.1671 22.0423C38.4388 21.9546 37.7001 22.0312 37.0054 22.2664C36.3108 22.5016 35.6779 22.8894 35.1536 23.4013C34.6293 23.9131 34.2269 24.5359 33.9761 25.2236C33.7253 25.9113 33.6325 26.6465 33.7046 27.3747C33.7767 28.103 34.0119 28.8058 34.3927 29.4313C34.7735 30.0568 35.2902 30.589 35.9047 30.9887C36.0448 31.0792 36.1902 31.1634 36.3409 31.2411C37.4188 31.7921 38.663 31.9259 39.8339 31.6167C41.0049 31.3075 42.0198 30.5772 42.6834 29.5664Z" fill="white"/>
<path d="M99.9103 47.1779L92.3477 54.895L101.419 52.4777L99.9103 47.1779Z" fill="#2F3443"/>
<path d="M144.91 50.3723L101.941 52.4524C101.679 52.4652 101.418 52.4248 101.173 52.3339C100.928 52.2429 100.703 52.1032 100.514 51.9232C100.324 51.7432 100.173 51.5267 100.07 51.2868C99.9666 51.0469 99.9133 50.7885 99.9131 50.5274V32.89C99.9131 31.968 100.273 31.0822 100.916 30.4202C101.56 29.7582 102.436 29.3721 103.36 29.3437L142.088 28.1479C143.473 28.1479 144.801 28.6968 145.781 29.6738C146.76 30.6508 147.31 31.9759 147.31 33.3575V47.861C147.31 48.5071 147.061 49.1284 146.614 49.5959C146.167 50.0635 145.557 50.3415 144.91 50.3723Z" fill="#2F3443"/>
<path opacity="0.85" d="M103.223 51.7446C102.519 51.7435 101.844 51.4638 101.347 50.9667C100.849 50.4696 100.57 49.7959 100.57 49.0936V33.1986C100.57 31.3253 102.076 29.8128 103.998 29.7545L141.496 28.6248C144.338 28.6248 146.648 30.8748 146.648 33.6402V47.344C146.648 48.664 145.589 49.7459 144.237 49.8097L103.353 51.7413C103.31 51.7435 103.264 51.7446 103.223 51.7446ZM141.499 28.8096L104.003 29.9393C102.184 29.9943 100.757 31.4243 100.757 33.1975V49.0925C100.757 49.4259 100.824 49.756 100.956 50.0626C101.087 50.3692 101.28 50.6459 101.522 50.8761C101.764 51.1063 102.05 51.285 102.363 51.4016C102.676 51.5182 103.01 51.5701 103.344 51.5543L144.228 49.6238C145.48 49.5649 146.461 48.5634 146.461 47.344V33.6402C146.461 30.9771 144.235 28.8107 141.499 28.8107V28.8096Z" fill="white"/>
<path d="M141.373 32.0265L107.013 33.3091C106.676 33.3218 106.41 33.5451 106.421 33.8041L106.434 34.1055C106.445 34.364 106.723 34.5626 107.057 34.5505L141.419 33.2987C141.757 33.2866 142.023 33.0633 142.012 32.8037L141.998 32.4737C141.986 32.2124 141.707 32.0139 141.373 32.0265Z" fill="url(#paint5_linear_536_1118)"/>
<path d="M138.298 40.7044L103.937 41.9804C103.6 41.9931 103.334 42.2241 103.346 42.4947L103.359 42.8065C103.371 43.0744 103.649 43.2806 103.983 43.2685L138.346 42.0244C138.684 42.0123 138.952 41.7819 138.938 41.5107L138.923 41.1664C138.911 40.898 138.632 40.6918 138.298 40.7044Z" fill="url(#paint6_linear_536_1118)"/>
<path d="M142.312 44.3344L104.008 45.7771C103.631 45.7914 103.334 46.0257 103.346 46.299L103.36 46.6142C103.371 46.8848 103.681 47.0916 104.053 47.0778L142.36 45.6676C142.736 45.6539 143.034 45.4196 143.021 45.1462L143.007 44.7986C142.995 44.5275 142.684 44.3207 142.312 44.3344Z" fill="url(#paint7_linear_536_1118)"/>
<path d="M122.534 37.1426L103.806 37.6871C103.622 37.6926 103.485 37.9445 103.499 38.2481L103.517 38.5985C103.532 38.8993 103.691 39.1375 103.873 39.1325L122.602 38.6243C122.787 38.6194 122.924 38.3675 122.91 38.0633L122.89 37.6783C122.875 37.3758 122.716 37.1371 122.534 37.1426Z" fill="url(#paint8_linear_536_1118)"/>
<path d="M143.17 36.4969L125.468 37.0029C125.295 37.0079 125.165 37.2597 125.18 37.5633L125.198 37.9137C125.213 38.2146 125.363 38.4533 125.536 38.4483L143.239 37.9786C143.413 37.9742 143.542 37.7223 143.528 37.4182L143.508 37.0332C143.493 36.7307 143.342 36.492 143.17 36.4969Z" fill="url(#paint9_linear_536_1118)"/>
<path d="M34.6627 147.645C34.6627 147.645 34.3082 149.645 34.1345 151.625C34.1189 151.809 34.1408 151.994 34.1988 152.169C34.2569 152.344 34.3498 152.505 34.4721 152.643C34.5943 152.781 34.7434 152.893 34.9102 152.972C35.077 153.052 35.2582 153.096 35.4428 153.104C38.0864 153.214 43.7403 153.427 45.7692 153.337C45.84 153.333 45.909 153.313 45.9704 153.278C46.0317 153.242 46.0837 153.193 46.1221 153.133C46.1604 153.074 46.184 153.006 46.1908 152.936C46.1976 152.865 46.1874 152.794 46.1612 152.728C46.0665 152.491 45.8839 152.3 45.6512 152.193L36.3117 147.911L34.6627 147.645Z" fill="url(#paint10_linear_536_1118)"/>
<path d="M34.3721 146.469L34.6571 148.862C34.6571 148.862 36.2929 149.622 37.4104 148.766L36.7329 146.1L34.3721 146.469Z" fill="url(#paint11_linear_536_1118)"/>
<path d="M34.586 101.486C34.463 102.111 33.9244 132.667 37.2004 146.36C37.227 146.468 37.2138 146.582 37.1632 146.681C37.1126 146.781 37.028 146.858 36.9247 146.901C36.0728 147.229 35.1714 147.412 34.2585 147.441C34.0813 147.446 33.9074 147.393 33.764 147.289C33.6206 147.185 33.5157 147.037 33.4657 146.867C32.5284 143.69 28.045 127.772 27.46 112.566C26.8067 95.5746 27.46 111.988 27.46 111.988L27.846 101.483L34.586 101.486Z" fill="url(#paint12_linear_536_1118)"/>
<path d="M23.9189 148.688C23.9189 148.688 23.3549 149.698 22.8091 152.382C22.7854 152.496 22.786 152.614 22.8108 152.728C22.8357 152.841 22.8842 152.949 22.9533 153.043C23.0223 153.137 23.1104 153.215 23.2118 153.273C23.3132 153.331 23.4256 153.367 23.5418 153.379C24.4145 153.464 25.7581 153.574 26.8343 153.567C26.9514 153.566 27.0672 153.541 27.1739 153.493C27.2807 153.445 27.376 153.375 27.4538 153.288C27.5315 153.2 27.5899 153.097 27.6251 152.986C27.6603 152.875 27.6715 152.757 27.658 152.641C27.5389 151.661 27.1673 150.056 26.02 148.802L23.9189 148.688Z" fill="url(#paint13_linear_536_1118)"/>
<path d="M23.4231 145.611L24.0886 149.229C24.0886 149.229 24.7457 149.717 26.0463 149.364L25.7288 145.47L23.4231 145.611Z" fill="url(#paint14_linear_536_1118)"/>
<path d="M21.627 102.424C18.9492 118.545 22.2081 142.27 23.3069 146.913C23.3392 147.052 23.412 147.179 23.5164 147.277C23.6207 147.375 23.7517 147.44 23.893 147.463C24.3837 147.545 25.1914 147.611 25.988 147.38C26.1218 147.341 26.24 147.261 26.3258 147.152C26.4117 147.042 26.4609 146.908 26.4666 146.769C26.6138 143.015 26.3486 119.968 28.8434 110.86C28.97 110.399 29.2526 109.996 29.6433 109.719L34.4862 106.285L34.8578 100.733L21.627 102.424Z" fill="url(#paint15_linear_536_1118)"/>
<path d="M38.69 71.8763C30.6654 71.7437 21.8105 73.9778 21.8105 73.9778C19.4188 87.9016 21.3926 103.962 21.3926 103.962C27.605 105.587 34.6135 102.968 34.6135 102.968C35.6456 97.1482 40.4636 80.7698 40.4636 80.7698C44.3847 80.2841 47.6144 79.1555 50.2773 77.6634C48.2484 75.3176 47.2918 72.3322 46.8761 70.5684C44.0362 71.4451 41.1649 71.917 38.69 71.8763Z" fill="url(#paint16_linear_536_1118)"/>
<path d="M62.394 60.0842C61.6056 59.1344 60.6083 59.5837 60.6083 59.5837C59.4273 64.5601 53.2353 68.5949 46.8735 70.5673C47.2892 72.3322 48.2458 75.3176 50.2747 77.6622C60.8321 71.742 62.394 60.0842 62.394 60.0842Z" fill="url(#paint17_linear_536_1118)"/>
<path d="M62.2026 60.3257C62.2853 60.5875 61.3299 60.9857 60.7692 59.9159C60.7493 59.4033 60.4384 57.2066 60.7444 56.7886C62.3802 54.5639 65.5514 51.7748 65.5514 51.7748C66.0873 52.3028 65.6457 52.8198 65.6457 52.8198L64.1075 54.4187C64.4289 54.9989 64.8242 55.4884 65.0056 56.1902C65.1404 56.7258 65.0634 57.2926 64.7906 57.7731C64.5204 58.2588 64.1521 58.8896 63.8037 59.3835C63.1427 60.3191 62.2026 60.3257 62.2026 60.3257Z" fill="url(#paint18_linear_536_1118)"/>
<path d="M63.4327 55.4571L62.0307 56.6429L61.5896 57.8232L62.8395 59.207C62.8395 59.207 63.2596 56.8645 63.5722 56.3574C63.8848 55.8503 63.7238 55.605 63.4327 55.4571Z" fill="url(#paint19_linear_536_1118)"/>
<path d="M24.8887 81.73L21.8106 73.9778C21.8106 73.9778 14.3125 79.0587 13.0825 85.5003C14.4989 85.6048 17.0758 85.9722 19.5987 87.2427C20.1528 84.2012 24.8887 81.73 24.8887 81.73Z" fill="url(#paint20_linear_536_1118)"/>
<path d="M31.439 89.0236C31.439 89.0236 23.0235 93.7685 20.1836 89.7172C19.5942 88.8757 19.4531 88.0397 19.5987 87.2422C17.0758 85.9717 14.4989 85.6043 13.0825 85.4998C12.7109 87.4418 12.9072 89.5076 14.0512 91.5949C19.0253 100.67 32.5527 91.0933 32.5527 91.0933L31.439 89.0236Z" fill="url(#paint21_linear_536_1118)"/>
<path d="M30.4277 95.0263L35.0209 79.0251C35.0461 78.9364 35.0971 78.8571 35.1674 78.7973C35.2378 78.7375 35.3244 78.6998 35.4162 78.6891C36.2487 78.5923 38.6596 78.3206 41.4439 78.0841C44.7976 77.8008 48.6922 77.5715 51.0194 77.7667C51.096 77.7724 51.17 77.7968 51.2349 77.8377C51.2999 77.8786 51.3537 77.9348 51.3918 78.0013C51.43 78.0678 51.4511 78.1426 51.4535 78.2192C51.4558 78.2958 51.4393 78.3718 51.4053 78.4405C50.0821 81.1113 44.6388 91.976 41.9125 95.535C41.8682 95.5933 41.8109 95.6404 41.7452 95.6726C41.6794 95.7048 41.607 95.7211 41.5337 95.7204L30.8743 95.6236C30.802 95.6228 30.7309 95.6054 30.6665 95.5727C30.6021 95.54 30.5461 95.493 30.5029 95.4352C30.4597 95.3774 30.4304 95.3104 30.4174 95.2395C30.4043 95.1686 30.4079 95.0956 30.4277 95.0263Z" fill="#2F3443"/>
<path d="M41.9203 76.6981L45.2503 76.1448C45.2909 76.1381 45.3326 76.142 45.3712 76.156C45.4099 76.1701 45.4443 76.1939 45.4711 76.225C45.4979 76.2562 45.5161 76.2938 45.5241 76.3341C45.5321 76.3743 45.5295 76.416 45.5166 76.455L45.1858 77.451C45.1719 77.4936 45.1461 77.5314 45.1116 77.56C45.0771 77.5886 45.0351 77.6069 44.9906 77.6128L41.7863 78.0401C41.7479 78.0452 41.7088 78.0409 41.6725 78.0277C41.6361 78.0144 41.6035 77.9925 41.5775 77.9639C41.5514 77.9353 41.5328 77.9008 41.523 77.8634C41.5133 77.826 41.5128 77.7868 41.5217 77.7492L41.7257 76.8791C41.7366 76.8331 41.761 76.7915 41.7956 76.7593C41.8302 76.7271 41.8736 76.7058 41.9203 76.6981Z" fill="white"/>
<path d="M39.4272 79.5108L39.7029 78.0852C39.7163 78.0156 39.7519 77.9522 39.8044 77.9043C39.8568 77.8565 39.9233 77.8268 39.994 77.8195L46.7202 77.1386C46.7727 77.1333 46.8257 77.1407 46.8748 77.16C46.9239 77.1793 46.9676 77.21 47.0024 77.2497C47.0371 77.2893 47.0619 77.3366 47.0746 77.3877C47.0872 77.4388 47.0875 77.4922 47.0752 77.5434L46.6474 79.3194C46.6307 79.3887 46.592 79.4507 46.537 79.4962C46.4821 79.5417 46.4138 79.5682 46.3425 79.5718L39.7701 79.9018C39.72 79.9045 39.6699 79.8959 39.6237 79.8764C39.5775 79.857 39.5363 79.8273 39.5032 79.7896C39.4702 79.7519 39.4462 79.7072 39.433 79.6589C39.4198 79.6106 39.4178 79.56 39.4272 79.5108Z" fill="white"/>
<path d="M31.5359 91.1603C31.5359 91.1603 30.8958 88.5357 31.1538 87.6046C31.4118 86.6734 31.9125 85.4766 33.5797 85.7423C35.2469 86.0079 37.2146 86.7092 37.2146 86.7092C37.2146 86.7092 37.1153 87.9192 35.8484 87.5303L36.634 88.1353C36.634 88.1353 36.5238 89.1061 35.452 88.5874L36.1825 89.3915C36.1825 89.3915 35.7227 90.189 34.9354 89.6775C34.1481 89.166 33.7699 91.4766 31.5359 91.1603Z" fill="url(#paint22_linear_536_1118)"/>
<path d="M30.5618 65.3769L28.0075 72.743C27.9869 72.8021 27.9878 72.8665 28.0099 72.9251C28.0321 72.9836 28.0742 73.0324 28.1288 73.0631C28.8252 73.4481 31.3326 74.5564 34.3544 72.6451C34.5105 72.5478 34.6431 72.4173 34.7428 72.263C34.8426 72.1087 34.9071 71.9344 34.9317 71.7525L35.7587 65.3769H30.5618Z" fill="url(#paint23_linear_536_1118)"/>
<path d="M36.1176 58.5552C36.1176 58.5552 38.9211 63.8204 38.5616 65.9478C38.2022 68.0752 34.7277 67.9217 31.6932 66.1942L29.5728 60.5088L36.1176 58.5552Z" fill="url(#paint24_linear_536_1118)"/>
<path d="M31.8271 63.4024C31.8556 63.3893 31.8811 63.3704 31.9017 63.3467C31.9223 63.323 31.9377 63.2952 31.9466 63.2652C31.9556 63.2351 31.9581 63.2035 31.9538 63.1724C31.9495 63.1414 31.9386 63.1116 31.9219 63.085C31.6975 62.7429 31.2763 62.0444 31.1417 61.435C31.1417 61.435 30.6378 61.1133 32.4247 60.6865C34.2116 60.2597 36.8767 59.5975 37.4368 58.08C37.9827 56.6005 36.5481 52.8803 34.259 55.8448C34.2383 55.8707 34.2121 55.8916 34.1822 55.906C34.1523 55.9204 34.1196 55.9279 34.0864 55.9279C34.0532 55.9279 34.0205 55.9204 33.9906 55.906C33.9607 55.8916 33.9345 55.8707 33.9138 55.8448C33.5389 55.3575 32.5521 54.3461 31.1825 54.9593C29.9007 55.533 29.7563 56.4702 29.7739 56.9426C29.7751 56.975 29.769 57.0073 29.756 57.037C29.7431 57.0667 29.7235 57.0932 29.6989 57.1143C29.6742 57.1354 29.6451 57.1508 29.6137 57.1591C29.5823 57.1675 29.5495 57.1687 29.5175 57.1626C28.8697 57.0394 27.3122 56.9338 26.5883 58.525C25.9901 59.8362 26.3788 60.5781 26.7328 60.9411C26.7591 60.9677 26.778 61.0006 26.7878 61.0367C26.7976 61.0728 26.7978 61.1107 26.7885 61.1469C26.7791 61.1831 26.7606 61.2162 26.7346 61.2431C26.7086 61.27 26.676 61.2897 26.6401 61.3003C26.214 61.4306 25.6643 61.7909 25.7194 62.7853C25.7955 64.1603 27.3376 64.0404 27.777 63.9777C27.8122 63.9726 27.8482 63.9761 27.8818 63.9878C27.9154 63.9996 27.9456 64.0194 27.9699 64.0453C28.3465 64.4611 30.0429 66.2261 31.8794 66.4389C31.916 66.4424 31.9529 66.4367 31.9868 66.4223C32.0206 66.408 32.0503 66.3854 32.0732 66.3566C32.096 66.3279 32.1113 66.2939 32.1176 66.2577C32.1239 66.2216 32.1211 66.1844 32.1093 66.1496L31.3154 63.8468C31.298 63.7951 31.3004 63.7388 31.3222 63.6888C31.344 63.6388 31.3836 63.5987 31.4334 63.5762L31.8271 63.4024Z" fill="url(#paint25_linear_536_1118)"/>
<path d="M32.1462 63.729C32.1462 63.729 30.1499 62.3629 30.0043 63.5135C29.8588 64.6641 31.8022 65.1805 32.7648 64.7515L32.1462 63.729Z" fill="url(#paint26_linear_536_1118)"/>
</g>
<defs>
<linearGradient id="paint0_linear_536_1118" x1="171.764" y1="198.964" x2="36.2778" y2="30.2912" gradientUnits="userSpaceOnUse">
<stop stop-color="#FAE2BC"/>
<stop offset="1" stop-color="white"/>
</linearGradient>
<linearGradient id="paint1_linear_536_1118" x1="269.761" y1="-104.405" x2="-13.631" y2="137.731" gradientUnits="userSpaceOnUse">
<stop stop-color="#FCC647"/>
<stop offset="1" stop-color="#FCE09F"/>
</linearGradient>
<linearGradient id="paint2_linear_536_1118" x1="311.178" y1="-55.9305" x2="27.786" y2="186.206" gradientUnits="userSpaceOnUse">
<stop stop-color="#FCC647"/>
<stop offset="1" stop-color="#FCE09F"/>
</linearGradient>
<linearGradient id="paint3_linear_536_1118" x1="4.66294" y1="125.436" x2="250.55" y2="-135.577" gradientUnits="userSpaceOnUse">
<stop stop-color="#FFD572"/>
<stop offset="1" stop-color="#FFB300"/>
</linearGradient>
<linearGradient id="paint4_linear_536_1118" x1="104.908" y1="107.329" x2="49.1649" y2="169.074" gradientUnits="userSpaceOnUse">
<stop stop-color="#FCE09F"/>
<stop offset="1" stop-color="#FFB300"/>
</linearGradient>
<linearGradient id="paint5_linear_536_1118" x1="106.42" y1="33.2893" x2="142.012" y2="33.2893" gradientUnits="userSpaceOnUse">
<stop stop-color="#DAE3FE"/>
<stop offset="1" stop-color="#E9EFFD"/>
</linearGradient>
<linearGradient id="paint6_linear_536_1118" x1="103.346" y1="41.9865" x2="138.938" y2="41.9865" gradientUnits="userSpaceOnUse">
<stop stop-color="#DAE3FE"/>
<stop offset="1" stop-color="#E9EFFD"/>
</linearGradient>
<linearGradient id="paint7_linear_536_1118" x1="103.346" y1="45.7061" x2="143.022" y2="45.7061" gradientUnits="userSpaceOnUse">
<stop stop-color="#DAE3FE"/>
<stop offset="1" stop-color="#E9EFFD"/>
</linearGradient>
<linearGradient id="paint8_linear_536_1118" x1="103.498" y1="38.1376" x2="122.911" y2="38.1376" gradientUnits="userSpaceOnUse">
<stop stop-color="#DAE3FE"/>
<stop offset="1" stop-color="#E9EFFD"/>
</linearGradient>
<linearGradient id="paint9_linear_536_1118" x1="125.179" y1="37.4726" x2="143.529" y2="37.4726" gradientUnits="userSpaceOnUse">
<stop stop-color="#DAE3FE"/>
<stop offset="1" stop-color="#E9EFFD"/>
</linearGradient>
<linearGradient id="paint10_linear_536_1118" x1="45.4737" y1="144.88" x2="11.3615" y2="182.074" gradientUnits="userSpaceOnUse">
<stop stop-color="#2F3443"/>
<stop offset="1" stop-color="#1A0F91"/>
</linearGradient>
<linearGradient id="paint11_linear_536_1118" x1="34.3726" y1="147.637" x2="37.4104" y2="147.637" gradientUnits="userSpaceOnUse">
<stop stop-color="#FEBBBA"/>
<stop offset="1" stop-color="#FF928E"/>
</linearGradient>
<linearGradient id="paint12_linear_536_1118" x1="48.1669" y1="102.91" x2="19.1553" y2="142.327" gradientUnits="userSpaceOnUse">
<stop stop-color="#2F3443"/>
<stop offset="1" stop-color="#1A0F91"/>
</linearGradient>
<linearGradient id="paint13_linear_536_1118" x1="37.8014" y1="137.843" x2="3.68851" y2="175.038" gradientUnits="userSpaceOnUse">
<stop stop-color="#2F3443"/>
<stop offset="1" stop-color="#1A0F91"/>
</linearGradient>
<linearGradient id="paint14_linear_536_1118" x1="23.4236" y1="147.481" x2="26.0463" y2="147.481" gradientUnits="userSpaceOnUse">
<stop stop-color="#FEBBBA"/>
<stop offset="1" stop-color="#FF928E"/>
</linearGradient>
<linearGradient id="paint15_linear_536_1118" x1="42.98" y1="99.0924" x2="13.9685" y2="138.509" gradientUnits="userSpaceOnUse">
<stop stop-color="#2F3443"/>
<stop offset="1" stop-color="#1A0F91"/>
</linearGradient>
<linearGradient id="paint16_linear_536_1118" x1="32.6893" y1="81.5838" x2="78.9185" y2="1.74342" gradientUnits="userSpaceOnUse">
<stop stop-color="#FCC647"/>
<stop offset="1" stop-color="#E8E8FF"/>
</linearGradient>
<linearGradient id="paint17_linear_536_1118" x1="60.0007" y1="50.5313" x2="54.6637" y2="65.8172" gradientUnits="userSpaceOnUse">
<stop stop-color="#FEBBBA"/>
<stop offset="1" stop-color="#FF928E"/>
</linearGradient>
<linearGradient id="paint18_linear_536_1118" x1="64.5816" y1="52.1307" x2="59.2446" y2="67.4166" gradientUnits="userSpaceOnUse">
<stop stop-color="#FEBBBA"/>
<stop offset="1" stop-color="#FF928E"/>
</linearGradient>
<linearGradient id="paint19_linear_536_1118" x1="60.4643" y1="61.8915" x2="64.4861" y2="53.7592" gradientUnits="userSpaceOnUse">
<stop stop-color="#FEBBBA"/>
<stop offset="1" stop-color="#FF928E"/>
</linearGradient>
<linearGradient id="paint20_linear_536_1118" x1="23.039" y1="75.9957" x2="69.2682" y2="-3.8446" gradientUnits="userSpaceOnUse">
<stop stop-color="#FCC647"/>
<stop offset="1" stop-color="#FBF7EE"/>
</linearGradient>
<linearGradient id="paint21_linear_536_1118" x1="12.9116" y1="90.502" x2="32.5527" y2="90.502" gradientUnits="userSpaceOnUse">
<stop stop-color="#FEBBBA"/>
<stop offset="1" stop-color="#FF928E"/>
</linearGradient>
<linearGradient id="paint22_linear_536_1118" x1="31.0943" y1="88.4477" x2="37.2135" y2="88.4477" gradientUnits="userSpaceOnUse">
<stop stop-color="#FEBBBA"/>
<stop offset="1" stop-color="#FF928E"/>
</linearGradient>
<linearGradient id="paint23_linear_536_1118" x1="27.9932" y1="69.5547" x2="35.7587" y2="69.5547" gradientUnits="userSpaceOnUse">
<stop stop-color="#FEBBBA"/>
<stop offset="1" stop-color="#FF928E"/>
</linearGradient>
<linearGradient id="paint24_linear_536_1118" x1="38.2434" y1="65.3423" x2="29.6654" y2="60.1027" gradientUnits="userSpaceOnUse">
<stop stop-color="#FEBBBA"/>
<stop offset="1" stop-color="#FF928E"/>
</linearGradient>
<linearGradient id="paint25_linear_536_1118" x1="25.1067" y1="54.6154" x2="36.1828" y2="63.3776" gradientUnits="userSpaceOnUse">
<stop stop-color="#2F3443"/>
<stop offset="1" stop-color="#3B549D"/>
</linearGradient>
<linearGradient id="paint26_linear_536_1118" x1="35.9883" y1="67.2918" x2="28.271" y2="62.5772" gradientUnits="userSpaceOnUse">
<stop stop-color="#FEBBBA"/>
<stop offset="1" stop-color="#FF928E"/>
</linearGradient>
<clipPath id="clip0_536_1118">
<rect width="152" height="154" fill="white"/>
</clipPath>
</defs>
</svg>
