<svg width="32" height="32" viewBox="0 0 32 32" fill="none" xmlns="http://www.w3.org/2000/svg">
<path d="M26.8933 3.64233H21.5665V13.4255H26.8933V3.64233Z" fill="#680B09"/>
<path d="M27.426 2.61255H21.0338V3.64236H27.426V2.61255Z" fill="#C43D27"/>
<path d="M26.9933 14.9702V14.8702H26.8933H5.05347H4.95347V14.9702V29.3875V29.4875H5.05347H26.8933H26.9933V29.3875V14.9702Z" fill="white" stroke="black" stroke-width="0.2"/>
<path d="M5.05347 14.9702H26.8933V29.3875" fill="#E8F9FC"/>
<path d="M14.6417 28.3576V18.7289C14.6417 18.2655 14.4818 18.0596 14.0024 18.0596H9.04853C8.56912 18.0596 8.24951 18.317 8.24951 18.7289V28.3576H14.6417Z" fill="#FCA12A"/>
<path d="M14.6417 23.7235V18.7289C14.6417 18.2655 14.4818 18.0596 14.0024 18.0596H9.04853C8.56912 18.0596 8.24951 18.317 8.24951 18.7289" fill="#E58613"/>
<path d="M14.0025 23.2601C14.0025 23.7235 13.6296 24.1354 13.097 24.1354C12.6175 24.1354 12.1914 23.775 12.1914 23.2601C12.1914 22.7967 12.5643 22.3848 13.097 22.3848C13.5764 22.3848 14.0025 22.7452 14.0025 23.2601Z" fill="#DB5435"/>
<path d="M13.7361 22.6423C14.109 22.9513 14.0557 23.5177 13.7361 23.8781C13.4165 24.2385 12.8306 24.187 12.4577 23.8781" fill="#C43D27"/>
<path d="M20.5012 20.6341H23.6972V18.7289C23.6972 18.2655 23.1646 18.0596 22.6851 18.0596H20.5012V20.6341Z" fill="#0E75AF"/>
<path d="M19.9685 20.6341V18.0596H17.5714C17.092 18.0596 16.7724 18.317 16.7724 18.7289V20.6341H19.9685Z" fill="#1EA4C4"/>
<path d="M19.9685 21.1492H16.7724V23.1573C16.7724 23.6207 17.092 23.7237 17.5714 23.7237H19.9685V21.1492Z" fill="#0E75AF"/>
<path d="M20.5012 21.1492V23.7237H22.6851C23.1646 23.7237 23.6972 23.6207 23.6972 23.1573V21.1492H20.5012Z" fill="#1EA4C4"/>
<path d="M30.5688 14.9704L15.9734 3.95142L1.43127 14.9704H30.5688Z" fill="#C43D27"/>
<path d="M30.5688 14.9704L15.9734 3.95142L8.56915 14.9704H30.5688Z" fill="#AA1E0F"/>
<path d="M5.5329 11.8806H26.4672L25.1355 10.8508H6.86459L5.5329 11.8806Z" fill="#C43D27"/>
<path d="M10.2737 8.27638H21.7263L21.0338 7.76147H10.9662L10.2737 8.27638Z" fill="#C43D27"/>
</svg>
