<svg width="27" height="41" viewBox="0 0 27 41" fill="none" xmlns="http://www.w3.org/2000/svg">
<path d="M22.8371 2.90771H18.2712V11.2933H22.8371V2.90771Z" fill="#680B09"/>
<path d="M23.2937 2.0249H17.8147V2.90759H23.2937V2.0249Z" fill="#C43D27"/>
<path d="M4.11719 12.5172H4.01719V12.6172V24.9749V25.0749H4.11719H22.837H22.937V24.9749V12.6172V12.5172H22.837H4.11719Z" fill="white" stroke="black" stroke-width="0.2"/>
<path d="M4.11719 12.6172H22.837V24.9749" fill="#E8F9FC"/>
<path d="M12.3357 24.0923V15.8391C12.3357 15.4419 12.1987 15.2654 11.7878 15.2654H7.54156C7.13064 15.2654 6.85669 15.4861 6.85669 15.8391V24.0923H12.3357Z" fill="#FCA12A"/>
<path d="M12.3357 20.1202V15.8391C12.3357 15.4419 12.1987 15.2654 11.7878 15.2654H7.54156C7.13064 15.2654 6.85669 15.4861 6.85669 15.8391" fill="#E58613"/>
<path d="M11.7877 19.7229C11.7877 20.1202 11.4681 20.4732 11.0115 20.4732C10.6006 20.4732 10.2354 20.1643 10.2354 19.7229C10.2354 19.3257 10.555 18.9727 11.0115 18.9727C11.4225 18.9727 11.7877 19.2816 11.7877 19.7229Z" fill="#DB5435"/>
<path d="M11.5594 19.1934C11.879 19.4582 11.8334 19.9436 11.5594 20.2526C11.2855 20.5615 10.7832 20.5174 10.4636 20.2526" fill="#C43D27"/>
<path d="M17.358 17.4721H20.0975V15.8391C20.0975 15.4419 19.6409 15.2654 19.23 15.2654H17.358V17.4721Z" fill="#0E75AF"/>
<path d="M16.9015 17.4721V15.2654H14.8469C14.4359 15.2654 14.162 15.4861 14.162 15.8391V17.4721H16.9015Z" fill="#1EA4C4"/>
<path d="M16.9015 17.9133H14.162V19.6346C14.162 20.0318 14.4359 20.1201 14.8469 20.1201H16.9015V17.9133Z" fill="#0E75AF"/>
<path d="M17.358 17.9133V20.1201H19.23C19.6409 20.1201 20.0975 20.0318 20.0975 19.6346V17.9133H17.358Z" fill="#1EA4C4"/>
<path d="M25.9874 12.6172L13.4771 3.17236L1.01245 12.6172H25.9874Z" fill="#C43D27"/>
<path d="M25.9874 12.6172L13.4771 3.17236L7.13062 12.6172H25.9874Z" fill="#AA1E0F"/>
<path d="M4.5282 9.96912H22.4718L21.3304 9.08643H5.66965L4.5282 9.96912Z" fill="#C43D27"/>
<path d="M8.5918 6.87982H18.4083L17.8147 6.43848H9.18535L8.5918 6.87982Z" fill="#C43D27"/>
<path d="M2.6891 33.5062C2.39379 31.1687 3.77192 27.4218 4.42817 22.3687C4.55942 21.475 9.02192 20.5125 11.1219 20.5125C11.6469 20.5125 12.1063 23.0906 11.975 23.9843C11.8766 24.6375 10.9907 24.4656 10.9907 24.4656C10.6954 25.325 9.80942 24.9812 9.80942 24.9812C9.54692 25.7031 8.75942 25.3593 8.75942 25.3593C8.43129 26.0468 7.70942 25.7031 7.70942 25.7031C7.05317 28.6937 8.26723 28.4187 9.15317 32.9218C9.15317 32.9218 9.41567 32.8875 10.1047 31.4093C12.9266 25.4625 22.836 27.3531 22.2454 33.7468C22.1141 35.1562 23.5579 37.4937 18.2094 39.2468C13.9766 40.6218 8.79223 37.975 8.79223 37.975C7.02035 38.5593 3.57504 38.525 3.4766 37.15C3.37817 35.5343 2.85317 34.7093 2.6891 33.5062Z" fill="#FED0AC"/>
<path d="M22.2782 33.747C22.4094 32.2345 21.9828 30.997 21.1953 30.1033C21.6547 30.9283 21.8844 31.9251 21.786 33.0939C21.6547 34.5033 23.0985 36.8408 17.75 38.5939C13.5172 39.9689 8.33284 37.322 8.33284 37.322C6.95471 37.7689 4.52659 37.8376 3.5094 37.1845C3.64065 38.5251 7.05315 38.5595 8.82502 37.9751C8.82502 37.9751 14.0094 40.622 18.2422 39.247C23.5578 37.4939 22.1469 35.1564 22.2782 33.747Z" fill="#E0A372"/>
<path d="M7.34843 25.6687C6.52812 29.175 7.87343 29.0375 8.75937 33.4718L9.21874 32.9562C8.56249 28.4875 7.44687 29.0375 7.70937 25.7375C7.51249 25.7375 7.34843 25.6687 7.34843 25.6687Z" fill="#E0A372"/>
<path d="M11.5813 35.6719C14.3047 36.7375 18.4063 35.6375 20.736 34.5032C19.7188 37.0813 14.3047 38.4563 11.5813 35.6719Z" fill="#E0A372"/>
<path d="M10.2359 21.4751C10.0391 21.097 9.64531 21.1314 9.38281 21.2345C9.41562 20.822 10.3672 20.5126 10.2359 21.4751Z" fill="#E0A372"/>
<path d="M12.2375 22.9533C12.139 22.197 11.9094 21.4408 11.4828 20.822C11.7125 21.4751 11.8437 22.1626 11.8437 22.8501C11.8437 23.1595 11.9094 24.2595 11.3844 24.122C11.0562 24.0189 11.0562 23.7439 10.9578 23.4345C10.8265 22.9533 10.564 22.4376 10.5969 21.9564C10.4656 22.4376 10.6297 23.022 10.6625 23.5033C10.6953 23.7783 10.8922 24.5689 10.5312 24.672C10.3344 24.7408 10.1047 24.6033 9.9406 24.5001C9.87498 24.4658 9.84216 24.1908 9.80935 24.0876C9.6781 23.6064 9.4156 23.0564 9.44841 22.5408C9.31716 22.9876 9.44841 23.5376 9.48123 24.0189C9.51404 24.2939 9.64529 24.947 9.31716 25.0845C8.92341 25.2908 8.8906 24.8095 8.82498 24.5689C8.69373 24.122 8.49685 23.6064 8.49685 23.1251C8.3656 23.7095 8.52966 24.397 8.52966 24.9814C8.52966 25.2908 7.90623 25.5314 7.67654 25.3595C7.3156 25.0845 7.24998 24.397 7.18435 23.9501C7.28279 24.0876 7.44685 24.2939 7.64373 24.2595C7.47966 24.0533 7.38123 23.7439 7.28279 23.5033C7.18435 23.297 6.95466 22.8501 6.69216 22.8501C6.72498 22.9189 6.95466 23.5033 6.92185 23.5376C6.82341 23.7095 6.72498 23.9158 6.59373 24.0876C6.49529 24.2251 6.19998 24.7064 5.97029 24.5689C5.70779 24.397 5.64216 23.9845 5.57654 23.7095C5.60935 24.0533 5.57654 24.5689 5.90466 24.7751C6.19998 24.9814 6.56091 24.672 6.75779 24.4658C6.82341 25.1533 7.11873 26.0814 7.93904 26.0126C8.1031 26.0126 8.29998 25.9439 8.46404 25.8751C8.59529 25.8064 8.75935 25.6345 8.8906 25.7033C9.25154 25.8064 9.61248 25.7376 9.87498 25.4626C10.0062 25.3251 9.97341 25.2564 10.1375 25.2908C10.3344 25.3251 10.5312 25.3595 10.6953 25.2908C10.8594 25.2564 10.9906 25.1533 11.089 25.0158C11.1547 24.947 11.1875 24.8783 11.2203 24.7751C11.2859 24.6376 11.3515 24.7064 11.4828 24.7064C12.3359 24.7064 12.3031 23.572 12.2375 22.9533Z" fill="#E0A372"/>
<path d="M11.4172 20.9938C11.2203 20.6157 10.8266 20.65 10.5641 20.7532C10.5969 20.375 11.5813 20.0657 11.4172 20.9938Z" fill="#E0A372"/>
<path d="M9.2844 21.9907C9.08752 21.6126 8.69377 21.647 8.43127 21.7501C8.46409 21.3376 9.41565 21.0282 9.2844 21.9907Z" fill="#E0A372"/>
<path d="M8.1688 22.5406C7.97192 22.1624 7.57817 22.1968 7.31567 22.2999C7.34849 21.8874 8.33286 21.5781 8.1688 22.5406Z" fill="#E0A372"/>
</svg>
