<svg width="8" height="8" viewBox="0 0 8 8" fill="none" xmlns="http://www.w3.org/2000/svg">
<g clip-path="url(#clip0_205_347)">
<path fill-rule="evenodd" clip-rule="evenodd" d="M4.00001 0.467773C3.06319 0.467773 2.16475 0.839922 1.50232 1.50235C0.839891 2.16478 0.467743 3.06322 0.467743 4.00004C0.467743 4.93686 0.839891 5.8353 1.50232 6.49773C2.16475 7.16016 3.06319 7.53231 4.00001 7.53231C4.93682 7.53231 5.83527 7.16016 6.4977 6.49773C7.16013 5.8353 7.53228 4.93686 7.53228 4.00004C7.53228 3.06322 7.16013 2.16478 6.4977 1.50235C5.83527 0.839922 4.93682 0.467773 4.00001 0.467773ZM0.97441 4.00004C0.97441 3.1976 1.29318 2.42803 1.86059 1.86062C2.428 1.29321 3.19757 0.97444 4.00001 0.97444C4.80245 0.97444 5.57202 1.29321 6.13943 1.86062C6.70684 2.42803 7.02561 3.1976 7.02561 4.00004C7.02561 4.80248 6.70684 5.57205 6.13943 6.13946C5.57202 6.70687 4.80245 7.02564 4.00001 7.02564C3.19757 7.02564 2.428 6.70687 1.86059 6.13946C1.29318 5.57205 0.97441 4.80248 0.97441 4.00004ZM4.26668 2.40004C4.26668 2.32932 4.23858 2.26149 4.18857 2.21148C4.13856 2.16147 4.07073 2.13337 4.00001 2.13337C3.92929 2.13337 3.86146 2.16147 3.81145 2.21148C3.76144 2.26149 3.73334 2.32932 3.73334 2.40004V4.00004C3.73328 4.03508 3.74012 4.06979 3.75349 4.10219C3.76685 4.13459 3.78646 4.16403 3.81121 4.18884L4.87788 5.25551C4.92795 5.30558 4.99586 5.33371 5.06668 5.33371C5.13749 5.33371 5.2054 5.30558 5.25548 5.25551C5.30555 5.20543 5.33368 5.13752 5.33368 5.06671C5.33368 4.99589 5.30555 4.92798 5.25548 4.87791L4.26668 3.88964V2.40004Z" fill="#2F3443" fill-opacity="0.7"/>
</g>
<defs>
<clipPath id="clip0_205_347">
<rect width="8" height="8" fill="white"/>
</clipPath>
</defs>
</svg>
