<svg xmlns="http://www.w3.org/2000/svg" width="208" height="191" viewBox="0 0 208 191">
  <g id="Group_32662" data-name="Group 32662" transform="translate(-72 -58)">
    <text id="Image_Not_Found" data-name="Image Not Found" transform="translate(176 241)" fill="rgba(47,52,67,0.7)" font-size="24" font-family="Poppins-SemiBold, Poppins" font-weight="600"><tspan x="-103.908" y="0">Image Not Found</tspan></text>
    <g id="noun-image-error-505166" transform="translate(-22 -37.203)">
      <path id="Path_164630" data-name="Path 164630" d="M109.118,95.2A11.093,11.093,0,0,0,98,106.321v78.936l54.823-48.918a4.54,4.54,0,0,1,6.254.347l39.4,43.5,30.851-26.127a4.592,4.592,0,0,1,5.7-.068l19.734,16.122,3.335-5.976,8.756,15.842,4.586,3.682V106.323A11.093,11.093,0,0,0,260.319,95.2h-151.2Zm93.389,26.682A11.118,11.118,0,1,1,191.389,133,11.117,11.117,0,0,1,202.507,121.885Zm-47.04,24.041L98,197.207v11.4a11.093,11.093,0,0,0,11.118,11.118H227.244l23.138-41.763-18.136-14.732L200.907,189.7a4.614,4.614,0,0,1-6.114-.347ZM258.1,170.8l-40.024,71.154H298.12Zm0,17.789a4.446,4.446,0,0,1,4.447,4.447V217.5a4.447,4.447,0,0,1-8.893,0v-24.46a4.447,4.447,0,0,1,4.447-4.447Zm0,35.578a5.559,5.559,0,1,1-5.559,5.559A5.56,5.56,0,0,1,258.1,224.17Z" fill="#9b9898"/>
    </g>
  </g>
</svg>
