<svg xmlns="http://www.w3.org/2000/svg" xmlns:xlink="http://www.w3.org/1999/xlink" width="130" height="130" viewBox="0 0 130 130">
  <defs>
    <filter id="Rectangle_9146" x="0" y="0" width="130" height="130" filterUnits="userSpaceOnUse">
      <feOffset dy="3" input="SourceAlpha"/>
      <feGaussianBlur stdDeviation="3" result="blur"/>
      <feFlood flood-opacity="0.161"/>
      <feComposite operator="in" in2="blur"/>
      <feComposite in="SourceGraphic"/>
    </filter>
  </defs>
  <g id="Group_30605" data-name="Group 30605" transform="translate(-895 -478)">
    <g transform="matrix(1, 0, 0, 1, 895, 478)" filter="url(#Rectangle_9146)">
      <rect id="Rectangle_9146-2" data-name="Rectangle 9146" width="112" height="112" rx="12" transform="translate(9 6)" fill="#f27b21" opacity="0"/>
    </g>
    <g id="Group_30559" data-name="Group 30559" transform="translate(-2404.481 -816.481)">
      <rect id="Rectangle_9025" data-name="Rectangle 9025" width="78" height="78" transform="translate(3325.481 1317.481)" fill="none"/>
      <g id="refresh-page-option" transform="translate(3332.896 1324.896)">
        <g id="Group_83" data-name="Group 83" transform="translate(0 0)">
          <path id="Path_11" data-name="Path 11" d="M66.787,3.416a2.582,2.582,0,0,0-3.7,0L57.739,8.722A31.855,31.855,0,0,0,47.663,2.285,31.037,31.037,0,0,0,35.983,0,30.37,30.37,0,0,0,16.241,6.851,32.076,32.076,0,0,0,5.137,24.72v.288a1.334,1.334,0,0,0,1.316,1.316h8.184a1.234,1.234,0,0,0,1.234-.946,49.725,49.725,0,0,1,2.18-4.812A20.977,20.977,0,0,1,35.982,10.531a20.435,20.435,0,0,1,14.354,5.635L44.659,21.84a2.632,2.632,0,0,0,1.852,4.483H64.936a2.667,2.667,0,0,0,2.632-2.632V5.266A2.525,2.525,0,0,0,66.787,3.416Z" transform="translate(-4.397 -0.003)" fill="#2a2c2b"/>
          <path id="Path_12" data-name="Path 12" d="M60.826,255.8h-7.9a1.233,1.233,0,0,0-1.233.946,49.769,49.769,0,0,1-2.179,4.811,20.975,20.975,0,0,1-17.931,10.035,20.525,20.525,0,0,1-7.69-1.48,21.233,21.233,0,0,1-6.621-4.2l5.635-5.634a2.633,2.633,0,0,0-1.851-4.483H2.632a2.529,2.529,0,0,0-1.851.782A2.529,2.529,0,0,0,0,258.434v18.425a2.529,2.529,0,0,0,.781,1.851,2.535,2.535,0,0,0,1.851.782,2.533,2.533,0,0,0,1.851-.782L9.788,273.4A31.406,31.406,0,0,0,19.8,279.861a30.8,30.8,0,0,0,11.618,2.262,30.15,30.15,0,0,0,19.659-6.847A31.964,31.964,0,0,0,62.1,257.406a.706.706,0,0,0,.04-.287,1.333,1.333,0,0,0-1.317-1.316Z" transform="translate(0 -218.953)" fill="#2a2c2b"/>
        </g>
      </g>
    </g>
  </g>
</svg>
