<svg width="106" height="124" viewBox="0 0 106 124" fill="none" xmlns="http://www.w3.org/2000/svg">
<g clip-path="url(#clip0_516_121)">
<path d="M92.8894 7.93518H11.9799C8.81131 7.93518 6.24268 10.5018 6.24268 13.6679V118.262C6.24268 121.428 8.81131 123.995 11.9799 123.995H92.8894C96.058 123.995 98.6266 121.428 98.6266 118.262V13.6679C98.6266 10.5018 96.058 7.93518 92.8894 7.93518Z" fill="#FCC647"/>
<path d="M90.0497 12.6005H14.8096C13.1519 12.6005 11.8081 13.9432 11.8081 15.5996V115.919C11.8081 117.575 13.1519 118.918 14.8096 118.918H90.0497C91.7073 118.918 93.0512 117.575 93.0512 115.919V15.5996C93.0512 13.9432 91.7073 12.6005 90.0497 12.6005Z" stroke="#FF7A00" stroke-width="1.26" stroke-miterlimit="10"/>
<path d="M103.223 110.067V87.4639H90.3361V110.067H103.223Z" fill="#FFBC00"/>
<path d="M62.9944 36H29.9678V83.9651H62.9944V36Z" fill="white"/>
<path d="M53.9535 95.217L29.9678 83.9703V36L53.9535 47.2519V95.217Z" fill="#1A1B1D"/>
<path d="M67.2207 48.5797C67.377 48.8556 82.1499 62.1173 82.1499 62.1173L67.2207 75.655" stroke="#1A1B1D" stroke-width="6.49" stroke-linecap="round" stroke-linejoin="round"/>
<path d="M58.9663 62.1277H82.1287" stroke="#1A1B1D" stroke-width="6.49" stroke-linecap="round" stroke-linejoin="round"/>
<path d="M49.1074 68.2301C49.1074 68.745 48.9546 69.2484 48.6683 69.6765C48.382 70.1046 47.9751 70.4383 47.499 70.6353C47.0229 70.8324 46.499 70.8839 45.9936 70.7835C45.4882 70.683 45.024 70.4351 44.6596 70.071C44.2952 69.7069 44.0471 69.243 43.9465 68.738C43.846 68.233 43.8976 67.7095 44.0948 67.2338C44.292 66.7581 44.626 66.3515 45.0544 66.0655C45.4829 65.7794 45.9866 65.6267 46.5019 65.6267C47.1929 65.6267 47.8556 65.901 48.3443 66.3892C48.8329 66.8775 49.1074 67.5396 49.1074 68.2301Z" fill="white"/>
<path d="M4.78254 20.3361L1.49951 23.6166L13.7105 35.8179L16.9935 32.5375L4.78254 20.3361Z" fill="#1A1B1D"/>
<path d="M13.7064 20.3323L1.49756 32.5358L4.78116 35.8156L16.99 23.6121L13.7064 20.3323Z" fill="#1A1B1D"/>
<path d="M2.95979 74.9779C2.95979 75.2704 2.87299 75.5563 2.71038 75.7995C2.54777 76.0427 2.31664 76.2322 2.04623 76.3441C1.77581 76.456 1.47825 76.4853 1.19118 76.4283C0.90411 76.3712 0.640418 76.2304 0.433452 76.0236C0.226485 75.8168 0.0855384 75.5533 0.0284364 75.2664C-0.0286656 74.9796 0.00064122 74.6823 0.112651 74.412C0.224661 74.1418 0.414342 73.9109 0.65771 73.7484C0.901077 73.5859 1.1872 73.4992 1.47989 73.4992C1.87239 73.4992 2.2488 73.655 2.52634 73.9323C2.80387 74.2096 2.95979 74.5858 2.95979 74.9779Z" fill="#1A1B1D"/>
<path d="M10.3538 74.978C10.3538 75.2698 10.2674 75.555 10.1055 75.7979C9.94354 76.0407 9.71333 76.2302 9.44382 76.3426C9.17431 76.4549 8.87756 76.4851 8.59093 76.4293C8.30429 76.3735 8.04058 76.2342 7.83301 76.029C7.62543 75.8237 7.48327 75.5617 7.42441 75.2759C7.36556 74.9901 7.39264 74.6933 7.50226 74.4228C7.61187 74.1524 7.79912 73.9203 8.04042 73.756C8.28172 73.5916 8.56629 73.5023 8.8583 73.4992C9.05396 73.4972 9.24808 73.5339 9.42944 73.6073C9.6108 73.6807 9.77579 73.7893 9.91487 73.9268C10.0539 74.0643 10.1644 74.228 10.2397 74.4084C10.3151 74.5889 10.3538 74.7824 10.3538 74.978Z" fill="#1A1B1D"/>
<path d="M17.7537 74.9779C17.7537 75.2704 17.6669 75.5563 17.5043 75.7995C17.3417 76.0427 17.1106 76.2322 16.8402 76.3441C16.5698 76.456 16.2722 76.4853 15.9851 76.4283C15.6981 76.3712 15.4344 76.2304 15.2274 76.0236C15.0204 75.8168 14.8795 75.5533 14.8224 75.2664C14.7653 74.9796 14.7946 74.6823 14.9066 74.412C15.0186 74.1418 15.2083 73.9109 15.4517 73.7484C15.695 73.5859 15.9811 73.4992 16.2738 73.4992C16.6663 73.4992 17.0427 73.655 17.3203 73.9323C17.5978 74.2096 17.7537 74.5858 17.7537 74.9779Z" fill="#1A1B1D"/>
<path d="M2.95979 81.5386C2.95979 81.831 2.87299 82.1169 2.71038 82.3601C2.54777 82.6033 2.31664 82.7928 2.04623 82.9047C1.77581 83.0166 1.47825 83.0459 1.19118 82.9889C0.90411 82.9318 0.640418 82.791 0.433452 82.5842C0.226485 82.3774 0.0855384 82.1139 0.0284364 81.827C-0.0286656 81.5402 0.00064122 81.2429 0.112651 80.9727C0.224661 80.7025 0.414342 80.4715 0.65771 80.309C0.901077 80.1465 1.1872 80.0598 1.47989 80.0598C1.87239 80.0598 2.2488 80.2156 2.52634 80.4929C2.80387 80.7702 2.95979 81.1464 2.95979 81.5386Z" fill="#1A1B1D"/>
<path d="M10.3538 81.5385C10.3538 81.8303 10.2674 82.1156 10.1055 82.3584C9.94354 82.6012 9.71333 82.7908 9.44382 82.9031C9.17431 83.0155 8.87756 83.0457 8.59093 82.9899C8.30429 82.9341 8.04058 82.7948 7.83301 82.5895C7.62543 82.3843 7.48327 82.1223 7.42441 81.8364C7.36556 81.5506 7.39264 81.2538 7.50226 80.9834C7.61187 80.7129 7.79912 80.4809 8.04042 80.3165C8.28172 80.1522 8.56629 80.0629 8.8583 80.0598C9.05396 80.0577 9.24808 80.0944 9.42944 80.1678C9.6108 80.2412 9.77579 80.3498 9.91487 80.4873C10.0539 80.6248 10.1644 80.7886 10.2397 80.969C10.3151 81.1494 10.3538 81.343 10.3538 81.5385Z" fill="#1A1B1D"/>
<path d="M17.7537 81.5386C17.7537 81.831 17.6669 82.1169 17.5043 82.3601C17.3417 82.6033 17.1106 82.7928 16.8402 82.9047C16.5698 83.0166 16.2722 83.0459 15.9851 82.9889C15.6981 82.9318 15.4344 82.791 15.2274 82.5842C15.0204 82.3774 14.8795 82.1139 14.8224 81.827C14.7653 81.5402 14.7946 81.2429 14.9066 80.9727C15.0186 80.7025 15.2083 80.4715 15.4517 80.309C15.695 80.1465 15.9811 80.0598 16.2738 80.0598C16.6663 80.0598 17.0427 80.2156 17.3203 80.4929C17.5978 80.7702 17.7537 81.1464 17.7537 81.5386Z" fill="#1A1B1D"/>
<path d="M2.95979 88.0991C2.95979 88.3916 2.87299 88.6775 2.71038 88.9206C2.54777 89.1638 2.31664 89.3533 2.04623 89.4653C1.77581 89.5772 1.47825 89.6065 1.19118 89.5494C0.90411 89.4924 0.640418 89.3515 0.433452 89.1447C0.226485 88.9379 0.0855384 88.6744 0.0284364 88.3876C-0.0286656 88.1007 0.00064122 87.8034 0.112651 87.5332C0.224661 87.263 0.414342 87.0321 0.65771 86.8696C0.901077 86.7071 1.1872 86.6204 1.47989 86.6204C1.87239 86.6204 2.2488 86.7762 2.52634 87.0535C2.80387 87.3308 2.95979 87.7069 2.95979 88.0991Z" fill="#1A1B1D"/>
<path d="M10.3538 88.0991C10.3538 88.3909 10.2674 88.6762 10.1055 88.919C9.94354 89.1618 9.71333 89.3514 9.44382 89.4637C9.17431 89.5761 8.87756 89.6063 8.59093 89.5505C8.30429 89.4947 8.04058 89.3554 7.83301 89.1501C7.62543 88.9449 7.48327 88.6829 7.42441 88.3971C7.36556 88.1112 7.39264 87.8144 7.50226 87.544C7.61187 87.2735 7.79912 87.0415 8.04042 86.8771C8.28172 86.7128 8.56629 86.6235 8.8583 86.6204C9.05396 86.6183 9.24808 86.655 9.42944 86.7284C9.6108 86.8018 9.77579 86.9104 9.91487 87.0479C10.0539 87.1855 10.1644 87.3492 10.2397 87.5296C10.3151 87.71 10.3538 87.9036 10.3538 88.0991Z" fill="#1A1B1D"/>
<path d="M17.7537 88.0991C17.7537 88.3916 17.6669 88.6775 17.5043 88.9206C17.3417 89.1638 17.1106 89.3533 16.8402 89.4653C16.5698 89.5772 16.2722 89.6065 15.9851 89.5494C15.6981 89.4924 15.4344 89.3515 15.2274 89.1447C15.0204 88.9379 14.8795 88.6744 14.8224 88.3876C14.7653 88.1007 14.7946 87.8034 14.9066 87.5332C15.0186 87.263 15.2083 87.0321 15.4517 86.8696C15.695 86.7071 15.9811 86.6204 16.2738 86.6204C16.6663 86.6204 17.0427 86.7762 17.3203 87.0535C17.5978 87.3308 17.7537 87.7069 17.7537 88.0991Z" fill="#1A1B1D"/>
<path d="M93.7903 58.0167L90.5078 61.2977L102.717 73.4933L106 70.2123L93.7903 58.0167Z" fill="#1A1B1D"/>
<path d="M102.72 58.0259L90.5107 70.2214L93.7932 73.5025L106.003 61.3069L102.72 58.0259Z" fill="#1A1B1D"/>
<path d="M71.3421 1.47874C71.3421 1.77143 71.2552 2.05753 71.0923 2.30082C70.9295 2.54411 70.6981 2.73364 70.4273 2.8454C70.1566 2.95717 69.8588 2.98615 69.5716 2.92867C69.2844 2.87119 69.0207 2.72983 68.8139 2.52251C68.6072 2.31518 68.4666 2.05121 68.4101 1.76402C68.3536 1.47683 68.3837 1.17935 68.4965 0.909238C68.6093 0.639127 68.7998 0.408543 69.0438 0.246685C69.2879 0.084828 69.5745 -0.00102142 69.8674 9.17105e-06C70.259 0.00138693 70.6341 0.157789 70.9105 0.434956C71.1869 0.712123 71.3421 1.08746 71.3421 1.47874Z" fill="#1A1B1D"/>
<path d="M78.742 1.47873C78.742 1.7712 78.6552 2.0571 78.4926 2.30027C78.33 2.54345 78.0989 2.73298 77.8285 2.8449C77.558 2.95682 77.2605 2.98611 76.9734 2.92905C76.6863 2.87199 76.4226 2.73116 76.2157 2.52435C76.0087 2.31755 75.8678 2.05406 75.8107 1.76722C75.7536 1.48037 75.7829 1.18305 75.8949 0.912846C76.0069 0.642643 76.1966 0.411696 76.4399 0.249211C76.6833 0.0867261 76.9694 0 77.2621 0C77.6546 0 78.031 0.155795 78.3086 0.433111C78.5861 0.710427 78.742 1.08655 78.742 1.47873Z" fill="#1A1B1D"/>
<path d="M86.1414 1.47873C86.1414 1.7712 86.0546 2.0571 85.892 2.30027C85.7294 2.54345 85.4983 2.73298 85.2279 2.8449C84.9575 2.95682 84.6599 2.98611 84.3728 2.92905C84.0857 2.87199 83.8221 2.73116 83.6151 2.52435C83.4081 2.31755 83.2672 2.05406 83.2101 1.76722C83.153 1.48037 83.1823 1.18305 83.2943 0.912846C83.4063 0.642643 83.596 0.411696 83.8394 0.249211C84.0827 0.0867261 84.3688 0 84.6615 0C85.054 0 85.4304 0.155795 85.708 0.433111C85.9855 0.710427 86.1414 1.08655 86.1414 1.47873Z" fill="#1A1B1D"/>
<path d="M71.3421 8.03929C71.3421 8.33197 71.2552 8.61808 71.0923 8.86137C70.9295 9.10465 70.6981 9.29418 70.4273 9.40595C70.1566 9.51772 69.8588 9.54669 69.5716 9.48921C69.2844 9.43173 69.0207 9.29038 68.8139 9.08305C68.6072 8.87573 68.4666 8.61176 68.4101 8.32457C68.3536 8.03738 68.3837 7.7399 68.4965 7.46978C68.6093 7.19967 68.7998 6.96909 69.0438 6.80723C69.2879 6.64537 69.5745 6.55953 69.8674 6.56056C70.259 6.56193 70.6341 6.71834 70.9105 6.9955C71.1869 7.27267 71.3421 7.648 71.3421 8.03929Z" fill="#1A1B1D"/>
<path d="M78.742 8.03928C78.742 8.33174 78.6552 8.61764 78.4926 8.86082C78.33 9.10399 78.0989 9.29353 77.8285 9.40545C77.558 9.51737 77.2605 9.54665 76.9734 9.4896C76.6863 9.43254 76.4226 9.2917 76.2157 9.0849C76.0087 8.8781 75.8678 8.61461 75.8107 8.32776C75.7536 8.04092 75.7829 7.7436 75.8949 7.47339C76.0069 7.20319 76.1966 6.97224 76.4399 6.80976C76.6833 6.64727 76.9694 6.56055 77.2621 6.56055C77.6546 6.56055 78.031 6.71634 78.3086 6.99366C78.5861 7.27097 78.742 7.64709 78.742 8.03928Z" fill="#1A1B1D"/>
<path d="M86.1414 8.03928C86.1414 8.33174 86.0546 8.61764 85.892 8.86082C85.7294 9.10399 85.4983 9.29353 85.2279 9.40545C84.9575 9.51737 84.6599 9.54665 84.3728 9.4896C84.0857 9.43254 83.8221 9.2917 83.6151 9.0849C83.4081 8.8781 83.2672 8.61461 83.2101 8.32776C83.153 8.04092 83.1823 7.7436 83.2943 7.47339C83.4063 7.20319 83.596 6.97224 83.8394 6.80976C84.0827 6.64727 84.3688 6.56055 84.6615 6.56055C85.054 6.56055 85.4304 6.71634 85.708 6.99366C85.9855 7.27097 86.1414 7.64709 86.1414 8.03928Z" fill="#1A1B1D"/>
<path d="M71.3421 14.579C71.3421 14.8717 71.2552 15.1578 71.0923 15.4011C70.9295 15.6444 70.6981 15.8339 70.4273 15.9457C70.1566 16.0575 69.8588 16.0864 69.5716 16.0289C69.2844 15.9715 69.0207 15.8301 68.8139 15.6228C68.6072 15.4155 68.4666 15.1515 68.4101 14.8643C68.3536 14.5771 68.3837 14.2796 68.4965 14.0095C68.6093 13.7394 68.7998 13.5088 69.0438 13.347C69.2879 13.1851 69.5745 13.0993 69.8674 13.1003C70.259 13.1017 70.6341 13.2581 70.9105 13.5352C71.1869 13.8124 71.3421 14.1877 71.3421 14.579Z" fill="#1A1B1D"/>
<path d="M78.742 14.5791C78.742 14.8715 78.6552 15.1574 78.4926 15.4006C78.33 15.6438 78.0989 15.8333 77.8285 15.9452C77.558 16.0572 77.2605 16.0864 76.9734 16.0294C76.6863 15.9723 76.4226 15.8315 76.2157 15.6247C76.0087 15.4179 75.8678 15.1544 75.8107 14.8676C75.7536 14.5807 75.7829 14.2834 75.8949 14.0132C76.0069 13.743 76.1966 13.512 76.4399 13.3496C76.6833 13.1871 76.9694 13.1003 77.2621 13.1003C77.6546 13.1003 78.031 13.2561 78.3086 13.5335C78.5861 13.8108 78.742 14.1869 78.742 14.5791Z" fill="#1A1B1D"/>
<path d="M86.1414 14.5791C86.1414 14.8715 86.0546 15.1574 85.892 15.4006C85.7294 15.6438 85.4983 15.8333 85.2279 15.9452C84.9575 16.0572 84.6599 16.0864 84.3728 16.0294C84.0857 15.9723 83.8221 15.8315 83.6151 15.6247C83.4081 15.4179 83.2672 15.1544 83.2101 14.8676C83.153 14.5807 83.1823 14.2834 83.2943 14.0132C83.4063 13.743 83.596 13.512 83.8394 13.3496C84.0827 13.1871 84.3688 13.1003 84.6615 13.1003C85.054 13.1003 85.4304 13.2561 85.708 13.5335C85.9855 13.8108 86.1414 14.1869 86.1414 14.5791Z" fill="#1A1B1D"/>
</g>
<defs>
<clipPath id="clip0_516_121">
<rect width="106" height="124" fill="white"/>
</clipPath>
</defs>
</svg>
