<svg width="16" height="16" viewBox="0 0 16 16" fill="none" xmlns="http://www.w3.org/2000/svg">
<path d="M3.89474 11.6H5.15789V12.8H12.7368V3.2H5.15789V4.4H3.89474V2.6C3.89474 2.44087 3.96128 2.28826 4.07972 2.17574C4.19817 2.06321 4.35881 2 4.52632 2H13.3684C13.5359 2 13.6966 2.06321 13.815 2.17574C13.9335 2.28826 14 2.44087 14 2.6V13.4C14 13.5591 13.9335 13.7117 13.815 13.8243C13.6966 13.9368 13.5359 14 13.3684 14H4.52632C4.35881 14 4.19817 13.9368 4.07972 13.8243C3.96128 13.7117 3.89474 13.5591 3.89474 13.4V11.6ZM5.15789 7.4H9.57895V8.6H5.15789V10.4L2 8L5.15789 5.6V7.4Z" fill="#2F3443" fill-opacity="0.9"/>
</svg>
