<svg width="14" height="14" viewBox="0 0 14 14" fill="none" xmlns="http://www.w3.org/2000/svg">
<path d="M7.04218 4.46298V5.83495C7.04218 5.92277 6.96549 5.99352 6.87083 5.99352H6.82516C6.73052 5.99352 6.65423 5.92277 6.65423 5.83495V4.45662C6.65423 4.23067 6.48984 4.16309 6.33281 4.16309C6.17536 4.16309 6.01137 4.23067 6.01137 4.45662V5.83495C6.01137 5.92277 5.93428 5.99352 5.84007 5.99352H5.79439C5.70016 5.99352 5.62306 5.92277 5.62306 5.83495V4.46298C5.62306 4.05822 5.00101 4.07192 5.00101 4.46754C5.00101 4.94127 5.00101 5.77769 5.00101 5.77769C4.99817 6.50512 5.18537 6.69421 5.49499 6.92075C5.74464 7.10331 5.95798 7.20797 5.95798 7.66126V10.5779H6.70771V7.66126C6.70771 7.20797 6.92063 7.10331 7.17028 6.92075C7.4799 6.69421 7.66712 6.50512 7.66426 5.77769C7.66426 5.77769 7.66426 4.94124 7.66426 4.46754C7.66426 4.07192 7.04218 4.05822 7.04218 4.46298Z" fill="#2F3443"/>
<path d="M9.07951 4.59777C8.92003 5.01185 8.62145 6.02347 8.62145 6.53724C8.57983 7.77306 9.26512 7.11066 9.28226 8.07849V10.5842H10.0283L10.032 10.5932C10.032 10.5932 10.032 10.5894 10.032 10.5842C10.032 10.4679 10.032 9.08162 10.032 7.66743C10.032 6.2685 10.032 4.84359 10.032 4.59779C10.032 4.09294 9.32714 3.9538 9.07951 4.59777Z" fill="#2F3443"/>
<path d="M12.1427 1.97517C12.0391 1.7371 11.8666 1.53574 11.6492 1.39302C11.5407 1.32166 11.4207 1.26519 11.2923 1.22634C11.1637 1.18749 11.0275 1.16669 10.8868 1.16669H3.74344H3.62883H3.11322C2.9256 1.16669 2.74529 1.20374 2.58212 1.27075C2.33695 1.37181 2.12975 1.53911 1.9829 1.7502C1.90946 1.85584 1.85113 1.97239 1.81117 2.09724C1.7712 2.22172 1.75 2.35432 1.75 2.49049V11.5095C1.75 11.6913 1.78794 11.8663 1.85727 12.0248C1.96088 12.2629 2.13343 12.4643 2.35046 12.607C2.45937 12.6783 2.57968 12.735 2.70777 12.7737C2.83624 12.8125 2.97249 12.8334 3.11322 12.8334H3.62883H3.74344H10.8868C11.074 12.8334 11.2543 12.7963 11.4174 12.7293C11.6626 12.6284 11.8702 12.4611 12.0167 12.2498C12.0901 12.1444 12.1488 12.0276 12.1884 11.903C12.2288 11.7785 12.25 11.6459 12.25 11.5095V2.49049C12.25 2.30895 12.2117 2.13372 12.1427 1.97517ZM3.53417 12.1269H3.11322C3.02389 12.1267 2.9411 12.1097 2.86522 12.0786C2.75181 12.0318 2.65391 11.9531 2.58498 11.8542C2.55072 11.8048 2.52378 11.7509 2.50545 11.6931C2.48709 11.6354 2.47689 11.5739 2.47689 11.5095V2.49049C2.47689 2.40447 2.49485 2.32419 2.52664 2.25046C2.57478 2.14044 2.65556 2.04533 2.75753 1.97852C2.8085 1.94521 2.864 1.91885 2.92353 1.90082C2.98309 1.88298 3.04633 1.87325 3.11322 1.87307H3.53419L3.53417 12.1269ZM11.5227 11.5096C11.5227 11.5956 11.5052 11.6758 11.4733 11.7496C11.4252 11.8598 11.344 11.9547 11.2424 12.0217C11.1915 12.055 11.1356 12.0812 11.0764 12.0992C11.0165 12.1171 10.9537 12.1268 10.8868 12.127H3.9527V1.87309H10.8868C10.9757 1.8733 11.0585 1.89054 11.1344 1.92167C11.2482 1.96825 11.3461 2.04713 11.4146 2.14584C11.4489 2.1952 11.4762 2.24932 11.4946 2.30697C11.5129 2.36484 11.5227 2.42591 11.5227 2.49051V11.5096H11.5227Z" fill="#2F3443"/>
</svg>
