<svg xmlns="http://www.w3.org/2000/svg" xmlns:xlink="http://www.w3.org/1999/xlink" viewBox="0 0 78.01 114.2"><defs><style>.cls-1{mask:url(#mask);filter:url(#luminosity-noclip-7);}.cls-10,.cls-12,.cls-2,.cls-4,.cls-6,.cls-8{mix-blend-mode:multiply;}.cls-2{fill:url(#linear-gradient);}.cls-3{mask:url(#mask-2);filter:url(#luminosity-noclip-12);}.cls-4{fill:url(#linear-gradient-2);}.cls-5{mask:url(#mask-3);filter:url(#luminosity-noclip-8);}.cls-6{fill:url(#linear-gradient-3);}.cls-7{mask:url(#mask-4);filter:url(#luminosity-noclip-9);}.cls-8{fill:url(#linear-gradient-4);}.cls-9{mask:url(#mask-5);filter:url(#luminosity-noclip-10);}.cls-10{fill:url(#linear-gradient-5);}.cls-11{mask:url(#mask-6);filter:url(#luminosity-noclip-11);}.cls-12{fill:url(#linear-gradient-6);}.cls-13{isolation:isolate;}.cls-14{fill:#353535;}.cls-15{opacity:0.6;}.cls-15,.cls-17,.cls-19,.cls-21,.cls-26,.cls-28,.cls-29,.cls-30,.cls-31,.cls-33{mix-blend-mode:screen;}.cls-16{mask:url(#mask-7);}.cls-17{fill:url(#linear-gradient-7);}.cls-18{mask:url(#mask-8);}.cls-19{fill:url(#linear-gradient-8);}.cls-20{mask:url(#mask-9);}.cls-21{fill:url(#linear-gradient-9);}.cls-22,.cls-23,.cls-24,.cls-30{opacity:0.4;}.cls-22,.cls-23,.cls-24{mix-blend-mode:overlay;}.cls-22{fill:url(#linear-gradient-10);}.cls-23{fill:url(#linear-gradient-11);}.cls-24{fill:url(#linear-gradient-12);}.cls-25{mask:url(#mask-10);}.cls-26{fill:url(#linear-gradient-13);}.cls-27{mask:url(#mask-11);}.cls-28{fill:url(#linear-gradient-14);}.cls-29{opacity:0.5;}.cls-30{fill:url(#linear-gradient-15);}.cls-32{mask:url(#mask-12);}.cls-33{opacity:0.3;fill:url(#linear-gradient-16);}.cls-34{filter:url(#luminosity-noclip-6);}.cls-35{filter:url(#luminosity-noclip-5);}.cls-36{filter:url(#luminosity-noclip-4);}.cls-37{filter:url(#luminosity-noclip-3);}.cls-38{filter:url(#luminosity-noclip-2);}.cls-39{filter:url(#luminosity-noclip);}</style><filter id="luminosity-noclip" x="37.25" y="-8268.41" width="18.77" height="32766" filterUnits="userSpaceOnUse" color-interpolation-filters="sRGB"><feFlood flood-color="#fff" result="bg"/><feBlend in="SourceGraphic" in2="bg"/></filter><mask id="mask" x="37.25" y="-8268.41" width="18.77" height="32766" maskUnits="userSpaceOnUse"><g class="cls-39"/></mask><linearGradient id="linear-gradient" x1="38.52" y1="18.09" x2="53.75" y2="33.32" gradientUnits="userSpaceOnUse"><stop offset="0" stop-color="#999"/><stop offset="1" stop-color="#333"/></linearGradient><filter id="luminosity-noclip-2" x="38.53" y="-8268.41" width="4.82" height="32766" filterUnits="userSpaceOnUse" color-interpolation-filters="sRGB"><feFlood flood-color="#fff" result="bg"/><feBlend in="SourceGraphic" in2="bg"/></filter><mask id="mask-2" x="38.53" y="-8268.41" width="4.82" height="32766" maskUnits="userSpaceOnUse"><g class="cls-38"/></mask><linearGradient id="linear-gradient-2" x1="38.61" y1="34.08" x2="39.52" y2="37.3" gradientTransform="translate(-10.79 23.46) rotate(-29.22)" gradientUnits="userSpaceOnUse"><stop offset="0" stop-color="#fff"/><stop offset="0.09" stop-color="#f7f7f7"/><stop offset="0.24" stop-color="#e0e0e0"/><stop offset="0.42" stop-color="#bababa"/><stop offset="0.63" stop-color="#868686"/><stop offset="0.86" stop-color="#454545"/><stop offset="1" stop-color="#1a1a1a"/></linearGradient><filter id="luminosity-noclip-3" x="37.25" y="-8268.41" width="23.09" height="32766" filterUnits="userSpaceOnUse" color-interpolation-filters="sRGB"><feFlood flood-color="#fff" result="bg"/><feBlend in="SourceGraphic" in2="bg"/></filter><mask id="mask-3" x="37.25" y="-8268.41" width="23.09" height="32766" maskUnits="userSpaceOnUse"><g class="cls-37"/></mask><linearGradient id="linear-gradient-3" x1="39.53" y1="7.4" x2="57.77" y2="25.65" xlink:href="#linear-gradient"/><filter id="luminosity-noclip-4" x="37.25" y="-8268.41" width="23.79" height="32766" filterUnits="userSpaceOnUse" color-interpolation-filters="sRGB"><feFlood flood-color="#fff" result="bg"/><feBlend in="SourceGraphic" in2="bg"/></filter><mask id="mask-4" x="37.25" y="-8268.41" width="23.79" height="32766" maskUnits="userSpaceOnUse"><g class="cls-36"/></mask><linearGradient id="linear-gradient-4" x1="40.3" y1="-3.05" x2="58.44" y2="15.09" xlink:href="#linear-gradient"/><filter id="luminosity-noclip-5" x="3" y="-8268.41" width="28.4" height="32766" filterUnits="userSpaceOnUse" color-interpolation-filters="sRGB"><feFlood flood-color="#fff" result="bg"/><feBlend in="SourceGraphic" in2="bg"/></filter><mask id="mask-5" x="3" y="-8268.41" width="28.4" height="32766" maskUnits="userSpaceOnUse"><g class="cls-35"/></mask><linearGradient id="linear-gradient-5" x1="0.11" y1="35.59" x2="28.03" y2="63.51" gradientUnits="userSpaceOnUse"><stop offset="0" stop-color="#666"/><stop offset="0.2" stop-color="#424242"/><stop offset="0.4" stop-color="#252525"/><stop offset="0.61" stop-color="#111"/><stop offset="0.81" stop-color="#040404"/><stop offset="1"/></linearGradient><filter id="luminosity-noclip-6" x="6" y="-8268.41" width="22.06" height="32766" filterUnits="userSpaceOnUse" color-interpolation-filters="sRGB"><feFlood flood-color="#fff" result="bg"/><feBlend in="SourceGraphic" in2="bg"/></filter><mask id="mask-6" x="6" y="-8268.41" width="22.06" height="32766" maskUnits="userSpaceOnUse"><g class="cls-34"/></mask><linearGradient id="linear-gradient-6" x1="2.91" y1="38.56" x2="25.64" y2="61.28" xlink:href="#linear-gradient-5"/><filter id="luminosity-noclip-7" x="37.25" y="19.36" width="18.77" height="14.36" filterUnits="userSpaceOnUse" color-interpolation-filters="sRGB"><feFlood flood-color="#fff" result="bg"/><feBlend in="SourceGraphic" in2="bg"/></filter><mask id="mask-7" x="37.25" y="19.36" width="18.77" height="14.36" maskUnits="userSpaceOnUse"><g class="cls-1"><path class="cls-2" d="M37.25,19.36v3.87a17.35,17.35,0,0,1,16.1,10.49A24.63,24.63,0,0,0,56,30.36a21.76,21.76,0,0,0-3.59-4.78A21.24,21.24,0,0,0,37.25,19.36Z"/></g></mask><linearGradient id="linear-gradient-7" x1="38.52" y1="18.09" x2="53.75" y2="33.32" gradientUnits="userSpaceOnUse"><stop offset="0" stop-color="#fff"/><stop offset="1" stop-color="#fff"/></linearGradient><filter id="luminosity-noclip-8" x="37.25" y="9.68" width="23.09" height="14.7" filterUnits="userSpaceOnUse" color-interpolation-filters="sRGB"><feFlood flood-color="#fff" result="bg"/><feBlend in="SourceGraphic" in2="bg"/></filter><mask id="mask-8" x="37.25" y="9.68" width="23.09" height="14.7" maskUnits="userSpaceOnUse"><g class="cls-5"><path class="cls-6" d="M37.25,9.68v3.87a27,27,0,0,1,21.8,10.82,32.34,32.34,0,0,0,1.29-4.52c-.34-.37-.7-.75-1.06-1.11A30.9,30.9,0,0,0,37.25,9.68Z"/></g></mask><linearGradient id="linear-gradient-8" x1="39.53" y1="7.4" x2="57.77" y2="25.65" xlink:href="#linear-gradient-7"/><filter id="luminosity-noclip-9" x="37.25" y="0" width="23.79" height="12.49" filterUnits="userSpaceOnUse" color-interpolation-filters="sRGB"><feFlood flood-color="#fff" result="bg"/><feBlend in="SourceGraphic" in2="bg"/></filter><mask id="mask-9" x="37.25" y="0" width="23.79" height="12.49" maskUnits="userSpaceOnUse"><g class="cls-7"><path class="cls-8" d="M37.25,0V3.87A36.66,36.66,0,0,1,61,12.49a33,33,0,0,0-.46-5.22A40.62,40.62,0,0,0,37.25,0Z"/></g></mask><linearGradient id="linear-gradient-9" x1="40.3" y1="-3.05" x2="58.44" y2="15.09" xlink:href="#linear-gradient-7"/><linearGradient id="linear-gradient-10" x1="48.19" y1="48.88" x2="48.19" y2="9.07" gradientUnits="userSpaceOnUse"><stop offset="0"/><stop offset="0.1" stop-color="#060606"/><stop offset="0.22" stop-color="#161616"/><stop offset="0.36" stop-color="#313131"/><stop offset="0.51" stop-color="#575757"/><stop offset="0.68" stop-color="#888"/><stop offset="0.84" stop-color="#c2c2c2"/><stop offset="1" stop-color="#fff"/></linearGradient><linearGradient id="linear-gradient-11" x1="53.12" y1="43.87" x2="53.12" y2="4.33" xlink:href="#linear-gradient-10"/><linearGradient id="linear-gradient-12" x1="58.27" y1="39.68" x2="58.27" y2="0.28" xlink:href="#linear-gradient-10"/><filter id="luminosity-noclip-10" x="3" y="28.75" width="28.4" height="43.91" filterUnits="userSpaceOnUse" color-interpolation-filters="sRGB"><feFlood flood-color="#fff" result="bg"/><feBlend in="SourceGraphic" in2="bg"/></filter><mask id="mask-10" x="3" y="28.75" width="28.4" height="43.91" maskUnits="userSpaceOnUse"><g class="cls-9"><path class="cls-10" d="M18.88,72.66A33.08,33.08,0,0,1,6.94,28.75L31.4,47.23a55.63,55.63,0,0,1-7.55,18.66A57.77,57.77,0,0,1,18.88,72.66Z"/></g></mask><linearGradient id="linear-gradient-13" x1="0.11" y1="35.59" x2="28.03" y2="63.51" gradientUnits="userSpaceOnUse"><stop offset="0" stop-color="#fff"/><stop offset="0.11" stop-color="#cbcbcb"/><stop offset="0.24" stop-color="#969696"/><stop offset="0.37" stop-color="#686868"/><stop offset="0.5" stop-color="#434343"/><stop offset="0.63" stop-color="#252525"/><stop offset="0.75" stop-color="#111"/><stop offset="0.88" stop-color="#040404"/><stop offset="1"/></linearGradient><filter id="luminosity-noclip-11" x="6" y="33.38" width="22.06" height="35.27" filterUnits="userSpaceOnUse" color-interpolation-filters="sRGB"><feFlood flood-color="#fff" result="bg"/><feBlend in="SourceGraphic" in2="bg"/></filter><mask id="mask-11" x="6" y="33.38" width="22.06" height="35.27" maskUnits="userSpaceOnUse"><g class="cls-11"><path class="cls-12" d="M18.27,68.65A30.1,30.1,0,0,1,8.09,33.38l20,15.09A53.34,53.34,0,0,1,21.31,64.3,52.84,52.84,0,0,1,18.27,68.65Z"/></g></mask><linearGradient id="linear-gradient-14" x1="2.91" y1="38.56" x2="25.64" y2="61.28" xlink:href="#linear-gradient-13"/><linearGradient id="linear-gradient-15" x1="34.47" y1="30.34" x2="45.06" y2="40.93" gradientUnits="userSpaceOnUse"><stop offset="0" stop-color="#fff"/><stop offset="0.16" stop-color="#c2c2c2"/><stop offset="0.32" stop-color="#888"/><stop offset="0.49" stop-color="#575757"/><stop offset="0.64" stop-color="#313131"/><stop offset="0.78" stop-color="#161616"/><stop offset="0.9" stop-color="#060606"/><stop offset="1"/></linearGradient><filter id="luminosity-noclip-12" x="38.53" y="33.67" width="4.82" height="4.17" filterUnits="userSpaceOnUse" color-interpolation-filters="sRGB"><feFlood flood-color="#fff" result="bg"/><feBlend in="SourceGraphic" in2="bg"/></filter><mask id="mask-12" x="38.53" y="33.67" width="4.82" height="4.17" maskUnits="userSpaceOnUse"><g class="cls-3"><path class="cls-4" d="M43.16,34.51c.52.93-.06,2.24-1.28,2.92s-2.64.49-3.16-.44.06-2.23,1.28-2.92S42.64,33.59,43.16,34.51Z"/></g></mask><linearGradient id="linear-gradient-16" x1="38.61" y1="34.08" x2="39.52" y2="37.3" gradientTransform="translate(-10.79 23.46) rotate(-29.22)" gradientUnits="userSpaceOnUse"><stop offset="0" stop-color="#fff"/><stop offset="0.09" stop-color="#f7f7f7"/><stop offset="0.22" stop-color="#e0e0e0"/><stop offset="0.39" stop-color="#bababa"/><stop offset="0.58" stop-color="#868686"/><stop offset="0.8" stop-color="#444"/><stop offset="1"/></linearGradient></defs><title>Asset 4</title><g class="cls-13"><g id="Layer_2" data-name="Layer 2"><g id="Layer_1-2" data-name="Layer 1"><path class="cls-14" d="M37.25,19.36v3.87a17.38,17.38,0,0,1,17.53,17.3h3.88A21.25,21.25,0,0,0,37.25,19.36Z"/><path class="cls-14" d="M37.25,9.68v3.87a27,27,0,0,1,27.21,27h3.87A30.92,30.92,0,0,0,37.25,9.68Z"/><path class="cls-14" d="M66.12,11.89A40.5,40.5,0,0,0,37.25,0V3.87A36.74,36.74,0,0,1,74.14,40.53H78A40.53,40.53,0,0,0,66.12,11.89Z"/><g class="cls-15"><g class="cls-16"><path class="cls-17" d="M37.25,19.36v3.87a17.35,17.35,0,0,1,16.1,10.49A24.63,24.63,0,0,0,56,30.36a21.76,21.76,0,0,0-3.59-4.78A21.24,21.24,0,0,0,37.25,19.36Z"/></g></g><g class="cls-15"><g class="cls-18"><path class="cls-19" d="M37.25,9.68v3.87a27,27,0,0,1,21.8,10.82,32.34,32.34,0,0,0,1.29-4.52c-.34-.37-.7-.75-1.06-1.11A30.9,30.9,0,0,0,37.25,9.68Z"/></g></g><g class="cls-15"><g class="cls-20"><path class="cls-21" d="M37.25,0V3.87A36.66,36.66,0,0,1,61,12.49a33,33,0,0,0-.46-5.22A40.62,40.62,0,0,0,37.25,0Z"/></g></g><path class="cls-22" d="M56.47,39.34a.88.88,0,0,1-.87-.8A18,18,0,0,0,39,22.08a.89.89,0,0,1-.83-.89v-.87a.91.91,0,0,1,.27-.64.89.89,0,0,1,.66-.23A20.63,20.63,0,0,1,58.23,38.36a.89.89,0,0,1-.9,1Z"/><path class="cls-23" d="M66.28,39.25a.91.91,0,0,1-.9-.85A27.68,27.68,0,0,0,39.05,12.3a.86.86,0,0,1-.83-.87v-.86a.9.9,0,0,1,.28-.65.88.88,0,0,1,.66-.25A30.32,30.32,0,0,1,68,38.3a.87.87,0,0,1-.24.67.9.9,0,0,1-.65.28Z"/><path class="cls-24" d="M76.28,39.6a.89.89,0,0,1-.9-.86A37.34,37.34,0,0,0,39.39,3a.91.91,0,0,1-.87-.9V1.21a.87.87,0,0,1,.27-.63.89.89,0,0,1,.64-.25A40,40,0,0,1,78,38.66a.88.88,0,0,1-.25.66.9.9,0,0,1-.65.28Z"/><path class="cls-14" d="M34.43,83A35.8,35.8,0,0,1,17,78.51L13,114.2h25.9L35.43,83Z"/><path class="cls-14" d="M41.1,43.07a5.4,5.4,0,0,0,1.34.1,5.24,5.24,0,1,0-5.59-4.87,5.14,5.14,0,0,0,.76,2.33l-3.44,4.94L6.1,24.35A36.06,36.06,0,0,0,63.55,67.77l-26-19.63Z"/><g class="cls-25"><path class="cls-26" d="M18.88,72.66A33.08,33.08,0,0,1,6.94,28.75L31.4,47.23a55.63,55.63,0,0,1-7.55,18.66A57.77,57.77,0,0,1,18.88,72.66Z"/></g><g class="cls-27"><path class="cls-28" d="M18.27,68.65A30.1,30.1,0,0,1,8.09,33.38l20,15.09A53.34,53.34,0,0,1,21.31,64.3,52.84,52.84,0,0,1,18.27,68.65Z"/></g><g class="cls-29"><path class="cls-30" d="M46,34.64v-.12a5.23,5.23,0,0,0-9.18,3.78,5.14,5.14,0,0,0,.76,2.33l-.1.14a8.51,8.51,0,0,0,.88,0C42.61,40.81,46,38.05,46,34.64Z"/></g><g class="cls-31"><g class="cls-32"><path class="cls-33" d="M43.16,34.51c.52.93-.06,2.24-1.28,2.92s-2.64.49-3.16-.44.06-2.23,1.28-2.92S42.64,33.59,43.16,34.51Z"/></g></g></g></g></g></svg>