<svg xmlns="http://www.w3.org/2000/svg" width="16.969" height="15.714" viewBox="0 0 16.969 15.714">
  <g id="Group_32002" data-name="Group 32002" transform="matrix(-0.616, -0.788, 0.788, -0.616, 656.651, 2456.997)">
    <path id="Path_5891" data-name="Path 5891" d="M2330.767,1003.03h3.314a8.411,8.411,0,0,1,1.835-4.985c1.863-2.219-1.616-6.957-5.286-4.93s-1.178,6.053-.576,6.628.576,2.273.576,2.273Z" transform="translate(-3.531 -3.213)" fill="#a45211"/>
    <path id="Path_5890" data-name="Path 5890" d="M106.079,10.766a.272.272,0,0,0,.272-.272v-.15a6.467,6.467,0,0,1,1.312-3.914,3.965,3.965,0,0,0,.822-2.394A4.009,4.009,0,0,0,104.543,0h-.057a4,4,0,0,0-4,4,3.962,3.962,0,0,0,.83,2.44,6.441,6.441,0,0,1,1.3,3.92v.134a.272.272,0,0,0,.272.272h.174v1.1a1.715,1.715,0,1,0,1.419,2.928,1.715,1.715,0,1,0,1.419-2.928v-1.1h.175Zm-4.333-4.658A3.456,3.456,0,0,1,104.486.544h.05a3.464,3.464,0,0,1,3.407,3.487,3.425,3.425,0,0,1-.71,2.068,7.01,7.01,0,0,0-1.423,4.123h-2.646A6.976,6.976,0,0,0,101.747,6.108Zm3.7,6.214a.28.28,0,0,0,.2.077h.041a1.171,1.171,0,1,1-.972,1.825.272.272,0,0,0-.225-.12h0a.272.272,0,0,0-.225.12,1.171,1.171,0,1,1-.972-1.825h.044a.272.272,0,0,0,.278-.272V10.766h1.751v1.361A.273.273,0,0,0,105.444,12.322Z" transform="translate(2224.514 989.437)" fill="#333"/>
  </g>
</svg>
