<svg width="56" height="56" viewBox="0 0 56 56" fill="none" xmlns="http://www.w3.org/2000/svg">
<g filter="url(#filter0_d_205_355)">
<circle cx="28" cy="27" r="20" fill="white"/>
</g>
<path d="M39.3575 35.3708L37.8191 21.7428C37.6484 20.2304 36.2245 19 34.6446 19H33.2451C32.3095 17.1112 30.3132 15.8 27.9996 15.8C25.686 15.8 23.6897 17.1112 22.7541 19H21.3542C19.7747 19 18.3508 20.2304 18.1801 21.7424L16.6421 35.3704C16.5576 36.1196 16.7867 36.8284 17.288 37.366C17.7881 37.904 18.495 38.2 19.2774 38.2H36.7218C37.5042 38.2 38.2111 37.904 38.7116 37.3664C39.2125 36.8284 39.442 36.12 39.3575 35.3708ZM27.9996 16.6C29.8395 16.6 31.4454 17.5676 32.3091 19H23.6901C24.5534 17.5676 26.1597 16.6 27.9996 16.6ZM38.0933 36.8321C37.752 37.1985 37.2654 37.4 36.7218 37.4H19.2774C18.7339 37.4 18.2468 37.1985 17.9059 36.8321C17.5651 36.4657 17.4091 35.9772 17.4676 35.4573L19.006 21.8292C19.1299 20.7292 20.2053 19.8 21.3542 19.8H22.4299C22.304 20.2056 22.2292 20.6304 22.2024 21.0684C21.7113 21.2296 21.3546 21.6732 21.3546 22.2C21.3546 22.8616 21.9136 23.4 22.6001 23.4C23.2871 23.4 23.8461 22.8616 23.8461 22.2C23.8461 21.6852 23.5065 21.2488 23.032 21.0784C23.0629 20.6328 23.1571 20.2044 23.3062 19.8H32.6922C32.8417 20.2048 32.9351 20.6328 32.966 21.0788C32.4919 21.2488 32.1523 21.6852 32.1523 22.2C32.1523 22.8616 32.7113 23.4 33.3983 23.4C34.0848 23.4 34.6438 22.8616 34.6438 22.2C34.6438 21.6732 34.2871 21.2292 33.796 21.0684C33.7688 20.6304 33.6944 20.2056 33.5685 19.8H34.6438C35.7927 19.8 36.868 20.7292 36.9924 21.8292L38.5308 35.4573C38.5901 35.9772 38.4345 36.4657 38.0933 36.8321ZM22.6001 21.8C22.8293 21.8 23.0157 21.9792 23.0157 22.2C23.0157 22.4208 22.8293 22.6 22.6001 22.6C22.3714 22.6 22.1849 22.4208 22.1849 22.2C22.1849 21.9792 22.3714 21.8 22.6001 21.8ZM33.3991 21.8C33.6278 21.8 33.8143 21.9792 33.8143 22.2C33.8143 22.4208 33.6278 22.6 33.3991 22.6C33.1699 22.6 32.9835 22.4208 32.9835 22.2C32.9835 21.9792 33.1699 21.8 33.3991 21.8ZM27.9996 23.8C24.5644 23.8 21.7694 26.4916 21.7694 29.8C21.7694 33.1084 24.5644 35.8 27.9996 35.8C31.4349 35.8 34.2294 33.1084 34.2294 29.8C34.2294 26.4916 31.4349 23.8 27.9996 23.8ZM27.9996 35C25.0222 35 22.6001 32.6672 22.6001 29.8C22.6001 26.9328 25.0222 24.6 27.9996 24.6C30.9766 24.6 33.3991 26.9328 33.3991 29.8C33.3991 32.6672 30.9766 35 27.9996 35ZM31.185 27.5028C31.3552 27.6504 31.369 27.9036 31.2155 28.0676L27.4776 32.0676C27.4012 32.1492 27.2935 32.1968 27.1798 32.2C27.1761 32.2 27.1725 32.2 27.1692 32.2C27.0591 32.2 26.9535 32.158 26.8755 32.0828L24.3836 29.6828C24.2211 29.5264 24.2211 29.2736 24.3836 29.1172C24.5457 28.9608 24.8085 28.9608 24.971 29.1172L27.1534 31.2192L30.5984 27.5324C30.7511 27.368 31.0144 27.3552 31.185 27.5028Z" fill="#FFB300"/>
<defs>
<filter id="filter0_d_205_355" x="0" y="0" width="56" height="56" filterUnits="userSpaceOnUse" color-interpolation-filters="sRGB">
<feFlood flood-opacity="0" result="BackgroundImageFix"/>
<feColorMatrix in="SourceAlpha" type="matrix" values="0 0 0 0 0 0 0 0 0 0 0 0 0 0 0 0 0 0 127 0" result="hardAlpha"/>
<feOffset dy="1"/>
<feGaussianBlur stdDeviation="4"/>
<feComposite in2="hardAlpha" operator="out"/>
<feColorMatrix type="matrix" values="0 0 0 0 0 0 0 0 0 0 0 0 0 0 0 0 0 0 0.15 0"/>
<feBlend mode="normal" in2="BackgroundImageFix" result="effect1_dropShadow_205_355"/>
<feBlend mode="normal" in="SourceGraphic" in2="effect1_dropShadow_205_355" result="shape"/>
</filter>
</defs>
</svg>
