<svg width="20" height="20" viewBox="0 0 20 20" fill="none" xmlns="http://www.w3.org/2000/svg">
<circle cx="10" cy="10" r="10" fill="url(#paint0_linear_102_502)"/>
<circle cx="10.7275" cy="10.7266" r="5" fill="white"/>
<path d="M15.3029 9.99863L15.972 8.84227C16.0524 8.70314 16.0743 8.53777 16.0328 8.38252C15.9913 8.22728 15.8899 8.09486 15.7508 8.01439L14.5932 7.3453V6.01196C14.5932 5.85123 14.5293 5.69707 14.4157 5.58341C14.302 5.46975 14.1479 5.4059 13.9871 5.4059H12.6544L11.9859 4.24893C11.9052 4.11009 11.773 4.00863 11.618 3.96651C11.5412 3.94567 11.4609 3.9403 11.382 3.9507C11.303 3.9611 11.2269 3.98708 11.158 4.02711L10.0005 4.6962L8.84289 4.02651C8.70369 3.94614 8.53827 3.92436 8.38301 3.96596C8.22776 4.00756 8.09538 4.10913 8.01501 4.24833L7.34592 5.4059H6.01319C5.85246 5.4059 5.6983 5.46975 5.58464 5.58341C5.47098 5.69707 5.40713 5.85123 5.40713 6.01196V7.34469L4.24956 8.01378C4.18048 8.05351 4.11994 8.1065 4.07141 8.1697C4.02288 8.2329 3.98732 8.30506 3.96676 8.38205C3.94621 8.45903 3.94106 8.53932 3.95163 8.6183C3.9622 8.69728 3.98827 8.77339 4.02834 8.84227L4.69743 9.99863L4.02834 11.155C3.94834 11.2942 3.92663 11.4595 3.96796 11.6147C4.00928 11.7699 4.11029 11.9024 4.24895 11.9835L5.40653 12.6526V13.9853C5.40653 14.146 5.47038 14.3002 5.58404 14.4138C5.6977 14.5275 5.85185 14.5914 6.01259 14.5914H7.34592L8.01501 15.7489C8.06867 15.8407 8.14528 15.9168 8.2373 15.97C8.32933 16.0231 8.4336 16.0514 8.53986 16.052C8.64531 16.052 8.75016 16.0241 8.8435 15.9701L9.99986 15.3011L11.1574 15.9701C11.2966 16.0504 11.4619 16.0722 11.6171 16.0307C11.7723 15.9892 11.9047 15.8879 11.9853 15.7489L12.6538 14.5914H13.9865C14.1473 14.5914 14.3014 14.5275 14.4151 14.4138C14.5287 14.3002 14.5926 14.146 14.5926 13.9853V12.6526L15.7502 11.9835C15.8191 11.9436 15.8795 11.8906 15.928 11.8274C15.9764 11.7642 16.0119 11.692 16.0325 11.6151C16.053 11.5381 16.0582 11.4579 16.0477 11.379C16.0372 11.3 16.0113 11.2239 15.9714 11.155L15.3029 9.99863ZM8.48471 6.96227C8.72589 6.96235 8.95717 7.05823 9.12766 7.22883C9.29814 7.39944 9.39388 7.63078 9.3938 7.87196C9.39372 8.11315 9.29783 8.34442 9.12723 8.51491C8.95663 8.6854 8.72529 8.78113 8.4841 8.78105C8.24292 8.78097 8.01164 8.68508 7.84115 8.51448C7.67066 8.34388 7.57493 8.11254 7.57501 7.87136C7.57509 7.63017 7.67098 7.39889 7.84158 7.22841C8.01218 7.05792 8.24352 6.96218 8.48471 6.96227ZM8.66653 12.7804L7.69683 12.0538L11.3332 7.2053L12.3029 7.93196L8.66653 12.7804ZM11.515 13.0229C11.3956 13.0228 11.2773 12.9993 11.167 12.9535C11.0567 12.9078 10.9565 12.8408 10.8721 12.7563C10.7876 12.6718 10.7207 12.5716 10.675 12.4612C10.6294 12.3509 10.6059 12.2326 10.6059 12.1132C10.606 11.9938 10.6295 11.8755 10.6753 11.7652C10.721 11.6549 10.788 11.5546 10.8725 11.4702C10.957 11.3858 11.0572 11.3189 11.1676 11.2732C11.2779 11.2275 11.3962 11.204 11.5156 11.2041C11.7568 11.2042 11.9881 11.3001 12.1586 11.4707C12.3291 11.6413 12.4248 11.8726 12.4247 12.1138C12.4246 12.355 12.3287 12.5862 12.1581 12.7567C11.9875 12.9272 11.7562 13.023 11.515 13.0229Z" fill="#FFB300"/>
<defs>
<linearGradient id="paint0_linear_102_502" x1="-2.23519e-07" y1="10" x2="20" y2="10" gradientUnits="userSpaceOnUse">
<stop stop-color="#FFE8C5"/>
<stop offset="1" stop-color="#FFF8EE"/>
</linearGradient>
</defs>
</svg>
