<svg xmlns="http://www.w3.org/2000/svg" width="24" height="23.999" viewBox="0 0 24 23.999">
  <path id="offer-svgrepo-com" d="M24.523,14.012l1.326-2.292a1.2,1.2,0,0,0-.439-1.641L23.116,8.752V6.109a1.2,1.2,0,0,0-1.2-1.2H19.273L17.948,2.614a1.211,1.211,0,0,0-.729-.56,1.193,1.193,0,0,0-.912.12L14.012,3.5,11.717,2.173a1.2,1.2,0,0,0-1.641.44L8.75,4.907H6.108a1.2,1.2,0,0,0-1.2,1.2V8.751L2.612,10.077a1.2,1.2,0,0,0-.439,1.642L3.5,14.012,2.173,16.3a1.206,1.206,0,0,0,.437,1.642l2.295,1.326v2.642a1.2,1.2,0,0,0,1.2,1.2H8.75l1.326,2.295a1.2,1.2,0,0,0,1.642.439l2.292-1.326,2.295,1.326a1.2,1.2,0,0,0,1.641-.439l1.325-2.295h2.642a1.2,1.2,0,0,0,1.2-1.2V19.272l2.295-1.326a1.2,1.2,0,0,0,.439-1.642ZM11.007,7.993a1.8,1.8,0,1,1-1.8,1.8,1.8,1.8,0,0,1,1.8-1.8Zm.36,11.533-1.922-1.44,7.208-9.611,1.922,1.44Zm5.647.481a1.8,1.8,0,1,1,1.8-1.8,1.8,1.8,0,0,1-1.8,1.8Z" transform="translate(-2.011 -2.012)" fill="#ffb300"/>
</svg>
