<svg xmlns="http://www.w3.org/2000/svg" width="15" height="15" viewBox="0 0 15 15">
  <path id="offer-svgrepo-com" d="M16.081,9.512l.829-1.433a.751.751,0,0,0-.274-1.026L15.2,6.224V4.572a.751.751,0,0,0-.751-.751H12.8l-.828-1.433a.757.757,0,0,0-.456-.35.746.746,0,0,0-.57.075l-1.434.829-1.434-.83a.751.751,0,0,0-1.026.275L6.223,3.822H4.571a.751.751,0,0,0-.751.751V6.224l-1.434.829a.749.749,0,0,0-.274,1.026l.829,1.433-.829,1.433a.754.754,0,0,0,.273,1.026L3.82,12.8v1.651a.751.751,0,0,0,.751.751H6.223l.829,1.434a.75.75,0,0,0,1.026.274l1.433-.829,1.434.829a.752.752,0,0,0,1.026-.274L12.8,15.2H14.45a.751.751,0,0,0,.751-.751V12.8l1.434-.829a.751.751,0,0,0,.274-1.026ZM7.633,5.75A1.127,1.127,0,1,1,6.506,6.876,1.127,1.127,0,0,1,7.633,5.75Zm.225,7.208-1.2-.9,4.505-6.007,1.2.9Zm3.529.3a1.127,1.127,0,1,1,1.127-1.126,1.127,1.127,0,0,1-1.127,1.126Z" transform="translate(-2.011 -2.012)" fill="#ffb300"/>
</svg>
