<svg width="64" height="17" viewBox="0 0 64 17" fill="none" xmlns="http://www.w3.org/2000/svg">
<g clip-path="url(#clip0_30_111)">
<path d="M28.955 0L27.097 3.24L29.973 14.2L32.289 16.45L33.409 13.798L30.589 0.838L28.955 0Z" fill="#BA3436"/>
<path d="M61.934 2.65198L63.008 14.052L0 15.024L1.177 2.65198H61.934Z" fill="url(#paint0_linear_30_111)"/>
<path d="M57.779 0.327001L56.668 16.817L32.288 16.453L28.955 0L57.779 0.327001Z" fill="url(#paint1_linear_30_111)"/>
<path d="M23.763 1.91392C23.7772 1.91451 23.7912 1.91231 23.8045 1.90746C23.8178 1.9026 23.83 1.89518 23.8404 1.88561C23.8508 1.87605 23.8592 1.86453 23.8651 1.85171C23.8711 1.8389 23.8744 1.82503 23.875 1.81092C23.8756 1.7968 23.8734 1.78271 23.8686 1.76944C23.8637 1.75617 23.8563 1.74399 23.8467 1.73359C23.8372 1.72319 23.8257 1.71477 23.8128 1.70882C23.8 1.70287 23.7862 1.69951 23.772 1.69892L4.68705 1.64292C4.67293 1.64233 4.65881 1.64452 4.64554 1.64938C4.63227 1.65423 4.62011 1.66166 4.60971 1.67122C4.59931 1.68079 4.59088 1.6923 4.58493 1.70512C4.57899 1.71794 4.57564 1.7318 4.57505 1.74592C4.57446 1.76003 4.57663 1.77413 4.58149 1.7874C4.58634 1.80067 4.59377 1.81285 4.60334 1.82325C4.6129 1.83365 4.62442 1.84206 4.63724 1.84801C4.65006 1.85396 4.66393 1.85733 4.67804 1.85792L23.763 1.91392Z" fill="#FECE02"/>
<path d="M14.193 1.00904C14.2203 1.00777 14.2464 0.997143 14.2668 0.97893C14.2872 0.960718 14.3007 0.936036 14.305 0.909037C14.3052 0.881299 14.295 0.854489 14.2766 0.833798C14.2581 0.813108 14.2326 0.800009 14.205 0.797037L2.91303 0.738037C2.88571 0.7393 2.85963 0.749931 2.83924 0.768144C2.81884 0.786356 2.80536 0.811037 2.80103 0.838037C2.80087 0.865774 2.811 0.892584 2.82947 0.913275C2.84794 0.933966 2.87342 0.947066 2.901 0.950037L14.19 1.00604L14.193 1.00904Z" fill="#FECE02"/>
<path d="M13.275 15.846L29.625 15.575C29.6389 15.5743 29.6526 15.5708 29.6651 15.5647C29.6777 15.5587 29.6889 15.5502 29.6982 15.5398C29.7075 15.5294 29.7147 15.5172 29.7193 15.5041C29.7239 15.4909 29.7258 15.477 29.725 15.463C29.722 15.4355 29.7089 15.41 29.6882 15.3915C29.6675 15.373 29.6407 15.3629 29.613 15.363L13.273 15.634C13.259 15.6348 13.2454 15.6383 13.2328 15.6443C13.2203 15.6504 13.209 15.6589 13.1997 15.6693C13.1904 15.6797 13.1833 15.6918 13.1787 15.705C13.1741 15.7182 13.1722 15.7321 13.173 15.746C13.173 15.7593 13.1756 15.7725 13.1808 15.7848C13.1859 15.797 13.1935 15.8081 13.203 15.8175C13.2125 15.8268 13.2237 15.8341 13.2361 15.839C13.2485 15.8439 13.2617 15.8463 13.275 15.846Z" fill="#FECE02"/>
<path d="M9.43103 16.863L21.531 16.704C21.5595 16.7028 21.5864 16.6903 21.6057 16.6693C21.625 16.6483 21.6352 16.6205 21.634 16.592C21.6328 16.5635 21.6204 16.5366 21.5994 16.5173C21.5784 16.498 21.5505 16.4878 21.522 16.489L9.42202 16.648C9.4081 16.6487 9.39446 16.6523 9.38189 16.6583C9.36932 16.6644 9.35804 16.6728 9.34875 16.6832C9.33946 16.6936 9.33234 16.7058 9.32775 16.719C9.32316 16.7321 9.32121 16.7461 9.32202 16.76C9.32561 16.7871 9.33839 16.8121 9.35824 16.8308C9.37809 16.8496 9.4038 16.8609 9.43103 16.863Z" fill="#FECE02"/>
<path d="M4.92969 10.505L25.9297 7.505" stroke="#EA0000" stroke-width="0.5" stroke-linecap="round"/>
</g>
<defs>
<linearGradient id="paint0_linear_30_111" x1="18.1463" y1="8.83798" x2="57.7153" y2="8.83798" gradientUnits="userSpaceOnUse">
<stop stop-color="#FDC903"/>
<stop offset="1" stop-color="#FDEEA9"/>
</linearGradient>
<linearGradient id="paint1_linear_30_111" x1="32.3274" y1="8.4085" x2="54.8111" y2="12.979" gradientUnits="userSpaceOnUse">
<stop stop-color="#EC0722"/>
<stop offset="1" stop-color="#F36261"/>
</linearGradient>
<clipPath id="clip0_30_111">
<rect width="63.008" height="16.863" fill="white"/>
</clipPath>
</defs>
</svg>
