<svg xmlns="http://www.w3.org/2000/svg" width="10" height="10" viewBox="0 0 10 10">
  <path id="Icon_awesome-pencil-alt" data-name="Icon awesome-pencil-alt" d="M9.726,2.779l-.9.9a.235.235,0,0,1-.332,0L6.326,1.512a.235.235,0,0,1,0-.332l.9-.9a.94.94,0,0,1,1.326,0L9.726,1.453A.936.936,0,0,1,9.726,2.779ZM5.552,1.953.423,7.082.009,9.455A.469.469,0,0,0,.552,10l2.373-.416L8.054,4.453a.235.235,0,0,0,0-.332L5.886,1.953a.237.237,0,0,0-.334,0ZM2.425,6.643a.272.272,0,0,1,0-.387L5.433,3.248a.273.273,0,0,1,.387.387L2.812,6.643a.272.272,0,0,1-.387,0ZM1.72,8.285h.938v.709L1.4,9.215.79,8.608l.221-1.26H1.72Z" transform="translate(-0.002 -0.005)" fill="#2f3443"/>
</svg>
