<svg width="16" height="16" viewBox="0 0 16 16" fill="none" xmlns="http://www.w3.org/2000/svg">
<path fill-rule="evenodd" clip-rule="evenodd" d="M14.5399 10.7643C13.2029 10.9451 10.9742 11.8406 10.9742 11.8406L10.9743 11.8404C10.903 11.866 10.8452 11.9193 10.8139 11.9882C10.7827 12.0571 10.7807 12.1358 10.8086 12.2062C10.8364 12.2765 10.8915 12.3327 10.9615 12.3617C11.0313 12.3907 11.1101 12.39 11.1795 12.36C11.1795 12.36 13.4482 11.4766 14.6156 11.3187C14.6246 11.3175 14.6625 11.325 14.7323 11.4058C14.8022 11.4876 14.8716 11.6218 14.9059 11.7234C14.9343 11.8073 14.9528 11.9249 14.9461 12.0138C14.9394 12.1025 14.9121 12.1446 14.8981 12.1558C14.6624 12.3425 14.1088 12.6114 13.6341 12.8096C13.1596 13.0077 12.7566 13.149 12.7566 13.149L12.7565 13.1491C12.7499 13.1517 12.7434 13.1545 12.7369 13.1576C12.7369 13.1576 10.6828 14.0501 9.67526 14.2774C9.01053 14.4273 8.32358 14.5019 7.6516 14.4684C6.06415 14.3891 2.79675 13.5143 2.79675 13.5143H2.79687C2.72465 13.4926 2.64668 13.501 2.5807 13.5377C2.51483 13.5742 2.46644 13.636 2.44673 13.7088C2.42689 13.7815 2.4375 13.8592 2.47579 13.9242C2.51421 13.9891 2.57733 14.0358 2.65055 14.0536C2.65055 14.0536 5.87712 14.939 7.62452 15.0261C8.3565 15.0626 9.09234 14.9813 9.79874 14.822C10.9384 14.5648 12.9172 13.6881 12.9422 13.677L12.9618 13.6685C12.9791 13.6622 13.3687 13.5253 13.8492 13.3247C14.3403 13.1197 14.8982 12.8693 15.2452 12.5945C15.4263 12.4511 15.4889 12.2405 15.5028 12.0564C15.5167 11.8724 15.4865 11.6966 15.435 11.5444C15.3796 11.3814 15.2916 11.2013 15.1567 11.0435C15.0219 10.8857 14.8081 10.7277 14.54 10.764L14.5399 10.7643Z" fill="#2F3443"/>
<path fill-rule="evenodd" clip-rule="evenodd" d="M2.53899 9.01782L0.896297 9.055H0.896422C0.744738 9.05886 0.623739 9.18273 0.623489 9.33441V10.3801L0.500121 14.5867C0.497875 14.6633 0.527065 14.7374 0.580951 14.7919C0.634714 14.8463 0.70856 14.8764 0.785025 14.875L2.61322 14.8378C2.76665 14.8346 2.88877 14.7085 2.88727 14.555L2.82503 9.29398C2.82403 9.21939 2.79322 9.14828 2.73958 9.09639C2.68582 9.0445 2.61372 9.01631 2.539 9.01793L2.53899 9.01782ZM2.26943 9.58327L2.32419 14.2832L1.06792 14.3094L1.18256 10.3922V10.3923V10.3838V9.60778L2.26943 9.58327Z" fill="#2F3443"/>
<path fill-rule="evenodd" clip-rule="evenodd" d="M5.16198 9.33014C4.70791 9.30083 4.1007 9.37343 3.58912 9.44902C3.07755 9.52461 2.66791 9.60719 2.66791 9.60719V9.60731C2.51735 9.63837 2.42017 9.78532 2.45048 9.93613C2.48079 10.0868 2.62724 10.1847 2.77818 10.1552C2.77818 10.1552 3.17375 10.0745 3.66996 10.0012C4.16605 9.9279 4.76978 9.86478 5.12594 9.88786C5.56777 9.91642 6.01682 10.0424 6.44782 10.2142C6.92846 10.4058 7.37514 10.9468 8.08391 11.1386C8.50527 11.2526 8.91354 11.1913 9.28129 11.1471C9.64903 11.1021 9.9746 11.0731 10.245 11.1598C10.4888 11.2382 10.6769 11.363 10.7754 11.5451C10.844 11.6719 10.8468 11.9059 10.7833 12.0833C10.7447 12.1906 10.6854 12.3087 10.6206 12.3911C10.5559 12.4735 10.4945 12.5128 10.4481 12.5221C9.98344 12.6148 9.11114 12.6153 8.37977 12.5831C7.64843 12.5511 7.04706 12.4926 7.04706 12.4926V12.4923C6.89363 12.4781 6.75766 12.5906 6.74282 12.7439C6.7281 12.8972 6.84012 13.0337 6.99342 13.049C6.99342 13.049 7.60814 13.1079 8.35558 13.1407C9.10301 13.1734 9.97196 13.1865 10.5571 13.0697C10.7795 13.0253 10.9437 12.8841 11.0603 12.7357C11.1769 12.5872 11.255 12.4236 11.3092 12.2729C11.4181 11.9697 11.442 11.602 11.2678 11.2797C11.0793 10.9316 10.7456 10.7342 10.4153 10.6281C9.99604 10.4933 9.58515 10.5465 9.21354 10.5919C8.84193 10.6373 8.508 10.6747 8.23008 10.6004C7.75022 10.4705 7.31848 9.96097 6.65512 9.69663C6.18822 9.51052 5.68441 9.36468 5.16197 9.33102L5.16198 9.33014Z" fill="#2F3443"/>
<path fill-rule="evenodd" clip-rule="evenodd" d="M5.67164 10.2078C5.61214 10.2096 5.56025 10.2489 5.54253 10.3058C5.52482 10.3627 5.54515 10.4246 5.59305 10.4599L6.44877 11.1126C6.47784 11.1381 6.51626 11.1504 6.55468 11.1465C6.59322 11.1427 6.6284 11.1231 6.65185 11.0923C6.67543 11.0616 6.68503 11.0224 6.67867 10.9843C6.67219 10.9462 6.65023 10.9124 6.61792 10.8911L5.7622 10.2373V10.2372C5.73638 10.2171 5.70432 10.2067 5.67164 10.2079L5.67164 10.2078Z" fill="#2F3443"/>
<path fill-rule="evenodd" clip-rule="evenodd" d="M4.76695 10.0449C4.70994 10.05 4.6618 10.0893 4.64546 10.1442C4.62899 10.1991 4.64783 10.2583 4.69273 10.2938L5.5976 11.0371C5.65723 11.0862 5.74542 11.0776 5.79457 11.018C5.81814 10.9893 5.82937 10.9525 5.82588 10.9155C5.82226 10.8785 5.80417 10.8446 5.77548 10.821L4.87061 10.0777C4.84192 10.0533 4.8045 10.0414 4.76695 10.0449L4.76695 10.0449Z" fill="#2F3443"/>
<path fill-rule="evenodd" clip-rule="evenodd" d="M6.86018 2.17009C6.65473 2.17059 6.50453 2.29346 6.41161 2.40585C6.31843 2.51836 6.26092 2.63762 6.21951 2.73978C6.06695 3.1165 6.02392 3.58352 6.22899 3.98518C6.35386 4.22942 6.58189 4.44659 6.91345 4.45783C9.2279 4.53592 11.2066 4.38199 13.3717 4.35966H13.389L13.4075 4.35542C13.867 4.20773 13.9422 3.86556 14.0163 3.4236C14.0577 3.17836 14.0163 2.93412 13.94 2.72579C13.9182 2.66492 13.8902 2.56188 13.8287 2.45186C13.798 2.39673 13.7576 2.33648 13.6911 2.28159C13.6246 2.22646 13.5216 2.18143 13.415 2.1823C11.1777 2.19914 9.17419 2.15797 6.8606 2.16957L6.86018 2.17009ZM6.86018 2.72893C9.14017 2.71832 11.1281 2.75749 13.3446 2.74165C13.3631 2.7797 13.387 2.84219 13.4123 2.91292C13.4998 3.15953 13.5305 3.43347 13.4637 3.61472C13.4403 3.67809 13.3562 3.76441 13.3304 3.80034C11.1558 3.82416 9.19722 3.97497 6.92994 3.89851C6.89589 3.89738 6.76628 3.81168 6.72474 3.73036C6.62271 3.53102 6.63368 3.19783 6.73485 2.94885C6.76229 2.88099 6.80445 2.80352 6.83963 2.76111C6.87481 2.7187 6.88204 2.72843 6.85921 2.72843L6.86018 2.72893Z" fill="#2F3443"/>
<path fill-rule="evenodd" clip-rule="evenodd" d="M13.3731 4.14673L12.8208 4.23517C12.8208 4.23517 12.9135 4.81173 12.955 5.51874C12.9965 6.22578 12.9706 7.07099 12.8001 7.51072C12.7007 7.76643 12.505 8.01555 12.3461 8.05758C11.4338 8.29895 9.87584 8.26115 8.83593 8.17334C8.57908 8.15163 8.34456 8.1923 8.14824 8.20502C7.95202 8.21774 7.81207 8.2029 7.71276 8.14066C7.66074 8.1081 7.51929 7.92149 7.43334 7.74011C7.3903 7.6493 7.3555 7.56099 7.33405 7.49675C7.32457 7.46806 7.31783 7.44648 7.31446 7.43238C7.31484 7.42178 7.31446 7.4113 7.31446 7.39858C7.31496 7.37026 7.31446 7.33309 7.31446 7.28731C7.31496 7.19562 7.31471 7.07001 7.31446 6.92058C7.31446 6.6217 7.31446 6.22989 7.30885 5.83995C7.30324 5.06007 7.29825 4.28782 7.29825 4.28782L6.73941 4.29206C6.73941 4.29206 6.74552 5.06396 6.75001 5.84308C6.75001 6.23263 6.75563 6.62407 6.75563 6.92147C6.75588 7.07016 6.75613 7.1949 6.75563 7.28385C6.75538 7.32838 6.75563 7.36393 6.75563 7.38751C6.75538 7.40023 6.75563 7.40859 6.75563 7.41258C6.7555 7.41683 6.74889 7.43915 6.76124 7.38427C6.74727 7.45487 6.75563 7.47233 6.76124 7.49454C6.76685 7.51674 6.76798 7.53483 6.77184 7.55342C6.78082 7.59059 6.79193 7.62963 6.80652 7.67342C6.83558 7.76111 6.87775 7.86664 6.93088 7.97903C7.03729 8.20381 7.16702 8.45653 7.41985 8.61422C7.67382 8.77264 7.95087 8.77726 8.18613 8.76266C8.42139 8.74782 8.63371 8.71638 8.79187 8.72998C9.86066 8.82041 11.4227 8.88079 12.492 8.598C12.9531 8.47613 13.1907 8.05488 13.3238 7.71284C13.566 7.08975 13.5592 6.22381 13.5159 5.48621C13.4723 4.74861 13.3762 4.14698 13.3762 4.14698L13.3731 4.14673Z" fill="#2F3443"/>
<path fill-rule="evenodd" clip-rule="evenodd" d="M10.5582 4.12158L10.4348 8.56705L10.9925 8.58189L11.1169 4.13643L10.5582 4.12158Z" fill="#2F3443"/>
<path fill-rule="evenodd" clip-rule="evenodd" d="M9.16226 4.20459L9.00185 8.42876L9.56068 8.44984L9.7211 4.22695L9.16226 4.20459Z" fill="#2F3443"/>
<path fill-rule="evenodd" clip-rule="evenodd" d="M10.9164 2.4613L10.8422 4.09202L11.401 4.11709L11.4741 2.48749L10.9164 2.4613Z" fill="#2F3443"/>
<path fill-rule="evenodd" clip-rule="evenodd" d="M9.06397 2.44275L8.9406 4.22081L9.49832 4.2601L9.62169 2.48105L9.06397 2.44275Z" fill="#2F3443"/>
<path fill-rule="evenodd" clip-rule="evenodd" d="M9.0882 0.81328C8.69015 0.770993 8.29858 0.93752 8.03714 1.22481C7.84117 1.44011 7.75535 1.72964 7.80899 2.01941C7.84928 2.23583 7.96754 2.35021 8.06222 2.45489C8.15714 2.55992 8.24671 2.63613 8.24671 2.63613L8.61231 2.21375C8.61231 2.21375 8.54632 2.15612 8.47697 2.07941C8.40761 2.00269 8.3526 1.88843 8.35796 1.91787V1.91674C8.34125 1.82743 8.38703 1.67001 8.45077 1.60028C8.58237 1.45558 8.84646 1.34955 9.02918 1.36888C9.32307 1.39994 9.85233 1.71817 10.2625 2.04674C10.6726 2.3753 10.9817 2.69403 10.9817 2.69403L11.3823 2.30434C11.3823 2.30434 11.0523 1.96317 10.6117 1.61017C10.171 1.25702 9.63777 0.871326 9.08705 0.813335L9.0882 0.81328Z" fill="#2F3443"/>
<path fill-rule="evenodd" clip-rule="evenodd" d="M11.3287 0.75C10.9537 0.754241 10.6578 0.979522 10.4075 1.17462C10.1571 1.36984 9.96974 1.56319 9.96974 1.56319L10.3703 1.95287C10.3703 1.95287 10.5353 1.78372 10.7513 1.61559C10.9667 1.44769 11.2493 1.31123 11.3319 1.30998C11.433 1.3106 11.6171 1.42149 11.6856 1.53376C11.7079 1.57056 11.7113 1.71077 11.6856 1.88966C11.6799 1.92222 11.638 2.0502 11.596 2.14837C11.5536 2.24654 11.5153 2.32413 11.5153 2.32413L12.013 2.57623C12.013 2.57623 12.0594 2.48542 12.1091 2.36991C12.1588 2.2544 12.2153 2.12317 12.2378 1.97263C12.2646 1.7925 12.3303 1.51569 12.1636 1.2424C11.9919 0.960863 11.6927 0.750179 11.3318 0.750179L11.3287 0.75Z" fill="#2F3443"/>
<path fill-rule="evenodd" clip-rule="evenodd" d="M7.78056 4.92175C7.70884 4.92674 7.6527 4.98537 7.65071 5.05709L7.58958 6.39195H7.58946C7.58734 6.42937 7.60031 6.46592 7.62526 6.49374C7.65033 6.52143 7.68551 6.53802 7.72281 6.53976C7.7601 6.54139 7.79665 6.52804 7.8241 6.50271C7.85154 6.47739 7.86763 6.44209 7.86888 6.40467L7.93 5.06982H7.93012C7.93274 5.02953 7.91777 4.98998 7.88908 4.96154C7.86039 4.9331 7.82085 4.91838 7.78056 4.92125V4.92175Z" fill="#2F3443"/>
</svg>
