<svg width="67" height="84" viewBox="0 0 67 84" fill="none" xmlns="http://www.w3.org/2000/svg">
<path fill-rule="evenodd" clip-rule="evenodd" d="M56.1597 66.2595C50.8119 66.9825 41.8969 70.5645 41.8969 70.5645L41.8974 70.564C41.612 70.6663 41.381 70.8793 41.2558 71.1553C41.131 71.4307 41.123 71.7455 41.2343 72.0269C41.3456 72.3084 41.5661 72.5329 41.846 72.6492C42.1255 72.7649 42.4403 72.7624 42.7182 72.6422C42.7182 72.6422 51.7928 69.1085 56.4624 68.4769C56.4983 68.4724 56.65 68.5023 56.9294 68.8257C57.2088 69.1525 57.4863 69.6894 57.6235 70.096C57.7372 70.4313 57.8111 70.9018 57.7846 71.2576C57.7577 71.6124 57.6484 71.7805 57.5925 71.8254C56.6495 72.5724 54.4351 73.6477 52.5366 74.4405C50.6386 75.2329 49.0264 75.7982 49.0264 75.7982L49.0259 75.7987C48.9995 75.8092 48.9735 75.8202 48.9476 75.8326C48.9476 75.8326 40.7312 79.4027 36.7011 80.3118C34.0422 80.9115 31.2944 81.2099 28.6065 81.0757C22.2567 80.7588 9.18704 77.2596 9.18704 77.2596H9.18754C8.89865 77.1728 8.5868 77.2062 8.32285 77.3529C8.0594 77.4991 7.8658 77.7461 7.78696 78.0375C7.70763 78.3284 7.75004 78.6392 7.90322 78.8992C8.0569 79.1587 8.30938 79.3453 8.60227 79.4166C8.60227 79.4166 21.5085 82.9583 28.4981 83.3065C31.4261 83.4527 34.3694 83.1274 37.195 82.4902C41.7536 81.4614 49.669 77.9546 49.7689 77.9103L49.8473 77.8764C49.9166 77.8509 51.4749 77.3036 53.3969 76.5012C55.3613 75.6809 57.5927 74.6795 58.9808 73.5803C59.7053 73.0065 59.9557 72.1642 60.0111 71.4277C60.067 70.6918 59.9463 69.9887 59.7402 69.38C59.5186 68.7279 59.1664 68.0074 58.627 67.3761C58.0876 66.745 57.2324 66.1133 56.1602 66.2585L56.1597 66.2595Z" fill="#CC8906"/>
<path fill-rule="evenodd" clip-rule="evenodd" d="M8.15596 59.2734L1.58519 59.4221H1.58569C0.978951 59.4376 0.494954 59.9331 0.493958 60.5398V64.7226L0.000482368 81.549C-0.00849887 81.8554 0.108259 82.1517 0.323803 82.3698C0.538857 82.5873 0.834242 82.7076 1.1401 82.7021L8.45288 82.5534C9.0666 82.5404 9.55508 82.036 9.54909 81.4223L9.30011 60.3781C9.29612 60.0797 9.17288 59.7953 8.95832 59.5877C8.74327 59.3801 8.45487 59.2674 8.156 59.2739L8.15596 59.2734ZM7.0777 61.5352L7.29674 80.3351L2.27168 80.4399L2.73022 64.7708V64.7713V64.7373V61.6333L7.0777 61.5352Z" fill="#CC8906"/>
<path fill-rule="evenodd" clip-rule="evenodd" d="M18.6479 60.5228C16.8317 60.4056 14.4028 60.696 12.3565 60.9983C10.3102 61.3007 8.67162 61.631 8.67162 61.631V61.6315C8.06938 61.7558 7.68069 62.3435 7.80193 62.9468C7.92318 63.5496 8.50896 63.9412 9.11274 63.823C9.11274 63.823 10.695 63.5002 12.6798 63.2073C14.6642 62.9139 17.0791 62.6614 18.5037 62.7537C20.2711 62.868 22.0673 63.3719 23.7913 64.059C25.7138 64.8254 27.5006 66.9894 30.3356 67.7568C32.0211 68.2128 33.6542 67.9674 35.1251 67.7907C36.5961 67.6106 37.8984 67.4948 38.9802 67.8416C39.9551 68.155 40.7075 68.6544 41.1017 69.3829C41.3761 69.8898 41.3871 70.8259 41.1331 71.5354C40.979 71.9645 40.7414 72.4371 40.4825 72.7669C40.2235 73.0962 39.978 73.2534 39.7924 73.2908C37.9338 73.6615 34.4446 73.6635 31.5191 73.5348C28.5937 73.4065 26.1882 73.1725 26.1882 73.1725V73.1715C25.5745 73.1147 25.0306 73.5647 24.9713 74.1779C24.9124 74.7912 25.3605 75.337 25.9737 75.3984C25.9737 75.3984 28.4326 75.6339 31.4223 75.7651C34.4121 75.8959 37.8878 75.9483 40.2284 75.4812C41.1181 75.3036 41.7746 74.7388 42.2413 74.145C42.7078 73.5512 43.0201 72.8966 43.2367 72.2939C43.6723 71.0809 43.7681 69.6104 43.071 68.3211C42.3171 66.9285 40.9823 66.1391 39.6612 65.7146C37.9842 65.1757 36.3406 65.3882 34.8542 65.5699C33.3677 65.7515 32.032 65.9012 30.9203 65.6038C29.0009 65.0844 27.2739 63.0462 24.6205 61.9888C22.7529 61.2443 20.7376 60.661 18.6479 60.5264L18.6479 60.5228Z" fill="#CC8906"/>
<path fill-rule="evenodd" clip-rule="evenodd" d="M20.6865 64.033C20.4485 64.0404 20.2409 64.1976 20.1701 64.4251C20.0992 64.6527 20.1806 64.9002 20.3721 65.0414L23.795 67.6524C23.9113 67.7542 24.065 67.8036 24.2187 67.7881C24.3728 67.7726 24.5135 67.6943 24.6073 67.571C24.7017 67.4483 24.7401 67.2916 24.7146 67.1389C24.6887 66.9868 24.6009 66.8515 24.4716 66.7662L21.0487 64.1511V64.1506C20.9455 64.0703 20.8172 64.0289 20.6865 64.0334L20.6865 64.033Z" fill="#CC8906"/>
<path fill-rule="evenodd" clip-rule="evenodd" d="M17.0679 63.3816C16.8398 63.4021 16.6472 63.5592 16.5819 63.7788C16.516 63.9983 16.5914 64.2353 16.771 64.377L20.3905 67.3503C20.629 67.5469 20.9817 67.5125 21.1783 67.274C21.2726 67.1592 21.3175 67.012 21.3036 66.8638C21.2891 66.7161 21.2167 66.5804 21.102 66.4861L17.4825 63.5128C17.3678 63.415 17.2181 63.3676 17.0679 63.3816L17.0679 63.3816Z" fill="#CC8906"/>
<path fill-rule="evenodd" clip-rule="evenodd" d="M25.4407 31.8823C24.6189 31.8843 24.0181 32.3758 23.6464 32.8254C23.2737 33.2754 23.0437 33.7524 22.878 34.1611C22.2678 35.668 22.0957 37.5361 22.916 39.1427C23.4154 40.1197 24.3275 40.9883 25.6538 41.0333C34.9116 41.3456 42.8264 40.7299 51.4867 40.6406H51.5561L51.6299 40.6237C53.4682 40.0329 53.769 38.6642 54.0653 36.8964C54.231 35.9154 54.0653 34.9385 53.76 34.1051C53.6726 33.8616 53.5609 33.4495 53.3149 33.0094C53.1921 32.7889 53.0305 32.5479 52.7645 32.3283C52.4986 32.1078 52.0864 31.9277 51.6598 31.9312C42.7109 31.9985 34.6967 31.8339 25.4424 31.8803L25.4407 31.8823ZM25.4407 34.1177C34.5607 34.0753 42.5124 34.2319 51.3784 34.1686C51.4522 34.3207 51.548 34.5707 51.6493 34.8536C51.9991 35.8401 52.1218 36.9358 51.8549 37.6609C51.7611 37.9143 51.4248 38.2596 51.3215 38.4033C42.6231 38.4986 34.7889 39.1019 25.7198 38.796C25.5836 38.7915 25.0651 38.4487 24.899 38.1234C24.4908 37.326 24.5347 35.9933 24.9394 34.9974C25.0492 34.7259 25.2178 34.4161 25.3585 34.2464C25.4992 34.0768 25.5282 34.1157 25.4369 34.1157L25.4407 34.1177Z" fill="#2B9B80"/>
<path fill-rule="evenodd" clip-rule="evenodd" d="M51.4923 39.789L49.2834 40.1428C49.2834 40.1428 49.6542 42.449 49.8203 45.277C49.986 48.1052 49.8827 51.4861 49.2006 53.245C48.8029 54.2678 48.0201 55.2643 47.3843 55.4324C43.7355 56.3979 37.5035 56.2467 33.3438 55.8954C32.3165 55.8086 31.3784 55.9713 30.5931 56.0222C29.8082 56.0731 29.2484 56.0137 28.8512 55.7647C28.6431 55.6345 28.0773 54.888 27.7335 54.1625C27.5613 53.7993 27.4221 53.446 27.3363 53.1891C27.2984 53.0743 27.2714 52.988 27.258 52.9316C27.2595 52.8892 27.258 52.8473 27.258 52.7964C27.26 52.6831 27.258 52.5344 27.258 52.3513C27.26 51.9846 27.259 51.4821 27.258 50.8844C27.258 49.6889 27.258 48.1217 27.2355 46.5619C27.2131 43.4424 27.1931 40.3534 27.1931 40.3534L24.9578 40.3703C24.9578 40.3703 24.9822 43.4579 25.0002 46.5744C25.0002 48.1326 25.0226 49.6984 25.0226 50.888C25.0236 51.4827 25.0246 51.9817 25.0226 52.3375C25.0216 52.5156 25.0226 52.6578 25.0226 52.7521C25.0216 52.803 25.0226 52.8365 25.0226 52.8524C25.0221 52.8694 24.9957 52.9587 25.0451 52.7392C24.9892 53.0216 25.0226 53.0914 25.0451 53.1802C25.0675 53.2691 25.072 53.3414 25.0875 53.4158C25.1234 53.5644 25.1678 53.7206 25.2262 53.8958C25.3425 54.2465 25.5111 54.6686 25.7237 55.1182C26.1493 56.0173 26.6682 57.0282 27.6795 57.659C28.6954 58.2926 29.8036 58.3111 30.7446 58.2527C31.6857 58.1933 32.5349 58.0676 33.1676 58.122C37.4427 58.4837 43.6907 58.7252 47.9682 57.5941C49.8124 57.1066 50.7629 55.4216 51.2952 54.0534C52.2642 51.5611 52.2368 48.0973 52.0636 45.1469C51.8895 42.1965 51.5048 39.79 51.5048 39.79L51.4923 39.789Z" fill="#2B9B80"/>
<path fill-rule="evenodd" clip-rule="evenodd" d="M40.2327 39.6882L39.7393 57.4701L41.9701 57.5295L42.4676 39.7476L40.2327 39.6882Z" fill="#2B9B80"/>
<path fill-rule="evenodd" clip-rule="evenodd" d="M34.649 40.0203L34.0073 56.9169L36.2427 57.0013L36.8843 40.1097L34.649 40.0203Z" fill="#2B9B80"/>
<path fill-rule="evenodd" clip-rule="evenodd" d="M41.6655 33.0471L41.3687 39.57L43.604 39.6703L43.8964 33.1519L41.6655 33.0471Z" fill="#2B9B80"/>
<path fill-rule="evenodd" clip-rule="evenodd" d="M34.2559 32.9732L33.7625 40.0854L35.9933 40.2426L36.4868 33.1264L34.2559 32.9732Z" fill="#2B9B80"/>
<path fill-rule="evenodd" clip-rule="evenodd" d="M34.3529 26.4549C32.7607 26.2858 31.1944 26.9519 30.1487 28.101C29.3648 28.9622 29.0215 30.1204 29.2361 31.2794C29.3973 32.1451 29.8703 32.6026 30.249 33.0213C30.6287 33.4415 30.9869 33.7463 30.9869 33.7463L32.4494 32.0568C32.4494 32.0568 32.1854 31.8263 31.908 31.5194C31.6306 31.2125 31.4105 30.7555 31.432 30.8732V30.8688C31.3651 30.5115 31.5482 29.8818 31.8032 29.6029C32.3296 29.0241 33.386 28.6 34.1168 28.6773C35.2924 28.8016 37.4094 30.0745 39.0501 31.3887C40.6907 32.703 41.927 33.9779 41.927 33.9779L43.5292 32.4192C43.5292 32.4192 42.2094 31.0544 40.4471 29.6425C38.6842 28.2299 36.5512 26.6871 34.3483 26.4551L34.3529 26.4549Z" fill="#2B9B80"/>
<path fill-rule="evenodd" clip-rule="evenodd" d="M43.3146 26.202C41.8148 26.219 40.6312 27.1201 39.6298 27.9005C38.6283 28.6814 37.8789 29.4548 37.8789 29.4548L39.4811 31.0135C39.4811 31.0135 40.1412 30.3369 41.0049 29.6644C41.8666 28.9928 42.9973 28.4469 43.3277 28.4419C43.7318 28.4444 44.4683 28.888 44.7422 29.3371C44.8315 29.4843 44.845 30.0451 44.7422 30.7607C44.7197 30.8909 44.5521 31.4028 44.3839 31.7955C44.2143 32.1882 44.0611 32.4985 44.0611 32.4985L46.052 33.5069C46.052 33.5069 46.2376 33.1437 46.4362 32.6817C46.6353 32.2196 46.8613 31.6947 46.9511 31.0925C47.0584 30.372 47.3213 29.2648 46.6542 28.1716C45.9676 27.0455 44.7706 26.2027 43.3271 26.2027L43.3146 26.202Z" fill="#2B9B80"/>
<path fill-rule="evenodd" clip-rule="evenodd" d="M29.1222 42.8891C28.8353 42.909 28.6108 43.1436 28.6028 43.4305L28.3583 48.7699H28.3578C28.3493 48.9196 28.4012 49.0658 28.501 49.177C28.6013 49.2878 28.742 49.3542 28.8912 49.3611C29.0404 49.3676 29.1866 49.3142 29.2964 49.2129C29.4062 49.1117 29.4705 48.9705 29.4755 48.8208L29.72 43.4814H29.7205C29.731 43.3202 29.6711 43.162 29.5563 43.0483C29.4416 42.9345 29.2834 42.8756 29.1222 42.8871V42.8891Z" fill="#2B9B80"/>
<path d="M53.4465 16.8102C53.7025 17.1302 53.8625 17.5302 53.9265 18.0102H55.0625V19.2902H53.9265C53.7985 20.0262 53.4785 20.6449 52.9665 21.1462C52.4652 21.6369 51.8145 21.9302 51.0145 22.0262L54.2305 25.6102H52.0225L48.9665 22.0582V20.3942H50.6305C51.3985 20.3942 51.8679 20.0262 52.0385 19.2902H48.9665V18.0102H52.0545C51.9052 17.2742 51.4519 16.9062 50.6945 16.9062H48.9665V15.5302H55.0625V16.8102H53.4465Z" fill="#20A585"/>
<path d="M63.864 9.2C64.12 9.52 64.28 9.92 64.344 10.4H65.48V11.68H64.344C64.216 12.416 63.896 13.0347 63.384 13.536C62.8827 14.0267 62.232 14.32 61.432 14.416L64.648 18H62.44L59.384 14.448V12.784H61.048C61.816 12.784 62.2853 12.416 62.456 11.68H59.384V10.4H62.472C62.3227 9.664 61.8693 9.296 61.112 9.296H59.384V7.92H65.48V9.2H63.864Z" fill="#20A585"/>
<path d="M63.864 24.612C64.12 24.932 64.28 25.332 64.344 25.812H65.48V27.092H64.344C64.216 27.828 63.896 28.4467 63.384 28.948C62.8827 29.4387 62.232 29.732 61.432 29.828L64.648 33.412H62.44L59.384 29.86V28.196H61.048C61.816 28.196 62.2853 27.828 62.456 27.092H59.384V25.812H62.472C62.3227 25.076 61.8693 24.708 61.112 24.708H59.384V23.332H65.48V24.612H63.864Z" fill="#20A585"/>
</svg>
