<svg width="14" height="14" viewBox="0 0 14 14" fill="none" xmlns="http://www.w3.org/2000/svg">
<path d="M11.9242 1.10346C11.9242 0.852127 11.7901 0.619946 11.5725 0.494236C11.3549 0.36862 11.0867 0.36862 10.8691 0.494236C10.6514 0.619957 10.5173 0.852124 10.5173 1.10346V1.33795H11.9242V1.10346Z" fill="#FFE19B" stroke="black" stroke-width="0.2"/>
<path d="M5.23279 2.64648C5.30711 2.66333 5.36855 2.71515 5.39776 2.78549C5.42686 2.85584 5.42006 2.93602 5.37934 3.0004C5.34448 3.05556 5.35254 3.12748 5.3987 3.17364C5.44476 3.21981 5.51678 3.22776 5.57184 3.1929C5.63632 3.15229 5.7164 3.14538 5.78675 3.17458C5.8572 3.20368 5.90901 3.26513 5.92576 3.33945C5.9401 3.4031 5.99663 3.44822 6.06185 3.44822C6.12717 3.44822 6.18359 3.4031 6.19803 3.33945C6.21478 3.26513 6.2666 3.20368 6.33705 3.17458C6.40739 3.14538 6.48747 3.15229 6.55185 3.1929C6.60702 3.22776 6.67893 3.21981 6.72509 3.17364C6.77126 3.12748 6.77932 3.05556 6.74446 3.0004C6.70374 2.93602 6.69694 2.85584 6.72604 2.78549C6.75514 2.71515 6.81669 2.66333 6.89101 2.64648C6.95466 2.63214 6.99977 2.57561 6.99977 2.51039C6.99977 2.44518 6.95466 2.38865 6.89101 2.37431C6.81669 2.35746 6.75514 2.30564 6.72604 2.2353C6.69694 2.16495 6.70374 2.08477 6.74446 2.02039C6.77921 1.96522 6.77126 1.89331 6.72509 1.84714C6.67903 1.80108 6.60712 1.79303 6.55195 1.82788C6.48758 1.8685 6.40739 1.87541 6.33705 1.84631C6.2666 1.8171 6.21478 1.75565 6.19803 1.68133C6.18359 1.61769 6.12717 1.57257 6.06185 1.57257C5.99663 1.57257 5.9401 1.61769 5.92576 1.68133C5.90901 1.75565 5.8572 1.8171 5.78675 1.84631C5.7164 1.87541 5.63622 1.8685 5.57184 1.82788C5.51667 1.79302 5.44476 1.80109 5.3987 1.84714C5.35254 1.89331 5.34448 1.96522 5.37934 2.02039C5.42006 2.08477 5.42686 2.16495 5.39776 2.2353C5.36855 2.30564 5.30711 2.35746 5.23279 2.37431C5.16914 2.38865 5.12402 2.44518 5.12402 2.51039C5.12402 2.57561 5.16914 2.63214 5.23279 2.64648Z" fill="#FFE19B" stroke="black" stroke-width="0.2"/>
<path d="M2.07595 1.10347V12.1242H8.40698C8.46916 12.1242 8.52883 12.1489 8.57279 12.1928C8.61676 12.2368 8.64146 12.2965 8.64146 12.3586V12.8276C8.64146 13.0789 8.77556 13.3111 8.99319 13.4368C9.21082 13.5625 9.47901 13.5625 9.69664 13.4368C9.91427 13.3111 10.0484 13.079 10.0484 12.8276V1.10347C10.048 0.849623 10.1306 0.602671 10.2834 0.400024H2.77938C2.59284 0.400234 2.41404 0.474451 2.28225 0.606348C2.15035 0.738141 2.07616 0.916932 2.07595 1.10347ZM3.24836 10.7173H2.77939V10.2483H3.24836V10.7173ZM3.24836 8.8414H2.77939V8.37244H3.24836V8.8414ZM9.34491 10.7173H7.93802V10.2483H9.34491V10.7173ZM9.34491 9.77934H5.59319V9.31037H9.34491V9.77934ZM9.34491 7.90347H7.93802V7.43451H9.34491V7.90347ZM5.59319 4.8552V4.38623H7.93802V4.8552H5.59319ZM7.23457 5.32416V5.79313H4.88974V5.32416H7.23457ZM4.89204 2.02559C4.8687 1.83759 4.93339 1.64938 5.06738 1.51549C5.20127 1.3815 5.3895 1.31681 5.57748 1.34015C5.69389 1.19078 5.8728 1.10337 6.06215 1.10337C6.25151 1.10337 6.43041 1.19078 6.54682 1.34015C6.73483 1.31681 6.92304 1.3815 7.05692 1.51549C7.19091 1.64938 7.25561 1.8376 7.23226 2.02559C7.38164 2.142 7.46905 2.32091 7.46905 2.51026C7.46905 2.69962 7.38164 2.87852 7.23226 2.99493C7.25561 3.18294 7.19091 3.37115 7.05692 3.50503C6.92304 3.63902 6.73481 3.70372 6.54682 3.68037C6.43042 3.82975 6.25151 3.91716 6.06215 3.91716C5.8728 3.91716 5.6939 3.82975 5.57748 3.68037C5.38948 3.70372 5.20127 3.63902 5.06738 3.50503C4.93339 3.37115 4.8687 3.18292 4.89204 2.99493C4.74267 2.87853 4.65526 2.69962 4.65526 2.51026C4.65526 2.32091 4.74267 2.142 4.89204 2.02559ZM4.18629 4.38612H5.12422V4.85509H4.18629V4.38612ZM3.71733 6.49647H9.34491V6.96544H3.71733V6.49647ZM3.71733 7.4344H7.46905V7.90337H3.71733V7.4344ZM3.71733 8.37233H9.34491V8.8413H3.71733V8.37233ZM3.71733 9.31026H5.12422V9.77923H3.71733V9.31026ZM3.71733 10.2482H7.46905V10.7172H3.71733V10.2482ZM3.71733 11.1861H9.34491V11.6551H3.71733V11.1861ZM3.24836 6.96544H2.77939V6.49647H3.24836V6.96544Z" fill="#FFE19B" stroke="black" stroke-width="0.2"/>
<path d="M8.17261 12.5931H0.200195V12.8276C0.200405 13.0142 0.274621 13.193 0.406414 13.3249C0.538311 13.4567 0.717111 13.5309 0.903652 13.5311H8.40764C8.25491 13.3284 8.17232 13.0815 8.17263 12.8276L8.17261 12.5931Z" fill="#FFE19B" stroke="black" stroke-width="0.2"/>
<path d="M11.9243 3.21381C11.7999 3.21391 11.6808 3.26343 11.5929 3.35135C11.5049 3.43928 11.4554 3.55841 11.4553 3.68277H12.3933C12.3931 3.55841 12.3436 3.43928 12.2557 3.35135C12.1678 3.26343 12.0486 3.21391 11.9243 3.21381Z" fill="#31166B"/>
<path d="M11.4553 4.15173H12.3933V6.0276H11.4553V4.15173Z" fill="#31166B"/>
<path d="M11.9242 12.0687L12.2483 11.4207H11.6001L11.9242 12.0687Z" fill="#31166B"/>
<path d="M11.4553 6.49658H12.3933V6.96555H11.4553V6.49658Z" fill="#31166B"/>
<path d="M11.4553 7.43451H12.3933V10.9518H11.4553V7.43451Z" fill="#31166B"/>
<path d="M13.0968 3.68281H12.8623V4.15177H13.0968C13.2263 4.15188 13.3312 4.25677 13.3313 4.38625V6.96556H13.8002V4.38625C13.8 4.19972 13.7258 4.02092 13.5939 3.88912C13.4621 3.75723 13.2833 3.68301 13.0968 3.68281Z" fill="#31166B"/>
</svg>
