<svg width="18" height="12" viewBox="0 0 18 12" fill="none" xmlns="http://www.w3.org/2000/svg">
<path d="M3.47159 4.03571C4.357 4.03571 5.07721 3.31535 5.07721 2.43009C5.07721 1.54467 4.35686 0.824463 3.47159 0.824463C2.58618 0.824463 1.86597 1.54482 1.86597 2.43009C1.86597 3.31535 2.58632 4.03571 3.47159 4.03571Z" fill="#FDDFB3"/>
<path d="M9.05791 4.54502C10.311 4.54502 11.3304 3.52565 11.3304 2.27251C11.3304 1.01937 10.311 0 9.05791 0C7.80477 0 6.7854 1.01937 6.7854 2.27251C6.7854 3.52565 7.80477 4.54502 9.05791 4.54502Z" fill="#FDDFB3"/>
<path d="M4.77359 7.25691C4.78149 7.24024 4.78926 7.22342 4.79731 7.20688C4.80823 7.18446 4.81959 7.16218 4.8308 7.13989C4.83899 7.12379 4.84705 7.10769 4.85538 7.09174C4.86717 7.06902 4.87953 7.04645 4.89175 7.02388C4.90009 7.00864 4.90829 6.99312 4.91677 6.97802C4.92971 6.95473 4.94307 6.93187 4.95644 6.90873C4.96478 6.8945 4.97283 6.88012 4.98117 6.86589C4.99569 6.84159 5.01064 6.81744 5.02559 6.79329C5.03335 6.78078 5.04083 6.76799 5.04873 6.75563C5.06613 6.72817 5.08395 6.701 5.10192 6.67383C5.10782 6.66492 5.11342 6.656 5.11932 6.64709C5.16762 6.57507 5.21794 6.50434 5.27027 6.43491C5.27745 6.42542 5.28478 6.41622 5.29197 6.40673C5.31109 6.38186 5.33021 6.35699 5.34976 6.33227C5.35968 6.31976 5.37003 6.30754 5.38024 6.29503C5.39749 6.2739 5.41474 6.25263 5.43242 6.23178C5.44392 6.21826 5.45571 6.2049 5.46721 6.19152C5.48403 6.17197 5.50085 6.15257 5.51796 6.1333C5.53046 6.11936 5.54312 6.1057 5.55576 6.0919C5.57258 6.0735 5.58926 6.0551 5.60651 6.03699C5.61974 6.0229 5.63325 6.0091 5.64676 5.99515C5.66373 5.97761 5.68055 5.96008 5.6978 5.94282C5.71174 5.92888 5.72597 5.91508 5.7402 5.90114C5.75745 5.88432 5.77456 5.8675 5.7921 5.85082C5.80662 5.83702 5.82143 5.82322 5.83623 5.80971C5.85377 5.79346 5.87131 5.77722 5.88914 5.76126C5.90438 5.7476 5.91976 5.73409 5.935 5.72058C5.94592 5.71109 5.95656 5.70131 5.96763 5.69182C5.38082 4.90346 4.46063 4.43799 3.47159 4.43799C1.75585 4.43813 0.360107 5.83388 0.360107 7.54947V8.21867C0.360107 8.77471 0.75315 9.2514 1.29712 9.35868H4.32149V9.28134C4.32149 9.23692 4.32206 9.19264 4.32335 9.14836C4.32379 9.1337 4.32465 9.11903 4.32508 9.10451C4.32623 9.0749 4.32724 9.04543 4.32882 9.01596C4.32982 8.99857 4.33126 8.98146 4.33227 8.96406C4.33399 8.93733 4.33572 8.91073 4.33787 8.88413C4.33945 8.86573 4.34132 8.84748 4.34305 8.82907C4.34549 8.80377 4.34779 8.77833 4.35052 8.75317C4.35268 8.7342 4.35512 8.71536 4.35742 8.69653C4.36044 8.67195 4.36332 8.64737 4.36677 8.62293C4.36936 8.60381 4.37238 8.58483 4.37525 8.56571C4.37884 8.5417 4.38244 8.51755 4.38646 8.49355C4.38963 8.47428 4.39322 8.45516 4.39667 8.4359C4.40084 8.41218 4.40515 8.3886 4.40975 8.36503C4.41349 8.34576 4.41751 8.32664 4.42154 8.30752C4.42643 8.28409 4.43132 8.2608 4.43649 8.23752C4.4408 8.2184 4.44526 8.19928 4.44986 8.18016C4.45532 8.15701 4.46093 8.13401 4.46668 8.11101C4.47157 8.09203 4.47646 8.07306 4.48149 8.05408C4.48767 8.03108 4.49385 8.00822 4.50032 7.98536C4.50564 7.96653 4.5111 7.94784 4.51671 7.92916C4.52346 7.90644 4.53036 7.88373 4.53741 7.86116C4.5433 7.84261 4.5492 7.82407 4.55523 7.80553C4.56271 7.78281 4.57018 7.76038 4.57795 7.73782C4.58427 7.71956 4.5906 7.7013 4.59707 7.68319C4.60512 7.66062 4.61346 7.63819 4.62179 7.61577C4.62855 7.5978 4.63531 7.57997 4.64221 7.56201C4.65098 7.53958 4.65989 7.5173 4.66895 7.49487C4.67613 7.47733 4.68318 7.45979 4.69065 7.44226C4.70014 7.41983 4.70977 7.39755 4.71955 7.37541C4.72702 7.3583 4.7345 7.34105 4.74226 7.32409C4.75261 7.30138 4.76311 7.27924 4.7736 7.25696L4.77359 7.25691Z" fill="#F2647B"/>
<path d="M11.8592 5.97479C11.8108 5.93368 11.7577 5.89098 11.6969 5.84426C10.934 5.2576 10.0216 4.94751 9.05784 4.94751C8.0685 4.94751 7.13697 5.27211 6.36398 5.88654C5.32161 6.71473 4.72388 7.95219 4.72388 9.28151V10.1977C4.72388 10.997 5.29055 11.6818 6.07377 11.8326H12.0419C12.8252 11.6818 13.3918 10.997 13.3918 10.1977V9.28151C13.3918 8.00596 12.8331 6.80085 11.8592 5.97479L11.8592 5.97479Z" fill="#44989D"/>
<path d="M14.557 4.03571C15.4425 4.03571 16.1627 3.31535 16.1627 2.43009C16.1627 1.54467 15.4423 0.824463 14.557 0.824463C13.6716 0.824463 12.9514 1.54482 12.9514 2.43009C12.9513 3.31535 13.6716 4.03571 14.557 4.03571Z" fill="#FDDFB3"/>
<path d="M14.5568 4.43826C13.5903 4.43826 12.6835 4.88691 12.0952 5.64738C12.1034 5.65428 12.1115 5.66104 12.1195 5.66779C13.1837 6.57043 13.7943 7.88753 13.7943 9.28128V9.35863H16.7312C17.2751 9.25153 17.6681 8.77499 17.6681 8.21877V7.54956C17.6681 5.83398 16.2724 4.43826 14.5568 4.43826Z" fill="#F2647B"/>
</svg>
