<svg width="14" height="16" viewBox="0 0 14 16" fill="none" xmlns="http://www.w3.org/2000/svg">
<path d="M6.71109 0.799805C4.81504 0.799805 3.27588 2.33899 3.27588 4.23501V4.3136H6.34762C5.98595 4.16816 5.72918 3.81599 5.72918 3.40304C5.72918 2.91259 6.09116 2.50845 6.56138 2.43513V2.23356C6.56138 2.14994 6.62901 2.08242 6.71252 2.08242C6.79615 2.08242 6.86367 2.15005 6.86367 2.23356V2.43513C7.33389 2.50847 7.69587 2.91262 7.69587 3.40304C7.69587 3.48667 7.62823 3.55419 7.54472 3.55419C7.4611 3.55419 7.39358 3.48655 7.39358 3.40304C7.39358 3.02753 7.08826 2.72221 6.71263 2.72221C6.337 2.72221 6.03168 3.02753 6.03168 3.40304C6.03168 3.77744 6.33554 4.08241 6.71005 4.08387H6.71274C6.9503 4.08387 7.1663 4.17208 7.3369 4.31361H10.1494V4.23502C10.1493 2.33886 8.61014 0.799805 6.71109 0.799805Z" fill="#FFB300"/>
<path d="M8.64013 9.85351C8.64013 10.9482 9.52911 11.8372 10.6238 11.8372H13.0248V13.709C13.0248 14.471 12.408 15.0879 11.646 15.0879L1.77879 15.088C1.0168 15.088 0.399902 14.4711 0.399902 13.7091V5.99811C0.399902 5.23611 1.0168 4.61621 1.77879 4.61621H11.646C12.408 4.61621 13.0248 5.23611 13.0248 5.99811V7.86988H10.6238C9.52923 7.86988 8.64013 8.75898 8.64013 9.85356V9.85351Z" fill="#680623"/>
<path d="M13.3686 8.17093H10.6249C9.69591 8.17093 8.94287 8.92397 8.94287 9.85298C8.94287 10.782 9.69591 11.535 10.6249 11.535H13.3686C13.6069 11.535 13.8001 11.3419 13.8001 11.1035V8.60242C13.8001 8.36408 13.6068 8.1709 13.3686 8.1709V8.17093ZM10.6249 10.6845C10.1664 10.6845 9.79339 10.3116 9.79339 9.85298C9.79339 9.39441 10.1663 9.02144 10.6249 9.02144C11.0835 9.02144 11.4565 9.39439 11.4565 9.85298C11.4566 10.3116 11.0835 10.6845 10.6249 10.6845Z" fill="#680623"/>
<path d="M11.1539 9.8529C11.1539 10.1451 10.9169 10.382 10.6247 10.382C10.3325 10.382 10.0955 10.1451 10.0955 9.8529C10.0955 9.56055 10.3325 9.32367 10.6247 9.32367C10.9169 9.32367 11.1539 9.56056 11.1539 9.8529Z" fill="#680623"/>
</svg>
