<svg width="98" height="91" viewBox="0 0 98 91" fill="none" xmlns="http://www.w3.org/2000/svg">
<path d="M22.0059 50.0861C22.0059 50.0861 19.6158 50.7555 21.7125 55.8828C23.8092 61.0101 25.3258 63.5922 25.3258 63.5922C25.3258 63.5922 25.6735 64.7702 24.6979 64.8659C23.7223 64.9615 21.6387 64.4442 21.1107 65.5809C20.5632 66.7633 21.3497 67.987 23.0662 69.1498C24.7826 70.3126 28.422 72.9947 28.7523 73.2382C29.0825 73.4816 29.3715 74.038 28.7175 74.2097C28.0635 74.3814 23.2661 74.4705 23.4464 76.7462C23.6267 79.0218 28.9152 81.4735 29.4867 81.7452C30.0581 82.0169 30.1819 82.2886 30.1059 82.6146C30.0298 82.9407 28.4133 82.8124 27.051 82.895C25.6887 82.9776 24.1178 83.3145 24.3351 84.6186C24.5523 85.9227 27.5529 88.8787 35.3422 90.3197L38.9925 90.7544L41.25 87.8289C45.7019 81.2758 45.7106 77.0592 44.9437 75.992C44.1767 74.9248 42.8274 75.8029 41.8105 76.7158C40.7937 77.6286 39.7464 78.8632 39.464 78.6915C39.1815 78.5198 39.0794 78.2568 39.2836 77.6438C39.4879 77.0309 41.4564 71.5581 39.9702 69.8193C38.484 68.0805 35.0446 71.4407 34.4623 71.7863C33.88 72.1319 33.6909 71.5254 33.7474 71.1342C33.8039 70.743 34.4644 66.246 34.8338 64.216C35.2032 62.1859 34.8903 60.7623 33.667 60.3211C32.4851 59.8972 31.3878 61.7447 30.6252 62.3707C29.8625 62.9966 29.2781 61.9229 29.2781 61.9229C29.2781 61.9229 28.5176 59.0191 26.3405 53.931C24.1634 48.8428 21.9646 50.1056 21.9646 50.1056" fill="#EBEBEB"/>
<path d="M38.5362 90.1197C36.9479 86.3769 34.8013 81.1866 32.4525 75.4442C30.1038 69.7018 27.9658 64.5094 26.3992 60.7579L24.5415 56.3153L24.0374 55.1068C23.9831 54.9721 23.9418 54.8677 23.9092 54.7917C23.8766 54.7156 23.8701 54.683 23.8701 54.683C23.8701 54.683 23.8897 54.7178 23.9223 54.7873L24.0613 55.0981L24.5871 56.2957C25.0412 57.339 25.6887 58.8518 26.4818 60.7231C28.0679 64.4659 30.2167 69.6562 32.5655 75.3964C34.9142 81.1366 37.0544 86.3335 38.6188 90.0871" fill="#E0E0E0"/>
<path d="M23.998 66.4243C24.0852 66.4428 24.1693 66.4736 24.2479 66.5155C24.4065 66.5808 24.6325 66.6829 24.8997 66.8111C25.4538 67.0676 26.2034 67.4436 27.0377 67.874L29.1475 68.9868L29.7884 69.3215C29.8698 69.3573 29.947 69.4017 30.0188 69.4541C29.9312 69.4357 29.8464 69.4057 29.7667 69.365C29.6103 69.2998 29.3843 69.1976 29.1149 69.0672C28.563 68.8042 27.8112 68.4152 26.9856 67.9805L24.8671 66.8829L24.2153 66.5525C24.1377 66.5193 24.0646 66.4762 23.998 66.4243Z" fill="#E0E0E0"/>
<path d="M30.2968 69.2411C30.2664 69.2281 30.9704 67.6327 31.8721 65.6831C32.7738 63.7335 33.5321 62.162 33.5625 62.1772C33.5929 62.1924 32.8889 63.7834 31.9873 65.7352C31.0856 67.687 30.3294 69.2563 30.2968 69.2411Z" fill="#E0E0E0"/>
<path d="M33.5127 78.2198C33.5605 78.1416 33.6166 78.0687 33.68 78.0025L34.1623 77.4439C34.5708 76.9722 35.1314 76.3202 35.7246 75.5768C36.3177 74.8335 36.8348 74.1467 37.2042 73.6468C37.3759 73.412 37.5236 73.2121 37.6388 73.0534C37.6866 72.9734 37.745 72.9003 37.8126 72.8361C37.7772 72.9196 37.7327 72.9991 37.68 73.073C37.5866 73.2208 37.4497 73.4338 37.2716 73.6902C36.9196 74.2075 36.4155 74.9074 35.818 75.6464C35.2205 76.3854 34.6512 77.0353 34.2254 77.4917C34.0081 77.709 33.8364 77.9025 33.7104 78.0242C33.6532 78.0976 33.5867 78.1634 33.5127 78.2198Z" fill="#E0E0E0"/>
<path d="M27.2549 76.9266C27.3389 76.9232 27.4229 76.9313 27.5047 76.9505C27.6634 76.9722 27.8937 77.0113 28.1783 77.0592C28.7454 77.1591 29.5276 77.3026 30.3923 77.47C31.2571 77.6373 32.0349 77.7938 32.5977 77.9155L33.2647 78.0633C33.3471 78.0769 33.4275 78.101 33.5037 78.135C33.4199 78.1385 33.3359 78.1312 33.2539 78.1133C33.0953 78.0894 32.8649 78.0525 32.5803 78.0025C32.0132 77.9047 31.231 77.7612 30.3684 77.5938C29.5059 77.4265 28.7237 77.2678 28.1609 77.1483C27.8806 77.0874 27.6525 77.0353 27.4961 76.9983C27.413 76.9845 27.332 76.9604 27.2549 76.9266Z" fill="#E0E0E0"/>
<path d="M29.0869 85.2141C29.1943 85.2147 29.3013 85.2264 29.4063 85.2489L30.2754 85.3858C31.0033 85.5075 32.0136 85.6858 33.1152 85.8879C34.2168 86.09 35.225 86.2835 35.9507 86.4269L36.8067 86.6051C36.9126 86.6229 37.0167 86.6505 37.1174 86.6877C37.01 86.6871 36.903 86.6755 36.798 86.653L35.9289 86.516C35.2011 86.3943 34.1907 86.2161 33.0891 86.0118C31.9875 85.8075 30.9794 85.6184 30.2645 85.4728L29.4085 85.2967C29.2987 85.2805 29.1909 85.2529 29.0869 85.2141Z" fill="#E0E0E0"/>
<path d="M36.937 86.5986C36.9963 86.4997 37.0647 86.4066 37.1413 86.3204L37.7279 85.5923C38.2255 84.975 38.9077 84.123 39.6334 83.1602C40.3591 82.1973 41.0001 81.3127 41.4563 80.6672L41.9995 79.9043C42.0637 79.8073 42.1364 79.7164 42.2168 79.6326C42.1689 79.7372 42.1122 79.8375 42.0473 79.9325C41.93 80.1194 41.7562 80.3889 41.5367 80.7193C41.1022 81.3714 40.4699 82.2734 39.7399 83.2362C39.0098 84.1991 38.3167 85.0468 37.8039 85.6488C37.5454 85.9488 37.3346 86.19 37.1847 86.353C37.1093 86.4418 37.0264 86.524 36.937 86.5986Z" fill="#E0E0E0"/>
<path d="M67.6794 90.1002C62.493 86.7704 61.0894 80.2673 61.059 74.3749C61.059 73.3903 60.9047 72.3579 61.3371 71.4776C61.7695 70.5974 62.8385 69.9671 63.7271 70.3452C64.4702 70.6604 64.8135 71.4972 65.2481 72.1818C65.83 73.0966 66.6585 73.8282 67.6381 74.2923C68.2769 74.5923 69.0569 74.7596 69.6609 74.3966C70.4909 73.8946 70.5452 72.7209 70.4996 71.7428L70.2671 66.2917C70.2215 65.3158 70.1802 64.3181 70.4475 63.3792C70.7147 62.4402 71.3513 61.5513 72.2704 61.2535C73.1895 60.9557 74.3606 61.4469 74.5931 62.3968C74.6909 62.7902 74.6257 63.2075 74.6691 63.6117C74.7126 64.016 74.919 64.4572 75.3079 64.555C75.6968 64.6529 76.0836 64.3616 76.3639 64.066C77.3329 63.0379 77.9674 61.7404 78.5562 60.4515C79.145 59.1626 79.7164 57.8433 80.5877 56.7326C81.459 55.622 82.6931 54.7178 84.088 54.583C85.4829 54.4483 87.0082 55.2546 87.4167 56.6131C87.8252 57.9715 87.0777 59.406 86.2456 60.5558C85.0146 62.2618 83.5428 63.7802 81.8762 65.0636C81.5785 65.294 81.2526 65.544 81.1505 65.9113C80.9636 66.5634 81.6046 67.1937 82.2564 67.3828C82.9951 67.6001 83.7773 67.4893 84.5465 67.5479C85.3156 67.6066 86.15 67.9131 86.4672 68.6217C86.9017 69.6041 86.113 70.6843 85.3178 71.4016C83.7257 72.8402 81.8977 73.9938 79.9142 74.8118C79.2058 75.103 78.4606 75.3639 77.9 75.8985C77.3394 76.4332 77.0309 77.32 77.4025 77.9938C77.774 78.6676 78.6866 78.8632 79.434 78.6849C80.1814 78.5067 80.8398 78.0807 81.5459 77.7808C82.8669 77.2222 84.6051 77.2461 85.5112 78.372C86.1065 79.1131 86.1978 80.1738 85.9457 81.0932C85.6937 82.0126 85.1462 82.8211 84.5595 83.5666C82.5063 86.1748 79.8316 88.3179 76.7615 89.5198C73.6914 90.7218 70.8147 91.1282 67.6772 90.1197" fill="#F5F5F5"/>
<path d="M69.0522 86.3509C69.9023 83.1062 70.9382 79.9131 72.1549 76.7875C72.4751 75.9543 72.7894 75.132 73.0979 74.3206C73.4086 73.5142 73.7172 72.7122 74.067 71.9471C74.7431 70.4789 75.4989 69.0488 76.331 67.6631C77.1175 66.3351 77.9127 65.1049 78.6623 63.9682C79.412 62.8314 80.1398 61.7708 80.8351 60.8383C81.9319 59.3612 83.1445 57.9738 84.4614 56.6891C84.9242 56.2349 85.2979 55.8936 85.5478 55.6676L85.8411 55.4089C85.8726 55.3784 85.9068 55.3508 85.9433 55.3264C85.9166 55.3623 85.886 55.3951 85.852 55.4242L85.5717 55.6937C85.3262 55.9306 84.9612 56.2783 84.5049 56.7413C83.2107 58.041 82.0166 59.4367 80.9329 60.9166C80.2419 61.849 79.5271 62.9053 78.7797 64.0508C78.0322 65.1962 77.2457 66.4416 76.4657 67.7588C75.64 69.1406 74.89 70.5663 74.2191 72.0297C73.8714 72.7904 73.5672 73.5859 73.2565 74.3966C72.9458 75.2073 72.6329 76.0289 72.3157 76.8592C71.1013 79.9791 70.0626 83.1647 69.2043 86.4008" fill="#E0E0E0"/>
<path d="M74.1191 71.9428C74.0651 71.8101 74.0272 71.6715 74.0061 71.5298C73.9453 71.2625 73.8693 70.8777 73.7889 70.3887C73.6129 69.4215 73.4152 68.0761 73.2022 66.5938C72.9893 65.1115 72.7677 63.7682 72.583 62.8097C72.4896 62.3294 72.4092 61.9403 72.3505 61.6708C72.3098 61.5336 72.2857 61.3921 72.2788 61.2491C72.3401 61.3783 72.3867 61.5139 72.4179 61.6534C72.4983 61.9186 72.596 62.3055 72.7068 62.7836C72.9241 63.7421 73.1675 65.081 73.3804 66.5677C73.5933 68.0544 73.7715 69.3541 73.9149 70.367L74.0844 71.5168C74.1117 71.657 74.1234 71.7999 74.1191 71.9428Z" fill="#E0E0E0"/>
<path d="M86.5846 69.0954C86.4215 69.1375 86.255 69.1644 86.087 69.1759C85.7654 69.2172 85.3005 69.2737 84.729 69.3628C83.584 69.5323 82.0087 69.8214 80.2879 70.217C78.5671 70.6126 77.0288 71.0429 75.9142 71.3841C75.3579 71.5515 74.9125 71.6971 74.6105 71.7971C74.4542 71.8601 74.2919 71.9067 74.126 71.9362C74.2739 71.8509 74.4287 71.7782 74.5888 71.7189C74.8908 71.5993 75.3297 71.4341 75.8816 71.2494C76.9831 70.8777 78.5258 70.4278 80.2531 70.0279C81.7268 69.684 83.2171 69.4156 84.7182 69.2237C85.2939 69.152 85.7633 69.1128 86.087 69.0933C86.2525 69.0782 86.4191 69.079 86.5846 69.0954Z" fill="#E0E0E0"/>
<path d="M69.1978 86.1118C69.1978 86.1118 69.1609 86.0639 69.1044 85.9618L68.8763 85.5162C68.6764 85.1293 68.4004 84.5599 68.0702 83.8513C67.4184 82.4364 66.5492 80.452 65.6432 78.2502C64.7372 76.0485 63.905 74.0576 63.2532 72.6317C62.9425 71.9384 62.6883 71.3668 62.4992 70.9429C62.4188 70.7582 62.3515 70.6082 62.2972 70.4821C62.2703 70.4298 62.2498 70.3743 62.2363 70.317C62.2744 70.3623 62.3059 70.4128 62.3298 70.4669L62.5622 70.9125C62.7621 71.2994 63.0381 71.8688 63.3683 72.5774C64.031 73.9923 64.8893 75.9767 65.7975 78.1807C66.7057 80.3846 67.5357 82.3712 68.1745 83.797C68.4852 84.4903 68.7394 85.062 68.9284 85.4858L69.1305 85.9466C69.1596 85.9987 69.1823 86.0541 69.1978 86.1118Z" fill="#E0E0E0"/>
<path d="M85.6738 80.076C85.623 80.1077 85.5682 80.1326 85.5108 80.1499L85.0328 80.3325L83.2685 80.9845C81.778 81.5322 79.7313 82.3147 77.4673 83.1819C75.2033 84.0491 73.1456 84.812 71.6443 85.3293C70.8947 85.5901 70.2841 85.7923 69.8604 85.9249L69.3716 86.0748C69.316 86.0967 69.2574 86.1099 69.1978 86.114C69.2491 86.0833 69.3038 86.0585 69.3607 86.0401L69.8387 85.8575L71.603 85.2054C73.0913 84.6555 75.1402 83.8731 77.4043 83.0059C79.6683 82.1386 81.7237 81.3757 83.2251 80.8584C83.9768 80.5998 84.5852 80.3955 85.0111 80.2629L85.4999 80.1129C85.5557 80.0918 85.6143 80.0794 85.6738 80.076Z" fill="#E0E0E0"/>
<path d="M80.1009 8.56356L76.3377 19.7505C76.1884 20.1928 76.2061 20.6743 76.3874 21.1044C76.5688 21.5344 76.9012 21.8832 77.322 22.0849C77.764 22.296 78.27 22.3296 78.7361 22.1788C79.2021 22.028 79.5926 21.7043 79.8272 21.2742L85.5133 10.8088C85.6151 10.6215 85.6758 10.4147 85.6913 10.2021C85.7069 9.98947 85.677 9.77599 85.6036 9.57587C85.5302 9.37575 85.415 9.19358 85.2657 9.04151C85.1163 8.88943 84.9363 8.77095 84.7376 8.69396L82.0629 7.64417C81.8742 7.57071 81.6725 7.53634 81.47 7.54314C81.2676 7.54994 81.0686 7.59776 80.8852 7.68371C80.7018 7.76967 80.5377 7.89196 80.4029 8.04319C80.2681 8.19443 80.1654 8.37145 80.1009 8.56356Z" fill="#E0E0E0"/>
<path d="M77.7041 29.3987C77.3341 29.8306 76.8443 30.143 76.2968 30.2964C75.7493 30.4498 75.1686 30.4373 74.6281 30.2605C74.0877 30.0837 73.6118 29.7506 73.2606 29.3032C72.9095 28.8559 72.6989 28.3144 72.6554 27.7472C72.6119 27.1801 72.7376 26.6128 73.0164 26.1171C73.2953 25.6214 73.7149 25.2196 74.222 24.9625C74.7292 24.7053 75.3012 24.6044 75.8658 24.6725C76.4303 24.7407 76.9619 24.9747 77.3934 25.3451C77.6801 25.5908 77.9155 25.8905 78.0862 26.2272C78.257 26.5639 78.3597 26.931 78.3886 27.3075C78.4174 27.6839 78.3718 28.0624 78.2544 28.4212C78.137 28.78 77.95 29.1122 77.7041 29.3987Z" fill="#E0E0E0"/>
<path d="M86.2717 28.3771L87.634 32.4177C87.6878 32.5774 87.7981 32.712 87.9442 32.796C88.0902 32.8801 88.2619 32.9079 88.427 32.8741C88.6009 32.8388 88.7544 32.7377 88.8556 32.5919C88.9568 32.4462 88.9978 32.267 88.9702 32.0917L88.3184 27.8381C88.3063 27.7626 88.2783 27.6906 88.2363 27.6267C88.1943 27.5628 88.1393 27.5086 88.0749 27.4675C88.0104 27.4264 87.938 27.3995 87.8624 27.3884C87.7867 27.3774 87.7096 27.3825 87.6361 27.4034L86.6367 27.686C86.5666 27.7063 86.5014 27.7405 86.4448 27.7865C86.3883 27.8326 86.3416 27.8896 86.3075 27.9541C86.2735 28.0186 86.2527 28.0893 86.2466 28.162C86.2404 28.2346 86.2489 28.3078 86.2717 28.3771Z" fill="#E0E0E0"/>
<path d="M90.1346 34.8933C90.1247 35.099 90.0539 35.2972 89.9312 35.4627C89.8085 35.6281 89.6394 35.7533 89.4454 35.8224C89.2514 35.8915 89.0413 35.9013 88.8417 35.8506C88.6421 35.7999 88.462 35.691 88.3244 35.5378C88.1868 35.3845 88.0979 35.1938 88.0689 34.9898C88.04 34.7859 88.0722 34.5779 88.1617 34.3924C88.2511 34.2068 88.3937 34.052 88.5713 33.9477C88.7489 33.8434 88.9534 33.7943 89.159 33.8065C89.4323 33.8217 89.6884 33.9446 89.8712 34.1483C90.0541 34.352 90.1488 34.6199 90.1346 34.8933Z" fill="#E0E0E0"/>
<path d="M97.9913 90.9435C97.9913 90.9739 76.0465 91 48.9935 91C21.9405 91 0 90.9739 0 90.9435C0 90.913 21.9448 90.887 49.0022 90.887C76.0595 90.887 97.9913 90.913 97.9913 90.9435Z" fill="#263238"/>
<path d="M60.6784 22.8891C60.4025 23.9324 60.1027 24.9952 60.1852 26.082C60.2678 27.1687 60.7567 28.275 61.7062 28.7945C62.7925 29.3922 64.4525 29.2835 64.9066 30.4398C65.2173 31.2288 64.7133 32.2112 65.1543 32.9372C65.7801 33.9631 67.4727 33.3719 68.4678 34.0565C69.2369 34.5803 69.3369 35.6693 69.2478 36.5974C69.1587 37.5254 68.9871 38.5274 69.452 39.3338C69.9909 40.2662 71.225 40.6379 71.7356 41.5768C72.3635 42.7418 71.6161 44.1611 70.7796 45.1848C69.9431 46.2086 68.9306 47.3018 69.0023 48.6233L53.4062 49.1015L52.4307 24.2693L60.6784 22.8891Z" fill="#263238"/>
<path d="M62.0755 33.8022C62.0647 33.8022 62.0473 33.6827 61.9625 33.4827C61.8333 33.2049 61.6449 32.9586 61.4107 32.7611C61.0587 32.4717 60.6635 32.2392 60.2395 32.0721C59.7077 31.8782 59.1919 31.6427 58.6969 31.3679C58.4416 31.2133 58.214 31.0172 58.0233 30.7876C57.8483 30.5715 57.7123 30.3266 57.6214 30.0638C57.4778 29.6194 57.4181 29.1521 57.4454 28.6858C57.459 28.3742 57.4953 28.064 57.554 27.7577C57.5736 27.649 57.5931 27.5664 57.6062 27.5099C57.6109 27.4803 57.6204 27.4517 57.6344 27.4252C57.6294 27.5389 57.617 27.6521 57.5975 27.7642C57.5568 28.0706 57.5329 28.379 57.5258 28.688C57.5098 29.1422 57.5753 29.5957 57.7191 30.0268C57.8087 30.2781 57.941 30.5119 58.1102 30.718C58.2954 30.9369 58.5157 31.1235 58.7621 31.2701C59.251 31.5426 59.7594 31.7787 60.283 31.9765C60.7146 32.1511 61.114 32.3965 61.465 32.7024C61.7031 32.9104 61.8885 33.1718 62.006 33.4653C62.0352 33.5458 62.057 33.6287 62.0712 33.7131C62.0783 33.7423 62.0798 33.7725 62.0755 33.8022Z" fill="#455A64"/>
<path d="M38.1317 81.2214L36.3218 90.9391H71.955C71.955 90.9391 70.7339 85.1902 65.654 78.8218L38.1317 81.2214Z" fill="#263238"/>
<path d="M37.6191 71.9167L36.3393 53.3246L38.4578 34.2956L50.0255 32.6829L58.4993 33.6175L64.2723 53.1485L65.828 70.5539C65.828 70.5539 66.6536 73.299 67.6118 76.5071C67.873 77.3741 67.8398 78.3032 67.5175 79.1494C67.1952 79.9956 66.6019 80.7112 65.8302 81.1845C64.4548 82.0213 62.3994 82.6733 59.427 82.3625C52.572 81.6474 44.8 80.3955 41.0455 81.0214C37.291 81.6474 36.7587 80.7541 36.7587 80.7541C36.7587 80.7541 35.5745 79.5913 35.9417 78.2524C36.3089 76.9135 37.6191 71.9167 37.6191 71.9167Z" fill="#FCC647"/>
<path d="M65.4349 70.4431C65.4349 70.4431 65.4045 70.4757 65.3393 70.5256L65.0481 70.743L63.9748 71.5341C63.0731 72.2058 61.8433 73.1556 60.4984 74.2206C59.1535 75.2856 57.9324 76.2528 57.0372 76.9375C56.5918 77.2809 56.2289 77.5547 55.9747 77.7417L55.6792 77.959C55.646 77.9855 55.6104 78.0088 55.5728 78.0286C55.6003 77.996 55.6317 77.9668 55.6662 77.9416L55.9465 77.7134L56.9894 76.881L60.4267 74.138C61.776 73.073 63.0144 72.1319 63.9313 71.4776C64.3876 71.1494 64.7613 70.8886 65.0177 70.7147L65.3219 70.5148C65.3572 70.4874 65.3951 70.4634 65.4349 70.4431Z" fill="white"/>
<path d="M56.0982 39.4577C55.8728 39.2479 55.673 39.0123 55.5028 38.7556C55.3021 38.5217 55.1319 38.2632 54.9966 37.9862C55.222 38.196 55.4218 38.4316 55.5919 38.6882C55.7918 38.9228 55.9618 39.1813 56.0982 39.4577Z" fill="#263238"/>
<path d="M57.4911 36.593C57.2683 36.3387 57.0256 36.1025 56.7654 35.8866C56.4846 35.7002 56.1897 35.5359 55.8833 35.3954C56.2284 35.4494 56.5551 35.5867 56.8352 35.7954C57.1153 36.004 57.3405 36.2778 57.4911 36.593Z" fill="#263238"/>
<path d="M46.5424 39.0903C46.3672 39.366 46.2173 39.657 46.0948 39.9597C46.0072 40.2761 45.949 40.5999 45.921 40.927C45.8553 40.5925 45.878 40.2467 45.987 39.9238C46.096 39.6009 46.2875 39.3121 46.5424 39.086V39.0903Z" fill="#263238"/>
<path d="M42.134 35.2867C42.134 35.3193 41.6343 35.3302 41.0259 35.4193C40.4175 35.5084 39.9395 35.6366 39.9243 35.6062C40.6228 35.3172 41.3823 35.2074 42.134 35.2867Z" fill="#263238"/>
<g opacity="0.3">
<path d="M37.73 70.2757C40.7153 69.0477 42.7273 66.1678 43.931 63.1727C45.1347 60.1776 45.7062 56.963 46.8012 53.9245C47.1206 53.0355 47.6703 52.0205 48.622 51.9922C49.3955 51.9683 49.9908 52.6443 50.4341 53.2746C52.5286 56.2653 53.8518 59.7147 55.464 62.9923C57.0762 66.2699 59.0751 69.5128 62.0974 71.5537C62.6558 71.9319 63.2729 72.2753 63.9465 72.3144C64.62 72.3536 65.3566 72.0036 65.5717 71.3646C65.6454 71.0982 65.6719 70.8208 65.6499 70.5452C65.6224 68.9049 65.5927 67.2647 65.5608 65.6244C65.5282 63.853 65.4869 62.036 64.8177 60.395C63.84 58.0041 61.6846 56.3327 59.7031 54.67C57.0958 52.4813 54.6319 50.0948 52.659 47.3236C51.9572 46.3368 51.3032 45.287 50.3515 44.5415C49.3999 43.796 48.0484 43.4113 46.9642 43.946C45.7583 44.5415 45.2977 45.9977 44.9501 47.2975C42.9757 54.6975 40.7566 62.0258 38.2927 69.2824" fill="black"/>
</g>
<path d="M37.4346 69.2302C39.6182 69.0433 41.2934 66.622 41.8909 64.5203L46.6884 47.5996L39.3618 42.6875L36.4416 52.4247L38.458 34.2956C38.458 34.2956 31.7224 35.9996 30.158 44.1502C28.8218 51.0641 28.3612 57.4977 28.6762 60.0168C28.6805 60.0146 28.7218 69.9866 37.4346 69.2302Z" fill="#FCC647"/>
<path d="M49.9341 49.0102C49.9341 49.0102 53.2627 57.4433 56.5523 62.3359C59.6984 67.0111 65.013 71.7232 68.4242 71.1646C71.8355 70.606 73.6193 61.9055 73.6193 58.6561C73.6193 55.4068 69.4454 42.0332 69.4454 42.0332C69.4454 42.0332 68.6089 34.5194 61.3432 33.6174L56.2264 33.3675L63.994 52.5986L60.7283 48.6863C60.972 47.9654 60.9348 47.1791 60.624 46.4845C60.0982 45.3326 56.6414 42.3962 56.6414 42.3962L49.9341 49.0102Z" fill="#FCC647"/>
<path d="M36.6217 50.0013C36.5874 49.9138 36.5605 49.8237 36.5413 49.7318C36.4978 49.5579 36.4305 49.3079 36.3414 48.9993C35.8756 47.3933 35.1505 45.8743 34.1947 44.5023C34.0122 44.2393 33.8601 44.0285 33.7602 43.8872C33.7004 43.8146 33.6473 43.7368 33.6016 43.6547C33.6722 43.7166 33.737 43.785 33.7949 43.859C33.9144 43.9937 34.0774 44.198 34.2686 44.4567C34.7698 45.1337 35.2063 45.8563 35.5723 46.615C35.9343 47.374 36.2252 48.1649 36.4414 48.9776C36.5217 49.2905 36.5761 49.5448 36.6065 49.7231C36.6215 49.815 36.6266 49.9083 36.6217 50.0013Z" fill="#263238"/>
<path d="M60.4027 60.3493C60.3821 60.3142 60.3654 60.277 60.3527 60.2384L60.2288 59.9146C60.1745 59.7733 60.1137 59.5994 60.0529 59.3951C59.992 59.1908 59.9138 58.9604 59.853 58.6953C59.7921 58.4301 59.7139 58.1475 59.6574 57.8367C59.6009 57.5259 59.5444 57.1847 59.4923 56.8369C59.3968 56.0699 59.3533 55.2972 59.3619 54.5243C59.3813 53.7501 59.4539 52.9781 59.5792 52.2139C59.6465 51.864 59.703 51.5292 59.7813 51.2228C59.8595 50.9163 59.9312 50.6294 60.0094 50.3708C60.0876 50.1121 60.1658 49.8817 60.2267 49.6796C60.2875 49.4775 60.3614 49.3057 60.42 49.1666C60.4787 49.0275 60.52 48.9319 60.5548 48.8471C60.57 48.8096 60.5882 48.7732 60.6091 48.7385C60.6046 48.7791 60.5936 48.8187 60.5765 48.8558L60.4613 49.1819C60.4092 49.3231 60.3462 49.4948 60.2853 49.6991C60.2245 49.9035 60.1419 50.1338 60.0681 50.3925C59.9942 50.6511 59.9203 50.9337 59.8508 51.2423C59.7813 51.551 59.7226 51.8813 59.6618 52.2313C59.4178 53.7505 59.3893 55.2966 59.577 56.8239C59.627 57.176 59.6683 57.5107 59.7313 57.8193C59.7943 58.128 59.8508 58.4149 59.9138 58.6757C59.9768 58.9365 60.042 59.1713 60.0963 59.3756C60.1506 59.5799 60.2071 59.7581 60.2527 59.8994C60.2984 60.0407 60.3288 60.1428 60.357 60.2297C60.3777 60.2673 60.393 60.3075 60.4027 60.3493Z" fill="#263238"/>
<path d="M69.3633 62.3359C69.3577 62.3013 69.3577 62.2661 69.3633 62.2315C69.3633 62.1511 69.3741 62.0555 69.3828 61.9381C69.3915 61.8207 69.4045 61.6556 69.4024 61.4752C69.4002 61.2948 69.4154 61.0883 69.4024 60.8622C69.4024 60.747 69.3893 60.6297 69.3828 60.5058C69.3763 60.3819 69.3524 60.2536 69.3372 60.1211C69.3133 59.8559 69.2503 59.5777 69.1938 59.2821C69.0485 58.6475 68.8434 58.0282 68.5811 57.4324C68.3084 56.8408 67.9796 56.2767 67.599 55.748C67.4322 55.5174 67.2538 55.2954 67.0645 55.0829C66.9754 54.9851 66.895 54.8851 66.8059 54.796L66.5474 54.5547C66.3887 54.3896 66.2258 54.2635 66.0911 54.1439C65.9771 54.0393 65.8567 53.9421 65.7304 53.8527L65.4979 53.6723C65.4697 53.6533 65.4442 53.6306 65.4219 53.6049C65.4219 53.6049 65.4545 53.618 65.511 53.6549L65.7565 53.8179C65.8878 53.9015 66.0133 53.9937 66.1324 54.094C66.2714 54.2113 66.4387 54.333 66.6017 54.4961L66.8624 54.7438C66.9537 54.8308 67.0362 54.9308 67.1275 55.0307C67.3222 55.2382 67.5056 55.4558 67.6772 55.6828C68.0656 56.2149 68.4004 56.7843 68.6767 57.3825C68.9431 57.9856 69.1484 58.614 69.2894 59.2582C69.3437 59.556 69.4024 59.8385 69.4241 60.108C69.4371 60.2428 69.4567 60.371 69.4632 60.4971C69.4697 60.6231 69.4632 60.7427 69.4762 60.8579C69.4893 61.0861 69.4762 61.2926 69.4654 61.4752C69.4612 61.6308 69.4482 61.7861 69.4263 61.9403C69.4089 62.0555 69.3958 62.1576 69.385 62.2315C69.3828 62.2672 69.3755 62.3023 69.3633 62.3359Z" fill="#263238"/>
<path d="M69.5714 56.4001C69.3997 56.231 69.24 56.0502 69.0934 55.8589C68.7283 55.4191 68.3271 55.0105 67.8941 54.6374C67.4737 54.2546 66.9655 53.9814 66.4144 53.8419C66.1815 53.8059 65.9461 53.7892 65.7104 53.7919C65.7713 53.7695 65.8349 53.7556 65.8995 53.7506C65.9747 53.7368 66.0513 53.7324 66.1276 53.7376H66.2688L66.4253 53.7593C66.9997 53.879 67.5312 54.1516 67.9636 54.5483C68.4028 54.9241 68.8012 55.3452 69.1521 55.8046C69.289 55.9784 69.3954 56.1241 69.465 56.2262C69.508 56.2792 69.5438 56.3377 69.5714 56.4001Z" fill="#263238"/>
<path d="M71.0972 54.8525C71.0798 54.8917 70.2954 54.4178 69.2134 54.2005C68.1314 53.9831 67.2253 54.1483 67.2231 54.1049C67.4127 54.046 67.6092 54.0124 67.8076 54.0049C68.2851 53.9663 68.7656 53.9948 69.2351 54.0896C69.7038 54.1881 70.1585 54.3443 70.5887 54.5548C70.7703 54.6317 70.9412 54.7318 71.0972 54.8525Z" fill="#263238"/>
<path d="M66.356 36.1713C66.3239 36.1976 66.288 36.2188 66.2495 36.2344L65.9345 36.3952L65.7172 36.5082C65.6368 36.5539 65.552 36.6104 65.4608 36.6669C65.2487 36.7903 65.0454 36.9283 64.8524 37.0798L64.5135 37.3428C64.4005 37.4406 64.2962 37.5493 64.1723 37.658C63.9252 37.8931 63.6916 38.142 63.4727 38.4035C62.986 39.0167 62.5644 39.6788 62.2147 40.3792C61.6026 41.6675 61.1643 43.0313 60.911 44.435C60.8524 44.7023 60.822 44.9479 60.785 45.1631C60.7481 45.3783 60.722 45.563 60.7025 45.7152L60.6547 46.0651C60.6513 46.1066 60.6426 46.1475 60.6286 46.1868C60.6238 46.1456 60.6238 46.1041 60.6286 46.0629C60.6286 45.9695 60.646 45.8456 60.6568 45.7108C60.6677 45.5761 60.6872 45.3696 60.7198 45.1544C60.7524 44.9392 60.7763 44.6893 60.8306 44.4197C61.0643 43.0021 61.4981 41.6248 62.1191 40.3292C62.4716 39.6206 62.9 38.9523 63.3967 38.3361C63.6213 38.0735 63.8607 37.8239 64.1137 37.5884C64.2332 37.4819 64.3462 37.3711 64.4613 37.2755L64.809 37.0168C65.0068 36.8672 65.2152 36.7321 65.4325 36.6125C65.5281 36.5582 65.6129 36.5039 65.6976 36.4604L65.9301 36.3561L66.256 36.2148C66.2878 36.197 66.3213 36.1824 66.356 36.1713Z" fill="#263238"/>
<path d="M34.5664 55.6067C34.5698 55.5851 34.5756 55.564 34.5838 55.5437L34.6446 55.3655L34.8836 54.6678C35.1009 54.0549 35.4116 53.1659 35.8071 52.0422L39.0662 42.8201L39.0879 42.7635L39.1401 42.794C40.3264 43.4786 41.4758 44.348 42.7403 45.137L46.7143 47.5409L46.7512 47.5626L46.7404 47.6039C46.6621 47.8734 46.5796 48.1625 46.497 48.4538C44.5415 55.2459 42.7881 61.3317 41.6213 65.3831C40.8761 67.0372 39.9722 68.2239 39.1466 68.7868C38.8381 69.0121 38.4807 69.1611 38.1037 69.2215C38.0061 69.2304 37.9079 69.2304 37.8103 69.2215C37.9078 69.2231 38.0053 69.2158 38.1015 69.1998C38.4713 69.1371 38.8211 68.9882 39.1227 68.7651C39.9309 68.2 40.8239 67.0133 41.5518 65.3658C42.7077 61.3122 44.4481 55.222 46.3884 48.4277C46.4709 48.1364 46.5535 47.8452 46.6317 47.5778L46.6556 47.6409L42.6925 45.2305C41.4236 44.435 40.2764 43.5656 39.101 42.8831L39.1748 42.8548C37.8212 46.6237 36.674 49.81 35.8657 52.0618L34.9162 54.67C34.8054 54.9677 34.7185 55.2003 34.6598 55.3611L34.5925 55.5394C34.5869 55.5629 34.5781 55.5856 34.5664 55.6067Z" fill="#263238"/>
<path d="M34.74 55.4611C34.74 55.4807 34.451 55.5981 34.0078 55.8545C33.4315 56.189 32.903 56.5999 32.4369 57.076C31.9734 57.5559 31.5779 58.0971 31.2614 58.6844C31.0181 59.1343 30.9073 59.4343 30.8877 59.4278C30.8995 59.3529 30.9207 59.2799 30.9507 59.2104C31.0187 59.018 31.0986 58.83 31.1897 58.6475C31.7951 57.4268 32.7667 56.426 33.9687 55.785C34.149 55.6874 34.3356 55.6018 34.5271 55.5285C34.5945 55.4962 34.6662 55.4735 34.74 55.4611Z" fill="#263238"/>
<path d="M34.8228 54.82C34.629 54.8347 34.4346 54.8383 34.2405 54.8308C33.3077 54.8475 32.3853 55.0292 31.5158 55.3677C31.3393 55.4511 31.158 55.5237 30.9727 55.585C31.1292 55.4663 31.3019 55.3704 31.4854 55.3003C31.9166 55.1049 32.3685 54.959 32.8325 54.8656C33.2968 54.7742 33.7697 54.7348 34.2427 54.7482C34.4384 54.7448 34.6337 54.7689 34.8228 54.82Z" fill="#263238"/>
<path d="M66.1495 70.856L66.0213 70.8082L65.6454 70.656C65.4846 70.5843 65.2717 70.5169 65.0414 70.393L64.2418 69.9866C62.5866 69.0251 61.0827 67.8239 59.779 66.422C58.0951 64.6832 56.3721 62.3489 54.749 59.5951C53.0033 56.5963 51.514 53.4553 50.2971 50.2056C50.1515 49.8165 50.0102 49.4275 49.8799 49.0384V49.0058L49.9038 48.9797L57.3476 41.7311L57.3846 41.6942L57.4193 41.7333C58.4842 42.854 59.4367 44.0762 60.2635 45.3826C60.4451 45.683 60.6048 45.996 60.7415 46.3194C60.8813 46.6295 60.9595 46.9639 60.9718 47.304C60.962 47.4676 60.9276 47.6288 60.8697 47.7821C60.8257 47.9305 60.7908 48.0815 60.7654 48.2342C60.7419 48.3782 60.7419 48.525 60.7654 48.6689C60.7729 48.7351 60.798 48.7981 60.8381 48.8512C60.8783 48.9044 60.9319 48.9457 60.9935 48.971H61.0066L64.3526 52.4486L65.2434 53.3811L65.4716 53.6245C65.5216 53.6788 65.5455 53.7092 65.5455 53.7092L65.4629 53.631L65.2282 53.3963L64.3244 52.4769L60.9544 49.0254H60.974C60.8971 48.9987 60.8292 48.9509 60.7781 48.8875C60.727 48.8241 60.6947 48.7476 60.685 48.6667C60.6578 48.5122 60.6578 48.354 60.685 48.1994C60.7089 48.0429 60.7438 47.8882 60.7893 47.7365C60.8441 47.5893 60.8763 47.4347 60.8849 47.2779C60.8717 46.9494 60.7942 46.6267 60.6568 46.328C60.5216 46.0164 60.364 45.7149 60.1853 45.426C59.359 44.1279 58.4079 42.9137 57.3455 41.8007H57.4193C55.1597 43.9981 52.6393 46.4519 49.9733 49.0493L49.9863 48.9906C50.1167 49.3753 50.2579 49.7643 50.4035 50.1534C51.6187 53.3967 53.1021 56.5331 54.8381 59.5299C56.4546 62.2815 58.1646 64.6137 59.8355 66.3547C61.1308 67.7556 62.6224 68.9614 64.2635 69.9344L65.0566 70.3517C65.2847 70.4778 65.4911 70.5473 65.6541 70.6234L66.0256 70.7864L66.1495 70.856Z" fill="#263238"/>
<path d="M53.8346 61.0296C53.736 61.037 53.6369 61.0334 53.5391 61.0187C53.2703 60.9912 53.0043 60.9411 52.7439 60.8688C51.8773 60.6362 51.0805 60.1957 50.4225 59.5856C49.7645 58.9754 49.2651 58.214 48.9676 57.3673C48.8744 57.1134 48.8018 56.8525 48.7504 56.587C48.7291 56.4899 48.7181 56.3908 48.7178 56.2914C48.7395 56.2914 48.7938 56.7087 49.035 57.339C49.3464 58.1633 49.8445 58.9041 50.4903 59.5033C51.1361 60.1026 51.9119 60.5439 52.7569 60.7927C53.4131 60.9861 53.8368 61.0079 53.8346 61.0296Z" fill="#263238"/>
<path d="M60.6199 75.5421C60.6199 75.5421 60.6068 75.5551 60.5743 75.5768L60.433 75.6703L59.8811 76.0246L59.4705 76.2897C59.3227 76.3767 59.1554 76.4636 58.9773 76.5592C58.6209 76.7483 58.2255 76.9939 57.7562 77.1852L57.0305 77.5156C56.7763 77.6308 56.5025 77.7329 56.2244 77.8329C55.6725 78.0633 55.0576 78.2394 54.4145 78.4415C51.6004 79.2498 48.658 79.5132 45.7452 79.2174C45.0782 79.1327 44.4415 79.0653 43.8549 78.9392C43.5616 78.8784 43.2769 78.8371 43.0075 78.7697L42.234 78.5719C41.7365 78.4567 41.3041 78.2959 40.9304 78.1742C40.7392 78.109 40.5588 78.0546 40.398 77.9938L39.9635 77.8155L39.3595 77.5656L39.203 77.4982C39.1851 77.4907 39.1677 77.482 39.1509 77.4721C39.1705 77.4736 39.1897 77.4788 39.2074 77.4873L39.3682 77.5438L39.9787 77.7742L40.4132 77.9438C40.5762 78.0003 40.7565 78.0524 40.9477 78.1133C41.3345 78.2285 41.7669 78.385 42.2623 78.4937L43.0206 78.6806C43.29 78.7436 43.5768 78.7849 43.8679 78.8414C44.4524 78.9653 45.0868 79.0262 45.7517 79.1088C48.6514 79.3915 51.5783 79.1298 54.3819 78.3372C55.0229 78.1394 55.6356 77.9655 56.1875 77.7416C56.4656 77.633 56.7393 77.5438 56.9914 77.4308L57.7193 77.107C58.1864 76.9135 58.5884 76.6723 58.9447 76.5006C59.1207 76.4049 59.2902 76.3223 59.4401 76.2376L59.8442 75.9941L60.4048 75.6594L60.5525 75.5747C60.5729 75.56 60.5957 75.5489 60.6199 75.5421Z" fill="#263238"/>
<path d="M57.6281 69.9627C57.6164 69.9999 57.6003 70.0357 57.5803 70.0692L57.4217 70.3626C57.3389 70.5178 57.2483 70.6687 57.1501 70.8147C57.0371 70.9886 56.9176 71.1907 56.759 71.395L56.52 71.7232C56.4353 71.8362 56.3375 71.9406 56.2397 72.0666C56.0507 72.3057 55.8247 72.5404 55.5879 72.7904C54.5481 73.8631 53.329 74.7458 51.9854 75.3986C51.6726 75.5399 51.3792 75.6811 51.0924 75.7855C50.8056 75.8898 50.5406 75.9898 50.2929 76.068C50.0452 76.1463 49.8192 76.2028 49.6193 76.255C49.4194 76.3071 49.2478 76.3441 49.1044 76.3701L48.7763 76.4267C48.7388 76.4368 48.7 76.4412 48.6611 76.4397C48.6962 76.4229 48.7336 76.4112 48.7719 76.4049L49.0957 76.3267C49.2369 76.2941 49.4086 76.255 49.6041 76.1941C49.7997 76.1332 50.0256 76.0811 50.269 75.992C50.5123 75.9028 50.7796 75.8181 51.0577 75.6985C51.3358 75.579 51.6313 75.4486 51.9398 75.303C53.2665 74.65 54.474 73.7786 55.5118 72.7252C55.7465 72.4774 55.9746 72.247 56.1637 72.0123C56.2614 71.8949 56.3614 71.7949 56.4461 71.6754L56.6916 71.3537C56.8524 71.1538 56.9763 70.956 57.0936 70.7886C57.2109 70.6212 57.3109 70.4713 57.3782 70.3539C57.4456 70.2365 57.5086 70.1474 57.5542 70.0714C57.5999 69.9953 57.6238 69.9605 57.6281 69.9627Z" fill="#263238"/>
<path d="M52.611 49.61C52.0713 49.0642 51.7321 48.3518 51.6484 47.5887C51.6832 47.5887 51.794 48.0755 52.0613 48.632C52.3285 49.1884 52.6392 49.5883 52.611 49.61Z" fill="#263238"/>
<path d="M54.6773 47.4061C54.4684 47.0722 54.2916 46.7192 54.1493 46.352C53.9734 45.9997 53.8315 45.6315 53.7256 45.2522C53.935 45.5858 54.1118 45.9388 54.2536 46.3063C54.4299 46.6584 54.5717 47.0267 54.6773 47.4061Z" fill="#263238"/>
<path d="M56.9261 45.3065C56.8935 45.3174 56.7218 44.8718 56.4415 44.3437C56.1612 43.8155 55.8853 43.4243 55.9114 43.4047C56.1728 43.6594 56.3862 43.9591 56.5415 44.2893C56.7292 44.6028 56.8595 44.9473 56.9261 45.3065Z" fill="#263238"/>
<path d="M43.2749 48.6559C43.3478 48.2019 43.4583 47.7548 43.6052 47.3192C43.7181 46.9258 43.8224 46.5737 43.9072 46.3389C43.9185 46.2211 43.9486 46.1059 43.9963 45.9977C44.0073 46.1152 44.0022 46.2337 43.981 46.3498C43.9224 46.591 43.8268 46.9453 43.7138 47.3387C43.6039 47.7891 43.4571 48.2296 43.2749 48.6559Z" fill="#263238"/>
<path d="M40.9804 43.9481C40.9311 44.2668 40.8458 44.5789 40.7262 44.8784C40.6403 45.1893 40.52 45.4896 40.3677 45.7739C40.4141 45.4541 40.4988 45.141 40.6197 44.8414C40.7043 44.5305 40.8254 44.2306 40.9804 43.9481Z" fill="#263238"/>
<g opacity="0.2">
<path d="M34.6552 55.5524C34.6346 55.3691 34.5664 55.1944 34.4574 55.0457C34.3484 54.897 34.2024 54.7794 34.0338 54.7047C33.6947 54.5612 33.3327 54.4795 32.9648 54.4635C33.5015 54.2461 34.0512 54.0288 34.4706 53.644C34.9464 53.1963 35.2006 52.5573 35.4418 51.9596C35.9937 50.5642 36.5499 49.0101 36.0241 47.6126C35.9437 47.3952 35.9046 47.0518 36.1349 47.0192C36.2892 46.9997 36.3956 47.1648 36.4608 47.3083C36.6781 47.7908 36.8954 48.2755 37.1235 48.758" fill="black"/>
</g>
<g opacity="0.2">
<path d="M48.9913 57.2629C48.9012 58.152 49.038 59.0494 49.3889 59.8711C49.7148 60.6297 50.258 61.3361 51.0206 61.6469C51.7833 61.9577 52.7827 61.7664 53.226 61.0709C52.3047 60.7384 51.3683 60.395 50.5904 59.7994C49.8126 59.2039 49.2042 58.304 49.2042 57.3238" fill="black"/>
</g>
<path d="M63.0097 34.076L62.9424 34.1456L62.736 34.3412L61.9364 35.0867L58.988 37.8188L49.2106 46.7823L48.2133 47.6952L48.1763 47.73L48.1372 47.6952L38.7944 39.6054L36.0154 37.1668L35.2658 36.5147L35.0724 36.3408C35.029 36.3017 35.0073 36.28 35.0094 36.2778L35.079 36.3321L35.2788 36.4973L36.0437 37.1494L38.8552 39.5554L48.2154 47.5996H48.1416L49.1389 46.6867L58.9336 37.7471L61.9103 35.0476L62.7251 34.3173L62.9424 34.1304C62.963 34.1101 62.9856 34.0919 63.0097 34.076Z" fill="white"/>
<path d="M70.2387 45.4435C70.1139 45.4673 69.9875 45.4811 69.8606 45.4848C69.7411 45.4848 69.5934 45.5022 69.4261 45.5261C69.2588 45.55 69.0589 45.5652 68.8459 45.6065C68.633 45.6478 68.3983 45.6804 68.1506 45.7391C67.903 45.7977 67.6401 45.8651 67.3641 45.9412C66.7694 46.1214 66.1885 46.3444 65.6259 46.6085C65.0679 46.88 64.5299 47.1909 64.0159 47.5387C63.7834 47.7061 63.5596 47.8604 63.3641 48.0234C63.1685 48.1864 62.9838 48.3364 62.8231 48.4798C62.6623 48.6233 62.521 48.7624 62.3885 48.8819C62.256 49.0015 62.1604 49.0993 62.0778 49.1971C61.9952 49.2924 61.9059 49.3818 61.8105 49.4644C61.881 49.3593 61.9594 49.2597 62.0452 49.1667C62.1234 49.0732 62.219 48.9493 62.3429 48.8363C62.4667 48.7233 62.5949 48.5668 62.76 48.4212C62.9252 48.2755 63.0946 48.1103 63.2967 47.9517C63.4988 47.793 63.7161 47.6235 63.9485 47.454C64.4647 47.098 65.0082 46.7834 65.5738 46.5128C66.141 46.2465 66.728 46.0241 67.3293 45.8477C67.6096 45.7738 67.8747 45.6999 68.1267 45.6543C68.3788 45.6087 68.6134 45.563 68.8307 45.5326C69.048 45.5022 69.2435 45.4869 69.4152 45.4695C69.5868 45.4522 69.7368 45.4478 69.8497 45.4456C69.9792 45.4356 70.1091 45.4349 70.2387 45.4435Z" fill="white"/>
<path d="M71.0971 68.752C71.1076 68.704 71.1236 68.6573 71.1449 68.6129C71.1861 68.5129 71.2383 68.3956 71.3013 68.226C71.3915 68.0263 71.4706 67.8217 71.5381 67.6131L71.6685 67.2219C71.6924 67.1545 71.7163 67.0828 71.7402 67.0045C71.7641 66.9263 71.7793 66.8524 71.801 66.7741C71.8935 66.436 71.966 66.0927 72.0183 65.7461C72.0466 65.557 72.0922 65.3657 72.1074 65.1658C72.1226 64.9658 72.1422 64.7571 72.1595 64.5441C72.1992 63.6225 72.1182 62.6996 71.9184 61.799C71.7118 60.8967 71.4012 60.0214 70.9928 59.1908C70.6641 58.5088 70.2902 57.8495 69.8738 57.2173C69.511 56.6826 69.2089 56.2544 68.9851 55.9697L68.744 55.6415C68.7124 55.6043 68.6854 55.5634 68.6636 55.5198C68.6986 55.5529 68.7313 55.5885 68.7614 55.6263L69.0264 55.948C69.2611 56.2262 69.574 56.6478 69.9455 57.1803C70.3751 57.8088 70.7585 58.4677 71.0927 59.1517C71.511 59.9867 71.8275 60.869 72.0357 61.7794C72.2375 62.6892 72.3165 63.622 72.2704 64.5528C72.253 64.7702 72.2334 64.9745 72.216 65.1788C72.1986 65.3831 72.1508 65.5744 72.1204 65.7635C72.0603 66.1129 71.979 66.4584 71.8771 66.7981C71.8554 66.8763 71.838 66.9545 71.8141 67.0284L71.738 67.2458C71.6881 67.3827 71.6424 67.5131 71.5968 67.6348C71.5237 67.8424 71.4389 68.0456 71.3426 68.2434C71.2687 68.3999 71.21 68.526 71.1666 68.6238C71.1469 68.6683 71.1236 68.7112 71.0971 68.752Z" fill="white"/>
<path d="M60.9438 67.1372C61.1495 67.1976 61.365 67.2176 61.5783 67.1958C61.8663 67.1517 62.1415 67.0464 62.3855 66.8871C62.6294 66.7278 62.8365 66.5181 62.9928 66.2721C63.4164 65.6635 63.6728 64.7985 63.9596 63.8617C64.2584 62.8363 64.4764 61.7891 64.6115 60.7297C64.856 58.8028 64.8333 56.8514 64.5441 54.9308C64.429 54.1962 64.3029 53.605 64.2073 53.192C64.1617 52.9964 64.1226 52.8421 64.0943 52.7247C64.0789 52.6707 64.0687 52.6154 64.0639 52.5595C64.0861 52.6109 64.1043 52.664 64.1182 52.7182C64.1508 52.8334 64.1943 52.9877 64.2508 53.1811C64.3594 53.5832 64.4963 54.1722 64.6245 54.9199C65.1147 57.9179 64.9216 60.988 64.0596 63.9008C63.7663 64.8398 63.5012 65.7048 63.0579 66.3264C62.8639 66.6088 62.6093 66.8442 62.3127 67.0154C62.0887 67.1441 61.8398 67.2234 61.5826 67.248C61.4214 67.2642 61.2586 67.2502 61.1025 67.2067C61.0471 67.1897 60.9939 67.1663 60.9438 67.1372Z" fill="white"/>
<path d="M59.2921 52.5052C59.2436 52.5929 59.1869 52.6759 59.1227 52.753C59.0566 52.8484 58.984 52.9392 58.9054 53.0246C58.8034 53.1425 58.6953 53.2549 58.5816 53.3615C58.4443 53.4933 58.2992 53.6167 58.1471 53.731C57.9907 53.8614 57.806 53.9788 57.6169 54.107C56.769 54.6363 55.8092 54.96 54.8141 55.0525C54.5974 55.0714 54.3798 55.0786 54.1623 55.0742C53.9734 55.0745 53.7847 55.0629 53.5973 55.0395C53.4425 55.025 53.2887 55.001 53.1367 54.9677C53.0206 54.9489 52.9058 54.9221 52.7934 54.8873C52.6961 54.8642 52.6009 54.8329 52.5088 54.7939C52.5088 54.7678 52.9238 54.9004 53.5952 54.9612C53.7808 54.978 53.9672 54.9846 54.1536 54.9808C54.3669 54.9813 54.5802 54.9704 54.7924 54.9482C55.7688 54.8456 56.7104 54.5279 57.5496 54.0179C57.7386 53.894 57.9233 53.7832 58.0797 53.6571C58.2309 53.547 58.376 53.4288 58.5143 53.3028C59.0271 52.8421 59.2726 52.49 59.2921 52.5052Z" fill="white"/>
<path d="M62.0408 50.1187C62.0521 50.195 62.0521 50.2727 62.0408 50.3491C62.0294 50.5586 62.0033 50.767 61.9626 50.9728C61.9082 51.2797 61.8305 51.582 61.7301 51.877C61.4851 52.6029 61.1176 53.2814 60.6437 53.8832C60.4495 54.1275 60.2382 54.3577 60.0114 54.5722C59.8598 54.7167 59.6995 54.8517 59.5312 54.9764C59.4725 55.0266 59.4075 55.069 59.3379 55.1025C59.3248 55.0851 59.5856 54.8851 59.9571 54.5135C60.1723 54.2941 60.374 54.0618 60.5611 53.818C60.7878 53.5179 60.9926 53.202 61.1738 52.8725C61.3516 52.5407 61.5048 52.1964 61.6323 51.8422C61.7359 51.5531 61.8208 51.2576 61.8865 50.9576C61.9973 50.4425 62.0212 50.1165 62.0408 50.1187Z" fill="white"/>
<path d="M57.5392 63.4661C57.5392 63.4661 57.5392 63.4813 57.5087 63.5052L57.4088 63.6118L57.0133 64.0117L55.5489 65.4788L50.6515 70.3126L50.6211 70.3431L50.5842 70.3213L50.2669 70.1388L44.0941 66.5742L42.2321 65.4875L41.728 65.1854L41.5976 65.1028C41.5694 65.0854 41.5542 65.0745 41.5564 65.0723L41.6042 65.0941L41.7389 65.1658L42.2538 65.4484L44.1354 66.509L50.3234 70.0453L50.6407 70.2279H50.5733L55.4924 65.4223L56.9851 63.9812L57.3914 63.5944L57.5 63.4966L57.5392 63.4661Z" fill="white"/>
<path d="M50.0019 58.6105C50.0061 58.635 50.0061 58.66 50.0019 58.6844C50.0019 58.7593 49.9864 58.8333 49.9562 58.9018C49.8998 59.0228 49.8171 59.1297 49.7141 59.2147C49.6111 59.2996 49.4904 59.3606 49.3609 59.393C49.1684 59.436 48.9692 59.4389 48.7756 59.4015C48.5819 59.3641 48.3981 59.2872 48.2354 59.1756C47.8617 58.9474 47.4989 58.6453 47.0991 58.3519C46.306 57.752 45.5933 57.2043 45.0806 56.8044L44.4766 56.324C44.3981 56.2691 44.3253 56.2065 44.2593 56.1371C44.3441 56.1792 44.4242 56.2302 44.4983 56.2892L45.124 56.7391C45.6498 57.1239 46.3712 57.6629 47.1621 58.2606C47.5619 58.554 47.9269 58.8627 48.2854 59.0865C48.4351 59.1952 48.6053 59.2725 48.7856 59.3136C48.966 59.3547 49.1528 59.3588 49.3348 59.3256C49.4563 59.2978 49.5706 59.2448 49.6701 59.1699C49.7697 59.095 49.8524 58.9999 49.9128 58.8909C49.9541 58.8016 49.9841 58.7074 50.0019 58.6105Z" fill="white"/>
<path d="M53.1521 55.7545C52.9614 55.8638 52.7648 55.9625 52.5632 56.0501C51.6123 56.516 50.7263 57.1042 49.9277 57.7998C49.7695 57.9549 49.6019 58.1 49.4258 58.2345C49.5557 58.0554 49.7059 57.892 49.8734 57.7476C50.6493 57.0102 51.5478 56.4137 52.5285 55.9849C52.7267 55.8842 52.936 55.8069 53.1521 55.7545Z" fill="white"/>
<g opacity="0.3">
<path d="M60.5506 48.882C59.4186 51.8249 59.2144 54.833 59.5903 57.965C59.7196 58.7095 59.9385 59.4357 60.2421 60.1276C60.4758 60.7447 60.9303 61.2528 61.5175 61.5535C62.0585 61.8012 62.7799 61.7556 63.1536 61.2926C63.4208 60.9623 63.4534 60.5037 63.4187 60.0798C63.3231 58.9931 62.8407 57.9824 62.4279 56.9717C61.3746 54.3924 60.7302 51.6644 60.518 48.8863" fill="black"/>
</g>
<g opacity="0.3">
<path d="M68.1114 54.7547C69.2457 55.6663 70.0246 56.9469 70.3124 58.3736C70.3537 58.758 70.4633 59.1319 70.6362 59.4777C70.8404 59.8059 71.2706 60.0363 71.6182 59.8711C72.0528 59.6668 72.0528 59.0669 71.9572 58.6062C71.7098 57.5634 71.193 56.6038 70.4587 55.8235C69.7243 55.0431 68.798 54.4692 67.7725 54.1592" fill="black"/>
</g>
<path d="M50.2275 79.2262C50.2123 79.2544 47.492 77.7286 44.1438 75.8203C40.7956 73.912 38.1079 72.3427 38.1231 72.3166C38.1383 72.2905 40.8586 73.8142 44.2068 75.7225C47.555 77.6308 50.2427 79.2001 50.2275 79.2262Z" fill="white"/>
<path d="M54.4969 78.3568C54.4315 78.4223 54.3585 78.48 54.2796 78.5285L53.6799 78.9632C53.1715 79.3261 52.4632 79.8195 51.6788 80.3564L51.0705 80.7715L51.0422 80.7911L51.014 80.7737C50.3339 80.3998 49.7407 80.0673 49.3214 79.8239L48.8303 79.537C48.7687 79.5055 48.7111 79.4669 48.6587 79.4218C48.725 79.44 48.7886 79.467 48.8477 79.5022L49.3561 79.763C49.7907 79.9804 50.3839 80.3064 51.0661 80.678H51.0096L51.6136 80.2607C52.4002 79.7239 53.115 79.2414 53.6343 78.8958L54.2557 78.4915C54.3308 78.4377 54.4117 78.3925 54.4969 78.3568Z" fill="white"/>
<g opacity="0.3">
<path d="M59.3643 76.4027C58.6016 75.5333 57.2915 75.3268 56.1638 75.5768C55.0361 75.8268 54.0323 76.4592 53.0416 77.0548C52.0508 77.6503 51.0035 78.2285 49.8541 78.3589C48.5092 78.511 47.186 78.0307 45.8584 77.7655C44.5309 77.5003 42.9969 77.509 42.0083 78.4349C45.0246 79.3303 48.2004 79.5529 51.312 79.087C55.0361 78.498 59.3643 76.4027 59.3643 76.4027Z" fill="black"/>
</g>
<path d="M43.5223 57.4955C43.4007 57.4918 43.2794 57.4794 43.1595 57.4586C43.0443 57.4434 42.9009 57.4216 42.738 57.389C42.575 57.3564 42.386 57.3238 42.1839 57.2717C41.7043 57.16 41.2313 57.0214 40.7673 56.8565C39.63 56.45 38.5516 55.8946 37.5603 55.2047C37.1567 54.9231 36.7686 54.6198 36.3979 54.2961C36.2371 54.1614 36.1024 54.0266 35.9807 53.9114C35.859 53.7962 35.7634 53.6941 35.6787 53.6093C35.5912 53.5245 35.5106 53.4329 35.4375 53.3354C35.5349 53.4086 35.6265 53.4892 35.7113 53.5767C35.7938 53.6593 35.8981 53.7571 36.0241 53.8658C36.1502 53.9745 36.287 54.1049 36.4587 54.2353C36.7781 54.5048 37.1735 54.8069 37.6276 55.1199C38.1244 55.4541 38.6394 55.7603 39.1703 56.0371C39.7038 56.3084 40.2522 56.5493 40.8129 56.7587C41.2715 56.9276 41.7386 57.0727 42.2122 57.1934C42.412 57.2521 42.5967 57.289 42.7597 57.326C42.9226 57.3629 43.0617 57.3934 43.1769 57.4151C43.2942 57.4315 43.4098 57.4585 43.5223 57.4955Z" fill="white"/>
<path d="M30.7486 66.1895C30.7317 66.1559 30.72 66.12 30.7139 66.083C30.6943 65.9982 30.6682 65.8961 30.6378 65.77C30.6226 65.7005 30.6052 65.6244 30.5857 65.5527C30.5661 65.4809 30.5596 65.3766 30.5444 65.2788C30.5066 65.0572 30.4805 64.8337 30.4662 64.6094C30.4662 64.4855 30.4488 64.3529 30.4379 64.2181C30.4271 64.0834 30.4379 63.9399 30.4379 63.7834C30.4379 63.49 30.4618 63.177 30.4857 62.8466C30.6303 61.4121 31.0792 60.025 31.8024 58.7779C31.9762 58.4953 32.1349 58.2236 32.313 57.9889C32.3999 57.8715 32.4782 57.752 32.5629 57.6476C32.6476 57.5433 32.7345 57.4303 32.8149 57.3455C32.9581 57.1716 33.1104 57.0055 33.2712 56.8478C33.3407 56.7782 33.4037 56.7109 33.4646 56.6522L33.6406 56.4979L33.8839 56.2805C33.9114 56.2553 33.9413 56.2327 33.973 56.2131C33.973 56.2131 33.9513 56.2457 33.8991 56.2979L33.6819 56.5152C33.6297 56.5652 33.5732 56.6174 33.5146 56.6761C33.4559 56.7348 33.3951 56.8043 33.3277 56.876C33.1952 57.0238 33.0366 57.1825 32.8931 57.3803L32.6498 57.6846C32.5672 57.7911 32.4912 57.9019 32.4065 58.028C32.2326 58.2627 32.0784 58.5344 31.9089 58.8148C31.5627 59.4385 31.2761 60.0934 31.0528 60.771C30.8403 61.449 30.6911 62.1453 30.6074 62.851C30.5792 63.177 30.5466 63.4878 30.5487 63.7791C30.5487 63.9247 30.5487 64.066 30.5487 64.2007C30.5487 64.3355 30.5618 64.4637 30.5661 64.5898C30.576 64.8124 30.597 65.0344 30.6291 65.2549C30.6291 65.3527 30.6487 65.444 30.6617 65.5287L30.703 65.7461L30.7573 66.0634C30.7583 66.1056 30.7554 66.1478 30.7486 66.1895Z" fill="white"/>
<path d="M35.6833 52.1161C35.5976 52.0673 35.5162 52.0113 35.4399 51.9488L34.7881 51.4684L32.6501 49.897C31.8114 49.2884 31.051 48.7341 30.5078 48.3277C30.2362 48.1234 30.0167 47.956 29.8559 47.8387C29.7775 47.7821 29.7048 47.718 29.6387 47.6474C29.7282 47.6901 29.8127 47.7426 29.8907 47.8039L30.5425 48.2625C31.0988 48.6537 31.8657 49.1971 32.7153 49.8057C33.5648 50.4143 34.3036 50.9837 34.8381 51.4054C35.1032 51.6227 35.3183 51.7901 35.4617 51.914C35.5432 51.9724 35.6176 52.0403 35.6833 52.1161Z" fill="white"/>
<path d="M58.9643 8.30493C59.0447 10.5349 62.0192 11.889 61.9822 14.1212C61.9649 15.0797 61.3717 15.9404 61.2544 16.8902C61.0979 18.1704 61.8128 19.3767 62.0757 20.6374C62.6189 23.2456 61.1088 25.9755 58.8687 27.3991C56.6286 28.8228 53.817 29.0923 51.188 28.7315" fill="#263238"/>
<path d="M41.0041 7.7572C41.0932 8.9548 40.3023 10.0242 39.5049 10.924C38.7075 11.8238 37.821 12.7584 37.6494 13.9473C37.343 16.0556 39.4049 18.0118 38.9813 20.0983C38.764 21.2155 37.8384 22.1132 37.6776 23.2434C37.5212 24.3301 38.1121 25.4038 38.8313 26.2363C39.5505 27.0687 40.3979 26.9448 41.0389 27.8447C41.7848 28.8535 42.7327 29.6959 43.8222 30.3181C46.134 31.5853 48.9064 29.753 50.021 29.4248" fill="#263238"/>
<path d="M59.4117 9.58942C59.4421 8.50267 58.4383 7.6637 57.4279 7.26378C56.4176 6.86386 55.2921 6.71606 54.3861 6.10965C53.5887 5.5728 53.052 4.73383 52.3763 4.04918C51.5429 3.20379 50.4996 2.5955 49.3535 2.28677C48.2074 1.97803 46.9998 1.97998 45.8547 2.2924C44.7096 2.60482 43.6683 3.21647 42.8376 4.06454C42.0069 4.91261 41.4168 5.96655 41.1279 7.11816C40.739 8.66569 41.0041 10.4958 42.2143 11.5238C43.6309 12.7171 45.7276 12.4519 47.5419 12.0803C49.3561 11.7086 51.4072 11.3434 52.9216 12.4085C53.8342 13.0605 54.3578 14.0973 54.9162 15.0645C55.4746 16.0317 56.1742 17.0206 57.2302 17.3814C58.2862 17.7422 59.718 17.1162 59.7593 16.0012" fill="#263238"/>
<path d="M44.9762 34.8976C44.961 32.4046 44.9458 29.9747 44.9458 29.9877C44.9458 30.0007 40.987 29.3226 40.1766 24.1497C39.7746 21.5784 39.9137 17.364 40.1375 13.919C40.3395 10.8175 42.4015 7.01818 45.4911 7.35072L55.1317 9.81112C55.5841 9.86001 56.0016 10.077 56.3018 10.4191C56.6019 10.7612 56.7628 11.2035 56.7525 11.6586L55.8704 35.0715C55.8166 36.4994 55.2044 37.849 54.1658 38.8299C53.1271 39.8108 51.745 40.3445 50.3168 40.3162C48.8961 40.2878 47.5427 39.7055 46.545 38.6933C45.5474 37.6811 44.9844 36.3191 44.9762 34.8976Z" fill="#FFBE9D"/>
<path d="M41.7754 16.8728C41.7741 17.0458 41.84 17.2125 41.9592 17.3377C42.0783 17.463 42.2415 17.5371 42.4142 17.5445C42.4981 17.5513 42.5825 17.5413 42.6625 17.5152C42.7425 17.489 42.8165 17.4473 42.8802 17.3922C42.9439 17.3372 42.996 17.2701 43.0335 17.1947C43.071 17.1193 43.0931 17.0373 43.0986 16.9533C43.1009 16.8674 43.0863 16.782 43.0555 16.7019C43.0247 16.6218 42.9784 16.5485 42.9193 16.4863C42.8601 16.4241 42.7893 16.3742 42.7108 16.3394C42.6324 16.3047 42.5478 16.2858 42.462 16.2838C42.3781 16.2767 42.2937 16.2864 42.2135 16.3122C42.1334 16.3381 42.0593 16.3796 41.9954 16.4345C41.9315 16.4893 41.8791 16.5563 41.8413 16.6315C41.8036 16.7068 41.7812 16.7888 41.7754 16.8728Z" fill="#263238"/>
<path d="M41.0456 16.1143C41.126 16.2012 41.6301 15.8296 42.3493 15.8339C43.0684 15.8382 43.5834 16.1947 43.6529 16.1078C43.692 16.0686 43.6073 15.9121 43.3813 15.747C43.0734 15.531 42.7057 15.417 42.3297 15.4209C41.9593 15.4182 41.5977 15.534 41.2976 15.7513C41.0782 15.9187 41.0043 16.0839 41.0456 16.1143Z" fill="#263238"/>
<path d="M48.7002 17.0533C48.6984 17.2261 48.7642 17.3929 48.8835 17.5179C49.0029 17.643 49.1663 17.7165 49.339 17.7227C49.4232 17.7295 49.508 17.7194 49.5882 17.693C49.6685 17.6666 49.7427 17.6244 49.8065 17.5689C49.8702 17.5135 49.9222 17.4458 49.9595 17.3699C49.9968 17.2941 50.0185 17.2115 50.0234 17.1272C50.0253 16.9541 49.9596 16.7871 49.8403 16.6617C49.721 16.5363 49.5576 16.4623 49.3846 16.4555C49.3003 16.4487 49.2153 16.4589 49.1349 16.4854C49.0545 16.512 48.9803 16.5543 48.9165 16.6101C48.8527 16.6658 48.8007 16.7337 48.7636 16.8098C48.7264 16.8859 48.7049 16.9687 48.7002 17.0533Z" fill="#263238"/>
<path d="M48.0547 16.2621C48.1372 16.349 48.6391 15.9795 49.3583 15.9817C50.0775 15.9838 50.5946 16.3425 50.662 16.2555C50.7011 16.2186 50.6185 16.0621 50.3904 15.8947C50.0816 15.6806 49.7144 15.5668 49.3388 15.5687C48.9683 15.566 48.6067 15.6818 48.3067 15.8991C48.0894 16.0686 48.0177 16.2229 48.0547 16.2621Z" fill="#263238"/>
<path d="M45.4543 21.5481C45.4543 21.5068 45.0197 21.4285 44.2962 21.3307C44.1159 21.3111 43.9421 21.2764 43.9116 21.1503C43.8979 20.9623 43.941 20.7744 44.0355 20.6113L44.5765 19.2268C45.3283 17.2532 45.8802 15.6296 45.7932 15.5992C45.7063 15.5688 45.0393 17.1467 44.2875 19.1181C44.1065 19.6049 43.9334 20.0701 43.7682 20.5135C43.6538 20.7333 43.62 20.9863 43.6726 21.2285C43.6989 21.293 43.7396 21.3507 43.7916 21.397C43.8435 21.4433 43.9054 21.4772 43.9725 21.4959C44.0732 21.5227 44.1768 21.5373 44.281 21.5394C45.0045 21.5828 45.4521 21.5872 45.4543 21.5481Z" fill="#263238"/>
<path d="M44.9434 29.9943C47.3764 30.0373 49.7736 29.4037 51.8679 28.1642C51.8093 28.1642 49.9624 31.757 45.0107 31.2071L44.9434 29.9943Z" fill="#EB996E"/>
<path d="M47.9112 12.7301C47.9286 12.9345 48.6391 13.0323 49.4321 13.3496C50.2252 13.6669 50.8053 14.0647 50.9531 13.9256C51.0226 13.8582 50.9531 13.6517 50.7358 13.3974C50.4442 13.0802 50.0844 12.8334 49.6836 12.6757C49.2827 12.5179 48.8513 12.4533 48.4218 12.4867C48.0959 12.5258 47.9069 12.6323 47.9112 12.7301Z" fill="#263238"/>
<path d="M41.1892 14.0886C41.3456 14.2212 41.791 13.9582 42.369 13.8299C42.9469 13.7017 43.4553 13.7169 43.5379 13.5278C43.5705 13.4387 43.4619 13.2953 43.2163 13.1888C42.8929 13.0628 42.5382 13.0408 42.2017 13.1257C42.0265 13.1363 41.8564 13.1883 41.7054 13.2775C41.5543 13.3667 41.4265 13.4905 41.3326 13.6387C41.1522 13.8452 41.1196 14.0212 41.1892 14.0886Z" fill="#263238"/>
<path d="M57.3151 27.1057C55.8942 27.3926 55.7681 26.671 54.7078 25.682C54.1783 25.1812 53.7732 24.5635 53.525 23.8781C53.2767 23.1928 53.1922 22.4588 53.2782 21.7349C53.4389 20.4656 54.1234 19.1724 53.6823 17.9704C53.1022 16.3816 50.8751 15.8948 50.2841 14.3081C49.9408 13.3865 50.2493 12.3085 49.8495 11.4065C49.4823 10.5566 48.5893 10.0676 47.7202 9.75245C46.8511 9.43729 45.919 9.22212 45.189 8.6657C44.4589 8.10929 44.0048 7.02688 44.4763 6.23138C48.3383 6.6929 52.1313 7.61448 55.7747 8.97651C56.6177 9.29167 57.502 9.66986 58.0017 10.4197C58.5297 11.213 58.5036 12.2368 58.4602 13.1888C58.2429 17.8255 58.0256 22.4674 57.8084 27.1144" fill="#263238"/>
<path d="M60.5656 16.5598C60.6488 15.7008 61.0096 14.8923 61.5934 14.2569C62.1771 13.6214 62.9521 13.1936 63.8007 13.0384C64.6494 12.8831 65.5255 13.0087 66.2964 13.3963C67.0672 13.7839 67.6907 14.4123 68.0725 15.1862C68.7895 16.6468 68.5418 18.4225 67.8704 19.9049C67.0752 21.6676 65.4413 23.2781 63.5119 23.189C61.6933 23.1064 60.231 21.5111 59.7074 19.7679C59.1838 18.0248 59.3967 16.1599 59.6118 14.3516" fill="#263238"/>
<path d="M61.578 23.639C61.6909 23.5617 61.7839 23.459 61.8496 23.339C62.052 23.0273 62.1833 22.6748 62.2342 22.3066C62.3098 21.763 62.2944 21.2106 62.1886 20.6721C62.0821 20.0636 61.8779 19.4267 61.7279 18.7508C61.5623 18.1273 61.5239 17.4768 61.6149 16.8381C61.7214 16.2621 61.993 15.7731 62.1103 15.3166C62.2265 14.9585 62.2378 14.5747 62.1429 14.2103C62.0604 13.956 61.9495 13.8495 61.9409 13.8582C61.9322 13.8669 62.006 13.9886 62.056 14.2321C62.1132 14.5803 62.0795 14.9374 61.9582 15.2688C61.8279 15.7035 61.5389 16.1752 61.4107 16.7903C61.3017 17.4568 61.3343 18.1389 61.5063 18.7921C61.6584 19.4832 61.8692 20.1179 61.9821 20.7047C62.0937 21.2206 62.1252 21.7507 62.0756 22.2762C61.98 23.1912 61.5346 23.6172 61.578 23.639Z" fill="#455A64"/>
<path d="M61.6539 17.4314C61.6344 17.4445 61.8712 17.8053 62.4448 18.2074C63.1883 18.7349 64.0735 19.0258 64.9848 19.0421C65.8961 19.0584 66.7912 18.7993 67.553 18.2987C68.1309 17.914 68.3895 17.564 68.3721 17.551C68.3547 17.5379 68.0484 17.827 67.4682 18.1596C66.7154 18.5956 65.859 18.8208 64.9891 18.8116C64.1196 18.7879 63.2721 18.5328 62.5339 18.0726C61.9668 17.7205 61.6822 17.4032 61.6539 17.4314Z" fill="#455A64"/>
<path d="M61.9106 18.2421C61.8888 18.2421 62.0149 18.5855 62.3451 19.055C62.7899 19.6586 63.3501 20.1678 63.9931 20.5532C64.6361 20.9386 65.3491 21.1925 66.091 21.3002C66.6602 21.3741 67.0144 21.3306 67.0144 21.3002C67.0144 21.2698 66.6646 21.2481 66.1192 21.135C64.6905 20.8386 63.405 20.0653 62.4733 18.942C62.1192 18.5268 61.9432 18.2247 61.9106 18.2421Z" fill="#455A64"/>
<path d="M60.6199 25.3712C60.6199 25.3712 60.6417 25.3517 60.6764 25.306C60.7296 25.2373 60.7776 25.1646 60.8198 25.0887C60.9851 24.8095 61.0998 24.5035 61.1588 24.1845C61.2553 23.6782 61.2269 23.1559 61.0762 22.663C60.8804 21.9978 60.4545 21.4239 59.8747 21.0438C59.2598 20.6091 58.4624 20.3113 57.954 19.6223C57.8264 19.4503 57.7357 19.2538 57.6875 19.0451C57.6393 18.8365 57.6346 18.6201 57.6737 18.4095C57.7773 17.9483 57.928 17.4989 58.1234 17.0685C58.3256 16.5772 58.4241 16.0496 58.4129 15.5185C58.4017 14.9874 58.2809 14.4643 58.0583 13.9821C57.8239 13.4659 57.4629 13.0173 57.0088 12.678C56.5328 12.3511 55.993 12.1289 55.4249 12.0259C54.8643 11.8977 54.3059 11.8238 53.7888 11.6673C53.2767 11.5349 52.8056 11.2773 52.4178 10.9175C52.0706 10.5462 51.8573 10.0697 51.8116 9.56337C51.7648 9.05778 51.6835 8.55598 51.5682 8.06148C51.3385 7.13281 50.8565 6.28579 50.1755 5.61413C49.5711 5.03644 48.8047 4.65727 47.9788 4.52738C47.2981 4.41406 46.5989 4.51984 45.9821 4.82949C45.5205 5.06358 45.1235 5.40769 44.8262 5.83148C44.6397 6.09428 44.5028 6.3889 44.422 6.70087C44.3913 6.80914 44.3745 6.92089 44.3721 7.03342C44.4696 6.61647 44.6483 6.22281 44.8979 5.87495C45.2463 5.41143 45.7168 5.05409 46.2567 4.84295C46.7966 4.63182 47.3847 4.57523 47.9549 4.67952C48.7434 4.81419 49.4719 5.18653 50.043 5.74671C50.6929 6.39745 51.1508 7.21498 51.3662 8.1093C51.4753 8.59792 51.553 9.09305 51.5987 9.59163C51.6459 10.1436 51.8752 10.6643 52.2505 11.0718C52.6633 11.4601 53.1668 11.7388 53.7149 11.8825C54.2581 12.0455 54.8165 12.1194 55.364 12.2455C55.9025 12.3429 56.4142 12.5532 56.8654 12.8627C57.2895 13.1789 57.6273 13.5967 57.8475 14.0777C58.0594 14.5328 58.1751 15.0268 58.1874 15.5287C58.1998 16.0306 58.1085 16.5296 57.9192 16.9946C57.7216 17.4401 57.5701 17.9048 57.4673 18.3813C57.4262 18.6173 57.4339 18.8592 57.4899 19.0921C57.546 19.325 57.6492 19.5439 57.7932 19.7353C58.3581 20.4765 59.1794 20.7656 59.7747 21.1785C60.3322 21.5317 60.747 22.0706 60.9459 22.7C61.1013 23.1749 61.1415 23.6801 61.0632 24.1736C60.9898 24.5966 60.8396 25.0025 60.6199 25.3712Z" fill="#455A64"/>
<path d="M60.2635 10.937C60.3016 10.8636 60.3231 10.7827 60.3265 10.7001C60.3457 10.4586 60.2855 10.2174 60.1549 10.0133C59.9525 9.68511 59.6467 9.43356 59.2858 9.2982C58.8052 9.14487 58.2916 9.12757 57.8018 9.24821C57.2608 9.35254 56.7002 9.56771 56.0853 9.68291C55.4704 9.7981 54.7599 9.81549 54.2146 9.38949C53.6692 8.96348 53.3911 8.24623 53.1086 7.52897C52.8262 6.76027 52.4236 6.04131 51.9158 5.39894C50.9315 4.14202 49.5545 3.25129 48.0048 2.86899C47.3227 2.71067 46.6114 2.72937 45.9385 2.92333C45.3484 3.09702 44.8206 3.43648 44.4176 3.9014C44.0876 4.28614 43.8875 4.76541 43.8462 5.27071C43.8124 5.64867 43.8713 6.02917 44.0178 6.37919C44.1068 6.59959 44.239 6.79988 44.4068 6.96821C44.4607 7.03131 44.5254 7.0843 44.598 7.1247C44.3867 6.90024 44.2201 6.63766 44.1069 6.35094C43.9821 6.01147 43.9382 5.64753 43.9787 5.2881C44.0293 4.81278 44.2285 4.36555 44.548 4.01008C44.9338 3.57882 45.4341 3.26602 45.9907 3.10808C46.6331 2.93208 47.3095 2.92161 47.957 3.07765C49.4538 3.46104 50.7821 4.32827 51.7355 5.54457C52.2315 6.16649 52.6267 6.86253 52.9066 7.60722C53.1912 8.32012 53.4758 9.0852 54.0929 9.5525C54.3899 9.77507 54.7441 9.9085 55.1141 9.93721C55.4526 9.96233 55.7929 9.93817 56.1244 9.86548C56.7632 9.7329 57.3151 9.50903 57.8387 9.40035C58.2993 9.27219 58.7861 9.27219 59.2467 9.40035C59.5867 9.52393 59.8789 9.75223 60.081 10.0524C60.2105 10.2404 60.2802 10.4631 60.2809 10.6914C60.2809 10.8544 60.2483 10.9348 60.2635 10.937Z" fill="#455A64"/>
<path d="M61.8887 24.3214C61.862 24.4079 61.8255 24.491 61.7801 24.5692C61.6641 24.7866 61.5312 24.9944 61.3825 25.1908C60.8889 25.845 60.2438 26.3694 59.5027 26.7189C58.7616 27.0683 57.9467 27.2324 57.1282 27.1969C56.8821 27.187 56.6373 27.1572 56.396 27.1078C56.3063 27.0942 56.2187 27.0694 56.1353 27.0339C56.1353 27.0122 56.5133 27.11 57.1304 27.1165C57.9333 27.1303 58.7286 26.9593 59.4549 26.6167C60.1813 26.2741 60.8192 25.7692 61.3195 25.1408C61.7062 24.6605 61.8692 24.3105 61.8887 24.3214Z" fill="#455A64"/>
<path d="M45.6278 26.4319L47.9374 29.7899L48.372 31.7308C48.372 31.7308 48.4502 31.1157 48.574 30.5289C48.6979 29.9421 48.574 28.188 48.574 28.188L46.8793 25.6624C46.8793 25.6624 45.895 24.2758 46.725 23.4455L48.372 25.0778C48.372 25.0778 46.9727 23.1216 47.9374 22.4109L49.2932 23.5585C49.2408 23.4976 49.2025 23.4259 49.1809 23.3485C49.1593 23.2712 49.155 23.19 49.1683 23.1108C49.1815 23.0315 49.2121 22.9562 49.2577 22.8901C49.3033 22.824 49.3629 22.7687 49.4323 22.7282L52.9261 26.0928L53.3606 31.7308L53.1759 37.6754L56.6523 42.2397L51.6246 47.1888C51.6246 47.1888 46.9097 39.5011 46.6272 38.3296C46.3448 37.1581 46.6272 30.7071 46.6272 30.7071C46.6272 30.7071 45.1932 28.6336 45.2106 27.7207C45.228 26.8079 45.6278 26.4319 45.6278 26.4319Z" fill="#FFBE9D"/>
<path d="M49.5995 43.6677C49.5995 43.6677 49.5843 43.6525 49.5582 43.6199C49.5321 43.5873 49.4973 43.5329 49.4517 43.4656L49.0519 42.857C48.7043 42.3201 48.2002 41.529 47.5962 40.4879C47.2537 39.915 46.9475 39.3212 46.6793 38.71C46.5411 38.3496 46.4676 37.9678 46.462 37.5819C46.4381 37.1863 46.4251 36.7777 46.4185 36.3561C46.3968 34.6673 46.4381 32.7567 46.512 30.6637L46.5294 30.7202C46.0906 30.0883 45.7054 29.4209 45.3778 28.7249C45.2924 28.5388 45.2198 28.3471 45.1605 28.1511C45.1309 28.0493 45.1091 27.9454 45.0953 27.8403L45.0845 27.6751V27.5186C45.0981 27.3049 45.139 27.0938 45.2061 26.8905C45.2735 26.6752 45.387 26.4772 45.5386 26.3102L45.6211 26.2232L45.6928 26.3275C46.4294 27.3926 47.2138 28.5206 48.0068 29.6812L48.0199 29.6986V29.7182C48.1589 30.3268 48.311 30.9875 48.4653 31.6591L48.248 31.67C48.2936 31.3874 48.3414 31.1027 48.3892 30.8136C48.4131 30.6702 48.437 30.5267 48.4631 30.3789C48.4821 30.2348 48.493 30.0896 48.4957 29.9442C48.5131 29.3552 48.4848 28.7488 48.4457 28.1402L48.4653 28.1946L47.4484 26.6731L46.927 25.895C46.8401 25.7646 46.7466 25.6342 46.6619 25.4907C46.5794 25.3511 46.5068 25.2059 46.4446 25.056C46.3237 24.7732 46.2637 24.4681 46.2686 24.1606C46.2758 23.8405 46.4057 23.5355 46.6315 23.3086L46.7119 23.2303L46.7901 23.3086L48.4349 24.9409L48.2654 25.0865C47.9719 24.6717 47.7406 24.2162 47.5788 23.7346C47.4951 23.4879 47.459 23.2275 47.4723 22.9673C47.4815 22.8305 47.5195 22.6972 47.5839 22.5762C47.6483 22.4552 47.7377 22.3492 47.846 22.2653L47.9177 22.2109L47.9851 22.2718L49.3757 23.5281L49.2127 23.6694C49.1057 23.5096 49.0518 23.3203 49.0584 23.1282C49.0661 23.0296 49.0956 22.934 49.1448 22.8482C49.1941 22.7625 49.2618 22.6888 49.3431 22.6326L49.4169 22.5804L49.48 22.6413L52.9694 25.9646L52.9977 25.9906V26.0298C53.1476 28.0598 53.2888 29.9421 53.4148 31.6678C53.3344 33.9587 53.2649 35.9496 53.1975 37.6123L53.1845 37.5732L55.6332 40.8791C55.9113 41.2638 56.1286 41.5594 56.285 41.7615L56.4458 41.9919C56.4657 42.0166 56.4825 42.0436 56.4958 42.0724C56.4718 42.052 56.4507 42.0286 56.4328 42.0028L56.2568 41.7855L55.5876 40.9161L53.0911 37.6558L53.078 37.6384V37.6167C53.1237 35.9518 53.178 33.9587 53.241 31.67C53.1041 29.9464 52.9564 28.062 52.8064 26.0341L52.8369 26.0993C51.7244 25.0445 50.5584 23.9403 49.3387 22.7869H49.4756C49.4202 22.8247 49.374 22.8743 49.3402 22.9322C49.3063 22.9901 49.2858 23.0548 49.2801 23.1216C49.2781 23.2651 49.319 23.4058 49.3974 23.5259L49.8319 24.1997L49.2518 23.6911L47.8591 22.437H48.0003C47.9168 22.5024 47.8482 22.5849 47.7991 22.679C47.75 22.7731 47.7216 22.8766 47.7157 22.9825C47.7046 23.2135 47.7378 23.4444 47.8135 23.6628C47.9674 24.1217 48.1869 24.5558 48.4653 24.9517L48.2936 25.0973L46.6532 23.4737H46.8118C46.6266 23.6618 46.5208 23.914 46.5163 24.178C46.5123 24.453 46.5671 24.7257 46.6771 24.9778C46.7348 25.1193 46.8023 25.2566 46.8792 25.3886C46.9552 25.519 47.0465 25.6451 47.1334 25.7798L47.657 26.5601L48.6739 28.0816L48.6912 28.1076V28.1381C48.7304 28.7532 48.7586 29.3596 48.7412 29.9638C48.7412 30.1159 48.726 30.2659 48.7043 30.4202C48.6826 30.5746 48.6543 30.7137 48.6304 30.8549C48.5826 31.1397 48.5348 31.4222 48.487 31.7004L48.3936 32.2503L48.2697 31.7091C48.1176 31.0397 47.9677 30.3768 47.8352 29.7682L47.8504 29.8051L45.5451 26.4449L45.6994 26.4623C45.5702 26.6035 45.4718 26.77 45.4104 26.9513C45.3471 27.1375 45.3084 27.3311 45.2952 27.5273C45.2877 27.9145 45.3781 28.2973 45.5581 28.6401C45.8779 29.3263 46.2536 29.9849 46.6814 30.6093L46.6988 30.6354V30.6658C46.6163 32.7567 46.5641 34.6673 46.5728 36.3495C46.5728 36.7712 46.5728 37.1776 46.6032 37.5689C46.6047 37.9397 46.6709 38.3075 46.7988 38.6556C47.0585 39.2644 47.3553 39.8567 47.6874 40.4292C48.2741 41.4746 48.7738 42.2745 49.0954 42.82L49.4734 43.4417C49.5147 43.5112 49.5473 43.5634 49.569 43.6025C49.583 43.6222 49.5933 43.6443 49.5995 43.6677Z" fill="#EB996E"/>
<path d="M50.6251 30.8636C50.5947 30.8636 50.5447 30.4963 50.4925 29.8986C50.4404 29.3009 50.3817 28.475 50.3339 27.5621C50.3339 27.4752 50.3339 27.3904 50.3209 27.31L50.3491 27.3795C49.7755 26.7427 49.2628 26.1667 48.9173 25.7429C48.5718 25.3191 48.3567 25.0539 48.3785 25.0343C48.4002 25.0148 48.6457 25.2517 49.0303 25.6407C49.4149 26.0298 49.9385 26.5949 50.5164 27.2274L50.5425 27.2578V27.2969L50.5577 27.5491C50.6055 28.4619 50.6381 29.2879 50.6512 29.8899C50.6642 30.492 50.6555 30.8636 50.6251 30.8636Z" fill="#EB996E"/>
<path d="M51.9508 29.0901C51.8751 28.8019 51.8343 28.5056 51.8291 28.2076C51.7792 27.6577 51.727 26.9035 51.6792 26.0341L51.714 26.108L51.5184 25.9189C50.8666 25.2669 50.2734 24.6822 49.8563 24.2454C49.4391 23.8085 49.1936 23.5281 49.2044 23.5042C49.2153 23.4803 49.513 23.7215 49.9584 24.1302C50.4038 24.5388 51.0078 25.1126 51.6662 25.7559L51.8596 25.9472L51.8921 25.9776V26.0211C51.9334 26.8905 51.9595 27.6447 51.9682 28.1946C51.9769 28.7445 51.9812 29.0879 51.9508 29.0901Z" fill="#EB996E"/>
<path d="M41.2087 34.489C41.2087 34.489 40.8393 31.9721 40.4916 31.0766C40.144 30.1812 39.188 29.0509 39.188 29.0509C39.188 29.0509 39.7116 28.4663 40.5547 28.9597C41.6519 29.6117 41.5932 31.068 41.5932 31.068L41.2087 34.489Z" fill="#FFBE9D"/>
<path d="M41.4844 31.2983C41.4844 31.2983 40.889 27.1274 40.9281 26.8492C40.9672 26.571 42.5164 22.9173 42.5164 22.9173C42.5164 22.9173 43.429 22.8391 43.3095 23.7128C43.2143 24.3322 43.0689 24.9428 42.8749 25.5386L45.3367 22.6804C45.4557 22.701 45.5683 22.7492 45.6654 22.8212C45.7624 22.8933 45.8411 22.9871 45.8952 23.0952C45.9494 23.2033 45.9774 23.3225 45.9769 23.4434C45.9765 23.5643 45.9477 23.6834 45.8929 23.7911C45.8929 23.7911 46.7272 23.6737 46.4882 25.0626L45.3866 27.173L45.5127 29.3661L47.3226 26.9883C47.3226 26.9883 48.1917 27.5251 47.7571 28.3989C47.3226 29.2726 46.4078 31.2983 46.4078 31.2983L46.6729 34.4347C46.6729 34.4347 47.1357 36.1735 46.6729 37.0951C46.2101 38.0166 45.7712 38.8339 45.7712 38.8339L44.9434 46.4541L39.5571 43.0722L41.1259 35.428L41.4844 31.2983Z" fill="#FFBE9D"/>
<path d="M44.9436 46.4715C44.9383 46.4268 44.9383 46.3815 44.9436 46.3368C44.9436 46.2455 44.961 46.1194 44.974 45.9477C45.0088 45.6 45.0566 45.0935 45.1174 44.4393C45.2521 43.1352 45.4477 41.2204 45.691 38.8447V38.8295V38.8165L46.1799 37.8601L46.4363 37.3602C46.5274 37.1955 46.6058 37.024 46.671 36.8473C46.7703 36.4697 46.8027 36.0776 46.7666 35.6888C46.7359 35.2769 46.6705 34.8682 46.571 34.4673V34.4521C46.4863 33.4566 46.395 32.4068 46.2994 31.3157V31.2984V31.2744C46.6166 30.5862 46.9454 29.8754 47.2858 29.1422C47.3728 28.9597 47.4575 28.7749 47.5422 28.5902C47.6358 28.4197 47.7046 28.2367 47.7465 28.0468C47.7595 27.8577 47.7196 27.6687 47.6314 27.5009C47.5431 27.3332 47.4099 27.1933 47.2467 27.097L47.388 27.0709L45.5824 29.4618L45.3999 29.7008L45.3825 29.4009C45.3434 28.7075 45.2999 27.962 45.2565 27.2078V27.1687L45.2717 27.1405L46.3711 25.03L46.3602 25.0626C46.4002 24.8476 46.4076 24.6277 46.382 24.4105C46.383 24.3077 46.3531 24.2069 46.2962 24.1212C46.2392 24.0355 46.1578 23.969 46.0626 23.9302C46.0111 23.9153 45.9574 23.9095 45.904 23.9128L45.7171 23.9302L45.7845 23.7585C45.8293 23.6637 45.8537 23.5605 45.8559 23.4556C45.8582 23.3507 45.8383 23.2466 45.7975 23.1499C45.7435 23.0619 45.6724 22.9856 45.5884 22.9255C45.5045 22.8654 45.4093 22.8227 45.3086 22.8L45.4194 22.763L42.9555 25.6212L42.5992 26.0341L42.7665 25.5125C42.9317 25.0037 43.063 24.4846 43.1598 23.9585C43.1838 23.8335 43.2005 23.7072 43.2098 23.5803C43.2136 23.4691 43.1841 23.3593 43.125 23.2651C43.0514 23.1801 42.958 23.1145 42.853 23.0743C42.748 23.0342 42.6347 23.0205 42.5232 23.0347L42.6144 22.9695L41.7171 25.1278C41.5722 25.4814 41.4274 25.8313 41.2825 26.1776C41.2152 26.3493 41.1456 26.5232 41.0848 26.6949C41.0718 26.734 41.0522 26.7818 41.0435 26.8188L41.0283 26.8731V26.9275C41.0283 27.0079 41.0283 27.1013 41.0457 27.1904C41.2 28.6358 41.3977 30.016 41.5715 31.294V31.3136C41.4346 32.8155 41.3108 34.1956 41.2 35.4432L40.0136 41.053L39.6834 42.5614L39.5921 42.9505C39.5855 42.9954 39.5731 43.0392 39.5552 43.0809C39.5557 43.0354 39.5615 42.9902 39.5726 42.9461C39.5878 42.8527 39.6117 42.7288 39.6421 42.5527C39.7073 42.2028 39.805 41.6942 39.9311 41.0313C40.194 39.7098 40.5829 37.7949 41.05 35.4063C41.1543 34.1587 41.2673 32.7785 41.3933 31.2766V31.2984C41.2108 30.0116 41.0087 28.6423 40.848 27.1883C40.8371 27.0948 40.8306 27.0079 40.8262 26.9035V26.821L40.8458 26.7427C40.861 26.6905 40.8762 26.6514 40.8914 26.6036C40.9544 26.4275 41.0218 26.2537 41.0913 26.0798L41.5259 25.0256L42.4254 22.863L42.4515 22.8H42.5166C42.6637 22.7891 42.8114 22.8076 42.9512 22.8543C43.1003 22.9006 43.23 22.9945 43.3206 23.1217C43.4034 23.2512 43.4458 23.4026 43.4422 23.5564C43.4341 23.6956 43.4174 23.8343 43.3923 23.9715C43.2947 24.5094 43.1611 25.0402 42.9925 25.5603L42.8034 25.4516L45.263 22.5913L45.3086 22.537L45.3716 22.5544C45.5017 22.5875 45.6251 22.6427 45.7367 22.7174C45.8533 22.7943 45.9483 22.8998 46.0126 23.0239C46.0691 23.1485 46.0983 23.2837 46.0983 23.4205C46.0983 23.5573 46.0691 23.6926 46.0126 23.8172L45.8909 23.665C45.9757 23.6564 46.0613 23.6646 46.143 23.6889C46.2862 23.7305 46.4101 23.8213 46.4928 23.9454C46.5682 24.0616 46.6171 24.1929 46.6362 24.3301C46.6656 24.5755 46.6576 24.824 46.6123 25.0669V25.0822V25.0995L45.5107 27.21L45.5237 27.1513C45.5672 27.9055 45.6085 28.6532 45.6476 29.3444L45.4499 29.2835L47.2598 26.9079L47.3228 26.8275L47.4032 26.8818C47.5937 27.0087 47.7527 27.1775 47.8681 27.3752C47.9842 27.577 48.0301 27.8117 47.9985 28.0425C47.9565 28.2549 47.8833 28.46 47.7812 28.651L47.5248 29.2009L46.4971 31.3483V31.2984C46.5884 32.3851 46.6731 33.4414 46.7557 34.4369V34.4195C46.8564 34.8326 46.9211 35.2537 46.9491 35.678C46.9857 36.0885 46.9482 36.5022 46.8383 36.8995C46.7703 37.0844 46.6867 37.2633 46.5884 37.4341L46.3298 37.934L45.8453 38.8882V38.86C45.5715 41.2334 45.3543 43.1352 45.1935 44.4502C45.1153 45.1022 45.0522 45.6065 45.011 45.9521C44.9871 46.1194 44.9697 46.2498 44.9588 46.339C44.9593 46.3836 44.9542 46.4282 44.9436 46.4715Z" fill="#EB996E"/>
<path d="M42.5969 30.0094C42.5361 30.0094 42.3449 28.977 42.1624 27.6881C42.1102 27.3099 42.0668 26.9557 42.0342 26.6449V26.6036L42.0559 26.5731C42.5057 25.9406 42.8359 25.5233 42.8707 25.5472C42.9055 25.5711 42.6534 26.0341 42.2189 26.6862L42.2362 26.6166C42.2862 26.9252 42.3384 27.2817 42.3883 27.6577C42.5687 28.9466 42.6599 29.9942 42.5969 30.0094Z" fill="#EB996E"/>
<path d="M43.9808 29.0509C43.9286 29.0509 43.7874 28.1815 43.6396 26.947V26.9079L43.6614 26.8752L44.1285 26.1819C45.0541 24.8322 45.8428 23.765 45.895 23.7911C45.9471 23.8171 45.2431 24.9517 44.3154 26.3014L43.8417 26.9883L43.8591 26.9144C43.9764 28.1511 44.0307 29.0444 43.9808 29.0509Z" fill="#EB996E"/>
<path d="M32.9826 25.1061L25.4519 23.2564H25.5062C23.5614 24.4965 21.3113 25.1736 19.0053 25.2126C17.6407 25.2204 16.2827 25.0226 14.977 24.6257C13.554 24.1728 12.2241 23.4675 11.0508 22.5435C8.4147 20.4792 6.70623 17.452 6.30118 14.1277C6.07226 12.3168 6.24334 10.4776 6.80233 8.73994C7.36133 7.0023 8.29463 5.4085 9.53641 4.07096C10.1885 3.35898 10.9172 2.72118 11.7092 2.16915C12.1176 1.9192 12.5174 1.65621 12.9389 1.43668L13.5777 1.12805L13.9058 0.973728L14.2383 0.852012C15.9618 0.187032 17.8095 -0.0940798 19.6528 0.0282565C22.1229 0.188131 24.4905 1.07566 26.4574 2.57906C28.4242 4.08245 29.9024 6.13447 30.7056 8.47664C31.1518 9.78738 31.3865 11.1608 31.4009 12.5454C31.41 14.8437 30.7852 17.0999 29.5953 19.0659V18.9964L32.9804 25.1082L29.4801 19.0616L29.4606 19.0268L29.4801 18.9942C30.6392 17.0413 31.2404 14.8078 31.2183 12.5367C31.197 11.1741 30.9594 9.82342 30.5144 8.53533C29.7147 6.24094 28.2562 4.23351 26.3214 2.76437C24.3867 1.29523 22.0617 0.429663 19.6376 0.276035C17.8296 0.15686 16.0174 0.433526 14.3273 1.08675L14.0036 1.20412L13.6885 1.35409L13.0628 1.65621C12.6521 1.87356 12.2589 2.13003 11.8591 2.37563C11.08 2.91669 10.363 3.54209 9.72109 4.24049C8.56575 5.49626 7.68264 6.97758 7.12728 8.59129C6.57193 10.205 6.35635 11.9162 6.49409 13.6173C6.63184 15.3184 7.11994 16.9725 7.92769 18.4758C8.73544 19.9791 9.84538 21.2989 11.1877 22.3522C12.3382 23.2642 13.643 23.9621 15.04 24.4127C16.324 24.8081 17.6597 25.0095 19.0031 25.0104C21.2745 24.9805 23.4942 24.3288 25.4214 23.126L25.4497 23.1086H25.4779L32.9826 25.1061Z" fill="#263238"/>
<path d="M17.7707 7.00734L18.1684 13.3105C18.1857 13.5566 18.2918 13.7881 18.4668 13.9619C18.6418 14.1358 18.8739 14.2403 19.12 14.256C19.3832 14.2749 19.6434 14.1911 19.846 14.0221C20.0487 13.853 20.1778 13.612 20.2064 13.3496L20.9039 7.02472C20.9165 6.9119 20.905 6.79767 20.8701 6.68964C20.8352 6.5816 20.7778 6.48223 20.7015 6.39814C20.6252 6.31405 20.532 6.24716 20.4279 6.20192C20.3238 6.15668 20.2113 6.13413 20.0978 6.13576L18.5616 6.15533C18.4528 6.15628 18.3454 6.17943 18.2458 6.22338C18.1463 6.26732 18.0567 6.33112 17.9827 6.41089C17.9087 6.49065 17.8517 6.58469 17.8152 6.68724C17.7788 6.7898 17.7636 6.89872 17.7707 7.00734Z" fill="#FCC647"/>
<path d="M20.7931 17.7966C20.6973 18.0849 20.5181 18.3384 20.2783 18.5249C20.0384 18.7115 19.7487 18.8227 19.4456 18.8445C19.1426 18.8663 18.8399 18.7977 18.5759 18.6474C18.3118 18.4971 18.0982 18.2719 17.9621 18.0002C17.826 17.7285 17.7735 17.4225 17.8112 17.121C17.8489 16.8194 17.9752 16.5358 18.174 16.306C18.3728 16.0763 18.6353 15.9106 18.9283 15.8301C19.2212 15.7495 19.5314 15.7576 19.8197 15.8534C20.0112 15.9171 20.1883 16.0178 20.3408 16.1499C20.4934 16.282 20.6184 16.4429 20.7088 16.6233C20.7992 16.8037 20.8532 17.0002 20.8676 17.2015C20.8821 17.4028 20.8568 17.605 20.7931 17.7966Z" fill="#FCC647"/>
</svg>
