<svg xmlns="http://www.w3.org/2000/svg" xmlns:xlink="http://www.w3.org/1999/xlink" viewBox="0 0 279.5 152.79"><defs><style>.cls-1{isolation:isolate;}.cls-2{fill:#f7f7f7;}.cls-3{fill:#2f3443;}.cls-4{mix-blend-mode:screen;fill:url(#linear-gradient);}.cls-5{fill:#ffb300;}.cls-6{mix-blend-mode:multiply;}.cls-7{fill:#fbb300;}</style><linearGradient id="linear-gradient" x1="-3.35" y1="36.98" x2="243.89" y2="111.92" gradientUnits="userSpaceOnUse"><stop offset="0"/><stop offset="0.21" stop-color="#030303"/><stop offset="0.39" stop-color="#0d0d0d"/><stop offset="0.54" stop-color="#1e1e1e"/><stop offset="0.69" stop-color="#363636"/><stop offset="0.84" stop-color="#555"/><stop offset="0.97" stop-color="#7a7a7a"/><stop offset="1" stop-color="#828282"/></linearGradient></defs><title>Asset 3</title><g class="cls-1"><g id="Layer_2" data-name="Layer 2"><g id="Layer_1-2" data-name="Layer 1"><path class="cls-2" d="M275.61,15.6V58.89a73.8,73.8,0,0,1-73.72,73.71H25L42.27,84.13,12.83,85.49l30.3-68L44,15.6Z"/><path class="cls-3" d="M267.77,23.44V58.89a65.87,65.87,0,0,1-65.87,65.87H31.64L47.75,79.65,22.94,80.8,48.48,23.44Z"/><path class="cls-4" d="M110.74,124.76a120,120,0,0,1,6.76-15.43A117.43,117.43,0,0,1,149.9,58.9a117.54,117.54,0,0,1,50.43-32.4c2.08-1.09,4.17-2.1,6.27-3.06H48.48L22.94,80.8l24.81-1.15L31.64,124.76Z"/><polygon class="cls-5" points="80.35 13.6 79.04 15.6 77.84 17.44 44.47 68.62 75.28 68.62 30.22 132.6 26.66 137.65 16 152.78 21.4 137.65 23.2 132.6 40.52 84.13 11.08 85.49 41.38 17.44 42.2 15.6 43.09 13.6 80.35 13.6"/><g class="cls-6"><polygon class="cls-7" points="29.04 74.82 56.85 76.53 16.01 152.79 40.52 84.12 11.08 85.48 43.09 13.61 58.54 13.61 29.04 74.82"/></g><path d="M247.43,8.52H97.85a.5.5,0,0,1-.5-.5.5.5,0,0,1,.5-.5H247.43a.5.5,0,0,1,.5.5A.5.5,0,0,1,247.43,8.52Z"/><path d="M203.77,139.52a.5.5,0,0,1,0-1c33.16,0,51.72-15.69,61.44-28.86a78.31,78.31,0,0,0,13.3-28.85.49.49,0,0,1,.58-.4.5.5,0,0,1,.4.58A79.42,79.42,0,0,1,266,110.26C256.16,123.61,237.35,139.52,203.77,139.52Z"/><path d="M230.47,1H165.41a.5.5,0,0,1-.5-.5.5.5,0,0,1,.5-.5h65.06a.5.5,0,0,1,0,1Z"/><path d="M.5,92.61a.51.51,0,0,1-.41-.21.49.49,0,0,1,0-.48L19.29,46.55a.5.5,0,0,1,.66-.26.5.5,0,0,1,.26.65L1.27,91.58l24.65-1.07a.49.49,0,0,1,.53.47.5.5,0,0,1-.48.52L.52,92.61Z"/><path d="M74.54,140.4h-41a.5.5,0,0,1-.5-.5.5.5,0,0,1,.5-.5h41a.5.5,0,0,1,.5.5A.5.5,0,0,1,74.54,140.4Z"/><path d="M104,140.4H92a.5.5,0,0,1-.5-.5.5.5,0,0,1,.5-.5H104a.5.5,0,0,1,.5.5A.5.5,0,0,1,104,140.4Z"/></g></g></g></svg>