<svg width="64" height="64" viewBox="0 0 64 64" fill="none" xmlns="http://www.w3.org/2000/svg">
<rect width="64" height="64" rx="32" fill="#2F3443"/>
<path d="M41.368 18.7216H40.152V14.1904C40.152 13.4608 39.734 13 39.164 13C39.05 13 38.936 13 38.822 13.0384L22.33 18.1456C21.57 18.376 21 19.2592 21 20.104V47.752V47.8672C21 48.712 21.684 49.4416 22.558 49.4416H41.444C42.28 49.4416 43.002 48.7504 43.002 47.8672V20.2192C42.926 19.4128 42.242 18.7216 41.368 18.7216ZM28.106 42.7216C27.954 43.0288 27.574 43.1056 27.27 42.9136L26.282 42.2608C26.016 42.0688 25.94 41.6848 26.13 41.416L30.158 35.8096L31.07 37.4224L28.106 42.7216ZM36.998 42.2608L35.972 42.9136C35.668 43.1056 35.288 42.9904 35.136 42.7216L30.31 34.1968L30.006 34.3504C29.208 34.7344 28.334 34.3888 27.954 33.6592C27.574 32.9296 27.004 31.7392 25.902 29.5504C24.838 27.4 26.32 25.4416 26.624 25.9024L30.88 32.584L37.188 41.3776C37.378 41.6464 37.302 42.0688 36.998 42.2608ZM38.328 27.784L36.01 31.5472L35.706 32.008C35.402 32.4688 34.946 32.8144 34.49 32.8912L33.502 33.0832L33.008 33.9664L32.21 32.8528L32.514 32.4304L32.286 31.4704C32.172 31.0096 32.286 30.472 32.59 29.9728L32.894 29.512L35.364 25.8256C35.402 25.7872 35.478 25.7488 35.516 25.7872L35.896 26.056C35.934 26.0944 35.972 26.1712 35.934 26.2096L33.654 29.9344C33.616 30.0112 33.616 30.1264 33.692 30.2032C33.73 30.2416 33.806 30.28 33.844 30.3184C33.92 30.3568 34.034 30.3568 34.11 30.28C34.566 29.5888 36.542 26.6704 36.542 26.6704C36.58 26.632 36.656 26.5936 36.694 26.632L37.074 26.9008C37.112 26.9392 37.15 27.016 37.112 27.0544L34.832 30.7792C34.794 30.856 34.794 30.9712 34.87 31.048C34.908 31.0864 34.984 31.1248 35.022 31.1632C35.098 31.2016 35.212 31.2016 35.288 31.1248C35.744 30.4336 37.72 27.5152 37.72 27.5152C37.758 27.4768 37.834 27.4384 37.872 27.4768L38.252 27.7456C38.366 27.6688 38.366 27.7456 38.328 27.784ZM38.974 18.7216H24.61L38.974 14.2672V18.7216Z" fill="white"/>
</svg>
