<svg width="16" height="16" viewBox="0 0 16 16" fill="none" xmlns="http://www.w3.org/2000/svg">
<path d="M14.9492 6.49367L14.4796 6.6655C14.501 6.72377 14.5099 6.79995 14.4844 6.91008C14.4714 6.96567 14.4433 7.016 14.3622 7.06968L14.3561 7.07376L14.35 7.07802L11.1307 9.35051L10.8339 9.56003L10.9415 9.90706L12.207 13.9887L12.2103 13.9993L12.214 14.0097C12.2499 14.1094 12.2389 14.1634 12.2196 14.2055L12.6739 14.4143L12.2196 14.2055C12.173 14.3069 12.1141 14.3743 12.0446 14.4225L12.0438 14.423C11.9794 14.4678 11.9028 14.4956 11.7988 14.4998C11.74 14.5021 11.6797 14.4875 11.6021 14.4241L11.5952 14.4185L11.5881 14.4131L8.30216 11.92L7.99994 11.6907L7.69772 11.92L4.41181 14.4131L4.40512 14.4182L4.3986 14.4234C4.32071 14.4868 4.25957 14.5019 4.19951 14.4997C4.09668 14.4959 4.02099 14.4684 3.95715 14.4238L3.95605 14.423C3.88695 14.3749 3.828 14.3074 3.78117 14.2055C3.76156 14.1628 3.75069 14.1083 3.78626 14.0085L3.78977 13.9987L3.79287 13.9887L5.05839 9.90706L5.16599 9.56003L4.86916 9.35051L1.64986 7.07802L1.64382 7.07376L1.63766 7.06968C1.55663 7.016 1.52843 6.96567 1.51552 6.91008C1.48995 6.79995 1.49891 6.72377 1.52024 6.6655C1.54604 6.59498 1.5943 6.52106 1.6846 6.4446L1.36152 6.06301L1.6846 6.4446C1.73545 6.40155 1.79573 6.37563 1.89295 6.37591H1.89437H5.86854H6.23914L6.34692 6.02134L7.63058 1.79861C7.67473 1.68082 7.73138 1.61458 7.79039 1.57266C7.86813 1.51744 7.93395 1.49979 7.99828 1.5H7.99994C8.06583 1.5 8.13253 1.51825 8.21037 1.57354C8.26945 1.61551 8.32565 1.6814 8.36916 1.79818L9.65295 6.02134L9.76074 6.37591H10.1313H14.1055C14.2032 6.37591 14.264 6.40209 14.3153 6.44549C14.4059 6.52225 14.4542 6.59613 14.4798 6.66605L14.9492 6.49367ZM14.9492 6.49367C14.89 6.33247 14.7864 6.18921 14.6384 6.06389C14.4903 5.93857 14.3127 5.87591 14.1055 5.87591H10.1313L12.6846 13.8406L11.4191 9.75899L14.6384 7.48651C14.816 7.36884 14.927 7.2144 14.9714 7.02319C15.0158 6.83197 15.0084 6.65547 14.9492 6.49367Z" stroke="#2F3443" stroke-opacity="0.9"/>
</svg>
