<svg width="14" height="14" viewBox="0 0 14 14" fill="none" xmlns="http://www.w3.org/2000/svg">
<path d="M9.45702 11.8317H2.61473C2.4451 11.8358 2.28071 11.7742 2.15749 11.6605C2.03426 11.5469 1.96219 11.3903 1.95703 11.225V5.75812" stroke="#2F3443" stroke-width="0.5"/>
<path d="M10.729 5.79572V8.14782" stroke="#2F3443" stroke-width="0.5"/>
<path d="M5.0835 11.8178V8.17108H7.62222V11.8178" stroke="#2F3443" stroke-width="0.5"/>
<path d="M1.17878 4.05297C1.17878 4.05297 0.937625 5.71077 2.59284 5.97568C2.8345 6.01096 3.08128 5.9907 3.31348 5.91652C3.54568 5.84233 3.75686 5.71627 3.93017 5.54841C4.08588 5.70955 4.27446 5.83717 4.48378 5.92308C4.69311 6.00899 4.91856 6.05129 5.14566 6.04727C5.37276 6.04325 5.59648 5.99299 5.80247 5.89972C6.00845 5.80645 6.19214 5.67223 6.34174 5.50568C6.62135 5.81628 7.01505 6.00734 7.43791 6.03763C7.90304 6.00112 8.34931 5.84238 8.7292 5.57832C8.86044 5.71732 9.01873 5.82951 9.19487 5.90837C9.37101 5.98722 9.56149 6.03116 9.75521 6.03763C10.0101 6.03845 10.2622 5.98511 10.4938 5.88132C10.7254 5.77753 10.931 5.62579 11.0963 5.43666C11.2615 5.24754 11.3825 5.02558 11.4508 4.78624C11.5191 4.54691 11.533 4.29595 11.4915 4.05084L10.4611 1.891C10.4458 1.84971 10.4178 1.81402 10.3809 1.78879C10.3441 1.76356 10.3001 1.75002 10.2551 1.75H2.39553C2.35047 1.75002 2.30652 1.76356 2.26964 1.78879C2.23277 1.81402 2.20477 1.84971 2.18945 1.891L1.17878 4.05297Z" stroke="#2F3443" stroke-width="0.5"/>
<path d="M1.1792 4.05255H11.5029" stroke="#2F3443" stroke-width="0.5"/>
<path d="M3.94141 4.05297V1.75" stroke="#2F3443" stroke-width="0.5"/>
<path d="M6.35254 4.05297V1.75" stroke="#2F3443" stroke-width="0.5"/>
<path d="M8.75781 4.05297V1.75" stroke="#2F3443" stroke-width="0.5"/>
<path d="M10.7287 12.2502C11.891 12.2502 12.8333 11.332 12.8333 10.1993C12.8333 9.06665 11.891 8.14844 10.7287 8.14844C9.5663 8.14844 8.62402 9.06665 8.62402 10.1993C8.62402 11.332 9.5663 12.2502 10.7287 12.2502Z" stroke="#2F3443" stroke-width="0.5"/>
<path d="M10.729 8.8924V10.2618L11.5117 10.8471" stroke="#2F3443" stroke-width="0.5"/>
</svg>
