<svg width="150" height="150" viewBox="0 0 150 150" fill="none" xmlns="http://www.w3.org/2000/svg">
<path fill-rule="evenodd" clip-rule="evenodd" d="M18.75 119.345C18.75 114.158 22.9102 109.452 28.053 108.834L74.707 103.225L121.361 108.834C126.499 109.451 130.664 114.142 130.664 119.345V147.756H18.75V119.345Z" fill="#5B68C0"/>
<path fill-rule="evenodd" clip-rule="evenodd" d="M56.1701 96.2861C46.8701 87.4621 40.7227 73.1799 40.7227 61.2496C40.7227 42.4806 55.938 27.2653 74.707 27.2653C93.4761 27.2653 108.691 42.4806 108.691 61.2496C108.691 73.1799 102.544 87.4621 93.244 96.2861V116.967C93.244 116.967 80.6777 121.443 74.707 121.443C68.7364 121.443 56.1701 116.967 56.1701 116.967V96.2861Z" fill="#FFDD95"/>
<path fill-rule="evenodd" clip-rule="evenodd" d="M41.8945 33.9844C41.8945 26.8651 47.6551 21.0938 54.7875 21.0938H116.895V33.9844C116.895 41.1037 111.134 46.875 104.002 46.875H41.8945V33.9844Z" fill="#FFAF40"/>
<path d="M35.1562 65.625V30.448C35.1562 21.3986 41.1132 14.0625 48.4493 14.0625H101.551C108.892 14.0625 114.844 21.3954 114.844 30.448V65.625" stroke="#979797" stroke-width="2" stroke-linecap="round"/>
<path d="M89.0625 107.812C112.362 107.812 131.25 88.9245 131.25 65.625" stroke="#868686" stroke-width="2" stroke-linecap="round"/>
<path d="M86.7188 105.469H70.3125C69.0181 105.469 67.9688 106.518 67.9688 107.812C67.9688 109.107 69.0181 110.156 70.3125 110.156H86.7188C88.0132 110.156 89.0625 109.107 89.0625 107.812C89.0625 106.518 88.0132 105.469 86.7188 105.469Z" stroke="#FF5EAC" stroke-width="2"/>
<path d="M121.875 42.1875H112.5C109.911 42.1875 107.812 44.2862 107.812 46.875V77.3438C107.812 79.9326 109.911 82.0312 112.5 82.0312H121.875C124.464 82.0312 126.562 79.9326 126.562 77.3438V46.875C126.562 44.2862 124.464 42.1875 121.875 42.1875Z" fill="#FF5EAC"/>
<path d="M37.5 42.1875H28.125C25.5362 42.1875 23.4375 44.2862 23.4375 46.875V77.3438C23.4375 79.9326 25.5362 82.0312 28.125 82.0312H37.5C40.0888 82.0312 42.1875 79.9326 42.1875 77.3438V46.875C42.1875 44.2862 40.0888 42.1875 37.5 42.1875Z" fill="#FF5EAC"/>
<path d="M131.25 56.25H128.906V67.9688H131.25V56.25Z" stroke="#979797" stroke-width="2"/>
</svg>
