<svg width="16" height="16" viewBox="0 0 16 16" fill="none" xmlns="http://www.w3.org/2000/svg">
<path d="M1.875 1.875V14.125H8V15H1V1H8.62207L12.375 4.75293V9.75H11.5V5.375H8V1.875H1.875ZM8.875 2.49707V4.5H10.8779L8.875 2.49707ZM2.75 4.5H7.125V5.375H2.75V4.5ZM10.625 6.25V7.125H2.75V6.25H10.625ZM2.75 8.875V8H10.625V8.875H2.75ZM2.75 10.625V9.75H8V10.625H2.75ZM2.75 12.375V11.5H8V12.375H2.75ZM10.625 10.625H15V11.5H10.625V10.625ZM10.625 13.25V12.375H15V13.25H10.625ZM10.625 15V14.125H15V15H10.625ZM8.875 11.5V10.625H9.75V11.5H8.875ZM8.875 13.25V12.375H9.75V13.25H8.875ZM8.875 15V14.125H9.75V15H8.875Z" fill="#2F3443" fill-opacity="0.9"/>
</svg>
