<svg width="24" height="24" viewBox="0 0 24 24" fill="none" xmlns="http://www.w3.org/2000/svg">
<path d="M16.2126 20.283H4.48296C4.19215 20.2899 3.91035 20.1844 3.6991 19.9895C3.48786 19.7946 3.36432 19.5262 3.35547 19.2429V9.87109" stroke="black"/>
<path d="M18.3926 9.93555V13.9677" stroke="black"/>
<path d="M8.71484 20.2591V14.0076H13.0669V20.2591" stroke="black"/>
<path d="M2.02105 6.94795C2.02105 6.94795 1.60764 9.78989 4.44515 10.244C4.85942 10.3045 5.28248 10.2698 5.68053 10.1426C6.07858 10.0154 6.44061 9.79933 6.73771 9.51156C7.00465 9.78779 7.32792 10.0066 7.68676 10.1538C8.04561 10.3011 8.4321 10.3736 8.82141 10.3667C9.21072 10.3598 9.59425 10.2737 9.94736 10.1138C10.3005 9.95391 10.6154 9.72382 10.8718 9.43831C11.3512 9.97077 12.0261 10.2983 12.751 10.3502C13.5483 10.2876 14.3134 10.0155 14.9646 9.56283C15.1896 9.80113 15.461 9.99345 15.7629 10.1286C16.0649 10.2638 16.3914 10.3391 16.7235 10.3502C17.1605 10.3516 17.5926 10.2602 17.9896 10.0823C18.3866 9.90433 18.7391 9.64421 19.0224 9.32C19.3058 8.99579 19.5132 8.61528 19.6302 8.20499C19.7472 7.7947 19.7711 7.36448 19.7001 6.94429L17.9337 3.24171C17.9074 3.17093 17.8594 3.10975 17.7962 3.0665C17.733 3.02325 17.6576 3.00003 17.5804 3H4.1069C4.02966 3.00003 3.95431 3.02325 3.8911 3.0665C3.82789 3.10975 3.77988 3.17093 3.75362 3.24171L2.02105 6.94795Z" stroke="black"/>
<path d="M2.02148 6.94727H19.7193" stroke="black"/>
<path d="M6.75781 6.94795V3" stroke="black"/>
<path d="M10.8906 6.94795V3" stroke="black"/>
<path d="M15.0137 6.94795V3" stroke="black"/>
<path d="M18.3931 21.0004C20.3857 21.0004 22.0011 19.4263 22.0011 17.4846C22.0011 15.5428 20.3857 13.9688 18.3931 13.9688C16.4005 13.9688 14.7852 15.5428 14.7852 17.4846C14.7852 19.4263 16.4005 21.0004 18.3931 21.0004Z" stroke="black"/>
<path d="M18.3926 15.2441V17.5917L19.7343 18.5951" stroke="black"/>
</svg>
