<svg width="24" height="24" viewBox="0 0 24 24" fill="none" xmlns="http://www.w3.org/2000/svg">
<path d="M12.0715 7.65082V10.0028C12.0715 10.1533 11.94 10.2746 11.7777 10.2746H11.6994C11.5372 10.2746 11.4064 10.1533 11.4064 10.0028V7.63992C11.4064 7.25258 11.1246 7.13672 10.8554 7.13672C10.5855 7.13672 10.3044 7.25258 10.3044 7.63992V10.0028C10.3044 10.1533 10.1722 10.2746 10.0107 10.2746H9.93241C9.77086 10.2746 9.6387 10.1533 9.6387 10.0028V7.65082C9.6387 6.95695 8.57232 6.98043 8.57232 7.65863C8.57232 8.47074 8.57232 9.90461 8.57232 9.90461C8.56746 11.1516 8.88838 11.4758 9.41915 11.8641C9.84711 12.1771 10.2128 12.3565 10.2128 13.1336V18.1335H11.4981V13.1336C11.4981 12.3565 11.8631 12.1771 12.2911 11.8641C12.8218 11.4758 13.1428 11.1516 13.1379 9.90461C13.1379 9.90461 13.1379 8.4707 13.1379 7.65863C13.1379 6.98043 12.0715 6.95695 12.0715 7.65082Z" fill="black"/>
<path d="M15.5638 7.88182C15.2904 8.59167 14.7785 10.3259 14.7785 11.2066C14.7072 13.3252 15.882 12.1896 15.9113 13.8488V18.1443H17.1903L17.1966 18.1596C17.1966 18.1596 17.1966 18.1532 17.1966 18.1443C17.1966 17.9449 17.1966 15.5684 17.1966 13.1441C17.1966 10.7459 17.1966 8.30323 17.1966 7.88186C17.1966 7.0164 15.9883 6.77788 15.5638 7.88182Z" fill="black"/>
<path d="M20.8161 3.38598C20.6385 2.97785 20.3427 2.63266 19.97 2.38801C19.784 2.26566 19.5784 2.16887 19.3581 2.10227C19.1378 2.03566 18.9043 2 18.663 2H6.41732H6.22085H5.33695C5.01531 2 4.70621 2.06352 4.42649 2.1784C4.00621 2.35164 3.651 2.63844 3.39926 3.00031C3.27337 3.18141 3.17336 3.38121 3.10487 3.59523C3.03634 3.80863 3 4.03594 3 4.26938V19.7306C3 20.0421 3.06504 20.3422 3.18389 20.614C3.36152 21.0221 3.65731 21.3673 4.02936 21.612C4.21607 21.7343 4.42231 21.8314 4.6419 21.8977C4.86213 21.9643 5.0957 22 5.33695 22H6.22085H6.41732H18.663C18.984 22 19.2931 21.9365 19.5727 21.8216C19.993 21.6486 20.349 21.3619 20.6 20.9996C20.7258 20.8189 20.8266 20.6187 20.8944 20.405C20.9636 20.1916 21 19.9643 21 19.7306V4.26938C21 3.95816 20.9343 3.65777 20.8161 3.38598ZM6.05858 20.789H5.33695C5.18381 20.7887 5.04188 20.7595 4.91181 20.7061C4.71738 20.6259 4.54957 20.491 4.43139 20.3214C4.37267 20.2368 4.32648 20.1444 4.29505 20.0452C4.26358 19.9463 4.24609 19.841 4.24609 19.7306V4.26938C4.24609 4.12191 4.27688 3.9843 4.33139 3.85789C4.41391 3.6693 4.55238 3.50625 4.72719 3.39172C4.81457 3.33461 4.90972 3.28941 5.01177 3.25852C5.11387 3.22793 5.22228 3.21125 5.33695 3.21094H6.05862L6.05858 20.789ZM19.7532 19.7306C19.7532 19.8781 19.7232 20.0157 19.6686 20.1421C19.5861 20.331 19.4469 20.4937 19.2728 20.6086C19.1854 20.6657 19.0896 20.7106 18.9882 20.7415C18.8854 20.7721 18.7777 20.7887 18.663 20.7891H6.77606V3.21098H18.663C18.8155 3.21133 18.9574 3.2409 19.0875 3.29426C19.2826 3.3741 19.4504 3.50934 19.5679 3.67855C19.6266 3.76316 19.6735 3.85594 19.705 3.95477C19.7365 4.05398 19.7532 4.15867 19.7532 4.26941V19.7306H19.7532Z" fill="black"/>
</svg>
