<svg xmlns="http://www.w3.org/2000/svg" xmlns:xlink="http://www.w3.org/1999/xlink" width="172.535" height="149.88" viewBox="0 0 172.535 149.88">
  <defs>
    <clipPath id="clip-path">
      <rect id="Rectangle_11151" data-name="Rectangle 11151" width="39.164" height="46.94" fill="rgba(255,255,255,0.7)"/>
    </clipPath>
  </defs>
  <g id="Group_30697" data-name="Group 30697" transform="translate(-5150 -1423)">
    <path id="Path_164566" data-name="Path 164566" d="M97.446,80.714a11.311,11.311,0,0,0,0,15.99,11.578,11.578,0,0,0,1.96,1.59v4.42a15.237,15.237,0,0,1-4-2.57,8.025,8.025,0,0,0-2.32.54,8.587,8.587,0,0,0-2.66,1.67,10.865,10.865,0,0,0-1.84,2.42,14.907,14.907,0,0,0-1.23,2.78,24.34,24.34,0,0,0-.73,2.97,26.876,26.876,0,0,0-.37,2.98c-.08.9-.1,1.84-.1,2.77a7.794,7.794,0,0,0,2.31,5.89,8.32,8.32,0,0,0,5.97,2.17h4.97v14.83a2.458,2.458,0,0,1-2.46,2.46H59.476a2.458,2.458,0,0,1-2.46-2.46V66.294a2.458,2.458,0,0,1,2.46-2.44h37.47a2.458,2.458,0,0,1,2.46,2.46v12.81a11.578,11.578,0,0,0-1.96,1.59" transform="translate(5150 1423)" fill="rgba(255,255,255,0.3)"/>
    <path id="Path_164569" data-name="Path 164569" d="M119.993,2.271A2.271,2.271,0,1,1,117.722,0a2.271,2.271,0,0,1,2.271,2.271" transform="translate(5150 1423)" fill="#2f3443"/>
    <path id="Path_164570" data-name="Path 164570" d="M8.412,81.746A5.108,5.108,0,1,1,3.3,86.854a5.108,5.108,0,0,1,5.112-5.108h0m0-3.3a8.41,8.41,0,1,0,8.41,8.41,8.41,8.41,0,0,0-8.41-8.41" transform="translate(5150 1423)" fill="#2f3443"/>
    <path id="Path_164571" data-name="Path 164571" d="M74.706,20.935a2.973,2.973,0,1,1-2.973,2.973,2.973,2.973,0,0,1,2.973-2.973m0-1.921A4.894,4.894,0,1,0,79.6,23.908a4.894,4.894,0,0,0-4.894-4.894" transform="translate(5150 1423)" fill="#2f3443"/>
    <path id="Path_164572" data-name="Path 164572" d="M165.541,74.238a3.062,3.062,0,1,0,0,.006m0-2.744a6.99,6.99,0,1,0,6.99,6.99,6.991,6.991,0,0,0-6.99-6.99" transform="translate(5150 1423)" fill="#2f3443"/>
    <rect id="Rectangle_11147" data-name="Rectangle 11147" width="2.751" height="7.704" transform="translate(5285.675 1454.524)" fill="#2f3443"/>
    <rect id="Rectangle_11148" data-name="Rectangle 11148" width="7.704" height="2.751" transform="translate(5283.199 1457)" fill="#2f3443"/>
    <rect id="Rectangle_11149" data-name="Rectangle 11149" width="7.703" height="2.751" transform="translate(5174.092 1461.7) rotate(-74.026)" fill="#2f3443"/>
    <rect id="Rectangle_11150" data-name="Rectangle 11150" width="2.751" height="7.704" transform="translate(5172.393 1458.638) rotate(-74.029)" fill="#2f3443"/>
    <path id="Path_164573" data-name="Path 164573" d="M84.541,72.466H71.6a2.476,2.476,0,0,1-.006-4.952H84.541a2.476,2.476,0,0,1,.006,4.952Z" transform="translate(5150 1423)" fill="#2f3443"/>
    <path id="Path_164574" data-name="Path 164574" d="M78.242,132.066a3.536,3.536,0,1,1-3.536,3.536,3.536,3.536,0,0,1,3.536-3.536" transform="translate(5150 1423)" fill="#2f3443"/>
    <path id="Path_164575" data-name="Path 164575" d="M100.373,149.88H56.055a7.3,7.3,0,0,1-7.288-7.288V62.885A7.3,7.3,0,0,1,56.055,55.6h44.317a7.3,7.3,0,0,1,7.288,7.288V70.08a2.476,2.476,0,0,1-4.952.006v-7.2a2.337,2.337,0,0,0-2.336-2.336H56.055a2.34,2.34,0,0,0-2.336,2.336v79.707a2.34,2.34,0,0,0,2.336,2.336h44.317a2.337,2.337,0,0,0,2.336-2.336V131.715a2.476,2.476,0,1,1,4.952-.006v10.883a7.3,7.3,0,0,1-7.288,7.288" transform="translate(5150 1423)" fill="#2f3443"/>
    <g id="Group_30696" data-name="Group 30696" transform="translate(5236.156 1500.394)">
      <g id="Group_30695" data-name="Group 30695" transform="translate(0 0)" clip-path="url(#clip-path)">
        <path id="Path_164576" data-name="Path 164576" d="M14.242,4.624a6.3,6.3,0,0,1,4.724,1.958,6.3,6.3,0,0,1,1.961,4.727,6.3,6.3,0,0,1-1.958,4.724,6.3,6.3,0,0,1-4.727,1.958,6.3,6.3,0,0,1-4.727-1.958,6.3,6.3,0,0,1-1.958-4.724A6.314,6.314,0,0,1,9.515,6.582a6.31,6.31,0,0,1,4.727-1.958m0-4.624a10.942,10.942,0,0,0-8,3.313,10.942,10.942,0,0,0-3.313,8A10.941,10.941,0,0,0,6.246,19.3a10.941,10.941,0,0,0,8,3.313,10.941,10.941,0,0,0,8-3.313,10.941,10.941,0,0,0,3.313-7.993,10.939,10.939,0,0,0-3.315-8A10.941,10.941,0,0,0,14.242,0" transform="translate(5.044 0.001)" fill="rgba(255,255,255,0.7)"/>
        <path id="Path_164577" data-name="Path 164577" d="M30.608,13.264a3.669,3.669,0,0,1,1.044.645,5.986,5.986,0,0,1,1.063,1.4,10.471,10.471,0,0,1,.849,1.9,19.806,19.806,0,0,1,.568,2.331c.174,1.044.275,1.841.318,2.518.06.892.087,1.7.087,2.47a3.212,3.212,0,0,1-.862,2.532,3.7,3.7,0,0,1-2.788.9H8.273a3.718,3.718,0,0,1-2.763-.876,3.234,3.234,0,0,1-.887-2.559c0-.68.008-1.567.087-2.475a21.079,21.079,0,0,1,.3-2.429,20.2,20.2,0,0,1,.574-2.382,10.637,10.637,0,0,1,.868-1.947,6.438,6.438,0,0,1,1.009-1.352,3.891,3.891,0,0,1,.748-.511,19.414,19.414,0,0,0,11.075,3.378,19.374,19.374,0,0,0,11.322-3.541M29.362,8.347a14.747,14.747,0,0,1-10.077,3.835,14.825,14.825,0,0,1-10.033-3.8,8.255,8.255,0,0,0-2.328.549A8.8,8.8,0,0,0,4.262,10.6a11.309,11.309,0,0,0-1.839,2.426A15.444,15.444,0,0,0,1.191,15.8a24.769,24.769,0,0,0-.723,2.973A25.45,25.45,0,0,0,.1,21.747c-.079.9-.1,1.841-.1,2.777a7.826,7.826,0,0,0,2.306,5.891,8.328,8.328,0,0,0,5.967,2.17H30.888a8.332,8.332,0,0,0,5.967-2.17,7.838,7.838,0,0,0,2.309-5.891c0-.957-.041-1.877-.1-2.777a29.458,29.458,0,0,0-.37-2.975A25.3,25.3,0,0,0,37.97,15.8a15.083,15.083,0,0,0-1.235-2.777A10.63,10.63,0,0,0,34.878,10.6a8.453,8.453,0,0,0-5.516-2.249" transform="translate(0 14.355)" fill="rgba(255,255,255,0.7)"/>
      </g>
    </g>
  </g>
</svg>
