<svg width="16" height="16" viewBox="0 0 16 16" fill="none" xmlns="http://www.w3.org/2000/svg">
<path d="M9.57067 1.73C9.58473 1.71231 9.60224 1.69766 9.62214 1.68695C9.64204 1.67624 9.66391 1.66969 9.68642 1.66769C9.70893 1.6657 9.73161 1.6683 9.75309 1.67535C9.77456 1.68239 9.79438 1.69373 9.81133 1.70867L10.4253 2.25L8.49267 4.66667H9.77333L11.1773 2.912L12.2787 3.88334C12.3112 3.91211 12.3313 3.95247 12.3345 3.99581C12.3377 4.03915 12.3239 4.08204 12.296 4.11534L11.836 4.66667H13.132C13.2925 4.43165 13.3616 4.14606 13.3263 3.86366C13.2909 3.58125 13.1535 3.32151 12.94 3.13334L10.4733 0.958002C10.3543 0.853205 10.2152 0.773763 10.0645 0.724531C9.91377 0.675298 9.75459 0.657308 9.59668 0.671658C9.43876 0.686008 9.28543 0.732397 9.14605 0.807993C9.00667 0.883589 8.88416 0.986805 8.786 1.11134L5.984 4.66667H7.25733L9.57067 1.73ZM10.8333 9.33334C10.7007 9.33334 10.5735 9.38601 10.4798 9.47978C10.386 9.57355 10.3333 9.70073 10.3333 9.83334C10.3333 9.96594 10.386 10.0931 10.4798 10.1869C10.5735 10.2807 10.7007 10.3333 10.8333 10.3333H12.1667C12.2993 10.3333 12.4265 10.2807 12.5202 10.1869C12.614 10.0931 12.6667 9.96594 12.6667 9.83334C12.6667 9.70073 12.614 9.57355 12.5202 9.47978C12.4265 9.38601 12.2993 9.33334 12.1667 9.33334H10.8333ZM3 4.83334C3 4.70073 3.05268 4.57355 3.14645 4.47978C3.24021 4.38601 3.36739 4.33334 3.5 4.33334H5.58533L6.38 3.33334H3.5C3.10218 3.33334 2.72064 3.49137 2.43934 3.77268C2.15804 4.05398 2 4.43551 2 4.83334V11.8333C2 12.408 2.22827 12.9591 2.6346 13.3654C3.04093 13.7717 3.59203 14 4.16667 14H12.1667C12.7413 14 13.2924 13.7717 13.6987 13.3654C14.1051 12.9591 14.3333 12.408 14.3333 11.8333V7.5C14.3333 6.92537 14.1051 6.37427 13.6987 5.96794C13.2924 5.56161 12.7413 5.33334 12.1667 5.33334H3.5C3.36739 5.33334 3.24021 5.28066 3.14645 5.18689C3.05268 5.09312 3 4.96594 3 4.83334ZM3 11.8333V6.248C3.15667 6.30334 3.32467 6.33334 3.5 6.33334H12.1667C12.8107 6.33334 13.3333 6.856 13.3333 7.5V11.8333C13.3333 12.1428 13.2104 12.4395 12.9916 12.6583C12.7728 12.8771 12.4761 13 12.1667 13H4.16667C3.85725 13 3.5605 12.8771 3.34171 12.6583C3.12292 12.4395 3 12.1428 3 11.8333Z" fill="#2F3443" fill-opacity="0.9"/>
</svg>
