<svg width="14" height="16" viewBox="0 0 14 16" fill="none" xmlns="http://www.w3.org/2000/svg">
<path d="M11.3338 2.83505L8.88887 0.0799561H1.89456C1.5937 0.0799561 1.30511 0.19916 1.09227 0.411303C0.879542 0.623572 0.76001 0.911362 0.76001 1.21138V14.7885C0.76001 15.0886 0.879542 15.3764 1.09227 15.5886C1.30512 15.8008 1.59371 15.92 1.89456 15.92H12.1055C12.4063 15.92 12.6949 15.8008 12.9078 15.5886C13.1205 15.3763 13.24 15.0885 13.24 14.7885V4.97904L11.3338 2.83505ZM9.83628 12.4182C9.83628 12.5806 9.70421 12.7123 9.54124 12.7123H4.43579C4.27295 12.7123 4.14088 12.5806 4.14088 12.4182V10.7211C4.14088 10.6431 4.1719 10.5682 4.22724 10.5131C4.28257 10.4579 4.35766 10.4269 4.43579 10.4269H9.54124C9.6195 10.4269 9.69458 10.4579 9.74992 10.5131C9.80525 10.5682 9.83628 10.6431 9.83628 10.7211V12.4182ZM9.83628 9.02396C9.83628 9.18635 9.70421 9.31806 9.54124 9.31806H4.43579C4.27295 9.31806 4.14088 9.18636 4.14088 9.02396V7.32682C4.14088 7.24878 4.1719 7.1739 4.22724 7.11884C4.28257 7.06366 4.35766 7.0326 4.43579 7.0326H9.54124C9.6195 7.0326 9.69458 7.06366 9.74992 7.11884C9.80525 7.1739 9.83628 7.24878 9.83628 7.32682V9.02396ZM8.70173 5.77127V1.34738L12.6726 5.77127H8.70173Z" fill="#2F3443"/>
</svg>
