<svg width="20" height="20" viewBox="0 0 20 20" fill="none" xmlns="http://www.w3.org/2000/svg">
<g clip-path="url(#clip0_142_1081)">
<path d="M16.4644 13.8741C16.8586 13.6301 16.9337 13.2572 16.9337 13.009C16.9337 12.3626 16.407 11.6394 15.7025 11.6394H12.2565C12.1329 11.6379 11.5163 11.5958 11.5163 10.9007C11.5163 10.7647 11.4062 10.6544 11.27 10.6544C11.1338 10.6544 11.0238 10.7647 11.0238 10.9007C11.0238 11.8746 11.8293 12.1319 12.255 12.1319H15.7025C16.1118 12.1319 16.4413 12.6118 16.4413 13.0091C16.4413 13.1371 16.4413 13.5269 15.6757 13.6109C15.5457 13.6252 15.4496 13.7384 15.4568 13.8692C15.4637 13.9997 15.5718 14.1019 15.7025 14.1019C16.1098 14.1019 16.4413 14.4333 16.4413 14.8406C16.4413 15.2479 16.1098 15.5794 15.7025 15.5794H15.21C15.0738 15.5794 14.9638 15.6897 14.9638 15.8256C14.9638 15.9615 15.0738 16.0719 15.21 16.0719C15.6173 16.0719 15.9488 16.4033 15.9488 16.8106C15.9488 17.2179 15.6173 17.5494 15.21 17.5494H14.4713C14.3351 17.5494 14.225 17.6597 14.225 17.7956C14.225 17.9315 14.3351 18.0418 14.4713 18.0418C14.7291 18.0418 14.9638 18.2765 14.9638 18.5344C14.9638 18.7828 14.72 19.0269 14.4713 19.0269H10.7775C9.74944 19.0269 9.37957 18.8227 8.9511 18.5866C8.58885 18.3868 8.17812 18.1605 7.36501 18.0443C7.2303 18.0249 7.10547 18.1187 7.08625 18.2531C7.06703 18.3878 7.16038 18.5127 7.29506 18.5319C8.01952 18.6353 8.37216 18.8299 8.71346 19.018C9.16066 19.2645 9.62261 19.5194 10.7775 19.5194H14.4712C14.9869 19.5194 15.4562 19.0498 15.4562 18.5344C15.4562 18.3546 15.405 18.1842 15.3169 18.0372C15.9458 17.983 16.4412 17.4536 16.4412 16.8106C16.4412 16.4981 16.324 16.2122 16.1314 15.9948C16.5996 15.8202 16.9337 15.3688 16.9337 14.8406C16.9337 14.4491 16.75 14.0997 16.4644 13.8741Z" fill="#EA0000" fill-opacity="0.7"/>
<path d="M4.37483 18.2881C4.64644 18.2881 4.86734 18.0672 4.86734 17.7956C4.86734 17.5239 4.64644 17.3031 4.37483 17.3031C4.10323 17.3031 3.88232 17.524 3.88232 17.7956C3.88232 18.0672 4.10323 18.2881 4.37483 18.2881Z" fill="#EA0000" fill-opacity="0.7"/>
<path d="M7.32998 12.6244C8.0616 12.6244 8.98723 11.8078 9.47408 11.321C10.5312 10.2638 10.5312 8.94987 10.5312 6.96064C10.5312 6.80649 10.6233 6.7144 10.7775 6.7144C11.629 6.7144 12.0087 7.09411 12.0087 7.94566V10.9007C12.0087 11.0366 12.1188 11.1469 12.255 11.1469C12.3912 11.1469 12.5012 11.0366 12.5012 10.9007V7.94566C12.5012 6.81783 11.9051 6.22192 10.7775 6.22192C10.3495 6.22192 10.0387 6.53269 10.0387 6.96067C10.0387 8.89348 10.0387 10.06 9.12589 10.9728C8.41101 11.6877 7.72276 12.1319 7.32998 12.1319C7.1938 12.1319 7.08374 12.2422 7.08374 12.3781C7.08374 12.514 7.1938 12.6244 7.32998 12.6244Z" fill="#EA0000" fill-opacity="0.7"/>
<path d="M6.34494 11.6394H2.40493C2.26875 11.6394 2.15869 11.7497 2.15869 11.8856V19.2731C2.15869 19.409 2.26875 19.5194 2.40493 19.5194H6.34491C6.48109 19.5194 6.59115 19.409 6.59115 19.2731V11.8856C6.59118 11.7497 6.48112 11.6394 6.34494 11.6394ZM6.09867 19.0269H2.6512V12.1319H6.0987L6.09867 19.0269Z" fill="#EA0000" fill-opacity="0.7"/>
<path d="M7.04582 3.32867C6.85982 3.10537 7.06823 2.77451 7.34996 2.84584L8.16615 3.0525C8.29214 3.0844 8.42435 3.03154 8.49362 2.92157L8.94238 2.20919C9.09727 1.96329 9.47634 2.05927 9.49555 2.34925L9.55123 3.18935C9.55983 3.31903 9.65095 3.42843 9.77694 3.46033L10.5931 3.66699C10.8749 3.73832 10.9007 4.12848 10.6309 4.23637L9.84909 4.54893C9.72841 4.59718 9.65252 4.71765 9.66112 4.84733L9.7168 5.68743C9.73601 5.97741 9.37294 6.12258 9.18694 5.89927L8.6481 5.25234C8.56492 5.15248 8.42689 5.11753 8.30621 5.16578L7.52443 5.47834C7.25459 5.58623 7.00433 5.28578 7.15923 5.03988L7.60798 4.3275C7.67726 4.21753 7.66784 4.07546 7.58466 3.9756L7.04582 3.32867Z" stroke="#EA0000" stroke-opacity="0.7" stroke-width="0.4"/>
<path d="M11.9655 3.20135C11.7795 2.97805 11.9879 2.64719 12.2696 2.71853L13.0858 2.92518C13.2118 2.95708 13.344 2.90422 13.4133 2.79425L13.8621 2.08187C14.017 1.83597 14.396 1.93195 14.4152 2.22193L14.4709 3.06203C14.4795 3.19171 14.5706 3.30112 14.6966 3.33302L15.5128 3.53967C15.7945 3.611 15.8204 4.00116 15.5505 4.10905L14.7688 4.42161C14.6481 4.46986 14.5722 4.59033 14.5808 4.72001L14.6365 5.56011C14.6557 5.85009 14.2926 5.99526 14.1066 5.77195L13.5678 5.12502C13.4846 5.02516 13.3466 4.99021 13.2259 5.03846L12.4441 5.35102C12.1743 5.45891 11.924 5.15846 12.0789 4.91256L12.5277 4.20018C12.5969 4.09021 12.5875 3.94814 12.5043 3.84828L11.9655 3.20135Z" stroke="#EA0000" stroke-opacity="0.7" stroke-width="0.4"/>
<path d="M13.9753 7.69329C13.7893 7.46999 13.9977 7.13914 14.2794 7.21047L15.0956 7.41712C15.2216 7.44902 15.3538 7.39616 15.4231 7.2862L15.8718 6.57381C16.0267 6.32792 16.4058 6.42389 16.425 6.71387L16.4807 7.55397C16.4893 7.68366 16.5804 7.79306 16.7064 7.82496L17.5226 8.03161C17.8043 8.10294 17.8302 8.49311 17.5603 8.601L16.7785 8.91355C16.6579 8.9618 16.582 9.08227 16.5906 9.21196L16.6462 10.0521C16.6655 10.342 16.3024 10.4872 16.1164 10.2639L15.5775 9.61697C15.4944 9.5171 15.3563 9.48216 15.2357 9.53041L14.4539 9.84296C14.184 9.95085 13.9338 9.6504 14.0887 9.4045L14.5374 8.69212C14.6067 8.58215 14.5973 8.44009 14.5141 8.34022L13.9753 7.69329Z" stroke="#EA0000" stroke-opacity="0.7" stroke-width="0.4"/>
</g>
<defs>
<clipPath id="clip0_142_1081">
<rect width="20" height="20" fill="white"/>
</clipPath>
</defs>
</svg>
