<svg width="44" height="44" viewBox="0 0 44 44" fill="none" xmlns="http://www.w3.org/2000/svg">
<g filter="url(#filter0_d_322_3441)">
<path d="M34 21C34 23.3734 33.2962 25.6934 31.9776 27.6668C30.6591 29.6402 28.7849 31.1783 26.5922 32.0865C24.3995 32.9948 21.9867 33.2324 19.6589 32.7694C17.3311 32.3064 15.193 31.1635 13.5147 29.4853C11.8365 27.807 10.6936 25.6689 10.2306 23.3411C9.76756 21.0133 10.0052 18.6005 10.9135 16.4078C11.8217 14.2151 13.3598 12.3409 15.3332 11.0224C17.3066 9.70379 19.6266 9 22 9C23.5759 9 25.1363 9.31039 26.5922 9.91345C28.0481 10.5165 29.371 11.4004 30.4853 12.5147C31.5996 13.629 32.4835 14.9519 33.0866 16.4078C33.6896 17.8637 34 19.4241 34 21Z" fill="white"/>
<path d="M31.1924 11.8076L30.4853 12.5147L31.1924 11.8076C29.9852 10.6004 28.5521 9.64288 26.9749 8.98957C25.3977 8.33625 23.7072 8 22 8C19.4288 8 16.9154 8.76244 14.7776 10.1909C12.6398 11.6194 10.9735 13.6497 9.98957 16.0251C9.00563 18.4006 8.74819 21.0144 9.2498 23.5362C9.7514 26.0579 10.9895 28.3743 12.8076 30.1924C14.6257 32.0105 16.9421 33.2486 19.4638 33.7502C21.9856 34.2518 24.5994 33.9944 26.9749 33.0104C29.3503 32.0265 31.3806 30.3602 32.8091 28.2224C34.2376 26.0846 35 23.5712 35 21C35 19.2928 34.6637 17.6023 34.0104 16.0251C33.3571 14.4479 32.3995 13.0148 31.1924 11.8076Z" stroke="#2F3443" stroke-width="2" stroke-linecap="round" stroke-linejoin="round"/>
</g>
<path d="M13.277 20.3074L20.1607 14.055C20.3371 13.8911 20.5655 13.8003 20.8023 13.8C21.0631 13.8 21.3133 13.9075 21.4977 14.0988C21.6821 14.29 21.7857 14.5495 21.7857 14.82V17.3495H30.0166C30.2774 17.3495 30.5276 17.4569 30.712 17.6482C30.8964 17.8395 31 18.0989 31 18.3694V23.4948C31 23.7653 30.8964 24.0247 30.712 24.216C30.5276 24.4073 30.2774 24.5147 30.0166 24.5147H21.7931V27.1768C21.7937 27.3738 21.7393 27.5667 21.6365 27.7323C21.5336 27.8979 21.3867 28.0291 21.2136 28.11C21.0404 28.1909 20.8484 28.2181 20.6607 28.1882C20.473 28.1584 20.2976 28.0728 20.1558 27.9418L13.2721 21.567C13.1861 21.4879 13.1174 21.3908 13.0705 21.282C13.0236 21.1732 12.9995 21.0552 13 20.936C13.0005 20.8169 13.0254 20.6991 13.0732 20.5907C13.1209 20.4823 13.1904 20.3857 13.277 20.3074ZM15.1405 21.1131L20.0205 25.6188C20.0541 25.6505 20.0981 25.6678 20.1435 25.6673C20.1696 25.6674 20.1955 25.6622 20.2197 25.652C20.2522 25.6367 20.2797 25.6119 20.2989 25.5807C20.3181 25.5494 20.3282 25.5131 20.3279 25.476V23.0689H29.166C29.2149 23.0689 29.2618 23.0488 29.2964 23.0129C29.331 22.977 29.3504 22.9284 29.3504 22.8777V19.0707C29.3504 19.0199 29.331 18.9713 29.2964 18.9354C29.2618 18.8996 29.2149 18.8794 29.166 18.8794H20.3279V16.5412C20.3265 16.5063 20.316 16.4725 20.2975 16.4434C20.279 16.4142 20.2531 16.3909 20.2227 16.376C20.1923 16.361 20.1586 16.3549 20.1251 16.3584C20.0916 16.3619 20.0597 16.3749 20.0328 16.3958L15.1405 20.825C15.1211 20.8435 15.1056 20.8659 15.095 20.8909C15.0844 20.916 15.079 20.943 15.0791 20.9703C15.0785 20.9974 15.0838 21.0242 15.0944 21.0489C15.105 21.0736 15.1208 21.0955 15.1405 21.1131Z" fill="#2F3443"/>
<path d="M19.959 19.0708C19.959 19.1215 19.9785 19.1701 20.013 19.206C20.0476 19.2419 20.0945 19.262 20.1434 19.262H28.9816V22.6789H20.1434C20.0945 22.6789 20.0476 22.699 20.013 22.7349C19.9785 22.7708 19.959 22.8194 19.959 22.8701V25.0605L15.5338 20.9806L19.959 16.9722V19.0708Z" fill="#2F3443"/>
<defs>
<filter id="filter0_d_322_3441" x="0" y="0" width="44" height="44" filterUnits="userSpaceOnUse" color-interpolation-filters="sRGB">
<feFlood flood-opacity="0" result="BackgroundImageFix"/>
<feColorMatrix in="SourceAlpha" type="matrix" values="0 0 0 0 0 0 0 0 0 0 0 0 0 0 0 0 0 0 127 0" result="hardAlpha"/>
<feOffset dy="1"/>
<feGaussianBlur stdDeviation="4"/>
<feComposite in2="hardAlpha" operator="out"/>
<feColorMatrix type="matrix" values="0 0 0 0 1 0 0 0 0 0.701961 0 0 0 0 0 0 0 0 0.2 0"/>
<feBlend mode="normal" in2="BackgroundImageFix" result="effect1_dropShadow_322_3441"/>
<feBlend mode="normal" in="SourceGraphic" in2="effect1_dropShadow_322_3441" result="shape"/>
</filter>
</defs>
</svg>
