<svg width="122" height="106" viewBox="0 0 122 106" fill="none" xmlns="http://www.w3.org/2000/svg">
<g clip-path="url(#clip0_1_394)">
<path d="M68.9045 57.0835C67.4059 58.5836 66.5641 60.6173 66.5641 62.7379C66.5641 64.8584 67.4059 66.8922 68.9045 68.3922C69.3241 68.8164 69.7888 69.1935 70.2904 69.5167V72.6427C69.2583 72.1886 68.3039 71.5752 67.462 70.8251C66.8992 70.87 66.3463 70.9988 65.8215 71.207C65.1273 71.4817 64.4896 71.8821 63.9406 72.3881C63.4289 72.8947 62.9909 73.4709 62.6395 74.0996C62.2834 74.7236 61.992 75.3824 61.7698 76.0657C61.5539 76.7543 61.3815 77.4559 61.2536 78.1661C61.1272 78.8632 61.0398 79.5668 60.992 80.2737C60.9354 80.9102 60.9213 81.575 60.9213 82.2327C60.8872 83.0027 61.015 83.7712 61.2964 84.4888C61.5777 85.2063 62.0064 85.8568 62.5547 86.3983C63.7035 87.4482 65.2214 88 66.7761 87.933H70.2904V98.4213C70.2906 98.6498 70.2457 98.8761 70.1583 99.0873C70.071 99.2985 69.9429 99.4903 69.7813 99.6519C69.6197 99.8135 69.4279 99.9417 69.2168 100.029C69.0057 100.116 68.7794 100.161 68.5509 100.161H42.0558C41.8273 100.161 41.601 100.116 41.3899 100.029C41.1787 99.9417 40.9869 99.8135 40.8254 99.6519C40.6638 99.4903 40.5357 99.2985 40.4483 99.0873C40.361 98.8761 40.3161 98.6498 40.3163 98.4213V46.8853C40.3196 46.4262 40.5044 45.9871 40.8303 45.6638C41.1562 45.3405 41.5967 45.1592 42.0558 45.1596H68.5509C68.7794 45.1594 69.0057 45.2043 69.2168 45.2917C69.4279 45.379 69.6197 45.5072 69.7813 45.6688C69.9429 45.8304 70.071 46.0222 70.1583 46.2334C70.2457 46.4446 70.2906 46.6709 70.2904 46.8994V55.959C69.7888 56.2822 69.3241 56.6593 68.9045 57.0835Z" fill="#FCC647" fill-opacity="0.3"/>
<path d="M84.8475 1.60612C84.8475 1.92379 84.7533 2.23431 84.5769 2.49844C84.4004 2.76257 84.1496 2.96843 83.8562 3.08999C83.5628 3.21155 83.2399 3.24336 82.9284 3.18139C82.6169 3.11942 82.3308 2.96645 82.1062 2.74183C81.8816 2.51721 81.7287 2.23102 81.6667 1.91946C81.6048 1.60791 81.6366 1.28497 81.7581 0.991487C81.8796 0.698007 82.0855 0.447164 82.3495 0.270681C82.6136 0.0941976 82.9241 0 83.2417 0C83.6676 0 84.076 0.169216 84.3772 0.470423C84.6783 0.77163 84.8475 1.18015 84.8475 1.60612Z" fill="#FBB300"/>
<path d="M5.94814 57.8135C6.66238 57.814 7.36043 58.0264 7.95402 58.4237C8.54762 58.821 9.01013 59.3854 9.28307 60.0455C9.55601 60.7057 9.62713 61.432 9.48745 62.1325C9.34776 62.8331 9.00354 63.4765 8.4983 63.9815C7.99306 64.4864 7.34948 64.8302 6.64892 64.9694C5.94836 65.1085 5.22227 65.0368 4.56245 64.7633C3.90263 64.4898 3.3387 64.0268 2.94195 63.4328C2.54519 62.8387 2.33343 62.1404 2.33343 61.426C2.33343 60.9514 2.42695 60.4814 2.60864 60.0429C2.79033 59.6044 3.05663 59.2061 3.39233 58.8706C3.72802 58.5351 4.12653 58.269 4.56507 58.0877C5.00361 57.9063 5.47358 57.8131 5.94814 57.8135ZM5.94814 55.4796C4.77199 55.4796 3.62225 55.8284 2.64431 56.482C1.66638 57.1356 0.904169 58.0645 0.454075 59.1513C0.0039804 60.2381 -0.113785 61.434 0.115671 62.5878C0.345127 63.7416 0.911499 64.8014 1.74316 65.6332C2.57483 66.465 3.63444 67.0315 4.78799 67.261C5.94155 67.4905 7.13724 67.3727 8.22386 66.9225C9.31048 66.4723 10.2392 65.71 10.8927 64.7319C11.5461 63.7538 11.8949 62.6038 11.8949 61.4274C11.8949 60.6464 11.7411 59.8729 11.4422 59.1513C11.1434 58.4297 10.7053 57.774 10.1531 57.2217C9.60091 56.6694 8.94535 56.2313 8.22386 55.9324C7.50237 55.6335 6.72908 55.4796 5.94814 55.4796Z" fill="#FBB300"/>
<path d="M52.8249 14.8059C53.2407 14.8059 53.6471 14.9292 53.9928 15.1603C54.3385 15.3913 54.608 15.7197 54.7671 16.1039C54.9262 16.4881 54.9678 16.9109 54.8867 17.3187C54.8056 17.7266 54.6054 18.1012 54.3114 18.3953C54.0174 18.6893 53.6428 18.8896 53.235 18.9707C52.8272 19.0519 52.4045 19.0102 52.0204 18.8511C51.6363 18.6919 51.3079 18.4224 51.077 18.0767C50.846 17.7309 50.7227 17.3244 50.7227 16.9085C50.7227 16.3509 50.9442 15.8161 51.3384 15.4218C51.7326 15.0274 52.2673 14.8059 52.8249 14.8059ZM52.8249 13.4473C52.1404 13.4473 51.4714 13.6503 50.9023 14.0306C50.3332 14.411 49.8897 14.9515 49.6277 15.584C49.3658 16.2164 49.2973 16.9124 49.4308 17.5838C49.5643 18.2552 49.8939 18.8719 50.3779 19.356C50.8619 19.84 51.4785 20.1697 52.1498 20.3032C52.821 20.4368 53.5168 20.3682 54.1492 20.1063C54.7815 19.8443 55.322 19.4007 55.7022 18.8315C56.0825 18.2623 56.2854 17.5931 56.2854 16.9085C56.2854 16.454 56.1959 16.0039 56.022 15.584C55.8481 15.164 55.5932 14.7825 55.2719 14.4611C54.9505 14.1397 54.569 13.8847 54.1492 13.7108C53.7293 13.5369 53.2793 13.4473 52.8249 13.4473Z" fill="#FBB300"/>
<path d="M117.054 52.5035C117.054 51.9294 116.825 51.3789 116.419 50.9732C116.013 50.5675 115.462 50.3398 114.888 50.3401C114.314 50.3404 113.764 50.5686 113.358 50.9747C112.952 51.3808 112.724 51.9315 112.724 52.5056C112.724 53.0798 112.952 53.6304 113.358 54.0365C113.764 54.4426 114.314 54.6709 114.888 54.6712C115.462 54.6715 116.013 54.4437 116.419 54.038C116.825 53.6323 117.054 53.0819 117.054 52.5078M117.054 50.5671C116.077 50.5671 115.121 50.857 114.308 51.4002C113.496 51.9435 112.862 52.7155 112.488 53.6188C112.114 54.5222 112.016 55.5161 112.207 56.4751C112.397 57.4341 112.868 58.3149 113.559 59.0063C114.251 59.6977 115.131 60.1685 116.09 60.3592C117.049 60.55 118.043 60.4521 118.946 60.0779C119.849 59.7037 120.621 59.0701 121.164 58.2572C121.707 57.4442 121.997 56.4884 121.997 55.5107C121.997 54.1996 121.476 52.9423 120.549 52.0152C119.622 51.0882 118.365 50.5673 117.054 50.5671Z" fill="#FBB300"/>
<path d="M97.8813 22.2948H95.936V27.7433H97.8813V22.2948Z" fill="#FBB300"/>
<path d="M99.6331 24.0459H94.1855V25.9915H99.6331V24.0459Z" fill="#FBB300"/>
<path d="M18.5344 22.1324L17.0354 27.3699L18.9055 27.9053L20.4045 22.6678L18.5344 22.1324Z" fill="#FBB300"/>
<path d="M16.3695 23.3338L15.8342 25.2043L21.0715 26.7034L21.6067 24.833L16.3695 23.3338Z" fill="#FBB300"/>
<path d="M59.7793 51.2503H50.6286C50.1643 51.2509 49.7188 51.0669 49.39 50.7389C49.0613 50.4109 48.8763 49.9658 48.8757 49.5013C48.8752 49.0369 49.0591 48.5913 49.387 48.2625C49.715 47.9337 50.1601 47.7487 50.6244 47.7481H59.7793C60.2436 47.7475 60.6891 47.9315 61.0179 48.2595C61.3466 48.5875 61.5316 49.0327 61.5322 49.4971C61.5327 49.9615 61.3488 50.4071 61.0209 50.7359C60.6929 51.0647 60.2478 51.2498 59.7835 51.2503H59.7793Z" fill="#FBB300"/>
<path d="M55.3252 93.4014C55.8197 93.4014 56.3031 93.548 56.7143 93.8228C57.1255 94.0976 57.446 94.4882 57.6352 94.9451C57.8244 95.4021 57.874 95.9049 57.7775 96.39C57.681 96.8751 57.4429 97.3207 57.0932 97.6705C56.7435 98.0202 56.298 98.2584 55.813 98.3549C55.328 98.4514 54.8252 98.4018 54.3684 98.2126C53.9115 98.0233 53.521 97.7028 53.2463 97.2915C52.9715 96.8803 52.8249 96.3968 52.8249 95.9021C52.8249 95.2389 53.0883 94.6028 53.5572 94.1338C54.0261 93.6648 54.6621 93.4014 55.3252 93.4014Z" fill="#FBB300"/>
<path d="M70.9742 106H39.6368C38.2707 105.998 36.9612 105.454 35.9953 104.488C35.0293 103.522 34.4856 102.212 34.4834 100.846V44.4743C34.4862 43.1083 35.0301 41.7992 35.996 40.8335C36.9619 39.8678 38.2711 39.3243 39.6368 39.3221H70.9734C72.3395 39.3243 73.649 39.8681 74.6149 40.8342C75.5809 41.8004 76.1246 43.1101 76.1268 44.4764V49.5628C76.1274 50.0272 75.9435 50.4729 75.6155 50.8016C75.2876 51.1304 74.8425 51.3155 74.3781 51.316C73.9138 51.3166 73.4683 51.1326 73.1395 50.8046C72.8108 50.4767 72.6258 50.0315 72.6252 49.5671V44.475C72.625 44.0369 72.451 43.6168 72.1412 43.307C71.8315 42.9972 71.4115 42.8231 70.9734 42.8229H39.6368C39.1989 42.8236 38.7792 42.9979 38.4696 43.3076C38.16 43.6173 37.9857 44.037 37.985 44.475V100.846C37.9857 101.284 38.16 101.704 38.4696 102.014C38.7792 102.323 39.1989 102.498 39.6368 102.498H70.9734C71.4115 102.498 71.8315 102.324 72.1412 102.014C72.451 101.705 72.625 101.284 72.6252 100.846V93.1531C72.625 92.9231 72.67 92.6954 72.7577 92.4828C72.8454 92.2702 72.9742 92.077 73.1365 91.9142C73.2989 91.7514 73.4918 91.6222 73.7041 91.534C73.9164 91.4457 74.144 91.4001 74.3739 91.3998C74.6038 91.3996 74.8315 91.4446 75.0441 91.5323C75.2566 91.6201 75.4497 91.7488 75.6125 91.9112C75.7753 92.0736 75.9045 92.2665 75.9927 92.4789C76.081 92.6912 76.1265 92.9189 76.1268 93.1488V100.846C76.1246 102.212 75.5809 103.522 74.6149 104.488C73.649 105.454 72.3402 105.998 70.9742 106Z" fill="#FBB300"/>
<mask id="mask0_1_394" style="mask-type:luminance" maskUnits="userSpaceOnUse" x="60" y="54" width="29" height="34">
<path d="M88.614 54.7356H60.921V87.9331H88.614V54.7356Z" fill="white"/>
</mask>
<g mask="url(#mask0_1_394)">
<path d="M74.5582 58.0065C75.1808 57.991 75.7998 58.1062 76.3752 58.3447C76.9505 58.5832 77.4695 58.9397 77.8986 59.3913C78.3507 59.8205 78.7077 60.3398 78.9466 60.9157C79.1854 61.4915 79.3008 62.1111 79.2852 62.7344C79.3008 63.3571 79.1856 63.9762 78.9471 64.5517C78.7086 65.1271 78.3522 65.6462 77.9007 66.0753C77.4714 66.5271 76.9521 66.8838 76.3763 67.1224C75.8006 67.3609 75.1812 67.476 74.5582 67.4601C73.9352 67.476 73.3158 67.3609 72.7401 67.1224C72.1644 66.8838 71.645 66.5271 71.2157 66.0753C70.7643 65.6462 70.4078 65.1271 70.1693 64.5517C69.9309 63.9762 69.8157 63.3571 69.8312 62.7344C69.816 62.1113 69.9313 61.492 70.1698 60.9163C70.4082 60.3405 70.7645 59.821 71.2157 59.3913C71.6453 58.9398 72.1647 58.5834 72.7404 58.3449C73.316 58.1064 73.9353 57.9911 74.5582 58.0065ZM74.5582 54.7363C73.5055 54.7213 72.4609 54.9215 71.4882 55.3243C70.5155 55.7272 69.6353 56.3244 68.9014 57.0793C68.1466 57.8134 67.5495 58.6938 67.1467 59.6666C66.7439 60.6395 66.5438 61.6843 66.5588 62.7372C66.5454 63.7887 66.7465 64.832 67.1498 65.8032C67.553 66.7744 68.15 67.6531 68.9042 68.3859C69.6381 69.1408 70.5183 69.738 71.491 70.1409C72.4637 70.5438 73.5084 70.7439 74.561 70.7289C75.6137 70.7439 76.6584 70.5438 77.6311 70.1409C78.6037 69.738 79.484 69.1408 80.2179 68.3859C80.9721 67.6524 81.5688 66.7728 81.9716 65.8009C82.3744 64.8289 82.5748 63.785 82.5605 62.733C82.5754 61.68 82.3751 60.635 81.9721 59.6621C81.569 58.6893 80.9716 57.8089 80.2165 57.0751C79.482 56.3207 78.6014 55.7242 77.6285 55.322C76.6556 54.9199 75.6108 54.7206 74.5582 54.7363Z" fill="#FCC647" fill-opacity="0.7"/>
<path d="M82.564 74.2686C82.8339 74.3781 83.0835 74.5323 83.3022 74.7248C83.6001 75.016 83.8534 75.3497 84.0539 75.7149C84.2981 76.1418 84.4992 76.5919 84.6542 77.0586C84.8213 77.5995 84.9554 78.1501 85.0558 78.7072C85.1789 79.4455 85.2503 80.0092 85.2807 80.488C85.3231 81.1189 85.3422 81.6903 85.3422 82.2349C85.3752 82.5596 85.3379 82.8877 85.2327 83.1967C85.1275 83.5057 84.957 83.7884 84.7327 84.0256C84.4647 84.2603 84.1516 84.4379 83.8127 84.5473C83.4737 84.6568 83.1159 84.6958 82.7613 84.6621H66.7709C66.4203 84.6949 66.0668 84.657 65.7312 84.5506C65.3955 84.4442 65.0847 84.2714 64.8171 84.0426C64.588 83.8042 64.4133 83.5189 64.305 83.2065C64.1967 82.894 64.1575 82.5618 64.1899 82.2327C64.1899 81.7518 64.1956 81.1245 64.2515 80.4823C64.2888 79.9061 64.3597 79.3325 64.4636 78.7645C64.5647 78.1952 64.7002 77.6327 64.8695 77.0798C65.0274 76.6015 65.2331 76.1401 65.4832 75.7029C65.6781 75.3542 65.918 75.0327 66.1967 74.7467C66.3583 74.606 66.5358 74.4848 66.7256 74.3853C69.0323 75.9598 71.7642 76.7932 74.5568 76.7743C77.4215 76.7973 80.2214 75.9215 82.5626 74.27M81.683 70.7911C79.7352 72.5624 77.1898 73.5313 74.5575 73.5034C71.9402 73.5248 69.4095 72.5661 67.4631 70.8159C66.8985 70.8647 66.3439 70.9955 65.817 71.2042C65.1238 71.4815 64.4862 71.8813 63.9347 72.3845C63.4259 72.8952 62.9885 73.4724 62.6343 74.1003C62.2802 74.724 61.9884 75.3812 61.7632 76.0621C61.5496 76.7518 61.3789 77.454 61.2519 78.1647C61.124 78.8601 61.0371 79.5624 60.9917 80.2681C60.9359 80.9046 60.921 81.5701 60.921 82.232C60.8879 83.0018 61.0158 83.7699 61.2966 84.4873C61.5774 85.2047 62.0048 85.8556 62.5516 86.3983C63.7002 87.4471 65.217 87.9988 66.7709 87.933H82.762C84.3158 87.9985 85.8325 87.4468 86.9813 86.3983C87.528 85.8555 87.9555 85.2046 88.2366 84.4873C88.5178 83.7699 88.6463 83.0018 88.614 82.232C88.614 81.5552 88.585 80.9046 88.5433 80.2681C88.4918 79.5627 88.4045 78.8605 88.2816 78.164C88.1535 77.4537 87.9826 76.7518 87.7697 76.0621C87.5455 75.3797 87.2529 74.7217 86.8964 74.0982C86.5434 73.4667 86.1012 72.8896 85.5833 72.3845C84.5192 71.3985 83.133 70.8332 81.683 70.794" fill="#FCC647" fill-opacity="0.7"/>
</g>
</g>
<defs>
<clipPath id="clip0_1_394">
<rect width="122" height="106" fill="white"/>
</clipPath>
</defs>
</svg>
