<svg width="122" height="106" viewBox="0 0 122 106" fill="none" xmlns="http://www.w3.org/2000/svg">
<g clip-path="url(#clip0_1_6134)">
<path d="M65.2211 83.754L69.4566 80.5573L65.2211 83.7611V83.754Z" fill="#FBB300"/>
<path d="M70.2911 55.5072H67.6465C66.0741 55.5105 64.5671 56.1367 63.4552 57.2488C62.3434 58.3609 61.7173 59.8682 61.7139 61.4408V85.02C61.7169 85.7806 62.0203 86.5092 62.558 87.047C63.0958 87.5849 63.8243 87.8883 64.5847 87.8913H64.5918C65.2105 87.8925 65.8131 87.694 66.3101 87.3255L70.2911 84.3198V98.4149C70.2912 98.6444 70.246 98.8716 70.1583 99.0836C70.0706 99.2955 69.9419 99.4881 69.7797 99.6504C69.6175 99.8126 69.4249 99.9413 69.213 100.029C69.0011 100.117 68.7739 100.162 68.5445 100.162H42.0564C41.8274 100.162 41.6006 100.117 41.3891 100.029C41.1776 99.9408 40.9856 99.812 40.8239 99.6497C40.6623 99.4874 40.5343 99.2948 40.4473 99.0829C40.3603 98.871 40.316 98.644 40.317 98.4149V46.9001C40.3168 46.6716 40.3617 46.4453 40.449 46.2341C40.5364 46.023 40.6645 45.8311 40.826 45.6695C40.9876 45.5079 41.1794 45.3798 41.3906 45.2924C41.6017 45.205 41.828 45.1602 42.0564 45.1603H68.5445C69.0067 45.1598 69.4502 45.3427 69.7776 45.6689C70.1051 45.9951 70.2897 46.4379 70.2911 46.9001V55.5072Z" fill="#FCC647" fill-opacity="0.3"/>
<path d="M84.8473 1.60612C84.8473 1.92379 84.7532 2.23431 84.5767 2.49844C84.4003 2.76257 84.1495 2.96843 83.856 3.08999C83.5626 3.21155 83.2397 3.24336 82.9282 3.18139C82.6167 3.11942 82.3306 2.96645 82.106 2.74183C81.8814 2.51721 81.7285 2.23102 81.6665 1.91946C81.6046 1.60791 81.6364 1.28497 81.7579 0.991487C81.8795 0.698007 82.0853 0.447164 82.3494 0.270681C82.6134 0.0941976 82.9239 0 83.2415 0C83.6674 0 84.0759 0.169216 84.377 0.470423C84.6782 0.77163 84.8473 1.18015 84.8473 1.60612Z" fill="#FBB300"/>
<path d="M5.94815 57.8134C6.66239 57.814 7.36044 58.0263 7.95403 58.4236C8.54763 58.8209 9.01014 59.3853 9.28308 60.0455C9.55602 60.7056 9.62714 61.4319 9.48746 62.1325C9.34777 62.833 9.00355 63.4765 8.49831 63.9814C7.99307 64.4864 7.34949 64.8301 6.64893 64.9693C5.94837 65.1085 5.22228 65.0368 4.56246 64.7632C3.90264 64.4897 3.33871 64.0267 2.94196 63.4327C2.5452 62.8387 2.33344 62.1403 2.33344 61.426C2.33344 60.9514 2.42691 60.4816 2.60852 60.0432C2.79012 59.6048 3.05629 59.2065 3.39184 58.871C3.72738 58.5355 4.12572 58.2695 4.5641 58.088C5.00247 57.9065 5.4723 57.8132 5.94674 57.8134M5.94674 55.4796C4.77058 55.4796 3.62084 55.8284 2.64291 56.4819C1.66497 57.1355 0.902765 58.0644 0.452671 59.1512C0.00257659 60.2381 -0.115189 61.434 0.114268 62.5877C0.343724 63.7415 0.910095 64.8013 1.74176 65.6331C2.57343 66.4649 3.63303 67.0314 4.78659 67.2609C5.94014 67.4904 7.13583 67.3726 8.22246 66.9225C9.30908 66.4723 10.2378 65.7099 10.8913 64.7318C11.5447 63.7537 11.8935 62.6037 11.8935 61.4274C11.8935 59.8499 11.2669 58.3371 10.1517 57.2216C9.03649 56.1062 7.52391 55.4796 5.94674 55.4796Z" fill="#FBB300"/>
<path d="M52.8248 14.8059C53.2406 14.8059 53.6471 14.9292 53.9928 15.1603C54.3385 15.3913 54.6079 15.7197 54.767 16.1039C54.9261 16.4881 54.9678 16.9109 54.8867 17.3187C54.8055 17.7266 54.6053 18.1012 54.3113 18.3953C54.0173 18.6893 53.6427 18.8896 53.235 18.9707C52.8272 19.0519 52.4045 19.0102 52.0204 18.8511C51.6362 18.6919 51.3079 18.4224 51.0769 18.0767C50.8459 17.7309 50.7226 17.3244 50.7226 16.9085C50.7226 16.3509 50.9441 15.8161 51.3383 15.4218C51.7326 15.0274 52.2673 14.8059 52.8248 14.8059ZM52.8248 13.4473C52.1404 13.4473 51.4713 13.6503 50.9023 14.0306C50.3332 14.411 49.8896 14.9515 49.6277 15.584C49.3658 16.2164 49.2972 16.9124 49.4308 17.5838C49.5643 18.2552 49.8939 18.8719 50.3779 19.356C50.8618 19.84 51.4784 20.1697 52.1497 20.3032C52.821 20.4368 53.5168 20.3682 54.1491 20.1063C54.7815 19.8443 55.3219 19.4007 55.7022 18.8315C56.0824 18.2623 56.2854 17.5931 56.2854 16.9085C56.2854 16.454 56.1959 16.0039 56.022 15.584C55.8481 15.164 55.5932 14.7825 55.2718 14.4611C54.9505 14.1397 54.569 13.8847 54.1491 13.7108C53.7293 13.5369 53.2793 13.4473 52.8248 13.4473Z" fill="#FBB300"/>
<path d="M117.054 52.5035C117.648 52.5028 118.229 52.6783 118.723 53.0077C119.217 53.337 119.603 53.8056 119.83 54.354C120.058 54.9025 120.119 55.5062 120.003 56.0888C119.888 56.6715 119.603 57.2069 119.183 57.6273C118.764 58.0478 118.229 58.3344 117.647 58.451C117.065 58.5675 116.461 58.5088 115.912 58.2821C115.363 58.0555 114.894 57.6712 114.564 57.1777C114.233 56.6843 114.056 56.1039 114.056 55.51C114.057 54.7141 114.373 53.9511 114.936 53.3883C115.499 52.8256 116.262 52.5089 117.057 52.5078M117.057 50.5671C116.08 50.5671 115.124 50.8571 114.311 51.4003C113.498 51.9435 112.865 52.7156 112.491 53.6189C112.117 54.5222 112.019 55.5162 112.21 56.4751C112.4 57.4341 112.871 58.3149 113.562 59.0063C114.254 59.6977 115.134 60.1685 116.093 60.3593C117.052 60.55 118.046 60.4521 118.949 60.0779C119.852 59.7038 120.624 59.0701 121.167 58.2572C121.71 57.4442 122 56.4884 122 55.5107C122 54.1996 121.479 52.9423 120.552 52.0153C119.625 51.0882 118.368 50.5673 117.057 50.5671Z" fill="#FBB300"/>
<path d="M97.8815 22.2948H95.9362V27.7433H97.8815V22.2948Z" fill="#FBB300"/>
<path d="M99.6329 24.0459H94.1854V25.9915H99.6329V24.0459Z" fill="#FBB300"/>
<path d="M18.5345 22.1324L17.0356 27.3699L18.9057 27.9053L20.4046 22.6678L18.5345 22.1324Z" fill="#FBB300"/>
<path d="M16.3694 23.3338L15.8342 25.2043L21.0715 26.7035L21.6067 24.833L16.3694 23.3338Z" fill="#FBB300"/>
<path d="M65.214 61.4479V83.7611H65.2211V61.4479C65.2227 60.8031 65.4795 60.1852 65.9353 59.7293C65.708 59.9543 65.5273 60.2219 65.4036 60.5168C65.2798 60.8117 65.2154 61.1281 65.214 61.4479Z" fill="#FBB300"/>
<path d="M95.6265 55.5071H67.6465C66.0741 55.5105 64.5671 56.1367 63.4552 57.2488C62.3434 58.3608 61.7173 59.8681 61.7139 61.4408V85.0199C61.7169 85.7806 62.0203 86.5092 62.558 87.047C63.0958 87.5849 63.8243 87.8883 64.5847 87.8913H64.5918C65.2105 87.8924 65.8131 87.694 66.3101 87.3255L70.2911 84.3198L71.5709 83.3509C71.7845 83.1951 72.0419 83.111 72.3063 83.1104H95.6407C97.2161 83.1048 98.725 82.4749 99.837 81.3588C100.949 80.2426 101.573 78.7312 101.573 77.1555V61.4408C101.568 59.8663 100.939 58.3579 99.8249 57.2459C98.7104 56.1338 97.2008 55.5086 95.6265 55.5071ZM98.0731 77.1555C98.0726 77.8019 97.8166 78.4219 97.3609 78.8802C96.9053 79.3386 96.2869 79.5983 95.6407 79.6025H72.278C71.2735 79.6081 70.2971 79.9352 69.492 80.5361L69.4637 80.5573H69.4567L65.2211 83.7611H65.2141V61.4479C65.2154 61.1281 65.2799 60.8117 65.4036 60.5168C65.5274 60.2219 65.708 59.9543 65.9353 59.7293C66.3895 59.2744 67.0037 59.0154 67.6465 59.0079H95.6265C96.2724 59.0098 96.8915 59.2662 97.3495 59.7217C97.8075 60.1771 98.0675 60.7949 98.0731 61.4408V77.1555Z" fill="#FCC647" fill-opacity="0.75"/>
<path d="M91.444 68.0266H71.8417C71.6118 68.0268 71.3841 67.9818 71.1716 67.8941C70.959 67.8063 70.7659 67.6776 70.6031 67.5152C70.4403 67.3528 70.3111 67.1599 70.2229 66.9475C70.1346 66.7352 70.0891 66.5075 70.0888 66.2776C70.0885 66.0476 70.1335 65.8199 70.2213 65.6073C70.309 65.3947 70.4377 65.2015 70.6001 65.0387C70.7625 64.8759 70.9553 64.7467 71.1676 64.6585C71.3799 64.5702 71.6076 64.5246 71.8375 64.5244H91.4461C91.9105 64.5244 92.3558 64.7088 92.6841 65.0372C93.0125 65.3656 93.1969 65.811 93.1969 66.2755C93.1969 66.7399 93.0125 67.1853 92.6841 67.5137C92.3558 67.8421 91.9105 68.0266 91.4461 68.0266" fill="#FCC647" fill-opacity="0.75"/>
<path d="M59.7793 51.2503H50.6286C50.1643 51.2509 49.7188 51.0669 49.39 50.7389C49.0613 50.4109 48.8763 49.9658 48.8757 49.5013C48.8752 49.0369 49.0591 48.5913 49.387 48.2625C49.715 47.9337 50.1601 47.7487 50.6244 47.7481H59.7793C60.2436 47.7475 60.6891 47.9315 61.0179 48.2595C61.3466 48.5875 61.5316 49.0327 61.5322 49.4971C61.5327 49.9615 61.3488 50.4071 61.0209 50.7359C60.6929 51.0647 60.2478 51.2498 59.7835 51.2503H59.7793Z" fill="#FBB300"/>
<path d="M82.8605 74.584H71.8417C71.6118 74.5843 71.3841 74.5393 71.1716 74.4515C70.959 74.3638 70.7659 74.235 70.6031 74.0726C70.4403 73.9102 70.3111 73.7173 70.2229 73.505C70.1346 73.2926 70.0891 73.065 70.0888 72.835C70.0885 72.6051 70.1335 72.3773 70.2213 72.1647C70.309 71.9522 70.4377 71.759 70.6001 71.5962C70.7625 71.4334 70.9553 71.3042 71.1676 71.2159C71.3799 71.1276 71.6076 71.0821 71.8375 71.0818H82.8626C83.327 71.0818 83.7723 71.2663 84.1006 71.5947C84.429 71.9231 84.6134 72.3685 84.6134 72.8329C84.6134 73.2973 84.429 73.7427 84.1006 74.0711C83.7723 74.3995 83.327 74.584 82.8626 74.584" fill="#FCC647" fill-opacity="0.75"/>
<path d="M55.3252 98.4029C56.7061 98.4029 57.8255 97.2833 57.8255 95.9021C57.8255 94.521 56.7061 93.4014 55.3252 93.4014C53.9443 93.4014 52.8249 94.521 52.8249 95.9021C52.8249 97.2833 53.9443 98.4029 55.3252 98.4029Z" fill="#FBB300"/>
<path d="M70.9741 106H39.6367C38.2707 105.998 36.9612 105.454 35.9952 104.488C35.0293 103.522 34.4856 102.212 34.4834 100.846V44.4743C34.4862 43.1084 35.0301 41.7992 35.996 40.8335C36.9619 39.8679 38.271 39.3244 39.6367 39.3221H70.9734C72.3395 39.3244 73.6489 39.8682 74.6149 40.8343C75.5809 41.8004 76.1245 43.1101 76.1268 44.4765V49.5629C76.1273 50.0273 75.9434 50.4729 75.6155 50.8017C75.2875 51.1305 74.8424 51.3155 74.3781 51.3161C73.9138 51.3167 73.4682 51.1327 73.1395 50.8047C72.8108 50.4767 72.6258 50.0315 72.6252 49.5671V44.475C72.625 44.0369 72.4509 43.6168 72.1412 43.307C71.8315 42.9973 71.4114 42.8231 70.9734 42.8229H39.6367C39.1989 42.8237 38.7792 42.998 38.4696 43.3077C38.1599 43.6173 37.9857 44.0371 37.9849 44.475V100.846C37.9857 101.284 38.1599 101.704 38.4696 102.014C38.7792 102.323 39.1989 102.498 39.6367 102.499H70.9734C71.4114 102.498 71.8315 102.324 72.1412 102.014C72.4509 101.705 72.625 101.285 72.6252 100.846V93.1531C72.6249 92.9232 72.6699 92.6954 72.7576 92.4829C72.8454 92.2703 72.9741 92.0771 73.1365 91.9143C73.2989 91.7515 73.4917 91.6223 73.704 91.534C73.9163 91.4458 74.1439 91.4002 74.3739 91.3999C74.6038 91.3996 74.8315 91.4446 75.044 91.5324C75.2565 91.6201 75.4497 91.7489 75.6125 91.9113C75.7752 92.0737 75.9044 92.2666 75.9927 92.4789C76.0809 92.6913 76.1265 92.9189 76.1268 93.1489V100.846C76.1245 102.212 75.5809 103.522 74.6149 104.488C73.6489 105.454 72.3402 105.998 70.9741 106Z" fill="#FBB300"/>
</g>
<defs>
<clipPath id="clip0_1_6134">
<rect width="122" height="106" fill="white"/>
</clipPath>
</defs>
</svg>
