<svg width="22" height="37" viewBox="0 0 22 37" fill="none" xmlns="http://www.w3.org/2000/svg">
<path d="M20.368 5.72161H19.152V1.19039C19.152 0.460791 18.734 0 18.164 0C18.05 0 17.936 -9.37557e-06 17.822 0.0383906L1.33 5.14561C0.57 5.37601 0 6.2592 0 7.104V34.752V34.8672C0 35.712 0.683991 36.4416 1.55799 36.4416H20.444C21.28 36.4416 22.002 35.7504 22.002 34.8672V7.2192C21.926 6.4128 21.242 5.72161 20.368 5.72161ZM7.106 29.7216C6.954 30.0288 6.574 30.1056 6.27 29.9136L5.28199 29.2608C5.01599 29.0688 4.94 28.6848 5.13 28.416L9.15799 22.8096L10.07 24.4224L7.106 29.7216ZM15.998 29.2608L14.972 29.9136C14.668 30.1056 14.288 29.9904 14.136 29.7216L9.31 21.1968L9.006 21.3504C8.208 21.7344 7.334 21.3888 6.954 20.6592C6.574 19.9296 6.00399 18.7392 4.90199 16.5504C3.83799 14.4 5.32 12.4416 5.624 12.9024L9.88 19.584L16.188 28.3776C16.378 28.6464 16.302 29.0688 15.998 29.2608ZM17.328 14.784L15.01 18.5472L14.706 19.008C14.402 19.4688 13.946 19.8144 13.49 19.8912L12.502 20.0832L12.008 20.9664L11.21 19.8528L11.514 19.4304L11.286 18.4704C11.172 18.0096 11.286 17.472 11.59 16.9728L11.894 16.512L14.364 12.8256C14.402 12.7872 14.478 12.7488 14.516 12.7872L14.896 13.056C14.934 13.0944 14.972 13.1712 14.934 13.2096L12.654 16.9344C12.616 17.0112 12.616 17.1264 12.692 17.2032C12.73 17.2416 12.806 17.28 12.844 17.3184C12.92 17.3568 13.034 17.3568 13.11 17.28C13.566 16.5888 15.542 13.6704 15.542 13.6704C15.58 13.632 15.656 13.5936 15.694 13.632L16.074 13.9008C16.112 13.9392 16.15 14.016 16.112 14.0544L13.832 17.7792C13.794 17.856 13.794 17.9712 13.87 18.048C13.908 18.0864 13.984 18.1248 14.022 18.1632C14.098 18.2016 14.212 18.2016 14.288 18.1248C14.744 17.4336 16.72 14.5152 16.72 14.5152C16.758 14.4768 16.834 14.4384 16.872 14.4768L17.252 14.7456C17.366 14.6688 17.366 14.7456 17.328 14.784ZM17.974 5.72161H3.61L17.974 1.2672V5.72161Z" fill="white"/>
</svg>
