<svg width="16" height="16" viewBox="0 0 16 16" fill="none" xmlns="http://www.w3.org/2000/svg">
<path d="M5.2188 10.2576L4.26926 11.2071L4.01203 10.9499C3.89628 10.8362 3.74033 10.7729 3.57811 10.7736C3.41588 10.7743 3.26051 10.8391 3.1458 10.9538C3.03109 11.0685 2.96632 11.2239 2.96558 11.3861C2.96485 11.5483 3.02821 11.7043 3.14188 11.82L3.83418 12.5123C3.89131 12.5695 3.95914 12.6148 4.03379 12.6458C4.10845 12.6767 4.18847 12.6926 4.26928 12.6926C4.35009 12.6926 4.43011 12.6767 4.50476 12.6458C4.57942 12.6148 4.64725 12.5695 4.70437 12.5123L6.08899 11.1277C6.20318 11.0121 6.26698 10.856 6.26647 10.6934C6.26596 10.5309 6.20116 10.3752 6.08624 10.2603C5.97132 10.1454 5.8156 10.0806 5.65308 10.0801C5.49056 10.0796 5.33444 10.1434 5.2188 10.2576Z" fill="#2F3443" fill-opacity="0.9"/>
<path d="M12.6153 1.23096H5.84609C5.27507 1.23165 4.72763 1.45879 4.32386 1.86257C3.92008 2.26634 3.69294 2.81378 3.69225 3.3848V8.13541C2.90643 8.35742 2.22753 8.85636 1.78099 9.54002C1.33445 10.2237 1.15044 11.0459 1.26298 11.8546C1.37552 12.6634 1.77699 13.4041 2.39321 13.9399C3.00943 14.4757 3.79875 14.7704 4.61532 14.7694C4.68443 14.7694 4.74994 14.7653 4.79802 14.761C4.83944 14.7667 4.8812 14.7695 4.92302 14.7694H12.6153C13.1863 14.7687 13.7338 14.5416 14.1376 14.1378C14.5413 13.734 14.7685 13.1866 14.7692 12.6156V3.3848C14.7685 2.81378 14.5413 2.26634 14.1376 1.86257C13.7338 1.45879 13.1863 1.23165 12.6153 1.23096ZM13.5384 12.6156C13.5381 12.8603 13.4408 13.0949 13.2677 13.268C13.0947 13.441 12.8601 13.5384 12.6153 13.5386H7.22079C7.71456 12.9442 7.98948 12.1983 7.99965 11.4256C8.00982 10.6529 7.75463 9.90011 7.27668 9.29286C7.17555 9.16479 7.02769 9.08214 6.86563 9.0631C6.70356 9.04405 6.54057 9.09016 6.4125 9.19129C6.28443 9.29242 6.20179 9.44028 6.18274 9.60235C6.16369 9.76441 6.20981 9.92741 6.31094 10.0555C6.60809 10.4348 6.76944 10.9029 6.76917 11.3848C6.77501 11.9152 6.58268 12.4288 6.22982 12.8249C5.87697 13.2209 5.389 13.4711 4.86142 13.5263L4.83047 13.5272L4.82206 13.5275C4.81033 13.5278 4.79847 13.5278 4.79081 13.5284C4.22713 13.5754 3.66763 13.3985 3.23338 13.036C2.79914 12.6736 2.52507 12.1547 2.47049 11.5917C2.4159 11.0288 2.58519 10.4669 2.94172 10.0278C3.29824 9.58867 3.81334 9.30758 4.37554 9.24537C4.40397 9.23861 4.43184 9.22969 4.45892 9.2187C4.49926 9.21022 4.53862 9.19766 4.57641 9.18122C4.61061 9.16281 4.64287 9.14101 4.67271 9.11616C4.73889 9.07409 4.79221 9.01463 4.82686 8.94429C4.84846 8.91153 4.86668 8.87667 4.88125 8.84024C4.89326 8.80162 4.90131 8.76188 4.90529 8.72163C4.91347 8.69289 4.9194 8.66356 4.92302 8.6339V3.3848C4.92328 3.14007 5.02062 2.90544 5.19367 2.73238C5.36673 2.55933 5.60136 2.46199 5.84609 2.46173H12.6153C12.8601 2.46199 13.0947 2.55933 13.2677 2.73238C13.4408 2.90544 13.5381 3.14007 13.5384 3.3848V12.6156Z" fill="#2F3443" fill-opacity="0.9"/>
<path d="M11.6923 3.69238H6.76919C6.60598 3.69238 6.44946 3.75722 6.33405 3.87262C6.21864 3.98803 6.15381 4.14456 6.15381 4.30777C6.15381 4.47098 6.21864 4.6275 6.33405 4.74291C6.44946 4.85832 6.60598 4.92315 6.76919 4.92315H11.6923C11.8555 4.92315 12.012 4.85832 12.1274 4.74291C12.2428 4.6275 12.3077 4.47098 12.3077 4.30777C12.3077 4.14456 12.2428 3.98803 12.1274 3.87262C12.012 3.75722 11.8555 3.69238 11.6923 3.69238Z" fill="#2F3443" fill-opacity="0.9"/>
<path d="M11.6923 6.15381H6.76919C6.60598 6.15381 6.44946 6.21864 6.33405 6.33405C6.21864 6.44946 6.15381 6.60598 6.15381 6.76919C6.15381 6.9324 6.21864 7.08893 6.33405 7.20434C6.44946 7.31974 6.60598 7.38458 6.76919 7.38458H11.6923C11.8555 7.38458 12.012 7.31974 12.1274 7.20434C12.2428 7.08893 12.3077 6.9324 12.3077 6.76919C12.3077 6.60598 12.2428 6.44946 12.1274 6.33405C12.012 6.21864 11.8555 6.15381 11.6923 6.15381Z" fill="#2F3443" fill-opacity="0.9"/>
<path d="M11.6923 8.61572H8.7521C8.58889 8.61572 8.43237 8.68056 8.31696 8.79596C8.20155 8.91137 8.13672 9.0679 8.13672 9.23111C8.13672 9.39432 8.20155 9.55084 8.31696 9.66625C8.43237 9.78166 8.58889 9.84649 8.7521 9.84649H11.6923C11.8555 9.84649 12.012 9.78166 12.1274 9.66625C12.2429 9.55084 12.3077 9.39432 12.3077 9.23111C12.3077 9.0679 12.2429 8.91137 12.1274 8.79596C12.012 8.68056 11.8555 8.61572 11.6923 8.61572Z" fill="#2F3443" fill-opacity="0.9"/>
<path d="M11.6923 11.0771H9.29922C9.13601 11.0771 8.97949 11.142 8.86408 11.2574C8.74867 11.3728 8.68384 11.5293 8.68384 11.6925C8.68384 11.8557 8.74867 12.0123 8.86408 12.1277C8.97949 12.2431 9.13601 12.3079 9.29922 12.3079H11.6923C11.8555 12.3079 12.012 12.2431 12.1274 12.1277C12.2428 12.0123 12.3076 11.8557 12.3076 11.6925C12.3076 11.5293 12.2428 11.3728 12.1274 11.2574C12.012 11.142 11.8555 11.0771 11.6923 11.0771Z" fill="#2F3443" fill-opacity="0.9"/>
</svg>
