<svg width="133" height="136" viewBox="0 0 133 136" fill="none" xmlns="http://www.w3.org/2000/svg">
<path d="M37.3559 62.1971L37.0813 80.9034C37.0422 83.5661 36.5489 86.2027 35.6226 88.6997L21.644 126.331L9.1111 121.243L3.04077 118.784L19.0515 78.786V48.5167L20.1871 41.7017L30.3404 44.2557L47.4812 51.0054L47.625 50.8953L58.7533 76.2842C59.4141 77.7912 59.755 79.4187 59.7545 81.0638V125.278H40.7179L40.9346 84.8473L37.1504 75.6126" fill="#FDA500"/>
<path d="M21.799 126.683L2.69336 118.932L8.99716 103.192L18.7919 78.7281V48.4943L19.9854 41.3715L30.445 44.0075L47.442 50.7013L47.7371 50.4737L58.9961 76.1779C59.6722 77.7181 60.0202 79.382 60.0178 81.0639V125.538H40.4489L40.6656 84.8846L37.3988 76.9166L37.3391 80.8997C37.3021 83.5989 36.8024 86.2717 35.8616 88.8023L21.799 126.683ZM3.38818 118.637L21.489 125.98L35.3629 88.6158C36.2791 86.1462 36.7667 83.5387 36.8049 80.9053L37.0794 62.199L37.6136 62.2083L37.4269 75.5697L41.211 84.795V84.8492L40.9962 125.012H59.4967V81.0639C59.4976 79.4583 59.1643 77.87 58.518 76.3999L47.5204 51.3039L30.2583 44.5113L20.4094 42.0319L19.3261 48.5391V78.8363L19.3074 78.8848L3.38818 118.637Z" fill="black"/>
<path d="M132.731 80.5937C132.731 83.9779 119.998 86.7222 104.29 86.7222C88.5819 86.7222 75.8529 83.9853 75.8529 80.5937C75.8529 77.202 88.5857 74.4652 104.29 74.4652C119.994 74.4652 132.731 77.2188 132.731 80.5937Z" fill="#FFB300"/>
<path d="M132.658 81.0321L124.384 130.455C124.384 132.849 115.39 134.785 104.29 134.785C93.1898 134.785 84.2002 132.849 84.2002 130.455L75.9296 81.0508C76.9979 84.2223 89.288 86.7296 104.29 86.7296C119.326 86.7296 131.635 84.2167 132.658 81.0321Z" fill="#D2D2D2"/>
<path d="M64.9619 133.782V134.785L61.5158 134.776L43.8558 134.741C43.8558 134.741 42.6268 129.92 46.2167 128.112C46.2167 128.112 47.3001 130.439 49.943 130.385C51.9583 130.345 53.8822 128.532 54.676 127.67C54.8121 127.525 54.9779 127.411 55.1621 127.336C55.3463 127.261 55.5446 127.227 55.7434 127.235C55.9422 127.244 56.1368 127.295 56.314 127.385C56.4911 127.476 56.6466 127.604 56.7698 127.76L58.2491 129.646L61.9678 130.765L62.9242 131.054H62.941C63.5263 131.232 64.0388 131.593 64.4027 132.084C64.7667 132.576 64.9627 133.171 64.9619 133.782Z" fill="#D2D2D2"/>
<path d="M20.1965 134.804L19.8229 135.737L16.6234 134.435L0.26709 127.793C0.26709 127.793 0.937628 122.862 4.93657 122.532C4.93657 122.532 5.06732 125.094 7.53841 126.032C9.42115 126.75 11.8848 125.79 12.9438 125.286C13.1245 125.202 13.3211 125.158 13.5203 125.158C13.7195 125.157 13.9165 125.199 14.0977 125.282C14.279 125.364 14.4403 125.485 14.5706 125.635C14.701 125.786 14.7972 125.962 14.8527 126.153L15.5158 128.454L18.5435 130.879L19.3242 131.506L19.3373 131.517C19.8154 131.9 20.1572 132.426 20.312 133.018C20.4668 133.611 20.4263 134.237 20.1965 134.804Z" fill="#D2D2D2"/>
<path d="M78.5501 44.8321V58.2309L59.2091 56.2608C58.3226 56.1885 57.4667 55.9037 56.7139 55.4305C55.9612 54.9573 55.3338 54.3097 54.8852 53.5426L47.8156 41.5412L47.4868 51.0054L26.3994 45.5952L28.1869 62.1878L15.3682 64.4638L13.5322 41.0114C13.4193 39.5574 13.6436 38.097 14.1875 36.7436C14.7313 35.3902 15.5802 34.1802 16.6682 33.2076L31.5153 19.9246C32.0213 19.4453 32.6515 19.117 33.3346 18.9769C33.5732 18.9302 33.8187 18.9302 34.0574 18.9769L48.8914 21.6857C49.3403 21.7576 49.7464 21.9937 50.0308 22.348C50.0662 22.3946 50.0999 22.4413 50.1298 22.4898L62.0612 41.3565C62.4783 42.0292 63.0331 42.6061 63.6891 43.0494C64.3451 43.4928 65.0876 43.7926 65.8678 43.9292L78.5501 44.8321Z" fill="black"/>
<path d="M15.37 64.7362C15.3107 64.7352 15.2532 64.7156 15.2057 64.6802C15.1766 64.6578 15.1525 64.6297 15.1349 64.5976C15.1172 64.5655 15.1063 64.5301 15.1029 64.4936L13.2613 41.0319C13.1482 39.5361 13.38 38.0344 13.9389 36.6421C14.4978 35.2498 15.3688 34.004 16.4851 33.0005L31.3322 19.7156C31.874 19.2051 32.5472 18.8551 33.2766 18.7045C33.5492 18.6512 33.8295 18.6512 34.1021 18.7045L48.9361 21.4096C49.4525 21.4921 49.919 21.765 50.2436 22.1745C50.2843 22.2266 50.3223 22.2808 50.3575 22.3368L62.2871 41.2017C62.6836 41.8409 63.2102 42.3897 63.8329 42.8124C64.4556 43.2351 65.1603 43.5221 65.9013 43.6549L78.5706 44.5691C78.6378 44.5743 78.7006 44.6046 78.7463 44.6541C78.792 44.7036 78.8173 44.7685 78.8171 44.8359V58.2346C78.817 58.2717 78.8092 58.3085 78.794 58.3425C78.7789 58.3764 78.7568 58.4069 78.7292 58.4318C78.7016 58.4568 78.6691 58.4757 78.6337 58.4873C78.5983 58.499 78.5609 58.5031 78.5239 58.4995L59.1885 56.5275C58.2582 56.4514 57.3601 56.1517 56.5708 55.654C55.7815 55.1564 55.1243 54.4755 54.6553 53.6694L48.0527 42.4759L47.7557 51.0222C47.7541 51.0623 47.7436 51.1015 47.7249 51.1371C47.7061 51.1726 47.6796 51.2034 47.6474 51.2274C47.6156 51.2515 47.5787 51.268 47.5395 51.2758C47.5004 51.2835 47.46 51.2823 47.4214 51.2722L26.7094 45.9571L28.4539 62.1672C28.4611 62.2344 28.4426 62.3017 28.402 62.3557C28.3615 62.4097 28.3019 62.4464 28.2354 62.4583L15.4167 64.7362C15.4012 64.738 15.3855 64.738 15.37 64.7362ZM33.695 19.197C33.592 19.1971 33.4894 19.2077 33.3886 19.2287C32.7577 19.3617 32.1759 19.6665 31.7076 20.1093L16.8456 33.3942C15.7906 34.3432 14.9673 35.521 14.4389 36.8372C13.9105 38.1534 13.6911 39.573 13.7973 40.9871L15.6128 64.1578L27.8955 61.9769L26.136 45.6306C26.1314 45.5878 26.1374 45.5445 26.1533 45.5046C26.1693 45.4646 26.1947 45.4291 26.2275 45.4011C26.2601 45.3729 26.299 45.3529 26.3409 45.3428C26.3829 45.3328 26.4266 45.3329 26.4685 45.3433L47.2327 50.664L47.5502 41.5319C47.5522 41.4742 47.5728 41.4187 47.609 41.3737C47.6452 41.3287 47.695 41.2967 47.751 41.2824C47.807 41.2681 47.8661 41.2723 47.9195 41.2944C47.9729 41.3165 48.0177 41.3553 48.0471 41.405L55.1167 53.4008C55.5432 54.1329 56.1407 54.7511 56.8581 55.2026C57.5756 55.6542 58.3918 55.9257 59.237 55.994L78.2885 57.9342V45.0802L65.8546 44.1829H65.8266C65.0098 44.0389 64.2325 43.7245 63.5454 43.2603C62.8583 42.7962 62.2768 42.1926 61.8389 41.489L49.9018 22.6185C49.8759 22.5766 49.8479 22.5361 49.8177 22.4972C49.574 22.1958 49.2262 21.9962 48.8428 21.9375L34.0087 19.2287C33.9053 19.2091 33.8003 19.1985 33.695 19.197Z" fill="black"/>
<path d="M26.4012 45.8694C26.3341 45.8691 26.2696 45.8436 26.2204 45.798C26.1713 45.7524 26.1412 45.6899 26.136 45.6231L25.7624 41.1942C25.7196 40.6563 25.7911 40.1154 25.9724 39.6071C26.1536 39.0988 26.4404 38.6345 26.814 38.2447L34.472 30.2413C34.5215 30.1901 34.5894 30.1606 34.6607 30.1594C34.7319 30.1582 34.8008 30.1853 34.8521 30.2348C34.9033 30.2842 34.9328 30.352 34.934 30.4232C34.9353 30.4944 34.9081 30.5632 34.8586 30.6144L27.2006 38.6197C26.8791 38.9551 26.6325 39.3549 26.4773 39.7926C26.3221 40.2303 26.2618 40.696 26.3004 41.1588L26.6739 45.5895C26.677 45.6245 26.6731 45.6597 26.6624 45.6932C26.6517 45.7266 26.6345 45.7576 26.6117 45.7843C26.589 45.811 26.5611 45.833 26.5298 45.8489C26.4985 45.8647 26.4643 45.8743 26.4292 45.8768L26.4012 45.8694Z" fill="white"/>
<path d="M47.8156 41.808C47.7447 41.808 47.6768 41.7799 47.6267 41.7298C47.5766 41.6798 47.5485 41.6119 47.5485 41.5412V33.2468C47.5485 33.176 47.5766 33.1081 47.6267 33.0581C47.6768 33.0081 47.7447 32.98 47.8156 32.98C47.8864 32.98 47.9543 33.0081 48.0044 33.0581C48.0545 33.1081 48.0826 33.176 48.0826 33.2468V41.5412C48.0826 41.6119 48.0545 41.6798 48.0044 41.7298C47.9543 41.7799 47.8864 41.808 47.8156 41.808Z" fill="black"/>
<path d="M64.96 135.052L43.8539 135.009C43.7945 135.009 43.7369 134.989 43.69 134.953C43.643 134.916 43.6094 134.865 43.5943 134.808C43.5831 134.758 42.3559 129.756 46.0952 127.875C46.127 127.859 46.1618 127.85 46.1974 127.847C46.233 127.844 46.2688 127.849 46.3026 127.86C46.3705 127.885 46.4261 127.935 46.4576 128C46.4987 128.088 47.5073 130.166 49.9354 130.118C51.8817 130.081 53.7588 128.267 54.476 127.489C54.6311 127.324 54.8182 127.193 55.026 127.102C55.2339 127.012 55.4579 126.965 55.6845 126.965C55.9341 126.964 56.1806 127.021 56.405 127.13C56.6293 127.239 56.8257 127.399 56.9789 127.596L58.4059 129.414L63.0006 130.793C63.6425 130.988 64.2051 131.383 64.6063 131.92C65.0075 132.457 65.2263 133.108 65.2308 133.778V134.78C65.2315 134.816 65.2251 134.851 65.2117 134.885C65.1984 134.918 65.1785 134.948 65.1533 134.974C65.128 134.999 65.0978 135.019 65.0646 135.033C65.0314 135.046 64.9958 135.053 64.96 135.052ZM44.0799 134.474L64.7022 134.517V133.782C64.7003 133.229 64.5213 132.69 64.1913 132.246C63.8613 131.802 63.3976 131.474 62.868 131.312L58.178 129.901C58.1253 129.884 58.0787 129.853 58.0435 129.81L56.5642 127.926C56.4612 127.793 56.3289 127.685 56.1777 127.612C56.0265 127.538 55.8603 127.5 55.692 127.5C55.5393 127.501 55.3884 127.532 55.2483 127.593C55.1083 127.653 54.9822 127.742 54.8776 127.853C54.1137 128.679 52.1058 130.61 49.9541 130.651C47.6679 130.694 46.4912 129.105 46.1158 128.474C43.4075 130.032 43.8931 133.592 44.0799 134.474Z" fill="black"/>
<path d="M56.0637 125.323L56.0338 127.278C55.9219 127.248 55.8062 127.233 55.6902 127.234C55.5007 127.233 55.3132 127.271 55.1393 127.347C54.9654 127.422 54.809 127.532 54.6797 127.67C53.8859 128.532 51.962 130.345 49.9467 130.385C47.3038 130.439 46.2204 128.112 46.2204 128.112L46.1906 128.129L46.2746 125.331L56.0637 125.323Z" fill="white"/>
<path d="M49.8477 130.653C47.4626 130.653 46.312 128.855 46.0374 128.353C45.9999 128.327 45.9693 128.293 45.9484 128.252C45.9276 128.212 45.9171 128.167 45.9179 128.122L46.0019 125.323C46.0039 125.254 46.0329 125.188 46.0828 125.139C46.1326 125.091 46.1995 125.064 46.269 125.064H56.0637C56.0993 125.064 56.1345 125.071 56.1673 125.085C56.2001 125.098 56.2297 125.119 56.2546 125.144C56.2795 125.169 56.2991 125.199 56.3121 125.232C56.3252 125.265 56.3316 125.301 56.3308 125.336L56.2954 127.291C56.2947 127.332 56.2846 127.373 56.2657 127.409C56.2469 127.446 56.2199 127.477 56.1869 127.502C56.1538 127.526 56.1155 127.543 56.0751 127.55C56.0346 127.557 55.993 127.555 55.9536 127.543C55.8661 127.518 55.7755 127.506 55.6846 127.508C55.532 127.508 55.381 127.539 55.241 127.6C55.1009 127.661 54.9748 127.749 54.8702 127.86C54.1063 128.687 52.0984 130.618 49.9467 130.659L49.8477 130.653ZM46.4577 127.998C46.4988 128.086 47.5074 130.164 49.9355 130.116C51.8818 130.079 53.7589 128.265 54.4761 127.487C54.6312 127.322 54.8183 127.191 55.0261 127.1C55.234 127.01 55.458 126.964 55.6846 126.963H55.7668L55.7911 125.586H46.5287L46.4577 127.998Z" fill="black"/>
<path d="M64.9599 135.052H61.5139C61.4601 135.052 61.4077 135.035 61.3632 135.005C61.3187 134.975 61.2841 134.932 61.2636 134.882C60.9968 134.186 60.9012 133.436 60.9848 132.695C61.0683 131.953 61.3285 131.243 61.7436 130.623C61.775 130.575 61.8211 130.539 61.875 130.52C61.9289 130.5 61.9876 130.498 62.0425 130.515L63.0006 130.802C63.6425 130.997 64.2051 131.392 64.6063 131.929C65.0075 132.466 65.2263 133.117 65.2308 133.787V134.789C65.2303 134.824 65.2229 134.859 65.209 134.891C65.1951 134.923 65.1751 134.952 65.1499 134.977C65.1248 135.001 65.095 135.02 65.0624 135.033C65.0298 135.046 64.995 135.053 64.9599 135.052ZM61.7025 134.509H64.691V133.782C64.6891 133.228 64.51 132.69 64.18 132.246C63.85 131.801 63.3864 131.474 62.8568 131.312L62.0779 131.077C61.6925 131.719 61.4892 132.454 61.4896 133.203C61.4882 133.647 61.5601 134.089 61.7025 134.509Z" fill="black"/>
<path d="M57.7148 130.89C57.6704 130.89 57.6267 130.88 57.5878 130.858C57.5256 130.824 57.4794 130.767 57.4591 130.7C57.4389 130.632 57.4462 130.559 57.4794 130.496L58.0061 129.519C58.0398 129.457 58.0969 129.41 58.1649 129.39C58.2328 129.37 58.3061 129.377 58.3685 129.411C58.4309 129.444 58.4774 129.501 58.4977 129.569C58.518 129.637 58.5105 129.71 58.4768 129.773L57.9501 130.75C57.9273 130.793 57.8934 130.828 57.8519 130.853C57.8104 130.878 57.763 130.89 57.7148 130.89Z" fill="black"/>
<path d="M59.0054 131.314C58.9616 131.314 58.9185 131.303 58.8803 131.282C58.8492 131.265 58.8216 131.243 58.7993 131.216C58.7769 131.189 58.7601 131.157 58.7498 131.124C58.7396 131.09 58.7361 131.055 58.7396 131.02C58.7431 130.985 58.7534 130.951 58.7701 130.92L59.2968 129.942C59.3305 129.88 59.3876 129.834 59.4555 129.813C59.5235 129.793 59.5967 129.801 59.6591 129.834C59.7216 129.868 59.768 129.925 59.7883 129.993C59.8087 130.061 59.8012 130.134 59.7675 130.196L59.2426 131.174C59.2194 131.216 59.1851 131.252 59.1433 131.276C59.1016 131.301 59.0539 131.314 59.0054 131.314Z" fill="black"/>
<path d="M60.143 131.662C60.0988 131.662 60.0553 131.651 60.016 131.631C59.9539 131.597 59.9077 131.54 59.8874 131.472C59.8671 131.404 59.8744 131.331 59.9076 131.269L60.4344 130.289C60.451 130.259 60.4736 130.231 60.5009 130.209C60.5281 130.187 60.5595 130.17 60.5931 130.16C60.6268 130.15 60.6621 130.147 60.697 130.151C60.7319 130.154 60.7658 130.165 60.7967 130.181C60.8276 130.198 60.8549 130.22 60.8771 130.248C60.8993 130.275 60.9159 130.306 60.9259 130.34C60.936 130.373 60.9393 130.409 60.9357 130.444C60.9322 130.478 60.9217 130.512 60.905 130.543L60.3765 131.524C60.3533 131.566 60.3195 131.601 60.2784 131.625C60.2374 131.649 60.1907 131.662 60.143 131.662Z" fill="black"/>
<path d="M47.9051 135.017C47.8534 135.017 47.8028 135.002 47.7594 134.974C47.716 134.945 47.6816 134.905 47.6605 134.858C46.8424 132.993 46.8461 131.286 47.6698 129.756C47.6857 129.724 47.708 129.696 47.7351 129.672C47.7622 129.649 47.7938 129.632 47.8278 129.621C47.8618 129.61 47.8977 129.606 47.9333 129.609C47.9688 129.613 48.0034 129.623 48.0349 129.64C48.0664 129.657 48.0941 129.68 48.1166 129.707C48.139 129.735 48.1556 129.767 48.1655 129.802C48.1753 129.836 48.1782 129.872 48.1739 129.907C48.1696 129.943 48.1582 129.977 48.1405 130.008C47.3934 131.405 47.3934 132.922 48.1498 134.642C48.1782 134.707 48.1798 134.78 48.1542 134.846C48.1287 134.912 48.0781 134.965 48.0135 134.994C47.9792 135.009 47.9424 135.017 47.9051 135.017Z" fill="black"/>
<path d="M19.8173 136.002C19.7832 136.001 19.7496 135.995 19.7183 135.981L0.166206 128.039C0.111176 128.017 0.065084 127.977 0.0350413 127.926C0.00499866 127.875 -0.00732467 127.815 -2.72254e-05 127.756C-2.72254e-05 127.704 0.74709 122.609 4.91974 122.264C4.95544 122.261 4.99136 122.265 5.02538 122.276C5.05939 122.287 5.0908 122.305 5.11773 122.329C5.17171 122.377 5.20462 122.444 5.20925 122.515C5.20925 122.612 5.36614 124.916 7.63738 125.78C9.45474 126.474 11.8754 125.497 12.8336 125.034C13.0379 124.94 13.2592 124.889 13.484 124.884C13.7088 124.878 13.9324 124.919 14.141 125.002C14.3724 125.095 14.5795 125.239 14.7463 125.424C14.913 125.609 15.0351 125.83 15.103 126.069L15.7436 128.289L19.4792 131.289C20.0021 131.711 20.3761 132.288 20.5466 132.937C20.717 133.586 20.6748 134.272 20.4262 134.896L20.0526 135.828C20.0343 135.877 20.0024 135.919 19.9606 135.95C19.9189 135.981 19.8691 135.999 19.8173 136.002ZM0.560311 127.625L19.6641 135.384L19.9424 134.703C20.1497 134.189 20.1864 133.621 20.0473 133.084C19.9081 132.547 19.6004 132.068 19.1691 131.718L15.357 128.663C15.3134 128.629 15.282 128.581 15.2673 128.528L14.6024 126.226C14.5563 126.074 14.4783 125.934 14.3738 125.814C14.2692 125.695 14.1405 125.599 13.996 125.533C13.8515 125.467 13.6946 125.433 13.5358 125.432C13.3769 125.431 13.2197 125.464 13.0745 125.528C12.0566 126.01 9.46969 127.047 7.45994 126.275C5.32505 125.463 4.83009 123.545 4.71802 122.82C1.62495 123.26 0.74709 126.743 0.560311 127.625Z" fill="black"/>
<path d="M15.1291 123.629L14.3633 125.43C14.2716 125.359 14.1703 125.302 14.0626 125.26C13.8871 125.188 13.6985 125.153 13.5088 125.157C13.3191 125.162 13.1324 125.206 12.9606 125.286C11.9015 125.788 9.43791 126.749 7.55517 126.032C5.08408 125.099 4.95333 122.532 4.95333 122.532H4.91785L6.04039 119.958L15.1291 123.629Z" fill="white"/>
<path d="M9.06622 126.555C8.51542 126.562 7.96783 126.469 7.45058 126.28C5.15693 125.409 4.75535 123.262 4.68811 122.685C4.66238 122.648 4.64665 122.604 4.6424 122.559C4.63816 122.513 4.64553 122.468 4.66383 122.426L5.79011 119.857C5.8181 119.793 5.86976 119.743 5.93422 119.716C5.99867 119.69 6.07089 119.69 6.13565 119.715L15.215 123.383C15.2482 123.396 15.2784 123.416 15.3037 123.441C15.3291 123.466 15.3491 123.496 15.3626 123.529C15.3764 123.561 15.3835 123.596 15.3835 123.632C15.3835 123.668 15.3764 123.703 15.3626 123.736L14.5968 125.534C14.5802 125.573 14.5546 125.607 14.5221 125.634C14.4897 125.661 14.4512 125.68 14.41 125.689C14.3702 125.699 14.3287 125.7 14.2886 125.691C14.2485 125.683 14.2108 125.665 14.1784 125.64C14.1068 125.585 14.0275 125.539 13.943 125.506C13.8014 125.449 13.6497 125.422 13.4971 125.426C13.3446 125.43 13.1944 125.465 13.0558 125.528C12.3068 125.887 10.6781 126.555 9.06622 126.555ZM5.21109 122.514C5.21109 122.611 5.36799 124.915 7.63923 125.778C9.45659 126.472 11.8773 125.495 12.8354 125.032C13.0398 124.938 13.2611 124.887 13.4859 124.882C13.7107 124.876 13.9342 124.917 14.1429 125L14.2176 125.032L14.7574 123.765L6.16554 120.297L5.21109 122.514Z" fill="black"/>
<path d="M19.8173 136.002C19.7833 136.001 19.7497 135.995 19.7183 135.981L16.5263 134.675C16.4764 134.655 16.4339 134.62 16.404 134.575C16.374 134.53 16.3581 134.477 16.3582 134.424C16.3673 133.854 16.4826 133.291 16.6981 132.763C17.0443 131.907 17.6371 131.173 18.4015 130.653C18.4489 130.621 18.5053 130.605 18.5624 130.607C18.6196 130.61 18.6745 130.63 18.719 130.666L19.4979 131.291C20.0208 131.712 20.3949 132.29 20.5653 132.939C20.7357 133.588 20.6935 134.274 20.4449 134.897L20.0713 135.83C20.0515 135.881 20.0166 135.925 19.9712 135.956C19.9258 135.986 19.8721 136.002 19.8173 136.002ZM16.9017 134.259L19.6716 135.379L19.9499 134.698C20.1572 134.183 20.1939 133.615 20.0548 133.078C19.9156 132.541 19.6079 132.063 19.1767 131.713L18.5416 131.204C18.0642 131.562 17.6703 132.019 17.3871 132.544C17.104 133.069 16.9384 133.649 16.9017 134.244V134.259Z" fill="black"/>
<path d="M14.6678 129.431C14.6285 129.431 14.5896 129.423 14.554 129.406C14.5185 129.389 14.4871 129.365 14.4623 129.334C14.4179 129.28 14.3968 129.21 14.4034 129.14C14.4101 129.071 14.444 129.006 14.4978 128.961L15.3533 128.25C15.4084 128.215 15.4748 128.2 15.5398 128.211C15.6047 128.221 15.6636 128.254 15.7053 128.305C15.7469 128.356 15.7683 128.42 15.7654 128.486C15.7625 128.552 15.7354 128.614 15.6895 128.661L14.834 129.37C14.7872 129.408 14.7286 129.43 14.6678 129.431Z" fill="black"/>
<path d="M15.7007 130.306C15.6454 130.307 15.5913 130.29 15.546 130.258C15.5007 130.226 15.4663 130.181 15.4477 130.129C15.429 130.077 15.427 130.021 15.4419 129.968C15.4567 129.915 15.4878 129.867 15.5307 129.832L16.3862 129.123C16.4407 129.078 16.5109 129.056 16.5815 129.063C16.6521 129.069 16.7172 129.104 16.7625 129.158C16.8079 129.212 16.8297 129.283 16.8232 129.353C16.8167 129.424 16.7825 129.489 16.728 129.534L15.8763 130.243C15.8275 130.285 15.765 130.307 15.7007 130.306Z" fill="black"/>
<path d="M16.6234 131.052C16.5683 131.053 16.5146 131.036 16.4694 131.004C16.4243 130.973 16.39 130.928 16.3712 130.877C16.3524 130.825 16.35 130.769 16.3644 130.716C16.3788 130.663 16.4092 130.616 16.4515 130.58L17.307 129.87C17.3341 129.847 17.3653 129.83 17.399 129.82C17.4326 129.81 17.4679 129.806 17.503 129.809C17.538 129.813 17.5721 129.823 17.6032 129.839C17.6343 129.856 17.6618 129.878 17.6843 129.905C17.7067 129.932 17.7236 129.963 17.734 129.997C17.7443 130.031 17.748 130.066 17.7447 130.101C17.7414 130.136 17.7312 130.17 17.7148 130.201C17.6983 130.232 17.6759 130.259 17.6488 130.282L16.7933 130.991C16.7457 131.031 16.6855 131.052 16.6234 131.052Z" fill="black"/>
<path d="M4.01953 129.582C3.94997 129.582 3.88314 129.555 3.83326 129.507C3.78338 129.458 3.75439 129.392 3.75244 129.323C3.6908 127.297 4.33706 125.708 5.67627 124.597C5.70325 124.575 5.73439 124.558 5.7679 124.548C5.80142 124.537 5.83666 124.534 5.8716 124.537C5.90655 124.54 5.94053 124.55 5.97159 124.566C6.00265 124.583 6.03018 124.605 6.05263 124.632C6.07507 124.659 6.09198 124.69 6.10239 124.724C6.1128 124.757 6.11651 124.792 6.1133 124.827C6.11009 124.862 6.10003 124.896 6.08369 124.927C6.06735 124.958 6.04505 124.986 6.01807 125.008C4.79654 126.021 4.23059 127.433 4.2885 129.299C4.28949 129.334 4.28356 129.369 4.27105 129.401C4.25854 129.434 4.23969 129.464 4.21558 129.49C4.19147 129.515 4.16257 129.536 4.13053 129.55C4.0985 129.564 4.06395 129.572 4.02887 129.573L4.01953 129.582Z" fill="black"/>
<path d="M59.5322 121.215H46.1849C46.1177 121.21 46.055 121.179 46.0094 121.129C45.9637 121.08 45.9384 121.015 45.9384 120.947C45.9384 120.88 45.9637 120.815 46.0094 120.766C46.055 120.716 46.1177 120.685 46.1849 120.68H59.5322C59.5693 120.677 59.6066 120.681 59.6418 120.693C59.677 120.705 59.7093 120.725 59.7367 120.75C59.7641 120.775 59.7859 120.805 59.8009 120.84C59.8158 120.874 59.8235 120.91 59.8235 120.947C59.8235 120.985 59.8158 121.021 59.8009 121.055C59.7859 121.089 59.7641 121.12 59.7367 121.145C59.7093 121.17 59.677 121.19 59.6418 121.202C59.6066 121.214 59.5693 121.218 59.5322 121.215Z" fill="black"/>
<path d="M23.6426 121.215C23.6088 121.214 23.5753 121.208 23.5436 121.196L10.2374 115.908C10.1761 115.878 10.1283 115.826 10.1036 115.763C10.0789 115.7 10.0791 115.63 10.1042 115.566C10.1293 115.503 10.1774 115.452 10.2389 115.423C10.3003 115.394 10.3705 115.389 10.4354 115.409L23.7416 120.704C23.7987 120.728 23.8459 120.77 23.8753 120.825C23.9046 120.879 23.9143 120.942 23.9027 121.003C23.8911 121.063 23.8588 121.118 23.8115 121.158C23.7641 121.198 23.7044 121.22 23.6426 121.221V121.215Z" fill="black"/>
<path d="M104.29 86.9965C90.1808 86.9965 75.584 84.6048 75.584 80.6012C75.584 76.5976 90.1808 74.2059 104.29 74.2059C118.399 74.2059 133 76.5976 133 80.5937C133 84.5898 118.403 86.9965 104.29 86.9965ZM104.29 74.7395C87.4389 74.7395 76.12 77.7711 76.12 80.6012C76.12 83.4313 87.4389 86.461 104.29 86.461C121.141 86.461 132.464 83.4313 132.464 80.5937C132.464 77.7562 121.143 74.7395 104.29 74.7395Z" fill="black"/>
<path d="M104.29 86.9965C90.1808 86.9965 75.584 84.6048 75.584 80.6012C75.584 76.5976 90.1808 74.2059 104.29 74.2059C118.399 74.2059 133 76.5976 133 80.5937C133 84.5898 118.403 86.9965 104.29 86.9965ZM104.29 74.7395C87.4389 74.7395 76.12 77.7711 76.12 80.6012C76.12 83.4313 87.4389 86.461 104.29 86.461C121.141 86.461 132.464 83.4313 132.464 80.5937C132.464 77.7562 121.143 74.7395 104.29 74.7395Z" fill="black"/>
<path d="M75.9276 81.3175C75.8713 81.3167 75.8167 81.2983 75.7715 81.2648C75.7262 81.2313 75.6927 81.1845 75.6755 81.131C75.6159 80.9581 75.5856 80.7765 75.5858 80.5937C75.5857 80.5268 75.6108 80.4623 75.6561 80.413C75.7015 80.3637 75.7637 80.3332 75.8304 80.3275C75.8972 80.3219 75.9636 80.3415 76.0166 80.3826C76.0695 80.4236 76.1051 80.4829 76.1163 80.5489L76.1928 80.9985C76.2039 81.0648 76.1896 81.1327 76.153 81.189C76.1164 81.2453 76.0599 81.2858 75.9949 81.3026C75.9732 81.3104 75.9506 81.3154 75.9276 81.3175Z" fill="black"/>
<path d="M132.658 81.2989C132.636 81.3018 132.614 81.3018 132.593 81.2989C132.527 81.2829 132.47 81.2425 132.434 81.186C132.397 81.1295 132.383 81.0612 132.395 80.9948L132.468 80.5639C132.479 80.4979 132.514 80.4385 132.567 80.3975C132.62 80.3565 132.687 80.3369 132.753 80.3425C132.82 80.3481 132.882 80.3786 132.928 80.4279C132.973 80.4772 132.998 80.5417 132.998 80.6086C132.997 80.7845 132.968 80.9591 132.91 81.1254C132.891 81.1767 132.857 81.2208 132.812 81.2518C132.766 81.2829 132.713 81.2993 132.658 81.2989Z" fill="black"/>
<path d="M75.9276 81.3175C75.8713 81.3167 75.8167 81.2983 75.7715 81.2648C75.7262 81.2313 75.6927 81.1845 75.6755 81.131C75.6159 80.9581 75.5856 80.7765 75.5858 80.5937C75.5857 80.5268 75.6108 80.4623 75.6561 80.413C75.7015 80.3637 75.7637 80.3332 75.8304 80.3275C75.8972 80.3219 75.9636 80.3415 76.0166 80.3826C76.0695 80.4236 76.1051 80.4829 76.1163 80.5489L76.1928 80.9985C76.2039 81.0648 76.1896 81.1327 76.153 81.189C76.1164 81.2453 76.0599 81.2858 75.9949 81.3026C75.9732 81.3104 75.9506 81.3154 75.9276 81.3175Z" fill="black"/>
<path d="M132.658 81.2989C132.636 81.3018 132.614 81.3018 132.593 81.2989C132.527 81.2829 132.47 81.2425 132.434 81.186C132.397 81.1295 132.383 81.0612 132.395 80.9948L132.468 80.5639C132.479 80.4979 132.514 80.4385 132.567 80.3975C132.62 80.3565 132.687 80.3369 132.753 80.3425C132.82 80.3481 132.882 80.3786 132.928 80.4279C132.973 80.4772 132.998 80.5417 132.998 80.6086C132.997 80.7845 132.968 80.9591 132.91 81.1254C132.891 81.1767 132.857 81.2208 132.812 81.2518C132.766 81.2829 132.713 81.2993 132.658 81.2989Z" fill="black"/>
<path d="M104.29 135.052C94.3106 135.052 83.9891 133.342 83.9312 130.478L75.6644 81.0956C75.652 81.0288 75.6656 80.9598 75.7024 80.9027C75.7392 80.8455 75.7965 80.8046 75.8624 80.7882C75.9284 80.7718 75.9982 80.7811 76.0576 80.8143C76.1169 80.8475 76.1613 80.9021 76.1817 80.9668C77.0932 83.6682 87.8555 86.461 104.29 86.461C118.816 86.461 131.427 83.9891 132.402 80.9501C132.419 80.8813 132.463 80.822 132.523 80.7853C132.584 80.7485 132.657 80.7373 132.725 80.7542C132.794 80.771 132.854 80.8144 132.89 80.875C132.927 80.9355 132.938 81.0081 132.922 81.0769L124.651 130.478C124.595 133.342 114.272 135.052 104.29 135.052ZM76.3928 82.1552L84.4635 130.405C84.4645 130.42 84.4645 130.435 84.4635 130.45C84.4635 132.411 92.4297 134.513 104.286 134.513C116.143 134.513 124.113 132.411 124.113 130.45C124.112 130.435 124.112 130.42 124.113 130.405L132.191 82.1478C129.18 84.9704 117.905 86.9983 104.283 86.9983C90.6609 86.9983 79.4037 84.976 76.3928 82.1552Z" fill="black"/>
<path d="M90.5879 125.792C90.522 125.791 90.4585 125.767 90.4095 125.723C90.3605 125.679 90.3296 125.618 90.3227 125.553L86.7309 92.9179C86.7233 92.8473 86.7439 92.7767 86.7884 92.7214C86.8329 92.6661 86.8976 92.6308 86.9681 92.6231C87.0387 92.6154 87.1095 92.6361 87.1648 92.6805C87.2202 92.7249 87.2556 92.7895 87.2633 92.86L90.8457 125.495C90.853 125.565 90.8322 125.636 90.7878 125.691C90.7434 125.746 90.6789 125.782 90.6085 125.79L90.5879 125.792Z" fill="black"/>
<path d="M118.005 125.791H117.977C117.942 125.788 117.908 125.778 117.877 125.761C117.846 125.744 117.819 125.721 117.797 125.694C117.775 125.666 117.758 125.635 117.749 125.601C117.739 125.567 117.736 125.532 117.74 125.497L121.321 92.8619C121.324 92.8269 121.335 92.7931 121.352 92.7623C121.369 92.7315 121.392 92.7043 121.419 92.6823C121.447 92.6603 121.478 92.6439 121.512 92.6341C121.545 92.6242 121.581 92.6211 121.616 92.6249C121.651 92.6287 121.685 92.6394 121.715 92.6562C121.746 92.6731 121.773 92.6959 121.796 92.7232C121.818 92.7506 121.834 92.782 121.844 92.8157C121.854 92.8495 121.857 92.8848 121.853 92.9197L118.272 125.555C118.264 125.62 118.233 125.68 118.184 125.723C118.134 125.767 118.071 125.791 118.005 125.791Z" fill="black"/>
<path d="M99.5366 125.792C99.4674 125.792 99.4008 125.765 99.351 125.717C99.3011 125.669 99.2719 125.603 99.2695 125.534L98.0256 92.9067C98.023 92.8357 98.0487 92.7666 98.097 92.7146C98.1453 92.6625 98.2123 92.6316 98.2833 92.6287C98.3186 92.6269 98.3539 92.6322 98.3871 92.6443C98.4203 92.6564 98.4508 92.6749 98.4767 92.6989C98.5026 92.7229 98.5235 92.7518 98.5381 92.784C98.5527 92.8161 98.5607 92.8509 98.5616 92.8861L99.8037 125.521C99.8062 125.592 99.7805 125.661 99.7322 125.713C99.6839 125.765 99.617 125.796 99.5459 125.799L99.5366 125.792Z" fill="black"/>
<path d="M109.049 125.791H109.04C108.969 125.789 108.902 125.758 108.854 125.706C108.805 125.654 108.78 125.584 108.782 125.514L110.024 92.8787C110.026 92.8436 110.034 92.8092 110.048 92.7774C110.063 92.7455 110.084 92.7168 110.11 92.693C110.135 92.6692 110.166 92.6507 110.199 92.6385C110.232 92.6264 110.267 92.6208 110.302 92.6221C110.337 92.6235 110.371 92.6317 110.403 92.6464C110.435 92.661 110.464 92.6818 110.487 92.7075C110.511 92.7333 110.53 92.7634 110.542 92.7963C110.554 92.8292 110.56 92.8641 110.558 92.8992L109.316 125.534C109.314 125.603 109.285 125.669 109.235 125.717C109.185 125.765 109.119 125.792 109.049 125.791Z" fill="black"/>
<path d="M104.413 69.4353C103.141 71.8943 101.169 73.9207 98.7468 75.2582C96.3243 76.5958 93.5599 77.1844 90.8031 76.9496C88.0463 76.7148 85.421 75.6672 83.2591 73.9392C81.0972 72.2113 79.4959 69.8806 78.6576 67.2419C77.8193 64.6031 77.7817 61.7749 78.5495 59.1148C79.3173 56.4547 80.8561 54.0821 82.9712 52.2972C85.0864 50.5123 87.6829 49.3951 90.4324 49.087C93.182 48.7788 95.9611 49.2936 98.4184 50.5661C100.056 51.4049 101.511 52.56 102.7 53.9648C103.889 55.3695 104.788 56.996 105.345 58.7504C105.903 60.5048 106.107 62.3522 105.947 64.1862C105.787 66.0201 105.266 67.8042 104.413 69.4353Z" fill="white"/>
<path d="M92.0023 77C88.5256 77.0006 85.1731 75.7075 82.5972 73.3724C80.0214 71.0374 78.4065 67.8274 78.067 64.3674C77.7274 60.9073 78.6874 57.4447 80.7602 54.6534C82.8329 51.8622 85.8701 49.942 89.2806 49.2667C92.6911 48.5914 96.2308 49.2092 99.2109 50.9999C102.191 52.7906 104.398 55.6261 105.403 58.9544C106.407 62.2828 106.138 65.8659 104.646 69.0064C103.154 72.1469 100.548 74.62 97.3332 75.9444C95.6424 76.6417 93.8312 77.0004 92.0023 77ZM92.0223 49.5233C88.7214 49.5152 85.5321 50.7175 83.058 52.9027C80.5839 55.0879 78.9968 58.1043 78.5971 61.3809C78.1974 64.6575 79.0128 67.967 80.889 70.6829C82.7652 73.3987 85.572 75.3325 88.778 76.1182C91.9841 76.9038 95.367 76.4868 98.2862 74.9461C101.206 73.4054 103.459 70.8479 104.619 67.7577C105.78 64.6675 105.767 61.2591 104.584 58.1776C103.4 55.0961 101.128 52.5555 98.1973 51.0365C96.2886 50.0482 94.1717 49.5295 92.0223 49.5233Z" fill="black"/>
<g clip-path="url(#clip0_2_9533)">
<path d="M89.3845 56.8769C86.8167 57.9934 85.3495 60.9722 86.6734 64.0168C87.5187 65.961 90.0108 67.5962 94.1461 68.9313C94.4662 69.0321 94.8147 68.8805 94.9593 68.5778C96.797 64.6455 97.3007 61.7076 96.4553 59.7635C95.1315 56.7188 91.9523 55.7604 89.3845 56.8769ZM92.0428 62.9906C91.3703 63.283 90.5808 62.972 90.2884 62.2995C89.996 61.627 90.307 60.8375 90.9795 60.5451C91.652 60.2527 92.4415 60.5637 92.7339 61.2362C93.0263 61.9087 92.7154 62.6982 92.0428 62.9906Z" fill="#2F3443"/>
</g>
<path d="M79.1347 57.3465L78.5743 57.2085L78.5127 47.4011L86.4882 49.4532C87.353 49.7256 91.0194 50.7964 90.8999 52.2852C90.8084 53.371 89.0471 53.2684 87.818 53.0594C87.2726 52.9661 85.9502 52.802 85.8064 52.7628C85.8064 52.7628 84.7287 57.382 81.1799 54.2553C80.3661 55.1922 79.6786 56.2315 79.1347 57.3465Z" fill="white"/>
<path d="M79.1347 57.6133C79.113 57.6161 79.091 57.6161 79.0693 57.6133L78.509 57.4753C78.4512 57.4611 78.3997 57.4281 78.3629 57.3815C78.326 57.3349 78.3057 57.2773 78.3054 57.2178L78.2605 47.4029C78.2597 47.3619 78.2686 47.3213 78.2865 47.2843C78.3043 47.2474 78.3306 47.2152 78.3633 47.1903C78.3953 47.1652 78.4327 47.1478 78.4725 47.1394C78.5123 47.131 78.5536 47.1318 78.593 47.1418L86.7086 49.2368C88.6847 49.8506 91.2978 50.8356 91.1801 52.3038C91.1709 52.4553 91.1289 52.603 91.057 52.7367C90.9851 52.8703 90.8849 52.9868 90.7636 53.0781C90.2387 53.4848 89.2376 53.5669 87.7882 53.3206C87.5304 53.2758 87.0989 53.218 86.7011 53.162L86.0156 53.065C85.8288 53.6545 85.2685 55.1172 84.0507 55.5089C83.2139 55.7757 82.2632 55.4772 81.2229 54.6209C80.4994 55.4918 79.8812 56.4449 79.3812 57.4604C79.3597 57.5072 79.3248 57.5466 79.281 57.5738C79.2371 57.601 79.1863 57.6148 79.1347 57.6133ZM78.847 56.9996L78.9927 57.0369C79.5306 55.9669 80.2014 54.9691 80.9894 54.0668C81.0366 54.0152 81.1021 53.9842 81.172 53.9803C81.2418 53.9765 81.3104 54.0002 81.363 54.0463C82.3323 54.9026 83.1766 55.2235 83.877 55.0015C85.0892 54.6153 85.5487 52.718 85.558 52.6994C85.5663 52.6641 85.5817 52.6309 85.6032 52.6017C85.6247 52.5725 85.6519 52.548 85.6832 52.5296C85.714 52.5111 85.7484 52.4993 85.7841 52.4948C85.8198 52.4903 85.856 52.4932 85.8905 52.5035C85.9615 52.5203 86.4097 52.5837 86.7702 52.6322C87.1737 52.6882 87.6126 52.7497 87.8741 52.7945C89.133 53.0072 90.0407 52.9587 90.433 52.6564C90.495 52.61 90.5461 52.5505 90.5826 52.4822C90.6191 52.4138 90.64 52.3383 90.644 52.2609C90.6888 51.7013 90.0127 50.8244 86.5461 49.7461L86.4191 49.7069L78.7929 47.7462L78.847 56.9996Z" fill="black"/>
<path d="M45.5966 18.934C45.624 19.4087 45.624 19.8846 45.5966 20.3593C45.2231 23.9263 38.4859 23.0849 38.4504 19.5645L38.8072 12.313C38.7101 8.80937 40.6152 5.29646 40.6152 5.29646C42.483 0.901114 47.0535 4.15844 51.8986 8.15082C51.9042 8.16014 51.906 19.1093 45.5966 18.934Z" fill="white"/>
<path d="M42.4792 22.9226C42.4027 22.9226 42.3242 22.9226 42.2476 22.9226C40.2939 22.8312 38.2057 21.6167 38.1852 19.5645L38.5401 12.3129C38.5391 12.2993 38.5391 12.2856 38.5401 12.2719C38.4653 8.75899 40.3033 5.33189 40.3817 5.18264C40.8804 3.99799 41.6313 3.26668 42.6025 3.02788C45.0867 2.42529 48.6448 5.12667 52.0741 7.95492C52.1044 7.97988 52.1288 8.01122 52.1456 8.04669C52.1624 8.08216 52.1711 8.1209 52.1712 8.16013C52.1712 8.43437 52.1395 14.908 49.1398 17.822C48.2724 18.6882 47.1013 19.1827 45.8749 19.2007C45.8955 19.5954 45.8924 19.991 45.8655 20.3854C45.6806 22.1558 44.0687 22.9226 42.4792 22.9226ZM39.0705 12.3969L38.7194 19.5776C38.738 21.2865 40.5629 22.3032 42.2682 22.376C43.5756 22.4357 45.1614 21.9357 45.3295 20.3238C45.3565 19.8622 45.3565 19.3993 45.3295 18.9377C45.3278 18.9009 45.3337 18.8642 45.3469 18.8299C45.3601 18.7955 45.3802 18.7643 45.4061 18.7381C45.4317 18.7119 45.4626 18.6913 45.4967 18.6778C45.5308 18.6643 45.5674 18.6582 45.6041 18.6597C46.1877 18.6851 46.7702 18.589 47.3146 18.3773C47.8591 18.1656 48.3534 17.8431 48.7662 17.4303C51.3811 14.8856 51.6146 9.19181 51.6352 8.27766C48.4805 5.68822 44.9503 3.00176 42.7333 3.54465C41.9245 3.7424 41.3137 4.35432 40.8655 5.41025C40.8356 5.46808 38.9827 8.92689 39.078 12.3129C39.0804 12.3412 39.0779 12.3696 39.0705 12.3969Z" fill="black"/>
<path d="M45.5965 19.2007C44.6555 19.1555 43.7303 18.9406 42.8658 18.5664C42.8334 18.5533 42.8038 18.5339 42.7789 18.5093C42.7539 18.4848 42.7341 18.4555 42.7206 18.4232C42.707 18.391 42.7 18.3564 42.7 18.3214C42.6999 18.2864 42.7067 18.2517 42.7201 18.2194C42.7471 18.1538 42.7989 18.1014 42.8644 18.0738C42.9298 18.0462 43.0035 18.0455 43.0694 18.072C43.8741 18.4214 44.7352 18.6229 45.6115 18.6672C45.6823 18.6672 45.7503 18.6953 45.8003 18.7453C45.8504 18.7953 45.8786 18.8632 45.8786 18.9339C45.8786 19.0047 45.8504 19.0725 45.8003 19.1226C45.7503 19.1726 45.6823 19.2007 45.6115 19.2007H45.5965Z" fill="black"/>
<path d="M41.6892 9.37647C41.5304 8.49218 41.3716 7.57244 41.6107 6.7068C41.8498 5.84117 42.6156 5.05016 43.514 5.0912C44.2779 5.12478 44.8887 5.71617 45.4023 6.28518C46.1494 7.10231 46.8555 7.96421 47.7277 8.62837C48.6 9.29252 49.6702 9.78877 50.7722 9.74772C51.8742 9.70668 52.9912 9.03133 53.3311 7.98287C53.6019 7.15268 53.3591 6.22175 52.8922 5.48297C52.4252 4.7442 51.7547 4.16027 51.0935 3.58566C49.9018 2.54653 48.7121 1.46448 47.2552 0.852567C45.7983 0.240652 44.1192 0.0466303 42.6287 0.574594C41.4558 1.02196 40.4441 1.8102 39.7242 2.83756C39.0124 3.86354 38.4817 5.00374 38.1553 6.20869C37.7687 7.51461 37.5819 9.06865 38.4242 10.1488L41.6892 9.37647Z" fill="black"/>
<path d="M38.4242 10.4156C38.3835 10.4157 38.3434 10.4065 38.3068 10.3887C38.2702 10.3709 38.2382 10.345 38.2131 10.313C37.466 9.3597 37.3633 7.9549 37.8975 6.13408C38.2309 4.89861 38.7763 3.73024 39.5094 2.68087C40.2576 1.60723 41.3138 0.785104 42.539 0.322755C43.9884 -0.190284 45.6993 -0.0895418 47.3579 0.606325C48.7494 1.19399 49.9111 2.19954 51.0281 3.17152L51.269 3.38047C51.9358 3.96066 52.6269 4.55952 53.1181 5.33747C53.6785 6.23669 53.8653 7.22919 53.587 8.06124C53.2302 9.15635 52.0778 9.95855 50.7853 10.0108C49.4591 10.0649 48.2992 9.40447 47.5671 8.84106C46.8318 8.23754 46.1541 7.56742 45.5424 6.83928L45.2043 6.46616C44.7355 5.94566 44.177 5.38971 43.5027 5.35986C42.7033 5.32628 42.0701 6.06506 41.8703 6.77958C41.6424 7.60417 41.8086 8.52204 41.9543 9.33171C41.9667 9.39908 41.9526 9.46861 41.9151 9.52591C41.8775 9.58321 41.8194 9.62389 41.7526 9.63953L38.4877 10.41C38.4669 10.4148 38.4455 10.4167 38.4242 10.4156ZM44.4833 0.52797C43.8825 0.524123 43.2855 0.623191 42.7183 0.820869C41.5942 1.24704 40.6258 2.00352 39.9409 2.99056C39.2456 3.99033 38.7281 5.10234 38.4111 6.27773C37.9535 7.83364 37.9965 9.03135 38.5363 9.84289L41.3809 9.16941C41.2408 8.3672 41.1176 7.49037 41.3529 6.63033C41.6069 5.71619 42.4586 4.76474 43.5251 4.81697C44.3638 4.85615 45.0194 5.45687 45.6003 6.1005C45.7142 6.2255 45.8263 6.35236 45.9402 6.47362C46.5304 7.17602 47.1837 7.82297 47.8921 8.40638C48.5533 8.91568 49.588 9.52573 50.7628 9.46604C51.82 9.42313 52.7931 8.75898 53.077 7.88588C53.2993 7.20493 53.1499 6.37474 52.6661 5.61172C52.216 4.89906 51.5567 4.32632 50.9179 3.77224L50.6769 3.56329C49.5917 2.61744 48.4711 1.64173 47.1505 1.08765C46.3069 0.72859 45.4003 0.540261 44.4833 0.533567V0.52797Z" fill="black"/>
<path d="M41.9394 9.81118C41.8009 9.37428 41.5358 8.98823 41.1776 8.70184C40.8194 8.41545 40.3842 8.24158 39.9271 8.20223C39.47 8.16287 39.0114 8.25979 38.6095 8.48074C38.2075 8.70168 37.8801 9.03672 37.6688 9.44349C37.4575 9.85026 37.3717 10.3105 37.4222 10.766C37.4727 11.2215 37.6574 11.6518 37.9528 12.0024C38.2481 12.3531 38.641 12.6084 39.0817 12.7361C39.5223 12.8637 39.991 12.858 40.4284 12.7196" fill="white"/>
<path d="M39.7242 13.0965C39.1754 13.0952 38.6413 12.92 38.1985 12.5961C37.7558 12.2723 37.4274 11.8165 37.2606 11.2943C37.1038 10.8066 37.0955 10.2833 37.2369 9.79086C37.3783 9.29843 37.663 8.85905 38.0548 8.52847C38.4466 8.19789 38.9279 7.991 39.4376 7.93406C39.9473 7.87711 40.4625 7.97268 40.9177 8.20863C41.2201 8.36376 41.4887 8.57742 41.7077 8.83716C41.9267 9.09691 42.0918 9.39756 42.1934 9.72162C42.215 9.78916 42.2088 9.86248 42.1762 9.92546C42.1436 9.98844 42.0873 10.0359 42.0197 10.0574C41.9521 10.079 41.8787 10.0728 41.8156 10.0402C41.7526 10.0077 41.705 9.95147 41.6835 9.88393C41.5599 9.49765 41.3245 9.15661 41.0069 8.90387C40.6894 8.65113 40.3041 8.49802 39.8995 8.46387C39.4949 8.42972 39.0893 8.51607 38.7338 8.712C38.3783 8.90793 38.0889 9.20467 37.9022 9.56475C37.7154 9.92483 37.6396 10.3321 37.6844 10.7352C37.7292 11.1382 37.8926 11.519 38.1539 11.8294C38.4152 12.1398 38.7627 12.3659 39.1525 12.4792C39.5424 12.5925 39.9571 12.5879 40.3443 12.4659C40.3778 12.4553 40.413 12.4513 40.448 12.4542C40.4831 12.4572 40.5171 12.467 40.5484 12.4831C40.5796 12.4992 40.6073 12.5213 40.63 12.5481C40.6527 12.575 40.6698 12.606 40.6805 12.6394C40.6912 12.6729 40.6951 12.7081 40.6922 12.743C40.6892 12.778 40.6794 12.8121 40.6633 12.8432C40.6471 12.8744 40.625 12.9021 40.5982 12.9248C40.5713 12.9474 40.5403 12.9646 40.5068 12.9752C40.2537 13.0555 39.9897 13.0964 39.7242 13.0965Z" fill="black"/>
<path d="M40.6675 10.2141C40.6085 10.0285 40.4958 9.86439 40.3435 9.74271C40.1912 9.62102 40.0062 9.54716 39.8119 9.53048C39.6176 9.51379 39.4227 9.55502 39.2518 9.64896C39.081 9.7429 38.9418 9.88532 38.852 10.0582C38.7622 10.2311 38.7257 10.4268 38.7472 10.6204C38.7687 10.814 38.8472 10.9969 38.9727 11.146C39.0982 11.295 39.2652 11.4036 39.4525 11.4579C39.6398 11.5122 39.839 11.5098 40.0249 11.451" fill="white"/>
<path d="M39.7261 11.7644C39.4948 11.7642 39.268 11.6999 39.0709 11.5789C38.8739 11.4578 38.7142 11.2846 38.6096 11.0785C38.505 10.8724 38.4596 10.6414 38.4784 10.4111C38.4971 10.1807 38.5794 9.96011 38.716 9.77359C38.8525 9.58708 39.0381 9.44197 39.2522 9.35433C39.4663 9.26669 39.7005 9.23994 39.9288 9.27705C40.1572 9.31416 40.3708 9.41368 40.546 9.56459C40.7212 9.71549 40.8512 9.91189 40.9215 10.132C40.943 10.1996 40.9369 10.2729 40.9043 10.3359C40.8717 10.3988 40.8154 10.4463 40.7478 10.4678C40.6802 10.4894 40.6068 10.4832 40.5437 10.4506C40.4807 10.4181 40.4331 10.3619 40.4116 10.2943C40.3836 10.2045 40.338 10.1211 40.2773 10.049C40.2167 9.97693 40.1424 9.91764 40.0586 9.87458C39.9322 9.80758 39.7887 9.77975 39.6464 9.79467C39.5041 9.80958 39.3695 9.86655 39.2598 9.9583C39.1501 10.05 39.0703 10.1724 39.0306 10.3097C38.9909 10.447 38.9931 10.593 39.0369 10.729C39.0649 10.8192 39.1108 10.9027 39.1717 10.9748C39.2327 11.0469 39.3075 11.1061 39.3918 11.1488C39.4754 11.1922 39.5668 11.2187 39.6607 11.2267C39.7547 11.2347 39.8492 11.224 39.939 11.1954C40.0067 11.1739 40.0801 11.1801 40.1431 11.2126C40.2062 11.2452 40.2537 11.3014 40.2752 11.3689C40.2968 11.4365 40.2906 11.5098 40.258 11.5728C40.2254 11.6357 40.1692 11.6832 40.1015 11.7047C39.9801 11.7432 39.8535 11.7633 39.7261 11.7644Z" fill="black"/>
<path d="M47.879 15.4845C47.696 15.4873 47.5145 15.4514 47.3464 15.379C47.1783 15.3067 47.0276 15.1996 46.904 15.0647C46.8577 15.0123 46.8338 14.9438 46.8375 14.8739C46.8413 14.8041 46.8723 14.7385 46.924 14.6913C46.9756 14.6441 47.0438 14.6191 47.1138 14.6216C47.1837 14.6241 47.2499 14.6539 47.2981 14.7047C47.4034 14.8133 47.5372 14.8902 47.6842 14.9265C47.8312 14.9627 47.9854 14.957 48.1293 14.9099C48.1464 14.8982 48.1606 14.8827 48.1707 14.8645C48.1807 14.8464 48.1864 14.8261 48.1872 14.8054C48.1891 14.727 48.1662 14.65 48.1218 14.5853C48.0297 14.4581 47.9196 14.345 47.7949 14.2495C47.7011 14.174 47.6125 14.0924 47.5297 14.0051C47.2629 13.7121 47.0984 13.3408 47.0607 12.9466C47.023 12.5524 47.1141 12.1567 47.3205 11.8186C47.3592 11.7583 47.4203 11.7158 47.4903 11.7004C47.5603 11.685 47.6336 11.698 47.6941 11.7365C47.7243 11.7553 47.7505 11.78 47.7711 11.809C47.7917 11.8381 47.8063 11.871 47.8139 11.9057C47.8216 11.9405 47.8222 11.9765 47.8157 12.0115C47.8092 12.0465 47.7958 12.0799 47.7762 12.1096C47.6346 12.3476 47.5724 12.6245 47.5986 12.9001C47.6248 13.1758 47.738 13.436 47.9219 13.6431C47.993 13.7148 48.0679 13.7826 48.1461 13.8465C48.3139 13.9763 48.4602 14.1318 48.5794 14.3073C48.6867 14.47 48.7379 14.6632 48.7251 14.8576C48.7163 14.9727 48.677 15.0835 48.6114 15.1785C48.5458 15.2736 48.4561 15.3495 48.3515 15.3987C48.2016 15.4595 48.0407 15.4887 47.879 15.4845Z" fill="black"/>
<path d="M43.8408 11.1619C43.7826 11.1626 43.7257 11.1443 43.6789 11.1098C43.632 11.0753 43.5978 11.0265 43.5813 10.9707C43.5648 10.9149 43.567 10.8553 43.5875 10.8009C43.6081 10.7465 43.6458 10.7003 43.6951 10.6693C44.0936 10.3808 44.5447 10.1729 45.0231 10.0574C45.2977 9.99392 45.5848 10.011 45.8499 10.1067C46.115 10.2023 46.3468 10.3725 46.5173 10.5966C46.5377 10.6256 46.5521 10.6584 46.5597 10.693C46.5672 10.7276 46.5678 10.7634 46.5614 10.7983C46.5549 10.8331 46.5416 10.8663 46.5222 10.896C46.5027 10.9256 46.4776 10.9511 46.4482 10.971C46.4188 10.9908 46.3857 11.0046 46.3509 11.0115C46.3161 11.0184 46.2803 11.0183 46.2455 11.0113C46.2107 11.0042 46.1777 10.9903 46.1484 10.9703C46.119 10.9504 46.094 10.9248 46.0747 10.8951C45.8748 10.6003 45.4527 10.522 45.124 10.5835C44.7154 10.6869 44.331 10.8688 43.9921 11.119C43.9475 11.1489 43.8945 11.1639 43.8408 11.1619Z" fill="black"/>
<path d="M48.2769 11.5984C48.2193 11.5985 48.1631 11.58 48.1169 11.5456C48.0707 11.5111 48.0368 11.4627 48.0204 11.4075C48.004 11.3523 48.006 11.2933 48.0259 11.2392C48.0459 11.1852 48.0828 11.1391 48.1312 11.1078C48.5279 10.8174 48.9788 10.6094 49.4574 10.4959C49.7318 10.4319 50.0188 10.4486 50.284 10.5439C50.5491 10.6393 50.781 10.8092 50.9516 11.0332C50.9915 11.0918 51.0064 11.1638 50.9931 11.2335C50.9798 11.3031 50.9393 11.3646 50.8806 11.4044C50.8219 11.4442 50.7498 11.4591 50.6801 11.4458C50.6104 11.4326 50.5488 11.3921 50.5089 11.3335C50.3072 11.0369 49.8851 10.9604 49.5582 11.022C49.1462 11.1252 48.7593 11.3104 48.4207 11.5667C48.3766 11.5903 48.3269 11.6012 48.2769 11.5984Z" fill="black"/>
<path d="M47.1656 17.5869C47.0943 17.5868 47.0231 17.5812 46.9526 17.5702C46.7013 17.5271 46.461 17.4344 46.2458 17.2977C46.0307 17.1609 45.8449 16.9827 45.6994 16.7735C45.6568 16.7159 45.6388 16.6437 45.6495 16.5729C45.6602 16.502 45.6986 16.4383 45.7563 16.3958C45.814 16.3532 45.8863 16.3353 45.9572 16.346C46.0282 16.3566 46.0919 16.395 46.1345 16.4527C46.2385 16.6052 46.3715 16.7357 46.526 16.8369C46.6805 16.938 46.8534 17.0078 47.0348 17.0422C47.1567 17.0593 47.2807 17.0516 47.3995 17.0195C47.5182 16.9875 47.6293 16.9317 47.7259 16.8556C47.7539 16.8344 47.7857 16.819 47.8197 16.8101C47.8536 16.8012 47.889 16.799 47.9238 16.8038C47.9586 16.8086 47.9921 16.8201 48.0224 16.8378C48.0527 16.8555 48.0792 16.879 48.1004 16.9069C48.1216 16.9349 48.1371 16.9667 48.146 17.0006C48.1549 17.0345 48.157 17.0699 48.1523 17.1046C48.1475 17.1393 48.1359 17.1728 48.1182 17.203C48.1005 17.2333 48.077 17.2598 48.049 17.281C47.7967 17.478 47.4859 17.5857 47.1656 17.5869Z" fill="black"/>
<path d="M45.817 12.0798C45.7911 12.1738 45.7379 12.2581 45.664 12.3219C45.5901 12.3857 45.499 12.4262 45.402 12.4382C45.3051 12.4501 45.2068 12.4331 45.1196 12.3892C45.0324 12.3453 44.9602 12.2765 44.9121 12.1916C44.8641 12.1066 44.8424 12.0094 44.8498 11.9121C44.8572 11.8148 44.8933 11.7219 44.9536 11.6452C45.014 11.5685 45.0957 11.5114 45.1886 11.4811C45.2814 11.4509 45.3812 11.4488 45.4752 11.4753C45.5374 11.4925 45.5956 11.5219 45.6464 11.5616C45.6972 11.6013 45.7398 11.6506 45.7715 11.7068C45.8032 11.7629 45.8236 11.8247 45.8314 11.8887C45.8392 11.9527 45.8343 12.0176 45.817 12.0798Z" fill="black"/>
<path d="M50.2828 12.5834C50.2568 12.6773 50.2034 12.7613 50.1296 12.8249C50.0557 12.8885 49.9646 12.9288 49.8678 12.9406C49.771 12.9525 49.6729 12.9355 49.5858 12.8917C49.4987 12.8478 49.4266 12.7792 49.3786 12.6945C49.3305 12.6097 49.3087 12.5126 49.3159 12.4155C49.3231 12.3184 49.359 12.2255 49.419 12.1488C49.479 12.072 49.5604 12.0147 49.653 11.9841C49.7456 11.9536 49.8452 11.9512 49.9392 11.9771C50.0017 11.9942 50.0603 12.0234 50.1115 12.0632C50.1627 12.1029 50.2055 12.1524 50.2375 12.2088C50.2694 12.2651 50.2899 12.3273 50.2976 12.3916C50.3054 12.4559 50.3004 12.5211 50.2828 12.5834Z" fill="black"/>
<defs>
<clipPath id="clip0_2_9533">
<rect width="16" height="16" fill="white" transform="translate(84 55)"/>
</clipPath>
</defs>
</svg>
