<svg width="12" height="12" viewBox="0 0 12 12" fill="none" xmlns="http://www.w3.org/2000/svg">
<path d="M9.33335 4.66663C9.73945 4.66664 10.1359 4.54303 10.4701 4.31223C10.8042 4.08143 11.0602 3.75437 11.2039 3.37456C11.3477 2.99475 11.3724 2.58018 11.2748 2.18598C11.1772 1.79178 10.9619 1.43663 10.6576 1.16776C10.3532 0.898888 9.97424 0.729036 9.57101 0.680791C9.16779 0.632546 8.75943 0.708195 8.40024 0.897676C8.04105 1.08716 7.74806 1.38149 7.56022 1.74154C7.37238 2.10159 7.2986 2.51029 7.34868 2.91329L4.05535 4.55996C3.77284 4.28753 3.41641 4.10424 3.03048 4.03292C2.64454 3.96161 2.24615 4.00542 1.88494 4.1589C1.52372 4.31237 1.21565 4.56874 0.999086 4.89605C0.782525 5.22336 0.667053 5.60716 0.667053 5.99963C0.667053 6.3921 0.782525 6.77589 0.999086 7.10321C1.21565 7.43052 1.52372 7.68688 1.88494 7.84036C2.24615 7.99384 2.64454 8.03765 3.03048 7.96633C3.41641 7.89501 3.77284 7.71173 4.05535 7.43929L7.34868 9.08596C7.29035 9.55412 7.39939 10.0278 7.65653 10.4234C7.91368 10.8189 8.30238 11.1108 8.75392 11.2475C9.20547 11.3842 9.6908 11.3568 10.1241 11.1703C10.5575 10.9837 10.9109 10.65 11.122 10.2281C11.3331 9.80616 11.3882 9.3232 11.2776 8.86456C11.1671 8.40592 10.8979 8.00112 10.5178 7.72172C10.1376 7.44232 9.67097 7.3063 9.20024 7.33769C8.7295 7.36909 8.28502 7.56588 7.94535 7.89329L4.65201 6.24663C4.67219 6.0828 4.67219 5.91712 4.65201 5.75329L7.94535 4.10663C8.30402 4.45329 8.79335 4.66663 9.33335 4.66663Z" fill="#2F3443"/>
</svg>
