<svg width="16" height="14" viewBox="0 0 16 14" fill="none" xmlns="http://www.w3.org/2000/svg">
<path d="M4 9.02928H8.82C9.04667 9.02928 9.23333 8.95704 9.38 8.81257C9.52667 8.66811 9.6 8.48953 9.6 8.27684C9.6 8.06365 9.5232 7.88482 9.3696 7.74035C9.216 7.59588 9.02613 7.5239 8.8 7.5244H3.98C3.75333 7.5244 3.56667 7.59663 3.42 7.7411C3.27333 7.88557 3.2 8.06415 3.2 8.27684C3.2 8.49003 3.2768 8.66886 3.4304 8.81333C3.584 8.9578 3.77387 9.02978 4 9.02928ZM4 6.77196H12.02C12.2467 6.77196 12.4333 6.69972 12.58 6.55526C12.7267 6.41079 12.8 6.23221 12.8 6.01952C12.8 5.80633 12.7232 5.6275 12.5696 5.48303C12.416 5.33856 12.2261 5.26658 12 5.26708H3.98C3.75333 5.26708 3.56667 5.33931 3.42 5.48378C3.27333 5.62825 3.2 5.80683 3.2 6.01952C3.2 6.23271 3.2768 6.41154 3.4304 6.55601C3.584 6.70048 3.77387 6.77246 4 6.77196ZM4 4.51464H12.02C12.2467 4.51464 12.4333 4.44241 12.58 4.29794C12.7267 4.15347 12.8 3.97489 12.8 3.7622C12.8 3.54901 12.7232 3.37018 12.5696 3.22571C12.416 3.08124 12.2261 3.00926 12 3.00976H3.98C3.75333 3.00976 3.56667 3.08199 3.42 3.22646C3.27333 3.37093 3.2 3.54951 3.2 3.7622C3.2 3.97539 3.2768 4.15422 3.4304 4.29869C3.584 4.44316 3.77387 4.51514 4 4.51464ZM1.30293e-06 13.2241V1.50488C1.30293e-06 1.09104 0.156801 0.73664 0.470401 0.441683C0.784001 0.146727 1.16053 -0.000500349 1.6 1.27749e-06H14.4C14.84 1.27749e-06 15.2168 0.147479 15.5304 0.442436C15.844 0.737392 16.0005 1.09154 16 1.50488V10.5342C16 10.948 15.8432 11.3024 15.5296 11.5974C15.216 11.8923 14.8395 12.0395 14.4 12.039H3.2L1.36 13.7696C1.10667 14.0079 0.816534 14.0613 0.489601 13.9299C0.162668 13.7985 -0.00053203 13.5632 1.30293e-06 13.2241ZM1.6 11.4183L2.54 10.5342H14.4V1.50488H1.6V11.4183Z" fill="#2F3443" fill-opacity="0.9"/>
</svg>
