<svg width="43" height="43" viewBox="0 0 43 43" fill="none" xmlns="http://www.w3.org/2000/svg">
<path d="M37.5661 25.5584L35.3616 23.1143L32.9179 25.3187C32.6424 25.5673 32.6203 25.9921 32.8689 26.2675C33.1175 26.5437 33.5422 26.5651 33.8182 26.3165L34.6057 25.6062C33.7073 31.8345 28.0144 36.3003 21.7057 35.6301C21.3369 35.5898 21.0062 35.8579 20.9666 36.2267C20.9278 36.5962 21.1951 36.9268 21.5639 36.9657C22.0328 37.0161 22.4993 37.0403 22.9614 37.0403C29.4274 37.0403 35.0223 32.2573 35.9406 25.7627L36.5681 26.458C36.7006 26.6051 36.8839 26.6805 37.0672 26.6805C37.2278 26.6805 37.3883 26.6234 37.5167 26.5072C37.7924 26.2586 37.8147 25.8339 37.5661 25.5585L37.5661 25.5584Z" fill="white"/>
<path d="M22.3516 21.5797V22.2516H36.4611V21.5797C36.4611 18.3218 34.2412 15.5724 31.2346 14.7654C32.5791 14.0928 33.5048 12.7013 33.5048 11.0985C33.5048 8.83831 31.6658 7 29.4064 7C27.1462 7 25.3079 8.83831 25.3079 11.0985C25.3079 12.7016 26.2332 14.0924 27.5774 14.7654C24.5708 15.5731 22.3517 18.3218 22.3517 21.5797H22.3516Z" fill="white"/>
<path d="M23.7688 8.58167L21.6181 6.09043C21.3755 5.80968 20.9514 5.77801 20.6707 6.0206C20.39 6.2632 20.3583 6.68766 20.6009 6.96869L21.1787 7.63796C14.0904 7.1139 7.83026 12.3706 7.15393 19.4789C7.11889 19.8485 7.3898 20.1763 7.75934 20.212C7.78093 20.2139 7.80229 20.2147 7.82389 20.2147C8.16654 20.2147 8.45881 19.9541 8.49241 19.6066C9.10382 13.1726 14.8116 8.42846 21.2388 8.99114L20.3997 9.71532C20.119 9.95792 20.088 10.3819 20.3306 10.6627C20.4636 10.8165 20.6512 10.8959 20.8393 10.8959C20.9953 10.8959 21.1517 10.8422 21.278 10.7327L23.7688 8.58167Z" fill="white"/>
<path d="M14.1686 29.7479C15.5131 29.0753 16.4388 27.6837 16.4388 26.0809C16.4388 23.8207 14.5998 21.9824 12.3403 21.9824C10.0802 21.9824 8.24189 23.8207 8.24189 26.0809C8.24189 27.684 9.16713 29.0748 10.5114 29.7479C7.50475 30.5555 5.28564 33.304 5.28564 36.5621V37.234H19.3952V36.5621C19.3954 33.3043 17.1753 30.5548 14.1687 29.7479H14.1686Z" fill="white"/>
</svg>
