<svg width="14" height="13" viewBox="0 0 14 13" fill="none" xmlns="http://www.w3.org/2000/svg">
<path d="M6.5 3C6.5 4.10244 5.60244 5 4.5 5C3.39756 5 2.5 4.10244 2.5 3C2.5 1.89756 3.39756 1 4.5 1C5.60244 1 6.5 1.89756 6.5 3Z" stroke="#2F3443" stroke-opacity="0.9"/>
<path d="M7.24954 7.33223C7.30469 7.37196 7.35188 7.40747 7.39402 7.44068L7.40609 7.45027C8.34584 8.19765 8.87493 9.27835 8.87493 10.4125V11.3417C8.87493 11.8763 8.47583 12.3718 7.86683 12.4998H1.5081C0.899171 12.3718 0.5 11.8763 0.5 11.3417V10.4125C0.5 9.23005 1.06553 8.12068 2.0726 7.3704L2.07269 7.37033C2.81995 6.81336 3.72201 6.51709 4.68746 6.51709C5.62761 6.51709 6.5116 6.80012 7.24938 7.33211L7.24954 7.33223Z" stroke="#2F3443" stroke-opacity="0.9"/>
<path d="M9.39868 2.83602V2.83594C9.39868 2.00934 10.072 1.33594 10.8987 1.33594C11.7253 1.33594 12.3987 2.00922 12.3987 2.83594C12.3987 3.66253 11.7254 4.33594 10.8987 4.33594C10.0719 4.33594 9.39855 3.66248 9.39868 2.83602Z" stroke="#2F3443" stroke-opacity="0.9"/>
<path d="M10.2926 9.99163C10.1879 8.74609 9.62188 7.58386 8.70097 6.69888C9.22104 6.2575 9.90682 6.00149 10.635 6.00149C12.2452 6.00149 13.5001 7.22296 13.5001 8.65691V9.3356C13.5001 9.62548 13.286 9.90973 12.9358 9.99163H10.2926Z" stroke="#2F3443" stroke-opacity="0.9"/>
</svg>
