<svg width="16" height="16" viewBox="0 0 16 16" fill="none" xmlns="http://www.w3.org/2000/svg">
<g clip-path="url(#clip0_107_10)">
<path d="M14.2064 7.02637H11.576C11.4809 7.02639 11.3896 7.06488 11.3224 7.13336C11.2551 7.20185 11.2173 7.29473 11.2173 7.39158H4.76077C4.76075 7.29473 4.72295 7.20185 4.65569 7.13336C4.58842 7.06488 4.4972 7.02639 4.40208 7.02637H1.77164C1.48634 7.02668 1.21282 7.14222 1.01108 7.34763C0.80934 7.55303 0.695867 7.83153 0.695557 8.12202V14.4525C0.695867 14.7429 0.80934 15.0214 1.01108 15.2268C1.21282 15.4323 1.48634 15.5478 1.77164 15.5481H4.40208C4.4972 15.5481 4.58842 15.5096 4.65569 15.4411C4.72295 15.3726 4.76075 15.2797 4.76077 15.1829H11.2173C11.2173 15.2797 11.2551 15.3726 11.3224 15.4411C11.3896 15.5096 11.4809 15.5481 11.576 15.5481H14.2064C14.4917 15.5478 14.7653 15.4323 14.967 15.2268C15.1687 15.0214 15.2822 14.7429 15.2825 14.4525V8.12202C15.2822 7.83153 15.1687 7.55303 14.967 7.34763C14.7653 7.14222 14.4917 7.02668 14.2064 7.02637ZM4.04338 14.8177H1.77164C1.67654 14.8176 1.58537 14.7791 1.51812 14.7106C1.45088 14.6421 1.41305 14.5493 1.41295 14.4525V11.6525H4.04338V14.8177ZM4.04338 10.922H1.41295V8.12202C1.41305 8.02519 1.45088 7.93236 1.51812 7.86389C1.58537 7.79542 1.67654 7.75691 1.77164 7.7568H4.04338V10.922ZM8.70643 11.6525H7.27164C7.17742 11.6511 7.08752 11.612 7.02138 11.5436C6.95523 11.4753 6.91816 11.3832 6.91816 11.2872C6.91816 11.1913 6.95524 11.0992 7.02139 11.0308C7.08754 10.9625 7.17744 10.9234 7.27166 10.922H8.70643C8.80065 10.9234 8.89055 10.9625 8.9567 11.0309C9.02284 11.0992 9.05992 11.1913 9.05992 11.2872C9.05992 11.3832 9.02284 11.4753 8.9567 11.5436C8.89055 11.612 8.80065 11.6511 8.70643 11.6525ZM11.2173 9.70463H4.76077V8.97419H11.2173V9.70463ZM14.5651 14.4525C14.565 14.5493 14.5272 14.6421 14.4599 14.7106C14.3927 14.7791 14.3015 14.8176 14.2064 14.8177H11.9347V11.6525H14.5651V14.4525ZM14.5651 10.922H11.9347V7.7568H14.2064C14.3015 7.75691 14.3927 7.79542 14.4599 7.86389C14.5272 7.93236 14.565 8.02519 14.5651 8.12202V10.922Z" fill="#2F3443" fill-opacity="0.9"/>
<path d="M7.98907 2.15667C8.08419 2.15665 8.17541 2.11816 8.24268 2.04967C8.30994 1.98119 8.34774 1.88831 8.34776 1.79145V1.06102C8.34776 0.964156 8.30997 0.871262 8.2427 0.80277C8.17543 0.734279 8.0842 0.695801 7.98907 0.695801C7.89393 0.695801 7.8027 0.734279 7.73543 0.80277C7.66816 0.871262 7.63037 0.964156 7.63037 1.06102V1.79145C7.6304 1.88831 7.66819 1.98119 7.73546 2.04967C7.80272 2.11816 7.89394 2.15665 7.98907 2.15667Z" fill="#2F3443" fill-opacity="0.9"/>
<path d="M6.07598 2.15667C6.17111 2.15665 6.26233 2.11816 6.32959 2.04967C6.39685 1.98119 6.43465 1.88831 6.43468 1.79145V1.06102C6.43468 0.964156 6.39689 0.871262 6.32962 0.80277C6.26235 0.734279 6.17111 0.695801 6.07598 0.695801C5.98085 0.695801 5.88961 0.734279 5.82234 0.80277C5.75508 0.871262 5.71729 0.964156 5.71729 1.06102V1.79145C5.71731 1.88831 5.75511 1.98119 5.82237 2.04967C5.88963 2.11816 5.98086 2.15665 6.07598 2.15667Z" fill="#2F3443" fill-opacity="0.9"/>
<path d="M9.90215 2.15667C9.99728 2.15665 10.0885 2.11816 10.1558 2.04967C10.223 1.98119 10.2608 1.88831 10.2608 1.79145V1.06102C10.2608 0.964156 10.2231 0.871262 10.1558 0.80277C10.0885 0.734279 9.99728 0.695801 9.90215 0.695801C9.80702 0.695801 9.71578 0.734279 9.64852 0.80277C9.58125 0.871262 9.54346 0.964156 9.54346 1.06102V1.79145C9.54348 1.88831 9.58128 1.98119 9.64854 2.04967C9.71581 2.11816 9.80703 2.15665 9.90215 2.15667Z" fill="#2F3443" fill-opacity="0.9"/>
<path d="M12.7717 1.91354H13.3695V3.08142C13.1639 3.16616 12.9936 3.32108 12.8879 3.51963C12.7821 3.71818 12.7475 3.94799 12.7899 4.1697C12.8323 4.3914 12.9491 4.59119 13.1203 4.73483C13.2915 4.87847 13.5064 4.95702 13.7282 4.95702C13.9501 4.95702 14.165 4.87847 14.3362 4.73483C14.5074 4.59119 14.6242 4.3914 14.6666 4.1697C14.709 3.94799 14.6743 3.71818 14.5686 3.51963C14.4628 3.32108 14.2926 3.16616 14.0869 3.08142V1.91354H14.6848C14.779 1.91214 14.8689 1.87304 14.935 1.8047C15.0012 1.73636 15.0382 1.64426 15.0382 1.54831C15.0382 1.45237 15.0012 1.36027 14.935 1.29193C14.8689 1.2236 14.779 1.1845 14.6847 1.18311H12.7717C12.6775 1.18451 12.5876 1.2236 12.5214 1.29194C12.4553 1.36028 12.4182 1.45237 12.4182 1.54832C12.4182 1.64427 12.4553 1.73637 12.5214 1.80471C12.5876 1.87304 12.6775 1.91214 12.7717 1.91354Z" fill="#2F3443" fill-opacity="0.9"/>
<path d="M13.25 8.85254C13.1244 8.85444 13.0046 8.90658 12.9164 8.9977C12.8282 9.08882 12.7788 9.21159 12.7788 9.33951C12.7788 9.46742 12.8282 9.59019 12.9164 9.68131C13.0046 9.77242 13.1244 9.82456 13.25 9.82645C13.3757 9.82455 13.4955 9.77241 13.5837 9.68129C13.6718 9.59017 13.7213 9.4674 13.7212 9.33948C13.7212 9.21157 13.6718 9.0888 13.5836 8.99768C13.4955 8.90657 13.3756 8.85443 13.25 8.85254Z" fill="#2F3443" fill-opacity="0.9"/>
<path d="M13.2498 13.722C13.3754 13.7201 13.4952 13.6679 13.5834 13.5768C13.6716 13.4857 13.721 13.3629 13.721 13.235C13.721 13.1071 13.6716 12.9843 13.5834 12.8932C13.4952 12.8021 13.3754 12.7499 13.2498 12.748C13.1242 12.7499 13.0043 12.8021 12.9162 12.8932C12.828 12.9843 12.7786 13.1071 12.7786 13.235C12.7786 13.3629 12.828 13.4857 12.9162 13.5768C13.0043 13.6679 13.1242 13.7201 13.2498 13.722Z" fill="#2F3443" fill-opacity="0.9"/>
<path d="M2.48905 9.82645C2.61467 9.82455 2.7345 9.77241 2.82267 9.68129C2.91084 9.59017 2.96026 9.4674 2.96026 9.33948C2.96026 9.21157 2.91083 9.0888 2.82266 8.99768C2.73448 8.90657 2.61465 8.85443 2.48903 8.85254C2.36342 8.85444 2.24358 8.90658 2.15541 8.9977C2.06724 9.08882 2.01782 9.21159 2.01782 9.33951C2.01783 9.46742 2.06725 9.59019 2.15543 9.68131C2.2436 9.77242 2.36344 9.82456 2.48905 9.82645Z" fill="#2F3443" fill-opacity="0.9"/>
<path d="M2.48905 13.722C2.61467 13.7201 2.7345 13.6679 2.82267 13.5768C2.91084 13.4857 2.96026 13.3629 2.96026 13.235C2.96026 13.1071 2.91083 12.9843 2.82266 12.8932C2.73448 12.8021 2.61465 12.7499 2.48903 12.748C2.36342 12.7499 2.24358 12.8021 2.15541 12.8932C2.06724 12.9843 2.01782 13.1071 2.01782 13.235C2.01783 13.3629 2.06725 13.4857 2.15543 13.5768C2.2436 13.6679 2.36344 13.7201 2.48905 13.722Z" fill="#2F3443" fill-opacity="0.9"/>
<path d="M4.88035 4.59157H5.59774V5.68722C5.59774 6.07467 5.74891 6.44625 6.01798 6.72021C6.28705 6.99418 6.652 7.14809 7.03252 7.14809H8.94557C9.3261 7.14809 9.69104 6.99418 9.96011 6.72021C10.2292 6.44625 10.3803 6.07467 10.3803 5.68722V4.59157H11.0977C11.1929 4.59157 11.2841 4.55309 11.3514 4.4846C11.4186 4.41611 11.4564 4.32322 11.4564 4.22635C11.4564 4.12949 11.4186 4.0366 11.3514 3.96811C11.2841 3.89962 11.1929 3.86114 11.0977 3.86114H10.3803V3.49592C10.3803 3.43135 10.3552 3.36942 10.3103 3.32375C10.2655 3.27809 10.2046 3.25244 10.1412 3.25244H9.06513V3.98288C9.06513 4.07974 9.02734 4.17263 8.96007 4.24112C8.8928 4.30962 8.80157 4.34809 8.70644 4.34809C8.6113 4.34809 8.52007 4.30962 8.4528 4.24112C8.38553 4.17263 8.34774 4.07974 8.34774 3.98288V3.25244H5.83687C5.77345 3.25244 5.71263 3.27809 5.66778 3.32375C5.62294 3.36942 5.59774 3.43135 5.59774 3.49592V3.86114H4.88035C4.78613 3.86254 4.69623 3.90163 4.63008 3.96997C4.56394 4.03831 4.52686 4.13041 4.52686 4.22635C4.52686 4.3223 4.56394 4.4144 4.63008 4.48274C4.69623 4.55108 4.78613 4.59017 4.88035 4.59157Z" fill="#2F3443" fill-opacity="0.9"/>
</g>
<defs>
<clipPath id="clip0_107_10">
<rect width="16" height="16" fill="white"/>
</clipPath>
</defs>
</svg>
